<svg width="60" height="256" viewBox="0 0 60 256" fill="none" xmlns="http://www.w3.org/2000/svg">
<g clip-path="url(#clip0)">
<path d="M56.1479 41.636L53.7599 41.916L53.2219 37.329C53.166 36.849 53.0078 36.3866 52.7579 35.973C55.1606 35.8485 57.0402 33.856 57.0248 31.4502C57.0093 29.0443 55.1042 27.0762 52.7001 26.9825C50.2961 26.8888 48.2435 28.7027 48.0409 31.1L45.0229 28.087C43.6757 26.746 41.4981 26.746 40.1509 28.087L37.5359 30.687C36.884 31.3337 36.5174 32.2138 36.5174 33.132C36.5174 34.0502 36.884 34.9304 37.5359 35.577C38.8904 36.9121 41.0667 36.9094 42.4179 35.571L42.5809 35.408L43.7669 36.595L27.9999 52.374C27.0193 53.3614 26.7263 54.8404 27.2564 56.127C27.7865 57.4137 29.0364 58.257 30.4279 58.267H30.4389C31.3578 58.2674 32.2388 57.9005 32.8859 57.248L38.2459 51.888L39.4319 53.075L38.4069 54.1C37.094 55.4553 37.1112 57.6132 38.4456 58.9473C39.78 60.2814 41.9379 60.2982 43.2929 58.985L46.7649 55.514C48.112 54.1635 48.112 51.9775 46.7649 50.627L43.1299 47.007L46.9489 43.188L47.2959 46.136C47.3992 47.0451 47.8601 47.8757 48.5768 48.4443C49.2935 49.013 50.2071 49.2731 51.1159 49.167L56.9579 48.492C58.6922 48.2864 59.9989 46.8165 59.9999 45.07C60.0021 44.9324 59.9958 44.7948 59.9809 44.658C59.7519 42.7679 58.0393 41.4176 56.1479 41.636ZM50.7319 29.736C51.7083 28.7599 53.291 28.76 54.2673 29.7363C55.2435 30.7126 55.2435 32.2954 54.2673 33.2717C53.291 34.248 51.7083 34.2481 50.7319 33.272C50.2602 32.8038 49.9949 32.1667 49.9949 31.502C49.9949 30.8374 50.2602 30.2003 50.7319 29.732V29.736ZM56.7259 46.51L50.8829 47.185C50.5021 47.2306 50.1189 47.1227 49.8179 46.885C49.5169 46.6482 49.3243 46.2999 49.2839 45.919L48.8409 42.162C48.7697 41.5479 48.3532 41.0286 47.7692 40.8258C47.1851 40.6229 46.5365 40.7722 46.0999 41.21L41.0079 46.3C40.8201 46.4876 40.7146 46.7421 40.7146 47.0075C40.7146 47.2729 40.8201 47.5275 41.0079 47.715L45.3499 52.045C45.915 52.6146 45.915 53.5334 45.3499 54.103L41.8769 57.574C41.3012 58.1232 40.3956 58.1232 39.8199 57.574C39.2624 57.0017 39.2624 56.0894 39.8199 55.517L41.1199 54.217C41.4254 53.9151 41.5973 53.5035 41.5973 53.074C41.5973 52.6445 41.4254 52.2329 41.1199 51.931L39.3919 50.2C39.091 49.8931 38.6792 49.7202 38.2494 49.7202C37.8196 49.7202 37.4078 49.8931 37.1069 50.2L31.4759 55.83C31.2027 56.1089 30.8283 56.2654 30.4379 56.264C29.8542 56.2563 29.3315 55.901 29.1096 55.3611C28.8877 54.8212 29.0094 54.201 29.4189 53.785L45.4639 37.73C46.0879 37.1008 46.0879 36.0862 45.4639 35.457L43.7219 33.714C43.0936 33.0879 42.0772 33.0879 41.4489 33.714L41.0079 34.155C40.4373 34.7168 39.5215 34.7168 38.9509 34.155C38.6758 33.8837 38.521 33.5134 38.521 33.127C38.521 32.7406 38.6758 32.3704 38.9509 32.099L41.5649 29.499C42.1299 28.9342 43.0458 28.9342 43.6109 29.499L50.8239 36.699C51.0562 36.9286 51.2021 37.2313 51.2369 37.556L51.8599 42.867C51.8919 43.1998 52.0558 43.5059 52.3152 43.717C52.5745 43.928 52.9075 44.0263 53.2399 43.99L56.3809 43.622C56.7651 43.5767 57.1515 43.6859 57.4552 43.9256C57.7588 44.1653 57.9548 44.5158 57.9999 44.9C58.0029 44.957 58.0029 45.0141 57.9999 45.071C57.9986 45.8025 57.452 46.4181 56.7259 46.506V46.51Z" fill="white"/>
<path d="M1.94593 23.3462C1.39365 23.3489 0.943692 22.9035 0.940931 22.3512C0.938169 21.7989 1.38365 21.3489 1.93593 21.3462H1.94593C2.49822 21.3462 2.94593 21.7939 2.94593 22.3462C2.94593 22.8985 2.49822 23.3462 1.94593 23.3462Z" fill="white"/>
<path d="M4.95955 49.846C4.37261 50.3542 4.13274 51.156 4.34422 51.903C4.55571 52.6499 5.18035 53.207 5.94655 53.332L14.4075 54.713L15.6435 54.853C15.7192 54.8619 15.7954 54.8662 15.8715 54.866C16.4396 54.8649 16.9804 54.6223 17.3589 54.1988C17.7375 53.7752 17.918 53.2107 17.8555 52.646C17.848 52.5745 17.8326 52.5041 17.8095 52.436C17.7815 51.973 17.7045 51.275 17.5835 50.19L16.7835 42.959C16.6983 42.1957 16.1833 41.5486 15.4586 41.2941C14.7339 41.0396 13.9274 41.2226 13.3835 41.765L11.7925 43.355C8.16082 38.7541 6.48416 32.9095 7.12455 27.083C8.22339 16.9242 16.0297 8.78144 26.1331 7.2551C36.2365 5.72877 46.0998 11.2022 50.1506 20.583C50.6972 21.8687 51.952 22.7099 53.3489 22.7272C54.7459 22.7446 56.0212 21.9348 56.5996 20.663C56.9933 19.7942 57.0056 18.8003 56.6336 17.922C51.6175 6.17941 39.6194 -1.00634 26.8995 0.11403C24.2336 0.375131 21.6122 0.977386 19.0995 1.90603C16.5993 2.86109 14.2401 4.15085 12.0865 5.74003C9.91809 7.31251 7.98351 9.18447 6.34055 11.3C4.66912 13.3927 3.30038 15.7101 2.27455 18.184C2.16164 18.4299 2.15687 18.7117 2.26138 18.9612C2.3659 19.2107 2.57015 19.4051 2.82455 19.497C3.33265 19.6831 3.89846 19.4476 4.12455 18.956C5.08011 16.6494 6.35635 14.4891 7.91555 12.539C9.4477 10.5656 11.2528 8.82009 13.2765 7.35503C15.2849 5.87228 17.4853 4.66928 19.8175 3.77903C22.1577 2.916 24.5984 2.35481 27.0805 2.10903C38.938 1.06481 50.1227 7.76293 54.7996 18.709C54.9542 19.0712 54.9477 19.482 54.7816 19.839C54.5293 20.3889 53.9754 20.7374 53.3705 20.7267C52.7656 20.7161 52.2244 20.3484 51.9916 19.79C48.17 10.9333 39.506 5.14428 29.861 5.00318C20.216 4.86208 11.3863 10.3951 7.30732 19.1363C3.22834 27.8775 4.65974 38.1988 10.9635 45.5C11.1454 45.7099 11.4063 45.8346 11.6837 45.8445C11.9612 45.8544 12.2303 45.7484 12.4265 45.552L14.7995 43.179L15.8725 52.864L14.6855 52.731L6.26955 51.357L8.83455 49.136C9.03667 48.961 9.16027 48.7123 9.17775 48.4455C9.19522 48.1786 9.10511 47.916 8.92755 47.716C3.72528 41.9031 1.26606 34.138 2.17355 26.39C2.23457 25.8411 1.83902 25.3466 1.29005 25.2855C0.741075 25.2245 0.246574 25.6201 0.185546 26.169C-0.747326 34.1299 1.63461 42.124 6.77255 48.276L4.95955 49.846Z" fill="white"/>
<path d="M31.9768 11.023C30.9757 10.0202 29.4688 9.71989 28.1598 10.2624C26.8508 10.8049 25.998 12.083 25.9998 13.5V25.261C25.7305 25.4833 25.483 25.7307 25.2608 26H17.4998C15.5668 26 13.9998 27.567 13.9998 29.5C13.9998 31.433 15.5668 33 17.4998 33H25.2608C26.5875 34.624 28.7224 35.3523 30.765 34.8776C32.8077 34.4029 34.4027 32.8079 34.8773 30.7653C35.352 28.7226 34.6238 26.5878 32.9998 25.261V13.5C33.0034 12.5708 32.635 11.6788 31.9768 11.023ZM27.9998 13.5C27.9998 12.6716 28.6713 12 29.4998 12C30.3282 12 30.9998 12.6716 30.9998 13.5V24.213C30.0199 23.929 28.9796 23.929 27.9998 24.213V13.5ZM17.4998 31C16.6713 31 15.9998 30.3284 15.9998 29.5C15.9998 28.6716 16.6713 28 17.4998 28H24.2128C23.9287 28.9798 23.9287 30.0202 24.2128 31H17.4998ZM29.4998 33C27.5668 33 25.9998 31.433 25.9998 29.5C25.9998 27.567 27.5668 26 29.4998 26C31.4328 26 32.9998 27.567 32.9998 29.5C32.9998 31.433 31.4328 33 29.4998 33Z" fill="white"/>
<path d="M37 39C37 38.4477 36.5523 38 36 38H24C23.4477 38 23 38.4477 23 39C23 39.5523 23.4477 40 24 40H36C36.5523 40 37 39.5523 37 39Z" fill="white"/>
<path d="M32 44C32 43.4477 31.5523 43 31 43H20C19.4477 43 19 43.4477 19 44C19 44.5523 19.4477 45 20 45H31C31.5523 45 32 44.5523 32 44Z" fill="white"/>
<path d="M26 48H21C20.4477 48 20 48.4477 20 49C20 49.5523 20.4477 50 21 50H26C26.5523 50 27 49.5523 27 49C27 48.4477 26.5523 48 26 48Z" fill="white"/>
</g>
<path d="M37.6366 151.002H51.8911C52.4535 151.002 52.9093 150.554 52.9093 150.002C52.9093 149.45 52.4535 149.002 51.8911 149.002H37.6366C37.0743 149.002 36.6184 149.45 36.6184 150.002C36.6184 150.554 37.0743 151.002 37.6366 151.002Z" fill="white"/>
<path d="M3.52722 110.032C2.96489 110.035 2.50653 109.59 2.50343 109.037C2.50034 108.485 2.95369 108.035 3.51602 108.032H3.52722C4.08954 108.032 4.5454 108.479 4.5454 109.032C4.5454 109.584 4.08954 110.032 3.52722 110.032Z" fill="white"/>
<path d="M14.8291 135.288C13.3152 135.95 12.297 137.378 12.1818 139.002C12.1818 141.802 15.7597 144.002 20.3273 144.002C24.8948 144.002 28.4727 141.802 28.4727 139.002C28.3569 137.373 27.3339 135.941 25.8143 135.28C27.8736 133.597 29.7848 131.748 31.5273 129.75V150.002C31.5306 152.762 33.8079 154.999 36.6182 155.002H52.9091C55.7193 154.999 57.9966 152.762 58 150.002V120.001C57.9955 117.279 55.7736 115.06 53.0017 115.01H52.9529C52.9376 115.01 52.9244 115.01 52.9091 115.01H38.5395C38.6125 114.343 38.6509 113.672 38.6545 113.001C38.6635 106.484 35.0799 100.472 29.2889 97.2903C23.4979 94.1081 16.4068 94.2538 10.7564 97.6711C10.04 98.1019 9.35172 98.5761 8.69556 99.0911C8.05421 99.6236 7.44721 100.195 6.87811 100.801C5.73037 102.008 4.76263 103.369 4.00378 104.842C3.87169 105.081 3.84679 105.363 3.93506 105.621C4.02332 105.879 4.21679 106.089 4.46909 106.201C4.96928 106.423 5.55925 106.227 5.81818 105.751C6.49183 104.44 7.35236 103.23 8.37382 102.157C8.87969 101.618 9.41899 101.11 9.98865 100.636C10.5727 100.179 11.1847 99.7582 11.8214 99.3751C16.8435 96.3365 23.147 96.2064 28.2947 99.0351C33.4423 101.864 36.6273 107.208 36.6182 113.001C36.6137 113.674 36.5705 114.346 36.4889 115.014C33.733 115.083 31.5336 117.294 31.5273 120.001V126.537C28.391 130.541 24.6075 134.012 20.3273 136.814C17.4764 134.961 4.03636 125.558 4.03636 113.001C4.03636 112.449 3.58051 112.001 3.01818 112.001C2.45586 112.001 2 112.449 2 113.001C2 123.053 9.55185 130.978 14.8291 135.288ZM51.2617 117.001L50.5245 118.448C50.3533 118.788 50.0002 119.003 49.6143 119.001H39.913C39.5271 119.003 39.174 118.788 39.0028 118.448L38.2656 117.001H51.2617ZM33.5636 120.001C33.564 118.572 34.5919 117.341 36.0195 117.06L37.1812 119.343C37.6956 120.362 38.7551 121.005 39.913 121.001H49.6143C50.7722 121.005 51.8317 120.362 52.346 119.343L53.5078 117.06C54.9354 117.341 55.9632 118.572 55.9636 120.001V150.002C55.9636 151.659 54.5961 153.002 52.9091 153.002H36.6182C34.9312 153.002 33.5636 151.659 33.5636 150.002V120.001ZM20.3273 139.002C20.5131 139.002 20.6954 138.952 20.8547 138.858C20.9769 138.785 22.2486 138.018 24.0528 136.665C25.5139 137.244 26.4364 138.13 26.4364 139.002C26.4364 140.421 23.9276 142.002 20.3273 142.002C16.727 142.002 14.2182 140.421 14.2182 139.002C14.2182 138.133 15.1345 137.249 16.5916 136.669C18.3561 137.987 19.6145 138.747 19.7999 138.858C19.9591 138.952 20.1414 139.002 20.3273 139.002Z" fill="white"/>
<path d="M31.5274 113.002C31.5274 106.926 26.513 102.001 20.3274 102.001C14.1419 102.001 9.12744 106.926 9.12744 113.002C9.12744 119.077 14.1419 124.002 20.3274 124.002C26.51 123.995 31.5201 119.074 31.5274 113.002ZM11.1638 113.002C11.1638 108.031 15.2665 104.001 20.3274 104.001C25.3884 104.001 29.4911 108.031 29.4911 113.002C29.4911 117.972 25.3884 122.002 20.3274 122.002C15.2691 121.996 11.17 117.97 11.1638 113.002Z" fill="white"/>
<path d="M37.9346 139.295C37.6699 139.546 37.5638 139.918 37.657 140.267C37.7501 140.617 38.0282 140.89 38.3841 140.982C38.7401 141.073 39.1187 140.969 39.3743 140.709L39.7735 140.317C42.7066 142.562 46.8185 142.562 49.7516 140.317L50.1508 140.709C50.5503 141.088 51.1853 141.082 51.5781 140.697C51.9708 140.311 51.9764 139.687 51.5905 139.295L51.1914 138.903C53.4778 136.022 53.4778 131.983 51.1914 129.103L51.5905 128.711C51.9764 128.318 51.9708 127.695 51.5781 127.309C51.1853 126.923 50.5503 126.918 50.1508 127.297L49.7516 127.689C46.8185 125.443 42.7066 125.443 39.7735 127.689L39.3743 127.297C38.9748 126.918 38.3398 126.923 37.947 127.309C37.5543 127.695 37.5488 128.318 37.9346 128.711L38.3338 129.103C36.0473 131.983 36.0473 136.022 38.3338 138.903L37.9346 139.295ZM38.6545 134.002C38.6526 132.756 39.049 131.541 39.7877 130.529L39.971 130.709C40.3705 131.088 41.0055 131.082 41.3983 130.696C41.791 130.311 41.7966 129.687 41.4107 129.295L41.2274 129.115C43.3427 127.631 46.1844 127.631 48.2997 129.115L48.1164 129.295C47.8518 129.546 47.7456 129.918 47.8388 130.267C47.932 130.617 48.21 130.89 48.566 130.981C48.922 131.073 49.3005 130.969 49.5562 130.709L49.7394 130.529C51.2504 132.606 51.2504 135.397 49.7394 137.475L49.5562 137.295C49.1566 136.916 48.5216 136.921 48.1288 137.307C47.7361 137.693 47.7306 138.316 48.1164 138.709L48.2997 138.889C46.1844 140.373 43.3427 140.373 41.2274 138.889L41.4107 138.709C41.7966 138.316 41.791 137.693 41.3983 137.307C41.0055 136.921 40.3705 136.916 39.971 137.295L39.7877 137.475C39.049 136.462 38.6526 135.247 38.6545 134.002Z" fill="white"/>
<path d="M44.7635 135.002C45.3259 135.002 45.7817 134.554 45.7817 134.002C45.7817 133.45 45.3259 133.002 44.7635 133.002C44.2012 133.002 43.7454 133.45 43.7454 134.002C43.7454 134.554 44.2012 135.002 44.7635 135.002Z" fill="white"/>
<path d="M53 202H49V204H53C54.6567 204 56 205.343 56 207V234H4V207C4 205.343 5.34326 204 7 204H11V202H7C4.23975 202.003 2.00342 204.24 2 207V239C2.00342 241.76 4.23975 243.997 7 244H21.8672L21.1172 250H20C19.4478 250 19 250.448 19 251V254H15V256H45V254H41V251C41 250.448 40.5522 250 40 250H38.8828L38.1328 244H53C55.7603 243.997 57.9966 241.76 58 239V207C57.9966 204.24 55.7603 202.003 53 202ZM39 254H21V252H39V254ZM36.8672 250H23.1328L23.8828 244H36.1172L36.8672 250ZM53 242H7C5.34326 242 4 240.657 4 239V236H56V239C56 240.657 54.6567 242 53 242Z" fill="white"/>
<path d="M52 238H54V240H52V238Z" fill="white"/>
<path d="M16 229H44C45.6567 229 47 227.657 47 226V202C47 200.343 45.6567 199 44 199H40C40 197.343 38.6567 196 37 196C35.3433 196 34 197.343 34 199H26C26 197.343 24.6567 196 23 196C21.3433 196 20 197.343 20 199H16C14.3433 199 13 200.343 13 202V226C13 227.657 14.3433 229 16 229ZM44 227H16C15.4478 227 15 226.552 15 226V207H45V226C45 226.552 44.5522 227 44 227ZM36 199C36 198.448 36.4478 198 37 198C37.5522 198 38 198.448 38 199V201C38 201.552 37.5522 202 37 202C36.4478 202 36 201.552 36 201V199ZM22 199C22 198.448 22.4478 198 23 198C23.5522 198 24 198.448 24 199V201C24 201.552 23.5522 202 23 202C22.4478 202 22 201.552 22 201V199ZM16 201H20C20 202.657 21.3433 204 23 204C24.6567 204 26 202.657 26 201H34C34 202.657 35.3433 204 37 204C38.6567 204 40 202.657 40 201H44C44.5522 201 45 201.448 45 202V205H15V202C15 201.448 15.4478 201 16 201Z" fill="white"/>
<path d="M23 210H21C19.8955 210 19 210.895 19 212V214C19 215.105 19.8955 216 21 216H23C24.1045 216 25 215.105 25 214V212C25 210.895 24.1045 210 23 210ZM21 214V212H23V214H21Z" fill="white"/>
<path d="M31 210H29C27.8955 210 27 210.895 27 212V214C27 215.105 27.8955 216 29 216H31C32.1045 216 33 215.105 33 214V212C33 210.895 32.1045 210 31 210ZM29 214V212H31V214H29Z" fill="white"/>
<path d="M39 210H37C35.8955 210 35 210.895 35 212V214C35 215.105 35.8955 216 37 216H39C40.1045 216 41 215.105 41 214V212C41 210.895 40.1045 210 39 210ZM37 214V212H39V214H37Z" fill="white"/>
<path d="M31 218H29C27.8955 218 27 218.895 27 220V222C27 223.105 27.8955 224 29 224H31C32.1045 224 33 223.105 33 222V220C33 218.895 32.1045 218 31 218ZM29 222V220H31V222H29Z" fill="white"/>
<path d="M23 218H21C19.8955 218 19 218.895 19 220V222C19 223.105 19.8955 224 21 224H23C24.1045 224 25 223.105 25 222V220C25 218.895 24.1045 218 23 218ZM21 222V220H23V222H21Z" fill="white"/>
<path d="M39 218H37C35.8955 218 35 218.895 35 220V222C35 223.105 35.8955 224 37 224H39C40.1045 224 41 223.105 41 222V220C41 218.895 40.1045 218 39 218ZM37 222V220H39V222H37Z" fill="white"/>
<defs>
<clipPath id="clip0">
<rect width="60" height="60" fill="white"/>
</clipPath>
</defs>
</svg>
