<svg width="41" height="40" viewBox="0 0 41 40" fill="none" xmlns="http://www.w3.org/2000/svg">
<g clip-path="url(#clip0)">
<path d="M39.7175 19.7334C38.3466 18.6312 36.1799 18.5367 34.7578 20.0256L31.2273 23.7231C30.7709 22.2919 29.4008 21.2498 27.7858 21.2498H21.4857C21.0076 21.2498 20.8475 21.0717 20.0171 20.4475C16.851 17.7547 12.0955 17.7633 8.93896 20.4733L6.62326 22.4622C5.58233 21.9247 4.36682 21.9114 3.3202 22.4216L0.664169 23.7168C0.0707897 24.0067 -0.169365 24.7105 0.126844 25.2894L7.33348 39.351C7.63057 39.9299 8.35199 40.1642 8.94537 39.8752L11.6014 38.5792C12.9106 37.941 13.6392 36.6379 13.592 35.3115H27.7857C30.4178 35.3115 32.9328 34.085 34.5119 32.0305L40.278 24.5294C41.3966 23.0755 41.2197 20.9435 39.7175 19.7334ZM10.5267 36.4832L8.94529 37.255L2.8125 25.2894L4.39477 24.5176C4.98815 24.2285 5.70877 24.4621 6.00586 25.0418L11.0641 34.9115C11.3604 35.4903 11.1201 36.1934 10.5267 36.4832ZM38.3562 23.1231L32.5902 30.6242C31.462 32.0921 29.6659 32.9678 27.7858 32.9678H12.7536L8.25269 24.1848L10.5259 22.2326C12.788 20.2913 16.1992 20.2913 18.4612 22.2326C19.7936 23.377 20.6224 23.5934 21.4856 23.5934H27.7857C28.448 23.5934 28.9868 24.1192 28.9868 24.7652C28.9868 25.4113 28.4479 25.937 27.7857 25.937H21.6514C20.9883 25.937 20.4503 26.462 20.4503 27.1088C20.4503 27.7556 20.9884 28.2806 21.6514 28.2806H28.5905C29.5874 28.2806 30.5484 27.8728 31.2273 27.1612L36.5154 21.6232C36.9991 21.117 37.7405 21.1592 38.1953 21.5474C38.6709 21.9536 38.7223 22.6481 38.3562 23.1231Z" fill="white"/>
<path d="M25.2549 7.99738C26.0773 7.15605 26.5842 6.01863 26.5842 4.76629C26.5842 2.18676 24.4478 0.000976562 21.7798 0.000976562C19.1318 0.000976562 16.8953 2.18285 16.8953 4.76629C16.8953 5.98027 17.383 7.12629 18.2686 8.00676C16.0722 9.20824 14.4932 11.5143 14.4932 14.2189V15.3907C14.4932 16.0375 15.0313 16.5625 15.6943 16.5625H27.7853C28.4483 16.5625 28.9864 16.0375 28.9864 15.3907V14.2189C28.9863 11.5675 27.4915 9.22543 25.2549 7.99738ZM21.7798 2.34465C23.0818 2.34465 24.182 3.45395 24.182 4.76637C24.182 6.05848 23.1042 7.10996 21.7798 7.10996C20.4346 7.10996 19.2975 6.0366 19.2975 4.76637C19.2975 3.4766 20.4578 2.34465 21.7798 2.34465ZM16.8953 14.2189C16.8953 11.6354 19.1318 9.45356 21.7798 9.45356C24.4286 9.45356 26.5842 11.5909 26.5842 14.2189H16.8953Z" fill="white"/>
</g>
<defs>
<clipPath id="clip0">
<rect width="41" height="40" fill="white"/>
</clipPath>
</defs>
</svg>
