<svg width="188" height="139" viewBox="0 0 188 139" fill="none" xmlns="http://www.w3.org/2000/svg">
<g opacity="0.2">
<path fill-rule="evenodd" clip-rule="evenodd" d="M5.76991 102.727C5.76991 104.183 4.59402 105.364 3.14465 105.364C1.69225 105.364 0.516357 104.183 0.516357 102.727C0.516357 101.268 1.69225 100.089 3.14465 100.089C4.59402 100.089 5.76991 101.268 5.76991 102.727ZM5.76991 135.848C5.76991 137.307 4.59402 138.485 3.14465 138.485C1.69225 138.485 0.516357 137.307 0.516357 135.848C0.516357 134.388 1.69225 133.21 3.14465 133.21C4.59402 133.21 5.76991 134.388 5.76991 135.848ZM5.76991 119.287C5.76991 120.746 4.59402 121.925 3.14465 121.925C1.69225 121.925 0.516357 120.746 0.516357 119.287C0.516357 117.828 1.69225 116.65 3.14465 116.65C4.59402 116.65 5.76991 117.828 5.76991 119.287ZM5.76991 53.0423C5.76991 54.5015 4.59402 55.6799 3.14465 55.6799C1.69225 55.6799 0.516357 54.5015 0.516357 53.0423C0.516357 51.5831 1.69225 50.4048 3.14465 50.4048C4.59402 50.4048 5.76991 51.5831 5.76991 53.0423ZM5.76991 86.1633C5.76991 87.6225 4.59402 88.8008 3.14465 88.8008C1.69225 88.8008 0.516357 87.6225 0.516357 86.1633C0.516357 84.7071 1.69225 83.5257 3.14465 83.5257C4.59402 83.5257 5.76991 84.7071 5.76991 86.1633ZM5.76991 69.6028C5.76991 71.062 4.59402 72.2404 3.14465 72.2404C1.69225 72.2404 0.516357 71.062 0.516357 69.6028C0.516357 68.1436 1.69225 66.9652 3.14465 66.9652C4.59402 66.9652 5.76991 68.1436 5.76991 69.6028ZM5.76991 3.15245C5.76991 4.61166 4.59402 5.79001 3.14465 5.79001C1.69225 5.79001 0.516357 4.61166 0.516357 3.15245C0.516357 1.6963 1.69225 0.514893 3.14465 0.514893C4.59402 0.514893 5.76991 1.6963 5.76991 3.15245ZM5.76991 36.2761C5.76991 37.7353 4.59402 38.9137 3.14465 38.9137C1.69225 38.9137 0.516357 37.7353 0.516357 36.2761C0.516357 34.8169 1.69225 33.6386 3.14465 33.6386C4.59402 33.6386 5.76991 34.8169 5.76991 36.2761ZM5.76991 19.7157C5.76991 21.1718 4.59402 22.3532 3.14465 22.3532C1.69225 22.3532 0.516357 21.1718 0.516357 19.7157C0.516357 18.2565 1.69225 17.0781 3.14465 17.0781C4.59402 17.0781 5.76991 18.2565 5.76991 19.7157ZM22.6388 102.411C22.6388 103.329 22.1733 104.136 21.4671 104.608C20.9942 105.076 20.3445 105.364 19.6279 105.364C18.1755 105.364 16.9996 104.183 16.9996 102.727C16.9996 101.811 17.4623 101.007 18.1657 100.534C18.6402 100.063 19.2928 99.7732 20.0135 99.7732C21.4629 99.7732 22.6388 100.952 22.6388 102.411ZM22.2532 135.848C22.2532 137.307 21.0773 138.485 19.6279 138.485C18.1755 138.485 16.9996 137.307 16.9996 135.848C16.9996 134.388 18.1755 133.21 19.6279 133.21C21.0773 133.21 22.2532 134.388 22.2532 135.848ZM22.6388 118.971C22.6388 119.891 22.1719 120.7 21.464 121.173C20.9904 121.638 20.3424 121.925 19.6279 121.925C18.1755 121.925 16.9996 120.746 16.9996 119.287C16.9996 118.37 17.4641 117.564 18.1699 117.091C18.643 116.623 19.2944 116.334 20.0135 116.334C21.4629 116.334 22.6388 117.515 22.6388 118.971ZM22.2532 3.15245C22.2532 4.61166 21.0773 5.79001 19.6279 5.79001C18.1755 5.79001 16.9996 4.61166 16.9996 3.15245C16.9996 1.6963 18.1755 0.514893 19.6279 0.514893C21.0773 0.514893 22.2532 1.6963 22.2532 3.15245ZM22.2532 36.2761C22.2532 37.7353 21.0773 38.9137 19.6279 38.9137C18.1755 38.9137 16.9996 37.7353 16.9996 36.2761C16.9996 34.8169 18.1755 33.6386 19.6279 33.6386C21.0773 33.6386 22.2532 34.8169 22.2532 36.2761ZM22.2532 19.7157C22.2532 21.1718 21.0773 22.3532 19.6279 22.3532C18.1755 22.3532 16.9996 21.1718 16.9996 19.7157C16.9996 18.2565 18.1755 17.0781 19.6279 17.0781C21.0773 17.0781 22.2532 18.2565 22.2532 19.7157ZM22.2532 53.0423C22.2532 54.5015 21.0773 55.6799 19.6279 55.6799C18.1755 55.6799 16.9996 54.5015 16.9996 53.0423C16.9996 51.5831 18.1755 50.4048 19.6279 50.4048C21.0773 50.4048 22.2532 51.5831 22.2532 53.0423ZM22.6388 85.8503C22.6388 86.7711 22.1705 87.5801 21.4609 88.0517C20.9876 88.5157 20.3408 88.8008 19.6279 88.8008C18.1755 88.8008 16.9996 87.6225 16.9996 86.1633C16.9996 85.2467 17.4655 84.4389 18.173 83.9662C18.6458 83.5004 19.2959 83.2128 20.0135 83.2128C21.4629 83.2128 22.6388 84.3911 22.6388 85.8503ZM22.2532 69.6028C22.2532 71.062 21.0773 72.2404 19.6279 72.2404C18.1755 72.2404 16.9996 71.062 16.9996 69.6028C16.9996 68.1436 18.1755 66.9652 19.6279 66.9652C21.0773 66.9652 22.2532 68.1436 22.2532 69.6028ZM38.7394 3.15245C38.7394 4.61166 37.5605 5.79001 36.1142 5.79001C34.6618 5.79001 33.4859 4.61166 33.4859 3.15245C33.4859 1.6963 34.6618 0.514893 36.1142 0.514893C37.5605 0.514893 38.7394 1.6963 38.7394 3.15245ZM39.125 102.411C39.125 103.329 38.6584 104.136 37.9521 104.608C37.479 105.076 36.8293 105.364 36.1142 105.364C34.6618 105.364 33.4859 104.183 33.4859 102.727C33.4859 101.811 33.9486 101.007 34.652 100.534C35.1264 100.063 35.7791 99.7732 36.4998 99.7732C37.9461 99.7732 39.125 100.952 39.125 102.411ZM39.125 85.8503C39.125 86.7711 38.6556 87.5801 37.9458 88.0517C37.4724 88.5157 36.8256 88.8008 36.1142 88.8008C34.6618 88.8008 33.4859 87.6225 33.4859 86.1633C33.4859 85.2467 33.9518 84.4389 34.6593 83.9662C35.1321 83.5004 35.7822 83.2128 36.4998 83.2128C37.9461 83.2128 39.125 84.3911 39.125 85.8503ZM38.7394 135.848C38.7394 137.307 37.5605 138.485 36.1142 138.485C34.6618 138.485 33.4859 137.307 33.4859 135.848C33.4859 134.388 34.6618 133.21 36.1142 133.21C37.5605 133.21 38.7394 134.388 38.7394 135.848ZM38.7394 36.2761C38.7394 37.7353 37.5605 38.9137 36.1142 38.9137C34.6618 38.9137 33.4859 37.7353 33.4859 36.2761C33.4859 34.8169 34.6618 33.6386 36.1142 33.6386C37.5605 33.6386 38.7394 34.8169 38.7394 36.2761ZM39.125 118.971C39.125 119.891 38.657 120.7 37.949 121.173C37.4752 121.638 36.8272 121.925 36.1142 121.925C34.6618 121.925 33.4859 120.746 33.4859 119.287C33.4859 118.37 33.9504 117.564 34.6562 117.091C35.1293 116.623 35.7807 116.334 36.4998 116.334C37.9461 116.334 39.125 117.515 39.125 118.971ZM38.7394 53.0423C38.7394 54.5015 37.5605 55.6799 36.1142 55.6799C34.6618 55.6799 33.4859 54.5015 33.4859 53.0423C33.4859 51.5831 34.6618 50.4048 36.1142 50.4048C37.5605 50.4048 38.7394 51.5831 38.7394 53.0423ZM38.7394 69.6028C38.7394 71.062 37.5605 72.2404 36.1142 72.2404C34.6618 72.2404 33.4859 71.062 33.4859 69.6028C33.4859 68.1436 34.6618 66.9652 36.1142 66.9652C37.5605 66.9652 38.7394 68.1436 38.7394 69.6028ZM38.7394 19.7157C38.7394 21.1718 37.5605 22.3532 36.1142 22.3532C34.6618 22.3532 33.4859 21.1718 33.4859 19.7157C33.4859 18.2565 34.6618 17.0781 36.1142 17.0781C37.5605 17.0781 38.7394 18.2565 38.7394 19.7157ZM55.2227 53.0423C55.2227 54.5015 54.0468 55.6799 52.5974 55.6799C51.145 55.6799 49.9691 54.5015 49.9691 53.0423C49.9691 51.5831 51.145 50.4048 52.5974 50.4048C54.0468 50.4048 55.2227 51.5831 55.2227 53.0423ZM55.6083 85.8503C55.6083 86.7707 55.1405 87.5793 54.4314 88.051C53.9581 88.5153 53.3109 88.8008 52.5974 88.8008C51.145 88.8008 49.9691 87.6225 49.9691 86.1633C49.9691 85.2479 50.4338 84.4411 51.1397 83.9681C51.6144 83.5008 52.2649 83.2128 52.983 83.2128C54.4324 83.2128 55.6083 84.3911 55.6083 85.8503ZM55.2227 135.848C55.2227 137.307 54.0468 138.485 52.5974 138.485C51.145 138.485 49.9691 137.307 49.9691 135.848C49.9691 134.388 51.145 133.21 52.5974 133.21C54.0468 133.21 55.2227 134.388 55.2227 135.848ZM55.2227 3.15245C55.2227 4.61166 54.0468 5.79001 52.5974 5.79001C51.145 5.79001 49.9691 4.61166 49.9691 3.15245C49.9691 1.6963 51.145 0.514893 52.5974 0.514893C54.0468 0.514893 55.2227 1.6963 55.2227 3.15245ZM55.2227 36.2761C55.2227 37.7353 54.0468 38.9137 52.5974 38.9137C51.145 38.9137 49.9691 37.7353 49.9691 36.2761C49.9691 34.8169 51.145 33.6386 52.5974 33.6386C54.0468 33.6386 55.2227 34.8169 55.2227 36.2761ZM55.6083 102.411C55.6083 103.328 55.1433 104.135 54.4377 104.607C53.9638 105.076 53.314 105.364 52.5974 105.364C51.145 105.364 49.9691 104.183 49.9691 102.727C49.9691 101.812 50.4311 101.008 51.1335 100.535C51.6087 100.064 52.2618 99.7732 52.983 99.7732C54.4324 99.7732 55.6083 100.952 55.6083 102.411ZM55.6083 118.971C55.6083 119.89 55.1419 120.699 54.4346 121.172C53.9609 121.638 53.3125 121.925 52.5974 121.925C51.145 121.925 49.9691 120.746 49.9691 119.287C49.9691 118.371 50.4324 117.566 51.1366 117.093C51.6116 116.624 52.2634 116.334 52.983 116.334C54.4324 116.334 55.6083 117.515 55.6083 118.971ZM55.2227 69.6028C55.2227 71.062 54.0468 72.2404 52.5974 72.2404C51.145 72.2404 49.9691 71.062 49.9691 69.6028C49.9691 68.1436 51.145 66.9652 52.5974 66.9652C54.0468 66.9652 55.2227 68.1436 55.2227 69.6028ZM55.2227 19.7157C55.2227 21.1718 54.0468 22.3532 52.5974 22.3532C51.145 22.3532 49.9691 21.1718 49.9691 19.7157C49.9691 18.2565 51.145 17.0781 52.5974 17.0781C54.0468 17.0781 55.2227 18.2565 55.2227 19.7157ZM71.706 53.0423C71.706 54.5015 70.5301 55.6799 69.0807 55.6799C67.6313 55.6799 66.4524 54.5015 66.4524 53.0423C66.4524 51.5831 67.6313 50.4048 69.0807 50.4048C70.5301 50.4048 71.706 51.5831 71.706 53.0423ZM71.706 86.1633C71.706 87.6225 70.5301 88.8008 69.0807 88.8008C67.6313 88.8008 66.4524 87.6225 66.4524 86.1633C66.4524 84.7071 67.6313 83.5257 69.0807 83.5257C70.5301 83.5257 71.706 84.7071 71.706 86.1633ZM71.706 102.727C71.706 104.183 70.5301 105.364 69.0807 105.364C67.6313 105.364 66.4524 104.183 66.4524 102.727C66.4524 101.268 67.6313 100.089 69.0807 100.089C70.5301 100.089 71.706 101.268 71.706 102.727ZM71.706 69.6028C71.706 71.062 70.5301 72.2404 69.0807 72.2404C67.6313 72.2404 66.4524 71.062 66.4524 69.6028C66.4524 68.1436 67.6313 66.9652 69.0807 66.9652C70.5301 66.9652 71.706 68.1436 71.706 69.6028ZM71.706 3.15245C71.706 4.61166 70.5301 5.79001 69.0807 5.79001C67.6313 5.79001 66.4524 4.61166 66.4524 3.15245C66.4524 1.6963 67.6313 0.514893 69.0807 0.514893C70.5301 0.514893 71.706 1.6963 71.706 3.15245ZM71.706 135.848C71.706 137.307 70.5301 138.485 69.0807 138.485C67.6313 138.485 66.4524 137.307 66.4524 135.848C66.4524 134.388 67.6313 133.21 69.0807 133.21C70.5301 133.21 71.706 134.388 71.706 135.848ZM71.706 36.2761C71.706 37.7353 70.5301 38.9137 69.0807 38.9137C67.6313 38.9137 66.4524 37.7353 66.4524 36.2761C66.4524 34.8169 67.6313 33.6386 69.0807 33.6386C70.5301 33.6386 71.706 34.8169 71.706 36.2761ZM71.706 19.7157C71.706 21.1718 70.5301 22.3532 69.0807 22.3532C67.6313 22.3532 66.4524 21.1718 66.4524 19.7157C66.4524 18.2565 67.6313 17.0781 69.0807 17.0781C70.5301 17.0781 71.706 18.2565 71.706 19.7157ZM71.706 119.287C71.706 120.746 70.5301 121.925 69.0807 121.925C67.6313 121.925 66.4524 120.746 66.4524 119.287C66.4524 117.828 67.6313 116.65 69.0807 116.65C70.5301 116.65 71.706 117.828 71.706 119.287ZM88.1919 135.848C88.1919 137.307 87.016 138.485 85.5667 138.485C84.1143 138.485 82.9384 137.307 82.9384 135.848C82.9384 134.388 84.1143 133.21 85.5667 133.21C87.016 133.21 88.1919 134.388 88.1919 135.848ZM88.1919 119.287C88.1919 120.746 87.016 121.925 85.5667 121.925C84.1143 121.925 82.9384 120.746 82.9384 119.287C82.9384 117.828 84.1143 116.65 85.5667 116.65C87.016 116.65 88.1919 117.828 88.1919 119.287ZM88.1919 53.0423C88.1919 54.5015 87.016 55.6799 85.5667 55.6799C84.1143 55.6799 82.9384 54.5015 82.9384 53.0423C82.9384 51.5831 84.1143 50.4048 85.5667 50.4048C87.016 50.4048 88.1919 51.5831 88.1919 53.0423ZM88.1919 86.1633C88.1919 87.6225 87.016 88.8008 85.5667 88.8008C84.1143 88.8008 82.9384 87.6225 82.9384 86.1633C82.9384 84.7071 84.1143 83.5257 85.5667 83.5257C87.016 83.5257 88.1919 84.7071 88.1919 86.1633ZM88.1919 69.6028C88.1919 71.062 87.016 72.2404 85.5667 72.2404C84.1143 72.2404 82.9384 71.062 82.9384 69.6028C82.9384 68.1436 84.1143 66.9652 85.5667 66.9652C87.016 66.9652 88.1919 68.1436 88.1919 69.6028ZM88.1919 102.727C88.1919 104.183 87.016 105.364 85.5667 105.364C84.1143 105.364 82.9384 104.183 82.9384 102.727C82.9384 101.268 84.1143 100.089 85.5667 100.089C87.016 100.089 88.1919 101.268 88.1919 102.727ZM88.1919 3.15245C88.1919 4.61166 87.016 5.79001 85.5667 5.79001C84.1143 5.79001 82.9384 4.61166 82.9384 3.15245C82.9384 1.6963 84.1143 0.514893 85.5667 0.514893C87.016 0.514893 88.1919 1.6963 88.1919 3.15245ZM88.1919 36.2761C88.1919 37.7353 87.016 38.9137 85.5667 38.9137C84.1143 38.9137 82.9384 37.7353 82.9384 36.2761C82.9384 34.8169 84.1143 33.6386 85.5667 33.6386C87.016 33.6386 88.1919 34.8169 88.1919 36.2761ZM88.1919 19.7157C88.1919 21.1718 87.016 22.3532 85.5667 22.3532C84.1143 22.3532 82.9384 21.1718 82.9384 19.7157C82.9384 18.2565 84.1143 17.0781 85.5667 17.0781C87.016 17.0781 88.1919 18.2565 88.1919 19.7157ZM105.061 119.287C105.061 120.746 103.885 121.925 102.436 121.925C100.983 121.925 99.8075 120.746 99.8075 119.287C99.8075 117.828 100.983 116.65 102.436 116.65C103.885 116.65 105.061 117.828 105.061 119.287ZM105.061 3.15245C105.061 4.61166 103.885 5.79001 102.436 5.79001C100.983 5.79001 99.8075 4.61166 99.8075 3.15245C99.8075 1.6963 100.983 0.514893 102.436 0.514893C103.885 0.514893 105.061 1.6963 105.061 3.15245ZM105.061 102.727C105.061 104.183 103.885 105.364 102.436 105.364C100.983 105.364 99.8075 104.183 99.8075 102.727C99.8075 101.268 100.983 100.089 102.436 100.089C103.885 100.089 105.061 101.268 105.061 102.727ZM105.061 36.2761C105.061 37.7353 103.885 38.9137 102.436 38.9137C100.983 38.9137 99.8075 37.7353 99.8075 36.2761C99.8075 34.8169 100.983 33.6386 102.436 33.6386C103.885 33.6386 105.061 34.8169 105.061 36.2761ZM105.061 135.848C105.061 137.307 103.885 138.485 102.436 138.485C100.983 138.485 99.8075 137.307 99.8075 135.848C99.8075 134.388 100.983 133.21 102.436 133.21C103.885 133.21 105.061 134.388 105.061 135.848ZM105.061 69.6028C105.061 71.062 103.885 72.2404 102.436 72.2404C100.983 72.2404 99.8075 71.062 99.8075 69.6028C99.8075 68.1436 100.983 66.9652 102.436 66.9652C103.885 66.9652 105.061 68.1436 105.061 69.6028ZM105.061 53.0423C105.061 54.5015 103.885 55.6799 102.436 55.6799C100.983 55.6799 99.8075 54.5015 99.8075 53.0423C99.8075 51.5831 100.983 50.4048 102.436 50.4048C103.885 50.4048 105.061 51.5831 105.061 53.0423ZM105.061 86.1633C105.061 87.6225 103.885 88.8008 102.436 88.8008C100.983 88.8008 99.8075 87.6225 99.8075 86.1633C99.8075 84.7071 100.983 83.5257 102.436 83.5257C103.885 83.5257 105.061 84.7071 105.061 86.1633ZM105.061 19.7157C105.061 21.1718 103.885 22.3532 102.436 22.3532C100.983 22.3532 99.8075 21.1718 99.8075 19.7157C99.8075 18.2565 100.983 17.0781 102.436 17.0781C103.885 17.0781 105.061 18.2565 105.061 19.7157ZM121.547 19.7157C121.547 21.1718 120.368 22.3532 118.922 22.3532C117.47 22.3532 116.294 21.1718 116.294 19.7157C116.294 18.2565 117.47 17.0781 118.922 17.0781C120.368 17.0781 121.547 18.2565 121.547 19.7157ZM121.547 135.848C121.547 137.307 120.368 138.485 118.922 138.485C117.47 138.485 116.294 137.307 116.294 135.848C116.294 134.388 117.47 133.21 118.922 133.21C120.368 133.21 121.547 134.388 121.547 135.848ZM121.547 86.1633C121.547 87.6225 120.368 88.8008 118.922 88.8008C117.47 88.8008 116.294 87.6225 116.294 86.1633C116.294 84.7071 117.47 83.5257 118.922 83.5257C120.368 83.5257 121.547 84.7071 121.547 86.1633ZM121.547 119.287C121.547 120.746 120.368 121.925 118.922 121.925C117.47 121.925 116.294 120.746 116.294 119.287C116.294 117.828 117.47 116.65 118.922 116.65C120.368 116.65 121.547 117.828 121.547 119.287ZM121.547 102.727C121.547 104.183 120.368 105.364 118.922 105.364C117.47 105.364 116.294 104.183 116.294 102.727C116.294 101.268 117.47 100.089 118.922 100.089C120.368 100.089 121.547 101.268 121.547 102.727ZM121.547 53.0423C121.547 54.5015 120.368 55.6799 118.922 55.6799C117.47 55.6799 116.294 54.5015 116.294 53.0423C116.294 51.5831 117.47 50.4048 118.922 50.4048C120.368 50.4048 121.547 51.5831 121.547 53.0423ZM121.547 3.15245C121.547 4.61166 120.368 5.79001 118.922 5.79001C117.47 5.79001 116.294 4.61166 116.294 3.15245C116.294 1.6963 117.47 0.514893 118.922 0.514893C120.368 0.514893 121.547 1.6963 121.547 3.15245ZM121.547 69.6028C121.547 71.062 120.368 72.2404 118.922 72.2404C117.47 72.2404 116.294 71.062 116.294 69.6028C116.294 68.1436 117.47 66.9652 118.922 66.9652C120.368 66.9652 121.547 68.1436 121.547 69.6028ZM121.547 36.2761C121.547 37.7353 120.368 38.9137 118.922 38.9137C117.47 38.9137 116.294 37.7353 116.294 36.2761C116.294 34.8169 117.47 33.6386 118.922 33.6386C120.368 33.6386 121.547 34.8169 121.547 36.2761ZM138.031 19.7157C138.031 21.1718 136.855 22.3532 135.405 22.3532C133.953 22.3532 132.777 21.1718 132.777 19.7157C132.777 18.2565 133.953 17.0781 135.405 17.0781C136.855 17.0781 138.031 18.2565 138.031 19.7157ZM138.031 135.848C138.031 137.307 136.855 138.485 135.405 138.485C133.953 138.485 132.777 137.307 132.777 135.848C132.777 134.388 133.953 133.21 135.405 133.21C136.855 133.21 138.031 134.388 138.031 135.848ZM138.031 36.2761C138.031 37.7353 136.855 38.9137 135.405 38.9137C133.953 38.9137 132.777 37.7353 132.777 36.2761C132.777 34.8169 133.953 33.6386 135.405 33.6386C136.855 33.6386 138.031 34.8169 138.031 36.2761ZM138.031 119.287C138.031 120.746 136.855 121.925 135.405 121.925C133.953 121.925 132.777 120.746 132.777 119.287C132.777 117.828 133.953 116.65 135.405 116.65C136.855 116.65 138.031 117.828 138.031 119.287ZM138.031 69.6028C138.031 71.062 136.855 72.2404 135.405 72.2404C133.953 72.2404 132.777 71.062 132.777 69.6028C132.777 68.1436 133.953 66.9652 135.405 66.9652C136.855 66.9652 138.031 68.1436 138.031 69.6028ZM138.031 86.1633C138.031 87.6225 136.855 88.8008 135.405 88.8008C133.953 88.8008 132.777 87.6225 132.777 86.1633C132.777 84.7071 133.953 83.5257 135.405 83.5257C136.855 83.5257 138.031 84.7071 138.031 86.1633ZM138.031 102.727C138.031 104.183 136.855 105.364 135.405 105.364C133.953 105.364 132.777 104.183 132.777 102.727C132.777 101.268 133.953 100.089 135.405 100.089C136.855 100.089 138.031 101.268 138.031 102.727ZM138.031 3.15245C138.031 4.61166 136.855 5.79001 135.405 5.79001C133.953 5.79001 132.777 4.61166 132.777 3.15245C132.777 1.6963 133.953 0.514893 135.405 0.514893C136.855 0.514893 138.031 1.6963 138.031 3.15245ZM138.031 53.0423C138.031 54.5015 136.855 55.6799 135.405 55.6799C133.953 55.6799 132.777 54.5015 132.777 53.0423C132.777 51.5831 133.953 50.4048 135.405 50.4048C136.855 50.4048 138.031 51.5831 138.031 53.0423ZM154.514 3.15245C154.514 4.61166 153.338 5.79001 151.889 5.79001C150.439 5.79001 149.26 4.61166 149.26 3.15245C149.26 1.6963 150.439 0.514893 151.889 0.514893C153.338 0.514893 154.514 1.6963 154.514 3.15245ZM154.514 102.727C154.514 104.183 153.338 105.364 151.889 105.364C150.439 105.364 149.26 104.183 149.26 102.727C149.26 101.268 150.439 100.089 151.889 100.089C153.338 100.089 154.514 101.268 154.514 102.727ZM154.514 53.0423C154.514 54.5015 153.338 55.6799 151.889 55.6799C150.439 55.6799 149.26 54.5015 149.26 53.0423C149.26 51.5831 150.439 50.4048 151.889 50.4048C153.338 50.4048 154.514 51.5831 154.514 53.0423ZM154.514 36.2761C154.514 37.7353 153.338 38.9137 151.889 38.9137C150.439 38.9137 149.26 37.7353 149.26 36.2761C149.26 34.8169 150.439 33.6386 151.889 33.6386C153.338 33.6386 154.514 34.8169 154.514 36.2761ZM154.514 86.1633C154.514 87.6225 153.338 88.8008 151.889 88.8008C150.439 88.8008 149.26 87.6225 149.26 86.1633C149.26 84.7071 150.439 83.5257 151.889 83.5257C153.338 83.5257 154.514 84.7071 154.514 86.1633ZM154.514 19.7157C154.514 21.1718 153.338 22.3532 151.889 22.3532C150.439 22.3532 149.26 21.1718 149.26 19.7157C149.26 18.2565 150.439 17.0781 151.889 17.0781C153.338 17.0781 154.514 18.2565 154.514 19.7157ZM154.514 69.6028C154.514 71.062 153.338 72.2404 151.889 72.2404C150.439 72.2404 149.26 71.062 149.26 69.6028C149.26 68.1436 150.439 66.9652 151.889 66.9652C153.338 66.9652 154.514 68.1436 154.514 69.6028ZM154.514 119.287C154.514 120.746 153.338 121.925 151.889 121.925C150.439 121.925 149.26 120.746 149.26 119.287C149.26 117.828 150.439 116.65 151.889 116.65C153.338 116.65 154.514 117.828 154.514 119.287ZM154.514 135.848C154.514 137.307 153.338 138.485 151.889 138.485C150.439 138.485 149.26 137.307 149.26 135.848C149.26 134.388 150.439 133.21 151.889 133.21C153.338 133.21 154.514 134.388 154.514 135.848ZM171 102.727C171 104.183 169.824 105.364 168.375 105.364C166.922 105.364 165.747 104.183 165.747 102.727C165.747 101.268 166.922 100.089 168.375 100.089C169.824 100.089 171 101.268 171 102.727ZM171 135.848C171 137.307 169.824 138.485 168.375 138.485C166.922 138.485 165.747 137.307 165.747 135.848C165.747 134.388 166.922 133.21 168.375 133.21C169.824 133.21 171 134.388 171 135.848ZM171 19.7157C171 21.1718 169.824 22.3532 168.375 22.3532C166.922 22.3532 165.747 21.1718 165.747 19.7157C165.747 18.2565 166.922 17.0781 168.375 17.0781C169.824 17.0781 171 18.2565 171 19.7157ZM171 119.287C171 120.746 169.824 121.925 168.375 121.925C166.922 121.925 165.747 120.746 165.747 119.287C165.747 117.828 166.922 116.65 168.375 116.65C169.824 116.65 171 117.828 171 119.287ZM171 53.0423C171 54.5015 169.824 55.6799 168.375 55.6799C166.922 55.6799 165.747 54.5015 165.747 53.0423C165.747 51.5831 166.922 50.4048 168.375 50.4048C169.824 50.4048 171 51.5831 171 53.0423ZM171 86.1633C171 87.6225 169.824 88.8008 168.375 88.8008C166.922 88.8008 165.747 87.6225 165.747 86.1633C165.747 84.7071 166.922 83.5257 168.375 83.5257C169.824 83.5257 171 84.7071 171 86.1633ZM171 69.6028C171 71.062 169.824 72.2404 168.375 72.2404C166.922 72.2404 165.747 71.062 165.747 69.6028C165.747 68.1436 166.922 66.9652 168.375 66.9652C169.824 66.9652 171 68.1436 171 69.6028ZM171 3.15245C171 4.61166 169.824 5.79001 168.375 5.79001C166.922 5.79001 165.747 4.61166 165.747 3.15245C165.747 1.6963 166.922 0.514893 168.375 0.514893C169.824 0.514893 171 1.6963 171 3.15245ZM171 36.2761C171 37.7353 169.824 38.9137 168.375 38.9137C166.922 38.9137 165.747 37.7353 165.747 36.2761C165.747 34.8169 166.922 33.6386 168.375 33.6386C169.824 33.6386 171 34.8169 171 36.2761ZM187.483 102.727C187.483 104.183 186.308 105.364 184.858 105.364C183.406 105.364 182.23 104.183 182.23 102.727C182.23 101.268 183.406 100.089 184.858 100.089C186.308 100.089 187.483 101.268 187.483 102.727ZM187.483 135.848C187.483 137.307 186.308 138.485 184.858 138.485C183.406 138.485 182.23 137.307 182.23 135.848C182.23 134.388 183.406 133.21 184.858 133.21C186.308 133.21 187.483 134.388 187.483 135.848ZM187.483 119.287C187.483 120.746 186.308 121.925 184.858 121.925C183.406 121.925 182.23 120.746 182.23 119.287C182.23 117.828 183.406 116.65 184.858 116.65C186.308 116.65 187.483 117.828 187.483 119.287ZM187.483 53.0423C187.483 54.5015 186.308 55.6799 184.858 55.6799C183.406 55.6799 182.23 54.5015 182.23 53.0423C182.23 51.5831 183.406 50.4048 184.858 50.4048C186.308 50.4048 187.483 51.5831 187.483 53.0423ZM187.483 86.1633C187.483 87.6225 186.308 88.8008 184.858 88.8008C183.406 88.8008 182.23 87.6225 182.23 86.1633C182.23 84.7071 183.406 83.5257 184.858 83.5257C186.308 83.5257 187.483 84.7071 187.483 86.1633ZM187.483 69.6028C187.483 71.062 186.308 72.2404 184.858 72.2404C183.406 72.2404 182.23 71.062 182.23 69.6028C182.23 68.1436 183.406 66.9652 184.858 66.9652C186.308 66.9652 187.483 68.1436 187.483 69.6028ZM187.483 3.15245C187.483 4.61166 186.308 5.79001 184.858 5.79001C183.406 5.79001 182.23 4.61166 182.23 3.15245C182.23 1.6963 183.406 0.514893 184.858 0.514893C186.308 0.514893 187.483 1.6963 187.483 3.15245ZM187.483 36.2761C187.483 37.7353 186.308 38.9137 184.858 38.9137C183.406 38.9137 182.23 37.7353 182.23 36.2761C182.23 34.8169 183.406 33.6386 184.858 33.6386C186.308 33.6386 187.483 34.8169 187.483 36.2761ZM187.483 19.7157C187.483 21.1718 186.308 22.3532 184.858 22.3532C183.406 22.3532 182.23 21.1718 182.23 19.7157C182.23 18.2565 183.406 17.0781 184.858 17.0781C186.308 17.0781 187.483 18.2565 187.483 19.7157Z" fill="#4461D7"/>
</g>
</svg>
