<svg width="188" height="139" viewBox="0 0 188 139" fill="none" xmlns="http://www.w3.org/2000/svg">
<path fill-rule="evenodd" clip-rule="evenodd" d="M5.76991 102.727C5.76991 104.183 4.59402 105.364 3.14465 105.364C1.69225 105.364 0.516357 104.183 0.516357 102.727C0.516357 101.267 1.69225 100.089 3.14465 100.089C4.59402 100.089 5.76991 101.267 5.76991 102.727ZM5.76991 135.848C5.76991 137.307 4.59402 138.485 3.14465 138.485C1.69225 138.485 0.516357 137.307 0.516357 135.848C0.516357 134.388 1.69225 133.21 3.14465 133.21C4.59402 133.21 5.76991 134.388 5.76991 135.848ZM5.76991 119.287C5.76991 120.746 4.59402 121.925 3.14465 121.925C1.69225 121.925 0.516357 120.746 0.516357 119.287C0.516357 117.828 1.69225 116.65 3.14465 116.65C4.59402 116.65 5.76991 117.828 5.76991 119.287ZM5.76991 53.0423C5.76991 54.5015 4.59402 55.6798 3.14465 55.6798C1.69225 55.6798 0.516357 54.5015 0.516357 53.0423C0.516357 51.5831 1.69225 50.4047 3.14465 50.4047C4.59402 50.4047 5.76991 51.5831 5.76991 53.0423ZM5.76991 86.1632C5.76991 87.6224 4.59402 88.8008 3.14465 88.8008C1.69225 88.8008 0.516357 87.6224 0.516357 86.1632C0.516357 84.707 1.69225 83.5256 3.14465 83.5256C4.59402 83.5256 5.76991 84.707 5.76991 86.1632ZM5.76991 69.6027C5.76991 71.0619 4.59402 72.2403 3.14465 72.2403C1.69225 72.2403 0.516357 71.0619 0.516357 69.6027C0.516357 68.1435 1.69225 66.9652 3.14465 66.9652C4.59402 66.9652 5.76991 68.1435 5.76991 69.6027ZM5.76991 3.15239C5.76991 4.6116 4.59402 5.78995 3.14465 5.78995C1.69225 5.78995 0.516357 4.6116 0.516357 3.15239C0.516357 1.69624 1.69225 0.514832 3.14465 0.514832C4.59402 0.514832 5.76991 1.69624 5.76991 3.15239ZM5.76991 36.2761C5.76991 37.7353 4.59402 38.9136 3.14465 38.9136C1.69225 38.9136 0.516357 37.7353 0.516357 36.2761C0.516357 34.8169 1.69225 33.6385 3.14465 33.6385C4.59402 33.6385 5.76991 34.8169 5.76991 36.2761ZM5.76991 19.7156C5.76991 21.1718 4.59402 22.3532 3.14465 22.3532C1.69225 22.3532 0.516357 21.1718 0.516357 19.7156C0.516357 18.2564 1.69225 17.078 3.14465 17.078C4.59402 17.078 5.76991 18.2564 5.76991 19.7156ZM22.6388 102.411C22.6388 103.329 22.1733 104.136 21.4671 104.608C20.9942 105.075 20.3445 105.364 19.6279 105.364C18.1755 105.364 16.9996 104.183 16.9996 102.727C16.9996 101.811 17.4623 101.007 18.1657 100.534C18.6402 100.063 19.2928 99.7732 20.0135 99.7732C21.4629 99.7732 22.6388 100.952 22.6388 102.411ZM22.2532 135.848C22.2532 137.307 21.0773 138.485 19.6279 138.485C18.1755 138.485 16.9996 137.307 16.9996 135.848C16.9996 134.388 18.1755 133.21 19.6279 133.21C21.0773 133.21 22.2532 134.388 22.2532 135.848ZM22.6388 118.971C22.6388 119.891 22.1719 120.7 21.464 121.173C20.9904 121.638 20.3424 121.925 19.6279 121.925C18.1755 121.925 16.9996 120.746 16.9996 119.287C16.9996 118.37 17.4641 117.564 18.1699 117.091C18.643 116.623 19.2944 116.334 20.0135 116.334C21.4629 116.334 22.6388 117.515 22.6388 118.971ZM22.2532 3.15239C22.2532 4.6116 21.0773 5.78995 19.6279 5.78995C18.1755 5.78995 16.9996 4.6116 16.9996 3.15239C16.9996 1.69624 18.1755 0.514832 19.6279 0.514832C21.0773 0.514832 22.2532 1.69624 22.2532 3.15239ZM22.2532 36.2761C22.2532 37.7353 21.0773 38.9136 19.6279 38.9136C18.1755 38.9136 16.9996 37.7353 16.9996 36.2761C16.9996 34.8169 18.1755 33.6385 19.6279 33.6385C21.0773 33.6385 22.2532 34.8169 22.2532 36.2761ZM22.2532 19.7156C22.2532 21.1718 21.0773 22.3532 19.6279 22.3532C18.1755 22.3532 16.9996 21.1718 16.9996 19.7156C16.9996 18.2564 18.1755 17.078 19.6279 17.078C21.0773 17.078 22.2532 18.2564 22.2532 19.7156ZM22.2532 53.0423C22.2532 54.5015 21.0773 55.6798 19.6279 55.6798C18.1755 55.6798 16.9996 54.5015 16.9996 53.0423C16.9996 51.5831 18.1755 50.4047 19.6279 50.4047C21.0773 50.4047 22.2532 51.5831 22.2532 53.0423ZM22.6388 85.8503C22.6388 86.771 22.1705 87.58 21.4609 88.0516C20.9876 88.5156 20.3408 88.8008 19.6279 88.8008C18.1755 88.8008 16.9996 87.6224 16.9996 86.1632C16.9996 85.2466 17.4655 84.4389 18.173 83.9661C18.6458 83.5004 19.2959 83.2127 20.0135 83.2127C21.4629 83.2127 22.6388 84.3911 22.6388 85.8503ZM22.2532 69.6027C22.2532 71.0619 21.0773 72.2403 19.6279 72.2403C18.1755 72.2403 16.9996 71.0619 16.9996 69.6027C16.9996 68.1435 18.1755 66.9652 19.6279 66.9652C21.0773 66.9652 22.2532 68.1435 22.2532 69.6027ZM38.7394 3.15239C38.7394 4.6116 37.5605 5.78995 36.1142 5.78995C34.6618 5.78995 33.4859 4.6116 33.4859 3.15239C33.4859 1.69624 34.6618 0.514832 36.1142 0.514832C37.5605 0.514832 38.7394 1.69624 38.7394 3.15239ZM39.125 102.411C39.125 103.329 38.6584 104.136 37.9521 104.608C37.479 105.075 36.8293 105.364 36.1142 105.364C34.6618 105.364 33.4859 104.183 33.4859 102.727C33.4859 101.811 33.9486 101.007 34.652 100.534C35.1264 100.063 35.7791 99.7732 36.4998 99.7732C37.9461 99.7732 39.125 100.952 39.125 102.411ZM39.125 85.8503C39.125 86.771 38.6556 87.58 37.9458 88.0516C37.4724 88.5156 36.8256 88.8008 36.1142 88.8008C34.6618 88.8008 33.4859 87.6224 33.4859 86.1632C33.4859 85.2466 33.9518 84.4389 34.6593 83.9661C35.1321 83.5004 35.7822 83.2127 36.4998 83.2127C37.9461 83.2127 39.125 84.3911 39.125 85.8503ZM38.7394 135.848C38.7394 137.307 37.5605 138.485 36.1142 138.485C34.6618 138.485 33.4859 137.307 33.4859 135.848C33.4859 134.388 34.6618 133.21 36.1142 133.21C37.5605 133.21 38.7394 134.388 38.7394 135.848ZM38.7394 36.2761C38.7394 37.7353 37.5605 38.9136 36.1142 38.9136C34.6618 38.9136 33.4859 37.7353 33.4859 36.2761C33.4859 34.8169 34.6618 33.6385 36.1142 33.6385C37.5605 33.6385 38.7394 34.8169 38.7394 36.2761ZM39.125 118.971C39.125 119.891 38.657 120.7 37.949 121.173C37.4752 121.638 36.8272 121.925 36.1142 121.925C34.6618 121.925 33.4859 120.746 33.4859 119.287C33.4859 118.37 33.9504 117.564 34.6562 117.091C35.1293 116.623 35.7807 116.334 36.4998 116.334C37.9461 116.334 39.125 117.515 39.125 118.971ZM38.7394 53.0423C38.7394 54.5015 37.5605 55.6798 36.1142 55.6798C34.6618 55.6798 33.4859 54.5015 33.4859 53.0423C33.4859 51.5831 34.6618 50.4047 36.1142 50.4047C37.5605 50.4047 38.7394 51.5831 38.7394 53.0423ZM38.7394 69.6027C38.7394 71.0619 37.5605 72.2403 36.1142 72.2403C34.6618 72.2403 33.4859 71.0619 33.4859 69.6027C33.4859 68.1435 34.6618 66.9652 36.1142 66.9652C37.5605 66.9652 38.7394 68.1435 38.7394 69.6027ZM38.7394 19.7156C38.7394 21.1718 37.5605 22.3532 36.1142 22.3532C34.6618 22.3532 33.4859 21.1718 33.4859 19.7156C33.4859 18.2564 34.6618 17.078 36.1142 17.078C37.5605 17.078 38.7394 18.2564 38.7394 19.7156ZM55.2227 53.0423C55.2227 54.5015 54.0468 55.6798 52.5974 55.6798C51.145 55.6798 49.9691 54.5015 49.9691 53.0423C49.9691 51.5831 51.145 50.4047 52.5974 50.4047C54.0468 50.4047 55.2227 51.5831 55.2227 53.0423ZM55.6083 85.8503C55.6083 86.7706 55.1405 87.5792 54.4314 88.0509C53.9581 88.5152 53.3109 88.8008 52.5974 88.8008C51.145 88.8008 49.9691 87.6224 49.9691 86.1632C49.9691 85.2478 50.4338 84.441 51.1397 83.968C51.6144 83.5008 52.2649 83.2127 52.983 83.2127C54.4324 83.2127 55.6083 84.3911 55.6083 85.8503ZM55.2227 135.848C55.2227 137.307 54.0468 138.485 52.5974 138.485C51.145 138.485 49.9691 137.307 49.9691 135.848C49.9691 134.388 51.145 133.21 52.5974 133.21C54.0468 133.21 55.2227 134.388 55.2227 135.848ZM55.2227 3.15239C55.2227 4.6116 54.0468 5.78995 52.5974 5.78995C51.145 5.78995 49.9691 4.6116 49.9691 3.15239C49.9691 1.69624 51.145 0.514832 52.5974 0.514832C54.0468 0.514832 55.2227 1.69624 55.2227 3.15239ZM55.2227 36.2761C55.2227 37.7353 54.0468 38.9136 52.5974 38.9136C51.145 38.9136 49.9691 37.7353 49.9691 36.2761C49.9691 34.8169 51.145 33.6385 52.5974 33.6385C54.0468 33.6385 55.2227 34.8169 55.2227 36.2761ZM55.6083 102.411C55.6083 103.328 55.1433 104.135 54.4377 104.607C53.9638 105.075 53.314 105.364 52.5974 105.364C51.145 105.364 49.9691 104.183 49.9691 102.727C49.9691 101.812 50.4311 101.008 51.1335 100.535C51.6087 100.064 52.2618 99.7732 52.983 99.7732C54.4324 99.7732 55.6083 100.952 55.6083 102.411ZM55.6083 118.971C55.6083 119.89 55.1419 120.699 54.4346 121.172C53.9609 121.638 53.3125 121.925 52.5974 121.925C51.145 121.925 49.9691 120.746 49.9691 119.287C49.9691 118.371 50.4324 117.566 51.1366 117.093C51.6116 116.624 52.2634 116.334 52.983 116.334C54.4324 116.334 55.6083 117.515 55.6083 118.971ZM55.2227 69.6027C55.2227 71.0619 54.0468 72.2403 52.5974 72.2403C51.145 72.2403 49.9691 71.0619 49.9691 69.6027C49.9691 68.1435 51.145 66.9652 52.5974 66.9652C54.0468 66.9652 55.2227 68.1435 55.2227 69.6027ZM55.2227 19.7156C55.2227 21.1718 54.0468 22.3532 52.5974 22.3532C51.145 22.3532 49.9691 21.1718 49.9691 19.7156C49.9691 18.2564 51.145 17.078 52.5974 17.078C54.0468 17.078 55.2227 18.2564 55.2227 19.7156ZM71.706 53.0423C71.706 54.5015 70.5301 55.6798 69.0807 55.6798C67.6313 55.6798 66.4524 54.5015 66.4524 53.0423C66.4524 51.5831 67.6313 50.4047 69.0807 50.4047C70.5301 50.4047 71.706 51.5831 71.706 53.0423ZM71.706 86.1632C71.706 87.6224 70.5301 88.8008 69.0807 88.8008C67.6313 88.8008 66.4524 87.6224 66.4524 86.1632C66.4524 84.707 67.6313 83.5256 69.0807 83.5256C70.5301 83.5256 71.706 84.707 71.706 86.1632ZM71.706 102.727C71.706 104.183 70.5301 105.364 69.0807 105.364C67.6313 105.364 66.4524 104.183 66.4524 102.727C66.4524 101.267 67.6313 100.089 69.0807 100.089C70.5301 100.089 71.706 101.267 71.706 102.727ZM71.706 69.6027C71.706 71.0619 70.5301 72.2403 69.0807 72.2403C67.6313 72.2403 66.4524 71.0619 66.4524 69.6027C66.4524 68.1435 67.6313 66.9652 69.0807 66.9652C70.5301 66.9652 71.706 68.1435 71.706 69.6027ZM71.706 3.15239C71.706 4.6116 70.5301 5.78995 69.0807 5.78995C67.6313 5.78995 66.4524 4.6116 66.4524 3.15239C66.4524 1.69624 67.6313 0.514832 69.0807 0.514832C70.5301 0.514832 71.706 1.69624 71.706 3.15239ZM71.706 135.848C71.706 137.307 70.5301 138.485 69.0807 138.485C67.6313 138.485 66.4524 137.307 66.4524 135.848C66.4524 134.388 67.6313 133.21 69.0807 133.21C70.5301 133.21 71.706 134.388 71.706 135.848ZM71.706 36.2761C71.706 37.7353 70.5301 38.9136 69.0807 38.9136C67.6313 38.9136 66.4524 37.7353 66.4524 36.2761C66.4524 34.8169 67.6313 33.6385 69.0807 33.6385C70.5301 33.6385 71.706 34.8169 71.706 36.2761ZM71.706 19.7156C71.706 21.1718 70.5301 22.3532 69.0807 22.3532C67.6313 22.3532 66.4524 21.1718 66.4524 19.7156C66.4524 18.2564 67.6313 17.078 69.0807 17.078C70.5301 17.078 71.706 18.2564 71.706 19.7156ZM71.706 119.287C71.706 120.746 70.5301 121.925 69.0807 121.925C67.6313 121.925 66.4524 120.746 66.4524 119.287C66.4524 117.828 67.6313 116.65 69.0807 116.65C70.5301 116.65 71.706 117.828 71.706 119.287ZM88.1919 135.848C88.1919 137.307 87.016 138.485 85.5667 138.485C84.1143 138.485 82.9384 137.307 82.9384 135.848C82.9384 134.388 84.1143 133.21 85.5667 133.21C87.016 133.21 88.1919 134.388 88.1919 135.848ZM88.1919 119.287C88.1919 120.746 87.016 121.925 85.5667 121.925C84.1143 121.925 82.9384 120.746 82.9384 119.287C82.9384 117.828 84.1143 116.65 85.5667 116.65C87.016 116.65 88.1919 117.828 88.1919 119.287ZM88.1919 53.0423C88.1919 54.5015 87.016 55.6798 85.5667 55.6798C84.1143 55.6798 82.9384 54.5015 82.9384 53.0423C82.9384 51.5831 84.1143 50.4047 85.5667 50.4047C87.016 50.4047 88.1919 51.5831 88.1919 53.0423ZM88.1919 86.1632C88.1919 87.6224 87.016 88.8008 85.5667 88.8008C84.1143 88.8008 82.9384 87.6224 82.9384 86.1632C82.9384 84.707 84.1143 83.5256 85.5667 83.5256C87.016 83.5256 88.1919 84.707 88.1919 86.1632ZM88.1919 69.6027C88.1919 71.0619 87.016 72.2403 85.5667 72.2403C84.1143 72.2403 82.9384 71.0619 82.9384 69.6027C82.9384 68.1435 84.1143 66.9652 85.5667 66.9652C87.016 66.9652 88.1919 68.1435 88.1919 69.6027ZM88.1919 102.727C88.1919 104.183 87.016 105.364 85.5667 105.364C84.1143 105.364 82.9384 104.183 82.9384 102.727C82.9384 101.267 84.1143 100.089 85.5667 100.089C87.016 100.089 88.1919 101.267 88.1919 102.727ZM88.1919 3.15239C88.1919 4.6116 87.016 5.78995 85.5667 5.78995C84.1143 5.78995 82.9384 4.6116 82.9384 3.15239C82.9384 1.69624 84.1143 0.514832 85.5667 0.514832C87.016 0.514832 88.1919 1.69624 88.1919 3.15239ZM88.1919 36.2761C88.1919 37.7353 87.016 38.9136 85.5667 38.9136C84.1143 38.9136 82.9384 37.7353 82.9384 36.2761C82.9384 34.8169 84.1143 33.6385 85.5667 33.6385C87.016 33.6385 88.1919 34.8169 88.1919 36.2761ZM88.1919 19.7156C88.1919 21.1718 87.016 22.3532 85.5667 22.3532C84.1143 22.3532 82.9384 21.1718 82.9384 19.7156C82.9384 18.2564 84.1143 17.078 85.5667 17.078C87.016 17.078 88.1919 18.2564 88.1919 19.7156ZM105.061 119.287C105.061 120.746 103.885 121.925 102.436 121.925C100.983 121.925 99.8075 120.746 99.8075 119.287C99.8075 117.828 100.983 116.65 102.436 116.65C103.885 116.65 105.061 117.828 105.061 119.287ZM105.061 3.15239C105.061 4.6116 103.885 5.78995 102.436 5.78995C100.983 5.78995 99.8075 4.6116 99.8075 3.15239C99.8075 1.69624 100.983 0.514832 102.436 0.514832C103.885 0.514832 105.061 1.69624 105.061 3.15239ZM105.061 102.727C105.061 104.183 103.885 105.364 102.436 105.364C100.983 105.364 99.8075 104.183 99.8075 102.727C99.8075 101.267 100.983 100.089 102.436 100.089C103.885 100.089 105.061 101.267 105.061 102.727ZM105.061 36.2761C105.061 37.7353 103.885 38.9136 102.436 38.9136C100.983 38.9136 99.8075 37.7353 99.8075 36.2761C99.8075 34.8169 100.983 33.6385 102.436 33.6385C103.885 33.6385 105.061 34.8169 105.061 36.2761ZM105.061 135.848C105.061 137.307 103.885 138.485 102.436 138.485C100.983 138.485 99.8075 137.307 99.8075 135.848C99.8075 134.388 100.983 133.21 102.436 133.21C103.885 133.21 105.061 134.388 105.061 135.848ZM105.061 69.6027C105.061 71.0619 103.885 72.2403 102.436 72.2403C100.983 72.2403 99.8075 71.0619 99.8075 69.6027C99.8075 68.1435 100.983 66.9652 102.436 66.9652C103.885 66.9652 105.061 68.1435 105.061 69.6027ZM105.061 53.0423C105.061 54.5015 103.885 55.6798 102.436 55.6798C100.983 55.6798 99.8075 54.5015 99.8075 53.0423C99.8075 51.5831 100.983 50.4047 102.436 50.4047C103.885 50.4047 105.061 51.5831 105.061 53.0423ZM105.061 86.1632C105.061 87.6224 103.885 88.8008 102.436 88.8008C100.983 88.8008 99.8075 87.6224 99.8075 86.1632C99.8075 84.707 100.983 83.5256 102.436 83.5256C103.885 83.5256 105.061 84.707 105.061 86.1632ZM105.061 19.7156C105.061 21.1718 103.885 22.3532 102.436 22.3532C100.983 22.3532 99.8075 21.1718 99.8075 19.7156C99.8075 18.2564 100.983 17.078 102.436 17.078C103.885 17.078 105.061 18.2564 105.061 19.7156ZM121.547 19.7156C121.547 21.1718 120.368 22.3532 118.922 22.3532C117.47 22.3532 116.294 21.1718 116.294 19.7156C116.294 18.2564 117.47 17.078 118.922 17.078C120.368 17.078 121.547 18.2564 121.547 19.7156ZM121.547 135.848C121.547 137.307 120.368 138.485 118.922 138.485C117.47 138.485 116.294 137.307 116.294 135.848C116.294 134.388 117.47 133.21 118.922 133.21C120.368 133.21 121.547 134.388 121.547 135.848ZM121.547 86.1632C121.547 87.6224 120.368 88.8008 118.922 88.8008C117.47 88.8008 116.294 87.6224 116.294 86.1632C116.294 84.707 117.47 83.5256 118.922 83.5256C120.368 83.5256 121.547 84.707 121.547 86.1632ZM121.547 119.287C121.547 120.746 120.368 121.925 118.922 121.925C117.47 121.925 116.294 120.746 116.294 119.287C116.294 117.828 117.47 116.65 118.922 116.65C120.368 116.65 121.547 117.828 121.547 119.287ZM121.547 102.727C121.547 104.183 120.368 105.364 118.922 105.364C117.47 105.364 116.294 104.183 116.294 102.727C116.294 101.267 117.47 100.089 118.922 100.089C120.368 100.089 121.547 101.267 121.547 102.727ZM121.547 53.0423C121.547 54.5015 120.368 55.6798 118.922 55.6798C117.47 55.6798 116.294 54.5015 116.294 53.0423C116.294 51.5831 117.47 50.4047 118.922 50.4047C120.368 50.4047 121.547 51.5831 121.547 53.0423ZM121.547 3.15239C121.547 4.6116 120.368 5.78995 118.922 5.78995C117.47 5.78995 116.294 4.6116 116.294 3.15239C116.294 1.69624 117.47 0.514832 118.922 0.514832C120.368 0.514832 121.547 1.69624 121.547 3.15239ZM121.547 69.6027C121.547 71.0619 120.368 72.2403 118.922 72.2403C117.47 72.2403 116.294 71.0619 116.294 69.6027C116.294 68.1435 117.47 66.9652 118.922 66.9652C120.368 66.9652 121.547 68.1435 121.547 69.6027ZM121.547 36.2761C121.547 37.7353 120.368 38.9136 118.922 38.9136C117.47 38.9136 116.294 37.7353 116.294 36.2761C116.294 34.8169 117.47 33.6385 118.922 33.6385C120.368 33.6385 121.547 34.8169 121.547 36.2761ZM138.031 19.7156C138.031 21.1718 136.855 22.3532 135.405 22.3532C133.953 22.3532 132.777 21.1718 132.777 19.7156C132.777 18.2564 133.953 17.078 135.405 17.078C136.855 17.078 138.031 18.2564 138.031 19.7156ZM138.031 135.848C138.031 137.307 136.855 138.485 135.405 138.485C133.953 138.485 132.777 137.307 132.777 135.848C132.777 134.388 133.953 133.21 135.405 133.21C136.855 133.21 138.031 134.388 138.031 135.848ZM138.031 36.2761C138.031 37.7353 136.855 38.9136 135.405 38.9136C133.953 38.9136 132.777 37.7353 132.777 36.2761C132.777 34.8169 133.953 33.6385 135.405 33.6385C136.855 33.6385 138.031 34.8169 138.031 36.2761ZM138.031 119.287C138.031 120.746 136.855 121.925 135.405 121.925C133.953 121.925 132.777 120.746 132.777 119.287C132.777 117.828 133.953 116.65 135.405 116.65C136.855 116.65 138.031 117.828 138.031 119.287ZM138.031 69.6027C138.031 71.0619 136.855 72.2403 135.405 72.2403C133.953 72.2403 132.777 71.0619 132.777 69.6027C132.777 68.1435 133.953 66.9652 135.405 66.9652C136.855 66.9652 138.031 68.1435 138.031 69.6027ZM138.031 86.1632C138.031 87.6224 136.855 88.8008 135.405 88.8008C133.953 88.8008 132.777 87.6224 132.777 86.1632C132.777 84.707 133.953 83.5256 135.405 83.5256C136.855 83.5256 138.031 84.707 138.031 86.1632ZM138.031 102.727C138.031 104.183 136.855 105.364 135.405 105.364C133.953 105.364 132.777 104.183 132.777 102.727C132.777 101.267 133.953 100.089 135.405 100.089C136.855 100.089 138.031 101.267 138.031 102.727ZM138.031 3.15239C138.031 4.6116 136.855 5.78995 135.405 5.78995C133.953 5.78995 132.777 4.6116 132.777 3.15239C132.777 1.69624 133.953 0.514832 135.405 0.514832C136.855 0.514832 138.031 1.69624 138.031 3.15239ZM138.031 53.0423C138.031 54.5015 136.855 55.6798 135.405 55.6798C133.953 55.6798 132.777 54.5015 132.777 53.0423C132.777 51.5831 133.953 50.4047 135.405 50.4047C136.855 50.4047 138.031 51.5831 138.031 53.0423ZM154.514 3.15239C154.514 4.6116 153.338 5.78995 151.889 5.78995C150.439 5.78995 149.26 4.6116 149.26 3.15239C149.26 1.69624 150.439 0.514832 151.889 0.514832C153.338 0.514832 154.514 1.69624 154.514 3.15239ZM154.514 102.727C154.514 104.183 153.338 105.364 151.889 105.364C150.439 105.364 149.26 104.183 149.26 102.727C149.26 101.267 150.439 100.089 151.889 100.089C153.338 100.089 154.514 101.267 154.514 102.727ZM154.514 53.0423C154.514 54.5015 153.338 55.6798 151.889 55.6798C150.439 55.6798 149.26 54.5015 149.26 53.0423C149.26 51.5831 150.439 50.4047 151.889 50.4047C153.338 50.4047 154.514 51.5831 154.514 53.0423ZM154.514 36.2761C154.514 37.7353 153.338 38.9136 151.889 38.9136C150.439 38.9136 149.26 37.7353 149.26 36.2761C149.26 34.8169 150.439 33.6385 151.889 33.6385C153.338 33.6385 154.514 34.8169 154.514 36.2761ZM154.514 86.1632C154.514 87.6224 153.338 88.8008 151.889 88.8008C150.439 88.8008 149.26 87.6224 149.26 86.1632C149.26 84.707 150.439 83.5256 151.889 83.5256C153.338 83.5256 154.514 84.707 154.514 86.1632ZM154.514 19.7156C154.514 21.1718 153.338 22.3532 151.889 22.3532C150.439 22.3532 149.26 21.1718 149.26 19.7156C149.26 18.2564 150.439 17.078 151.889 17.078C153.338 17.078 154.514 18.2564 154.514 19.7156ZM154.514 69.6027C154.514 71.0619 153.338 72.2403 151.889 72.2403C150.439 72.2403 149.26 71.0619 149.26 69.6027C149.26 68.1435 150.439 66.9652 151.889 66.9652C153.338 66.9652 154.514 68.1435 154.514 69.6027ZM154.514 119.287C154.514 120.746 153.338 121.925 151.889 121.925C150.439 121.925 149.26 120.746 149.26 119.287C149.26 117.828 150.439 116.65 151.889 116.65C153.338 116.65 154.514 117.828 154.514 119.287ZM154.514 135.848C154.514 137.307 153.338 138.485 151.889 138.485C150.439 138.485 149.26 137.307 149.26 135.848C149.26 134.388 150.439 133.21 151.889 133.21C153.338 133.21 154.514 134.388 154.514 135.848ZM171 102.727C171 104.183 169.824 105.364 168.375 105.364C166.922 105.364 165.747 104.183 165.747 102.727C165.747 101.267 166.922 100.089 168.375 100.089C169.824 100.089 171 101.267 171 102.727ZM171 135.848C171 137.307 169.824 138.485 168.375 138.485C166.922 138.485 165.747 137.307 165.747 135.848C165.747 134.388 166.922 133.21 168.375 133.21C169.824 133.21 171 134.388 171 135.848ZM171 19.7156C171 21.1718 169.824 22.3532 168.375 22.3532C166.922 22.3532 165.747 21.1718 165.747 19.7156C165.747 18.2564 166.922 17.078 168.375 17.078C169.824 17.078 171 18.2564 171 19.7156ZM171 119.287C171 120.746 169.824 121.925 168.375 121.925C166.922 121.925 165.747 120.746 165.747 119.287C165.747 117.828 166.922 116.65 168.375 116.65C169.824 116.65 171 117.828 171 119.287ZM171 53.0423C171 54.5015 169.824 55.6798 168.375 55.6798C166.922 55.6798 165.747 54.5015 165.747 53.0423C165.747 51.5831 166.922 50.4047 168.375 50.4047C169.824 50.4047 171 51.5831 171 53.0423ZM171 86.1632C171 87.6224 169.824 88.8008 168.375 88.8008C166.922 88.8008 165.747 87.6224 165.747 86.1632C165.747 84.707 166.922 83.5256 168.375 83.5256C169.824 83.5256 171 84.707 171 86.1632ZM171 69.6027C171 71.0619 169.824 72.2403 168.375 72.2403C166.922 72.2403 165.747 71.0619 165.747 69.6027C165.747 68.1435 166.922 66.9652 168.375 66.9652C169.824 66.9652 171 68.1435 171 69.6027ZM171 3.15239C171 4.6116 169.824 5.78995 168.375 5.78995C166.922 5.78995 165.747 4.6116 165.747 3.15239C165.747 1.69624 166.922 0.514832 168.375 0.514832C169.824 0.514832 171 1.69624 171 3.15239ZM171 36.2761C171 37.7353 169.824 38.9136 168.375 38.9136C166.922 38.9136 165.747 37.7353 165.747 36.2761C165.747 34.8169 166.922 33.6385 168.375 33.6385C169.824 33.6385 171 34.8169 171 36.2761ZM187.483 102.727C187.483 104.183 186.308 105.364 184.858 105.364C183.406 105.364 182.23 104.183 182.23 102.727C182.23 101.267 183.406 100.089 184.858 100.089C186.308 100.089 187.483 101.267 187.483 102.727ZM187.483 135.848C187.483 137.307 186.308 138.485 184.858 138.485C183.406 138.485 182.23 137.307 182.23 135.848C182.23 134.388 183.406 133.21 184.858 133.21C186.308 133.21 187.483 134.388 187.483 135.848ZM187.483 119.287C187.483 120.746 186.308 121.925 184.858 121.925C183.406 121.925 182.23 120.746 182.23 119.287C182.23 117.828 183.406 116.65 184.858 116.65C186.308 116.65 187.483 117.828 187.483 119.287ZM187.483 53.0423C187.483 54.5015 186.308 55.6798 184.858 55.6798C183.406 55.6798 182.23 54.5015 182.23 53.0423C182.23 51.5831 183.406 50.4047 184.858 50.4047C186.308 50.4047 187.483 51.5831 187.483 53.0423ZM187.483 86.1632C187.483 87.6224 186.308 88.8008 184.858 88.8008C183.406 88.8008 182.23 87.6224 182.23 86.1632C182.23 84.707 183.406 83.5256 184.858 83.5256C186.308 83.5256 187.483 84.707 187.483 86.1632ZM187.483 69.6027C187.483 71.0619 186.308 72.2403 184.858 72.2403C183.406 72.2403 182.23 71.0619 182.23 69.6027C182.23 68.1435 183.406 66.9652 184.858 66.9652C186.308 66.9652 187.483 68.1435 187.483 69.6027ZM187.483 3.15239C187.483 4.6116 186.308 5.78995 184.858 5.78995C183.406 5.78995 182.23 4.6116 182.23 3.15239C182.23 1.69624 183.406 0.514832 184.858 0.514832C186.308 0.514832 187.483 1.69624 187.483 3.15239ZM187.483 36.2761C187.483 37.7353 186.308 38.9136 184.858 38.9136C183.406 38.9136 182.23 37.7353 182.23 36.2761C182.23 34.8169 183.406 33.6385 184.858 33.6385C186.308 33.6385 187.483 34.8169 187.483 36.2761ZM187.483 19.7156C187.483 21.1718 186.308 22.3532 184.858 22.3532C183.406 22.3532 182.23 21.1718 182.23 19.7156C182.23 18.2564 183.406 17.078 184.858 17.078C186.308 17.078 187.483 18.2564 187.483 19.7156Z" fill="white"/>
<path fill-rule="evenodd" clip-rule="evenodd" d="M5.76991 102.727C5.76991 104.183 4.59402 105.364 3.14465 105.364C1.69225 105.364 0.516357 104.183 0.516357 102.727C0.516357 101.267 1.69225 100.089 3.14465 100.089C4.59402 100.089 5.76991 101.267 5.76991 102.727ZM5.76991 135.848C5.76991 137.307 4.59402 138.485 3.14465 138.485C1.69225 138.485 0.516357 137.307 0.516357 135.848C0.516357 134.388 1.69225 133.21 3.14465 133.21C4.59402 133.21 5.76991 134.388 5.76991 135.848ZM5.76991 119.287C5.76991 120.746 4.59402 121.925 3.14465 121.925C1.69225 121.925 0.516357 120.746 0.516357 119.287C0.516357 117.828 1.69225 116.65 3.14465 116.65C4.59402 116.65 5.76991 117.828 5.76991 119.287ZM5.76991 53.0423C5.76991 54.5015 4.59402 55.6798 3.14465 55.6798C1.69225 55.6798 0.516357 54.5015 0.516357 53.0423C0.516357 51.5831 1.69225 50.4047 3.14465 50.4047C4.59402 50.4047 5.76991 51.5831 5.76991 53.0423ZM5.76991 86.1632C5.76991 87.6224 4.59402 88.8008 3.14465 88.8008C1.69225 88.8008 0.516357 87.6224 0.516357 86.1632C0.516357 84.707 1.69225 83.5256 3.14465 83.5256C4.59402 83.5256 5.76991 84.707 5.76991 86.1632ZM5.76991 69.6027C5.76991 71.0619 4.59402 72.2403 3.14465 72.2403C1.69225 72.2403 0.516357 71.0619 0.516357 69.6027C0.516357 68.1435 1.69225 66.9652 3.14465 66.9652C4.59402 66.9652 5.76991 68.1435 5.76991 69.6027ZM5.76991 3.15239C5.76991 4.6116 4.59402 5.78995 3.14465 5.78995C1.69225 5.78995 0.516357 4.6116 0.516357 3.15239C0.516357 1.69624 1.69225 0.514832 3.14465 0.514832C4.59402 0.514832 5.76991 1.69624 5.76991 3.15239ZM5.76991 36.2761C5.76991 37.7353 4.59402 38.9136 3.14465 38.9136C1.69225 38.9136 0.516357 37.7353 0.516357 36.2761C0.516357 34.8169 1.69225 33.6385 3.14465 33.6385C4.59402 33.6385 5.76991 34.8169 5.76991 36.2761ZM5.76991 19.7156C5.76991 21.1718 4.59402 22.3532 3.14465 22.3532C1.69225 22.3532 0.516357 21.1718 0.516357 19.7156C0.516357 18.2564 1.69225 17.078 3.14465 17.078C4.59402 17.078 5.76991 18.2564 5.76991 19.7156ZM22.6388 102.411C22.6388 103.329 22.1733 104.136 21.4671 104.608C20.9942 105.075 20.3445 105.364 19.6279 105.364C18.1755 105.364 16.9996 104.183 16.9996 102.727C16.9996 101.811 17.4623 101.007 18.1657 100.534C18.6402 100.063 19.2928 99.7732 20.0135 99.7732C21.4629 99.7732 22.6388 100.952 22.6388 102.411ZM22.2532 135.848C22.2532 137.307 21.0773 138.485 19.6279 138.485C18.1755 138.485 16.9996 137.307 16.9996 135.848C16.9996 134.388 18.1755 133.21 19.6279 133.21C21.0773 133.21 22.2532 134.388 22.2532 135.848ZM22.6388 118.971C22.6388 119.891 22.1719 120.7 21.464 121.173C20.9904 121.638 20.3424 121.925 19.6279 121.925C18.1755 121.925 16.9996 120.746 16.9996 119.287C16.9996 118.37 17.4641 117.564 18.1699 117.091C18.643 116.623 19.2944 116.334 20.0135 116.334C21.4629 116.334 22.6388 117.515 22.6388 118.971ZM22.2532 3.15239C22.2532 4.6116 21.0773 5.78995 19.6279 5.78995C18.1755 5.78995 16.9996 4.6116 16.9996 3.15239C16.9996 1.69624 18.1755 0.514832 19.6279 0.514832C21.0773 0.514832 22.2532 1.69624 22.2532 3.15239ZM22.2532 36.2761C22.2532 37.7353 21.0773 38.9136 19.6279 38.9136C18.1755 38.9136 16.9996 37.7353 16.9996 36.2761C16.9996 34.8169 18.1755 33.6385 19.6279 33.6385C21.0773 33.6385 22.2532 34.8169 22.2532 36.2761ZM22.2532 19.7156C22.2532 21.1718 21.0773 22.3532 19.6279 22.3532C18.1755 22.3532 16.9996 21.1718 16.9996 19.7156C16.9996 18.2564 18.1755 17.078 19.6279 17.078C21.0773 17.078 22.2532 18.2564 22.2532 19.7156ZM22.2532 53.0423C22.2532 54.5015 21.0773 55.6798 19.6279 55.6798C18.1755 55.6798 16.9996 54.5015 16.9996 53.0423C16.9996 51.5831 18.1755 50.4047 19.6279 50.4047C21.0773 50.4047 22.2532 51.5831 22.2532 53.0423ZM22.6388 85.8503C22.6388 86.771 22.1705 87.58 21.4609 88.0516C20.9876 88.5156 20.3408 88.8008 19.6279 88.8008C18.1755 88.8008 16.9996 87.6224 16.9996 86.1632C16.9996 85.2466 17.4655 84.4389 18.173 83.9661C18.6458 83.5004 19.2959 83.2127 20.0135 83.2127C21.4629 83.2127 22.6388 84.3911 22.6388 85.8503ZM22.2532 69.6027C22.2532 71.0619 21.0773 72.2403 19.6279 72.2403C18.1755 72.2403 16.9996 71.0619 16.9996 69.6027C16.9996 68.1435 18.1755 66.9652 19.6279 66.9652C21.0773 66.9652 22.2532 68.1435 22.2532 69.6027ZM38.7394 3.15239C38.7394 4.6116 37.5605 5.78995 36.1142 5.78995C34.6618 5.78995 33.4859 4.6116 33.4859 3.15239C33.4859 1.69624 34.6618 0.514832 36.1142 0.514832C37.5605 0.514832 38.7394 1.69624 38.7394 3.15239ZM39.125 102.411C39.125 103.329 38.6584 104.136 37.9521 104.608C37.479 105.075 36.8293 105.364 36.1142 105.364C34.6618 105.364 33.4859 104.183 33.4859 102.727C33.4859 101.811 33.9486 101.007 34.652 100.534C35.1264 100.063 35.7791 99.7732 36.4998 99.7732C37.9461 99.7732 39.125 100.952 39.125 102.411ZM39.125 85.8503C39.125 86.771 38.6556 87.58 37.9458 88.0516C37.4724 88.5156 36.8256 88.8008 36.1142 88.8008C34.6618 88.8008 33.4859 87.6224 33.4859 86.1632C33.4859 85.2466 33.9518 84.4389 34.6593 83.9661C35.1321 83.5004 35.7822 83.2127 36.4998 83.2127C37.9461 83.2127 39.125 84.3911 39.125 85.8503ZM38.7394 135.848C38.7394 137.307 37.5605 138.485 36.1142 138.485C34.6618 138.485 33.4859 137.307 33.4859 135.848C33.4859 134.388 34.6618 133.21 36.1142 133.21C37.5605 133.21 38.7394 134.388 38.7394 135.848ZM38.7394 36.2761C38.7394 37.7353 37.5605 38.9136 36.1142 38.9136C34.6618 38.9136 33.4859 37.7353 33.4859 36.2761C33.4859 34.8169 34.6618 33.6385 36.1142 33.6385C37.5605 33.6385 38.7394 34.8169 38.7394 36.2761ZM39.125 118.971C39.125 119.891 38.657 120.7 37.949 121.173C37.4752 121.638 36.8272 121.925 36.1142 121.925C34.6618 121.925 33.4859 120.746 33.4859 119.287C33.4859 118.37 33.9504 117.564 34.6562 117.091C35.1293 116.623 35.7807 116.334 36.4998 116.334C37.9461 116.334 39.125 117.515 39.125 118.971ZM38.7394 53.0423C38.7394 54.5015 37.5605 55.6798 36.1142 55.6798C34.6618 55.6798 33.4859 54.5015 33.4859 53.0423C33.4859 51.5831 34.6618 50.4047 36.1142 50.4047C37.5605 50.4047 38.7394 51.5831 38.7394 53.0423ZM38.7394 69.6027C38.7394 71.0619 37.5605 72.2403 36.1142 72.2403C34.6618 72.2403 33.4859 71.0619 33.4859 69.6027C33.4859 68.1435 34.6618 66.9652 36.1142 66.9652C37.5605 66.9652 38.7394 68.1435 38.7394 69.6027ZM38.7394 19.7156C38.7394 21.1718 37.5605 22.3532 36.1142 22.3532C34.6618 22.3532 33.4859 21.1718 33.4859 19.7156C33.4859 18.2564 34.6618 17.078 36.1142 17.078C37.5605 17.078 38.7394 18.2564 38.7394 19.7156ZM55.2227 53.0423C55.2227 54.5015 54.0468 55.6798 52.5974 55.6798C51.145 55.6798 49.9691 54.5015 49.9691 53.0423C49.9691 51.5831 51.145 50.4047 52.5974 50.4047C54.0468 50.4047 55.2227 51.5831 55.2227 53.0423ZM55.6083 85.8503C55.6083 86.7706 55.1405 87.5792 54.4314 88.0509C53.9581 88.5152 53.3109 88.8008 52.5974 88.8008C51.145 88.8008 49.9691 87.6224 49.9691 86.1632C49.9691 85.2478 50.4338 84.441 51.1397 83.968C51.6144 83.5008 52.2649 83.2127 52.983 83.2127C54.4324 83.2127 55.6083 84.3911 55.6083 85.8503ZM55.2227 135.848C55.2227 137.307 54.0468 138.485 52.5974 138.485C51.145 138.485 49.9691 137.307 49.9691 135.848C49.9691 134.388 51.145 133.21 52.5974 133.21C54.0468 133.21 55.2227 134.388 55.2227 135.848ZM55.2227 3.15239C55.2227 4.6116 54.0468 5.78995 52.5974 5.78995C51.145 5.78995 49.9691 4.6116 49.9691 3.15239C49.9691 1.69624 51.145 0.514832 52.5974 0.514832C54.0468 0.514832 55.2227 1.69624 55.2227 3.15239ZM55.2227 36.2761C55.2227 37.7353 54.0468 38.9136 52.5974 38.9136C51.145 38.9136 49.9691 37.7353 49.9691 36.2761C49.9691 34.8169 51.145 33.6385 52.5974 33.6385C54.0468 33.6385 55.2227 34.8169 55.2227 36.2761ZM55.6083 102.411C55.6083 103.328 55.1433 104.135 54.4377 104.607C53.9638 105.075 53.314 105.364 52.5974 105.364C51.145 105.364 49.9691 104.183 49.9691 102.727C49.9691 101.812 50.4311 101.008 51.1335 100.535C51.6087 100.064 52.2618 99.7732 52.983 99.7732C54.4324 99.7732 55.6083 100.952 55.6083 102.411ZM55.6083 118.971C55.6083 119.89 55.1419 120.699 54.4346 121.172C53.9609 121.638 53.3125 121.925 52.5974 121.925C51.145 121.925 49.9691 120.746 49.9691 119.287C49.9691 118.371 50.4324 117.566 51.1366 117.093C51.6116 116.624 52.2634 116.334 52.983 116.334C54.4324 116.334 55.6083 117.515 55.6083 118.971ZM55.2227 69.6027C55.2227 71.0619 54.0468 72.2403 52.5974 72.2403C51.145 72.2403 49.9691 71.0619 49.9691 69.6027C49.9691 68.1435 51.145 66.9652 52.5974 66.9652C54.0468 66.9652 55.2227 68.1435 55.2227 69.6027ZM55.2227 19.7156C55.2227 21.1718 54.0468 22.3532 52.5974 22.3532C51.145 22.3532 49.9691 21.1718 49.9691 19.7156C49.9691 18.2564 51.145 17.078 52.5974 17.078C54.0468 17.078 55.2227 18.2564 55.2227 19.7156ZM71.706 53.0423C71.706 54.5015 70.5301 55.6798 69.0807 55.6798C67.6313 55.6798 66.4524 54.5015 66.4524 53.0423C66.4524 51.5831 67.6313 50.4047 69.0807 50.4047C70.5301 50.4047 71.706 51.5831 71.706 53.0423ZM71.706 86.1632C71.706 87.6224 70.5301 88.8008 69.0807 88.8008C67.6313 88.8008 66.4524 87.6224 66.4524 86.1632C66.4524 84.707 67.6313 83.5256 69.0807 83.5256C70.5301 83.5256 71.706 84.707 71.706 86.1632ZM71.706 102.727C71.706 104.183 70.5301 105.364 69.0807 105.364C67.6313 105.364 66.4524 104.183 66.4524 102.727C66.4524 101.267 67.6313 100.089 69.0807 100.089C70.5301 100.089 71.706 101.267 71.706 102.727ZM71.706 69.6027C71.706 71.0619 70.5301 72.2403 69.0807 72.2403C67.6313 72.2403 66.4524 71.0619 66.4524 69.6027C66.4524 68.1435 67.6313 66.9652 69.0807 66.9652C70.5301 66.9652 71.706 68.1435 71.706 69.6027ZM71.706 3.15239C71.706 4.6116 70.5301 5.78995 69.0807 5.78995C67.6313 5.78995 66.4524 4.6116 66.4524 3.15239C66.4524 1.69624 67.6313 0.514832 69.0807 0.514832C70.5301 0.514832 71.706 1.69624 71.706 3.15239ZM71.706 135.848C71.706 137.307 70.5301 138.485 69.0807 138.485C67.6313 138.485 66.4524 137.307 66.4524 135.848C66.4524 134.388 67.6313 133.21 69.0807 133.21C70.5301 133.21 71.706 134.388 71.706 135.848ZM71.706 36.2761C71.706 37.7353 70.5301 38.9136 69.0807 38.9136C67.6313 38.9136 66.4524 37.7353 66.4524 36.2761C66.4524 34.8169 67.6313 33.6385 69.0807 33.6385C70.5301 33.6385 71.706 34.8169 71.706 36.2761ZM71.706 19.7156C71.706 21.1718 70.5301 22.3532 69.0807 22.3532C67.6313 22.3532 66.4524 21.1718 66.4524 19.7156C66.4524 18.2564 67.6313 17.078 69.0807 17.078C70.5301 17.078 71.706 18.2564 71.706 19.7156ZM71.706 119.287C71.706 120.746 70.5301 121.925 69.0807 121.925C67.6313 121.925 66.4524 120.746 66.4524 119.287C66.4524 117.828 67.6313 116.65 69.0807 116.65C70.5301 116.65 71.706 117.828 71.706 119.287ZM88.1919 135.848C88.1919 137.307 87.016 138.485 85.5667 138.485C84.1143 138.485 82.9384 137.307 82.9384 135.848C82.9384 134.388 84.1143 133.21 85.5667 133.21C87.016 133.21 88.1919 134.388 88.1919 135.848ZM88.1919 119.287C88.1919 120.746 87.016 121.925 85.5667 121.925C84.1143 121.925 82.9384 120.746 82.9384 119.287C82.9384 117.828 84.1143 116.65 85.5667 116.65C87.016 116.65 88.1919 117.828 88.1919 119.287ZM88.1919 53.0423C88.1919 54.5015 87.016 55.6798 85.5667 55.6798C84.1143 55.6798 82.9384 54.5015 82.9384 53.0423C82.9384 51.5831 84.1143 50.4047 85.5667 50.4047C87.016 50.4047 88.1919 51.5831 88.1919 53.0423ZM88.1919 86.1632C88.1919 87.6224 87.016 88.8008 85.5667 88.8008C84.1143 88.8008 82.9384 87.6224 82.9384 86.1632C82.9384 84.707 84.1143 83.5256 85.5667 83.5256C87.016 83.5256 88.1919 84.707 88.1919 86.1632ZM88.1919 69.6027C88.1919 71.0619 87.016 72.2403 85.5667 72.2403C84.1143 72.2403 82.9384 71.0619 82.9384 69.6027C82.9384 68.1435 84.1143 66.9652 85.5667 66.9652C87.016 66.9652 88.1919 68.1435 88.1919 69.6027ZM88.1919 102.727C88.1919 104.183 87.016 105.364 85.5667 105.364C84.1143 105.364 82.9384 104.183 82.9384 102.727C82.9384 101.267 84.1143 100.089 85.5667 100.089C87.016 100.089 88.1919 101.267 88.1919 102.727ZM88.1919 3.15239C88.1919 4.6116 87.016 5.78995 85.5667 5.78995C84.1143 5.78995 82.9384 4.6116 82.9384 3.15239C82.9384 1.69624 84.1143 0.514832 85.5667 0.514832C87.016 0.514832 88.1919 1.69624 88.1919 3.15239ZM88.1919 36.2761C88.1919 37.7353 87.016 38.9136 85.5667 38.9136C84.1143 38.9136 82.9384 37.7353 82.9384 36.2761C82.9384 34.8169 84.1143 33.6385 85.5667 33.6385C87.016 33.6385 88.1919 34.8169 88.1919 36.2761ZM88.1919 19.7156C88.1919 21.1718 87.016 22.3532 85.5667 22.3532C84.1143 22.3532 82.9384 21.1718 82.9384 19.7156C82.9384 18.2564 84.1143 17.078 85.5667 17.078C87.016 17.078 88.1919 18.2564 88.1919 19.7156ZM105.061 119.287C105.061 120.746 103.885 121.925 102.436 121.925C100.983 121.925 99.8075 120.746 99.8075 119.287C99.8075 117.828 100.983 116.65 102.436 116.65C103.885 116.65 105.061 117.828 105.061 119.287ZM105.061 3.15239C105.061 4.6116 103.885 5.78995 102.436 5.78995C100.983 5.78995 99.8075 4.6116 99.8075 3.15239C99.8075 1.69624 100.983 0.514832 102.436 0.514832C103.885 0.514832 105.061 1.69624 105.061 3.15239ZM105.061 102.727C105.061 104.183 103.885 105.364 102.436 105.364C100.983 105.364 99.8075 104.183 99.8075 102.727C99.8075 101.267 100.983 100.089 102.436 100.089C103.885 100.089 105.061 101.267 105.061 102.727ZM105.061 36.2761C105.061 37.7353 103.885 38.9136 102.436 38.9136C100.983 38.9136 99.8075 37.7353 99.8075 36.2761C99.8075 34.8169 100.983 33.6385 102.436 33.6385C103.885 33.6385 105.061 34.8169 105.061 36.2761ZM105.061 135.848C105.061 137.307 103.885 138.485 102.436 138.485C100.983 138.485 99.8075 137.307 99.8075 135.848C99.8075 134.388 100.983 133.21 102.436 133.21C103.885 133.21 105.061 134.388 105.061 135.848ZM105.061 69.6027C105.061 71.0619 103.885 72.2403 102.436 72.2403C100.983 72.2403 99.8075 71.0619 99.8075 69.6027C99.8075 68.1435 100.983 66.9652 102.436 66.9652C103.885 66.9652 105.061 68.1435 105.061 69.6027ZM105.061 53.0423C105.061 54.5015 103.885 55.6798 102.436 55.6798C100.983 55.6798 99.8075 54.5015 99.8075 53.0423C99.8075 51.5831 100.983 50.4047 102.436 50.4047C103.885 50.4047 105.061 51.5831 105.061 53.0423ZM105.061 86.1632C105.061 87.6224 103.885 88.8008 102.436 88.8008C100.983 88.8008 99.8075 87.6224 99.8075 86.1632C99.8075 84.707 100.983 83.5256 102.436 83.5256C103.885 83.5256 105.061 84.707 105.061 86.1632ZM105.061 19.7156C105.061 21.1718 103.885 22.3532 102.436 22.3532C100.983 22.3532 99.8075 21.1718 99.8075 19.7156C99.8075 18.2564 100.983 17.078 102.436 17.078C103.885 17.078 105.061 18.2564 105.061 19.7156ZM121.547 19.7156C121.547 21.1718 120.368 22.3532 118.922 22.3532C117.47 22.3532 116.294 21.1718 116.294 19.7156C116.294 18.2564 117.47 17.078 118.922 17.078C120.368 17.078 121.547 18.2564 121.547 19.7156ZM121.547 135.848C121.547 137.307 120.368 138.485 118.922 138.485C117.47 138.485 116.294 137.307 116.294 135.848C116.294 134.388 117.47 133.21 118.922 133.21C120.368 133.21 121.547 134.388 121.547 135.848ZM121.547 86.1632C121.547 87.6224 120.368 88.8008 118.922 88.8008C117.47 88.8008 116.294 87.6224 116.294 86.1632C116.294 84.707 117.47 83.5256 118.922 83.5256C120.368 83.5256 121.547 84.707 121.547 86.1632ZM121.547 119.287C121.547 120.746 120.368 121.925 118.922 121.925C117.47 121.925 116.294 120.746 116.294 119.287C116.294 117.828 117.47 116.65 118.922 116.65C120.368 116.65 121.547 117.828 121.547 119.287ZM121.547 102.727C121.547 104.183 120.368 105.364 118.922 105.364C117.47 105.364 116.294 104.183 116.294 102.727C116.294 101.267 117.47 100.089 118.922 100.089C120.368 100.089 121.547 101.267 121.547 102.727ZM121.547 53.0423C121.547 54.5015 120.368 55.6798 118.922 55.6798C117.47 55.6798 116.294 54.5015 116.294 53.0423C116.294 51.5831 117.47 50.4047 118.922 50.4047C120.368 50.4047 121.547 51.5831 121.547 53.0423ZM121.547 3.15239C121.547 4.6116 120.368 5.78995 118.922 5.78995C117.47 5.78995 116.294 4.6116 116.294 3.15239C116.294 1.69624 117.47 0.514832 118.922 0.514832C120.368 0.514832 121.547 1.69624 121.547 3.15239ZM121.547 69.6027C121.547 71.0619 120.368 72.2403 118.922 72.2403C117.47 72.2403 116.294 71.0619 116.294 69.6027C116.294 68.1435 117.47 66.9652 118.922 66.9652C120.368 66.9652 121.547 68.1435 121.547 69.6027ZM121.547 36.2761C121.547 37.7353 120.368 38.9136 118.922 38.9136C117.47 38.9136 116.294 37.7353 116.294 36.2761C116.294 34.8169 117.47 33.6385 118.922 33.6385C120.368 33.6385 121.547 34.8169 121.547 36.2761ZM138.031 19.7156C138.031 21.1718 136.855 22.3532 135.405 22.3532C133.953 22.3532 132.777 21.1718 132.777 19.7156C132.777 18.2564 133.953 17.078 135.405 17.078C136.855 17.078 138.031 18.2564 138.031 19.7156ZM138.031 135.848C138.031 137.307 136.855 138.485 135.405 138.485C133.953 138.485 132.777 137.307 132.777 135.848C132.777 134.388 133.953 133.21 135.405 133.21C136.855 133.21 138.031 134.388 138.031 135.848ZM138.031 36.2761C138.031 37.7353 136.855 38.9136 135.405 38.9136C133.953 38.9136 132.777 37.7353 132.777 36.2761C132.777 34.8169 133.953 33.6385 135.405 33.6385C136.855 33.6385 138.031 34.8169 138.031 36.2761ZM138.031 119.287C138.031 120.746 136.855 121.925 135.405 121.925C133.953 121.925 132.777 120.746 132.777 119.287C132.777 117.828 133.953 116.65 135.405 116.65C136.855 116.65 138.031 117.828 138.031 119.287ZM138.031 69.6027C138.031 71.0619 136.855 72.2403 135.405 72.2403C133.953 72.2403 132.777 71.0619 132.777 69.6027C132.777 68.1435 133.953 66.9652 135.405 66.9652C136.855 66.9652 138.031 68.1435 138.031 69.6027ZM138.031 86.1632C138.031 87.6224 136.855 88.8008 135.405 88.8008C133.953 88.8008 132.777 87.6224 132.777 86.1632C132.777 84.707 133.953 83.5256 135.405 83.5256C136.855 83.5256 138.031 84.707 138.031 86.1632ZM138.031 102.727C138.031 104.183 136.855 105.364 135.405 105.364C133.953 105.364 132.777 104.183 132.777 102.727C132.777 101.267 133.953 100.089 135.405 100.089C136.855 100.089 138.031 101.267 138.031 102.727ZM138.031 3.15239C138.031 4.6116 136.855 5.78995 135.405 5.78995C133.953 5.78995 132.777 4.6116 132.777 3.15239C132.777 1.69624 133.953 0.514832 135.405 0.514832C136.855 0.514832 138.031 1.69624 138.031 3.15239ZM138.031 53.0423C138.031 54.5015 136.855 55.6798 135.405 55.6798C133.953 55.6798 132.777 54.5015 132.777 53.0423C132.777 51.5831 133.953 50.4047 135.405 50.4047C136.855 50.4047 138.031 51.5831 138.031 53.0423ZM154.514 3.15239C154.514 4.6116 153.338 5.78995 151.889 5.78995C150.439 5.78995 149.26 4.6116 149.26 3.15239C149.26 1.69624 150.439 0.514832 151.889 0.514832C153.338 0.514832 154.514 1.69624 154.514 3.15239ZM154.514 102.727C154.514 104.183 153.338 105.364 151.889 105.364C150.439 105.364 149.26 104.183 149.26 102.727C149.26 101.267 150.439 100.089 151.889 100.089C153.338 100.089 154.514 101.267 154.514 102.727ZM154.514 53.0423C154.514 54.5015 153.338 55.6798 151.889 55.6798C150.439 55.6798 149.26 54.5015 149.26 53.0423C149.26 51.5831 150.439 50.4047 151.889 50.4047C153.338 50.4047 154.514 51.5831 154.514 53.0423ZM154.514 36.2761C154.514 37.7353 153.338 38.9136 151.889 38.9136C150.439 38.9136 149.26 37.7353 149.26 36.2761C149.26 34.8169 150.439 33.6385 151.889 33.6385C153.338 33.6385 154.514 34.8169 154.514 36.2761ZM154.514 86.1632C154.514 87.6224 153.338 88.8008 151.889 88.8008C150.439 88.8008 149.26 87.6224 149.26 86.1632C149.26 84.707 150.439 83.5256 151.889 83.5256C153.338 83.5256 154.514 84.707 154.514 86.1632ZM154.514 19.7156C154.514 21.1718 153.338 22.3532 151.889 22.3532C150.439 22.3532 149.26 21.1718 149.26 19.7156C149.26 18.2564 150.439 17.078 151.889 17.078C153.338 17.078 154.514 18.2564 154.514 19.7156ZM154.514 69.6027C154.514 71.0619 153.338 72.2403 151.889 72.2403C150.439 72.2403 149.26 71.0619 149.26 69.6027C149.26 68.1435 150.439 66.9652 151.889 66.9652C153.338 66.9652 154.514 68.1435 154.514 69.6027ZM154.514 119.287C154.514 120.746 153.338 121.925 151.889 121.925C150.439 121.925 149.26 120.746 149.26 119.287C149.26 117.828 150.439 116.65 151.889 116.65C153.338 116.65 154.514 117.828 154.514 119.287ZM154.514 135.848C154.514 137.307 153.338 138.485 151.889 138.485C150.439 138.485 149.26 137.307 149.26 135.848C149.26 134.388 150.439 133.21 151.889 133.21C153.338 133.21 154.514 134.388 154.514 135.848ZM171 102.727C171 104.183 169.824 105.364 168.375 105.364C166.922 105.364 165.747 104.183 165.747 102.727C165.747 101.267 166.922 100.089 168.375 100.089C169.824 100.089 171 101.267 171 102.727ZM171 135.848C171 137.307 169.824 138.485 168.375 138.485C166.922 138.485 165.747 137.307 165.747 135.848C165.747 134.388 166.922 133.21 168.375 133.21C169.824 133.21 171 134.388 171 135.848ZM171 19.7156C171 21.1718 169.824 22.3532 168.375 22.3532C166.922 22.3532 165.747 21.1718 165.747 19.7156C165.747 18.2564 166.922 17.078 168.375 17.078C169.824 17.078 171 18.2564 171 19.7156ZM171 119.287C171 120.746 169.824 121.925 168.375 121.925C166.922 121.925 165.747 120.746 165.747 119.287C165.747 117.828 166.922 116.65 168.375 116.65C169.824 116.65 171 117.828 171 119.287ZM171 53.0423C171 54.5015 169.824 55.6798 168.375 55.6798C166.922 55.6798 165.747 54.5015 165.747 53.0423C165.747 51.5831 166.922 50.4047 168.375 50.4047C169.824 50.4047 171 51.5831 171 53.0423ZM171 86.1632C171 87.6224 169.824 88.8008 168.375 88.8008C166.922 88.8008 165.747 87.6224 165.747 86.1632C165.747 84.707 166.922 83.5256 168.375 83.5256C169.824 83.5256 171 84.707 171 86.1632ZM171 69.6027C171 71.0619 169.824 72.2403 168.375 72.2403C166.922 72.2403 165.747 71.0619 165.747 69.6027C165.747 68.1435 166.922 66.9652 168.375 66.9652C169.824 66.9652 171 68.1435 171 69.6027ZM171 3.15239C171 4.6116 169.824 5.78995 168.375 5.78995C166.922 5.78995 165.747 4.6116 165.747 3.15239C165.747 1.69624 166.922 0.514832 168.375 0.514832C169.824 0.514832 171 1.69624 171 3.15239ZM171 36.2761C171 37.7353 169.824 38.9136 168.375 38.9136C166.922 38.9136 165.747 37.7353 165.747 36.2761C165.747 34.8169 166.922 33.6385 168.375 33.6385C169.824 33.6385 171 34.8169 171 36.2761ZM187.483 102.727C187.483 104.183 186.308 105.364 184.858 105.364C183.406 105.364 182.23 104.183 182.23 102.727C182.23 101.267 183.406 100.089 184.858 100.089C186.308 100.089 187.483 101.267 187.483 102.727ZM187.483 135.848C187.483 137.307 186.308 138.485 184.858 138.485C183.406 138.485 182.23 137.307 182.23 135.848C182.23 134.388 183.406 133.21 184.858 133.21C186.308 133.21 187.483 134.388 187.483 135.848ZM187.483 119.287C187.483 120.746 186.308 121.925 184.858 121.925C183.406 121.925 182.23 120.746 182.23 119.287C182.23 117.828 183.406 116.65 184.858 116.65C186.308 116.65 187.483 117.828 187.483 119.287ZM187.483 53.0423C187.483 54.5015 186.308 55.6798 184.858 55.6798C183.406 55.6798 182.23 54.5015 182.23 53.0423C182.23 51.5831 183.406 50.4047 184.858 50.4047C186.308 50.4047 187.483 51.5831 187.483 53.0423ZM187.483 86.1632C187.483 87.6224 186.308 88.8008 184.858 88.8008C183.406 88.8008 182.23 87.6224 182.23 86.1632C182.23 84.707 183.406 83.5256 184.858 83.5256C186.308 83.5256 187.483 84.707 187.483 86.1632ZM187.483 69.6027C187.483 71.0619 186.308 72.2403 184.858 72.2403C183.406 72.2403 182.23 71.0619 182.23 69.6027C182.23 68.1435 183.406 66.9652 184.858 66.9652C186.308 66.9652 187.483 68.1435 187.483 69.6027ZM187.483 3.15239C187.483 4.6116 186.308 5.78995 184.858 5.78995C183.406 5.78995 182.23 4.6116 182.23 3.15239C182.23 1.69624 183.406 0.514832 184.858 0.514832C186.308 0.514832 187.483 1.69624 187.483 3.15239ZM187.483 36.2761C187.483 37.7353 186.308 38.9136 184.858 38.9136C183.406 38.9136 182.23 37.7353 182.23 36.2761C182.23 34.8169 183.406 33.6385 184.858 33.6385C186.308 33.6385 187.483 34.8169 187.483 36.2761ZM187.483 19.7156C187.483 21.1718 186.308 22.3532 184.858 22.3532C183.406 22.3532 182.23 21.1718 182.23 19.7156C182.23 18.2564 183.406 17.078 184.858 17.078C186.308 17.078 187.483 18.2564 187.483 19.7156Z" fill="#4461D7"/>
<mask id="mask0" mask-type="alpha" maskUnits="userSpaceOnUse" x="0" y="0" width="188" height="139">
<path fill-rule="evenodd" clip-rule="evenodd" d="M5.76991 102.727C5.76991 104.183 4.59402 105.364 3.14465 105.364C1.69225 105.364 0.516357 104.183 0.516357 102.727C0.516357 101.267 1.69225 100.089 3.14465 100.089C4.59402 100.089 5.76991 101.267 5.76991 102.727ZM5.76991 135.848C5.76991 137.307 4.59402 138.485 3.14465 138.485C1.69225 138.485 0.516357 137.307 0.516357 135.848C0.516357 134.388 1.69225 133.21 3.14465 133.21C4.59402 133.21 5.76991 134.388 5.76991 135.848ZM5.76991 119.287C5.76991 120.746 4.59402 121.925 3.14465 121.925C1.69225 121.925 0.516357 120.746 0.516357 119.287C0.516357 117.828 1.69225 116.65 3.14465 116.65C4.59402 116.65 5.76991 117.828 5.76991 119.287ZM5.76991 53.0423C5.76991 54.5015 4.59402 55.6798 3.14465 55.6798C1.69225 55.6798 0.516357 54.5015 0.516357 53.0423C0.516357 51.5831 1.69225 50.4047 3.14465 50.4047C4.59402 50.4047 5.76991 51.5831 5.76991 53.0423ZM5.76991 86.1632C5.76991 87.6224 4.59402 88.8008 3.14465 88.8008C1.69225 88.8008 0.516357 87.6224 0.516357 86.1632C0.516357 84.707 1.69225 83.5256 3.14465 83.5256C4.59402 83.5256 5.76991 84.707 5.76991 86.1632ZM5.76991 69.6027C5.76991 71.0619 4.59402 72.2403 3.14465 72.2403C1.69225 72.2403 0.516357 71.0619 0.516357 69.6027C0.516357 68.1435 1.69225 66.9652 3.14465 66.9652C4.59402 66.9652 5.76991 68.1435 5.76991 69.6027ZM5.76991 3.15239C5.76991 4.6116 4.59402 5.78995 3.14465 5.78995C1.69225 5.78995 0.516357 4.6116 0.516357 3.15239C0.516357 1.69624 1.69225 0.514832 3.14465 0.514832C4.59402 0.514832 5.76991 1.69624 5.76991 3.15239ZM5.76991 36.2761C5.76991 37.7353 4.59402 38.9136 3.14465 38.9136C1.69225 38.9136 0.516357 37.7353 0.516357 36.2761C0.516357 34.8169 1.69225 33.6385 3.14465 33.6385C4.59402 33.6385 5.76991 34.8169 5.76991 36.2761ZM5.76991 19.7156C5.76991 21.1718 4.59402 22.3532 3.14465 22.3532C1.69225 22.3532 0.516357 21.1718 0.516357 19.7156C0.516357 18.2564 1.69225 17.078 3.14465 17.078C4.59402 17.078 5.76991 18.2564 5.76991 19.7156ZM22.6388 102.411C22.6388 103.329 22.1733 104.136 21.4671 104.608C20.9942 105.075 20.3445 105.364 19.6279 105.364C18.1755 105.364 16.9996 104.183 16.9996 102.727C16.9996 101.811 17.4623 101.007 18.1657 100.534C18.6402 100.063 19.2928 99.7732 20.0135 99.7732C21.4629 99.7732 22.6388 100.952 22.6388 102.411ZM22.2532 135.848C22.2532 137.307 21.0773 138.485 19.6279 138.485C18.1755 138.485 16.9996 137.307 16.9996 135.848C16.9996 134.388 18.1755 133.21 19.6279 133.21C21.0773 133.21 22.2532 134.388 22.2532 135.848ZM22.6388 118.971C22.6388 119.891 22.1719 120.7 21.464 121.173C20.9904 121.638 20.3424 121.925 19.6279 121.925C18.1755 121.925 16.9996 120.746 16.9996 119.287C16.9996 118.37 17.4641 117.564 18.1699 117.091C18.643 116.623 19.2944 116.334 20.0135 116.334C21.4629 116.334 22.6388 117.515 22.6388 118.971ZM22.2532 3.15239C22.2532 4.6116 21.0773 5.78995 19.6279 5.78995C18.1755 5.78995 16.9996 4.6116 16.9996 3.15239C16.9996 1.69624 18.1755 0.514832 19.6279 0.514832C21.0773 0.514832 22.2532 1.69624 22.2532 3.15239ZM22.2532 36.2761C22.2532 37.7353 21.0773 38.9136 19.6279 38.9136C18.1755 38.9136 16.9996 37.7353 16.9996 36.2761C16.9996 34.8169 18.1755 33.6385 19.6279 33.6385C21.0773 33.6385 22.2532 34.8169 22.2532 36.2761ZM22.2532 19.7156C22.2532 21.1718 21.0773 22.3532 19.6279 22.3532C18.1755 22.3532 16.9996 21.1718 16.9996 19.7156C16.9996 18.2564 18.1755 17.078 19.6279 17.078C21.0773 17.078 22.2532 18.2564 22.2532 19.7156ZM22.2532 53.0423C22.2532 54.5015 21.0773 55.6798 19.6279 55.6798C18.1755 55.6798 16.9996 54.5015 16.9996 53.0423C16.9996 51.5831 18.1755 50.4047 19.6279 50.4047C21.0773 50.4047 22.2532 51.5831 22.2532 53.0423ZM22.6388 85.8503C22.6388 86.771 22.1705 87.58 21.4609 88.0516C20.9876 88.5156 20.3408 88.8008 19.6279 88.8008C18.1755 88.8008 16.9996 87.6224 16.9996 86.1632C16.9996 85.2466 17.4655 84.4389 18.173 83.9661C18.6458 83.5004 19.2959 83.2127 20.0135 83.2127C21.4629 83.2127 22.6388 84.3911 22.6388 85.8503ZM22.2532 69.6027C22.2532 71.0619 21.0773 72.2403 19.6279 72.2403C18.1755 72.2403 16.9996 71.0619 16.9996 69.6027C16.9996 68.1435 18.1755 66.9652 19.6279 66.9652C21.0773 66.9652 22.2532 68.1435 22.2532 69.6027ZM38.7394 3.15239C38.7394 4.6116 37.5605 5.78995 36.1142 5.78995C34.6618 5.78995 33.4859 4.6116 33.4859 3.15239C33.4859 1.69624 34.6618 0.514832 36.1142 0.514832C37.5605 0.514832 38.7394 1.69624 38.7394 3.15239ZM39.125 102.411C39.125 103.329 38.6584 104.136 37.9521 104.608C37.479 105.075 36.8293 105.364 36.1142 105.364C34.6618 105.364 33.4859 104.183 33.4859 102.727C33.4859 101.811 33.9486 101.007 34.652 100.534C35.1264 100.063 35.7791 99.7732 36.4998 99.7732C37.9461 99.7732 39.125 100.952 39.125 102.411ZM39.125 85.8503C39.125 86.771 38.6556 87.58 37.9458 88.0516C37.4724 88.5156 36.8256 88.8008 36.1142 88.8008C34.6618 88.8008 33.4859 87.6224 33.4859 86.1632C33.4859 85.2466 33.9518 84.4389 34.6593 83.9661C35.1321 83.5004 35.7822 83.2127 36.4998 83.2127C37.9461 83.2127 39.125 84.3911 39.125 85.8503ZM38.7394 135.848C38.7394 137.307 37.5605 138.485 36.1142 138.485C34.6618 138.485 33.4859 137.307 33.4859 135.848C33.4859 134.388 34.6618 133.21 36.1142 133.21C37.5605 133.21 38.7394 134.388 38.7394 135.848ZM38.7394 36.2761C38.7394 37.7353 37.5605 38.9136 36.1142 38.9136C34.6618 38.9136 33.4859 37.7353 33.4859 36.2761C33.4859 34.8169 34.6618 33.6385 36.1142 33.6385C37.5605 33.6385 38.7394 34.8169 38.7394 36.2761ZM39.125 118.971C39.125 119.891 38.657 120.7 37.949 121.173C37.4752 121.638 36.8272 121.925 36.1142 121.925C34.6618 121.925 33.4859 120.746 33.4859 119.287C33.4859 118.37 33.9504 117.564 34.6562 117.091C35.1293 116.623 35.7807 116.334 36.4998 116.334C37.9461 116.334 39.125 117.515 39.125 118.971ZM38.7394 53.0423C38.7394 54.5015 37.5605 55.6798 36.1142 55.6798C34.6618 55.6798 33.4859 54.5015 33.4859 53.0423C33.4859 51.5831 34.6618 50.4047 36.1142 50.4047C37.5605 50.4047 38.7394 51.5831 38.7394 53.0423ZM38.7394 69.6027C38.7394 71.0619 37.5605 72.2403 36.1142 72.2403C34.6618 72.2403 33.4859 71.0619 33.4859 69.6027C33.4859 68.1435 34.6618 66.9652 36.1142 66.9652C37.5605 66.9652 38.7394 68.1435 38.7394 69.6027ZM38.7394 19.7156C38.7394 21.1718 37.5605 22.3532 36.1142 22.3532C34.6618 22.3532 33.4859 21.1718 33.4859 19.7156C33.4859 18.2564 34.6618 17.078 36.1142 17.078C37.5605 17.078 38.7394 18.2564 38.7394 19.7156ZM55.2227 53.0423C55.2227 54.5015 54.0468 55.6798 52.5974 55.6798C51.145 55.6798 49.9691 54.5015 49.9691 53.0423C49.9691 51.5831 51.145 50.4047 52.5974 50.4047C54.0468 50.4047 55.2227 51.5831 55.2227 53.0423ZM55.6083 85.8503C55.6083 86.7706 55.1405 87.5792 54.4314 88.0509C53.9581 88.5152 53.3109 88.8008 52.5974 88.8008C51.145 88.8008 49.9691 87.6224 49.9691 86.1632C49.9691 85.2478 50.4338 84.441 51.1397 83.968C51.6144 83.5008 52.2649 83.2127 52.983 83.2127C54.4324 83.2127 55.6083 84.3911 55.6083 85.8503ZM55.2227 135.848C55.2227 137.307 54.0468 138.485 52.5974 138.485C51.145 138.485 49.9691 137.307 49.9691 135.848C49.9691 134.388 51.145 133.21 52.5974 133.21C54.0468 133.21 55.2227 134.388 55.2227 135.848ZM55.2227 3.15239C55.2227 4.6116 54.0468 5.78995 52.5974 5.78995C51.145 5.78995 49.9691 4.6116 49.9691 3.15239C49.9691 1.69624 51.145 0.514832 52.5974 0.514832C54.0468 0.514832 55.2227 1.69624 55.2227 3.15239ZM55.2227 36.2761C55.2227 37.7353 54.0468 38.9136 52.5974 38.9136C51.145 38.9136 49.9691 37.7353 49.9691 36.2761C49.9691 34.8169 51.145 33.6385 52.5974 33.6385C54.0468 33.6385 55.2227 34.8169 55.2227 36.2761ZM55.6083 102.411C55.6083 103.328 55.1433 104.135 54.4377 104.607C53.9638 105.075 53.314 105.364 52.5974 105.364C51.145 105.364 49.9691 104.183 49.9691 102.727C49.9691 101.812 50.4311 101.008 51.1335 100.535C51.6087 100.064 52.2618 99.7732 52.983 99.7732C54.4324 99.7732 55.6083 100.952 55.6083 102.411ZM55.6083 118.971C55.6083 119.89 55.1419 120.699 54.4346 121.172C53.9609 121.638 53.3125 121.925 52.5974 121.925C51.145 121.925 49.9691 120.746 49.9691 119.287C49.9691 118.371 50.4324 117.566 51.1366 117.093C51.6116 116.624 52.2634 116.334 52.983 116.334C54.4324 116.334 55.6083 117.515 55.6083 118.971ZM55.2227 69.6027C55.2227 71.0619 54.0468 72.2403 52.5974 72.2403C51.145 72.2403 49.9691 71.0619 49.9691 69.6027C49.9691 68.1435 51.145 66.9652 52.5974 66.9652C54.0468 66.9652 55.2227 68.1435 55.2227 69.6027ZM55.2227 19.7156C55.2227 21.1718 54.0468 22.3532 52.5974 22.3532C51.145 22.3532 49.9691 21.1718 49.9691 19.7156C49.9691 18.2564 51.145 17.078 52.5974 17.078C54.0468 17.078 55.2227 18.2564 55.2227 19.7156ZM71.706 53.0423C71.706 54.5015 70.5301 55.6798 69.0807 55.6798C67.6313 55.6798 66.4524 54.5015 66.4524 53.0423C66.4524 51.5831 67.6313 50.4047 69.0807 50.4047C70.5301 50.4047 71.706 51.5831 71.706 53.0423ZM71.706 86.1632C71.706 87.6224 70.5301 88.8008 69.0807 88.8008C67.6313 88.8008 66.4524 87.6224 66.4524 86.1632C66.4524 84.707 67.6313 83.5256 69.0807 83.5256C70.5301 83.5256 71.706 84.707 71.706 86.1632ZM71.706 102.727C71.706 104.183 70.5301 105.364 69.0807 105.364C67.6313 105.364 66.4524 104.183 66.4524 102.727C66.4524 101.267 67.6313 100.089 69.0807 100.089C70.5301 100.089 71.706 101.267 71.706 102.727ZM71.706 69.6027C71.706 71.0619 70.5301 72.2403 69.0807 72.2403C67.6313 72.2403 66.4524 71.0619 66.4524 69.6027C66.4524 68.1435 67.6313 66.9652 69.0807 66.9652C70.5301 66.9652 71.706 68.1435 71.706 69.6027ZM71.706 3.15239C71.706 4.6116 70.5301 5.78995 69.0807 5.78995C67.6313 5.78995 66.4524 4.6116 66.4524 3.15239C66.4524 1.69624 67.6313 0.514832 69.0807 0.514832C70.5301 0.514832 71.706 1.69624 71.706 3.15239ZM71.706 135.848C71.706 137.307 70.5301 138.485 69.0807 138.485C67.6313 138.485 66.4524 137.307 66.4524 135.848C66.4524 134.388 67.6313 133.21 69.0807 133.21C70.5301 133.21 71.706 134.388 71.706 135.848ZM71.706 36.2761C71.706 37.7353 70.5301 38.9136 69.0807 38.9136C67.6313 38.9136 66.4524 37.7353 66.4524 36.2761C66.4524 34.8169 67.6313 33.6385 69.0807 33.6385C70.5301 33.6385 71.706 34.8169 71.706 36.2761ZM71.706 19.7156C71.706 21.1718 70.5301 22.3532 69.0807 22.3532C67.6313 22.3532 66.4524 21.1718 66.4524 19.7156C66.4524 18.2564 67.6313 17.078 69.0807 17.078C70.5301 17.078 71.706 18.2564 71.706 19.7156ZM71.706 119.287C71.706 120.746 70.5301 121.925 69.0807 121.925C67.6313 121.925 66.4524 120.746 66.4524 119.287C66.4524 117.828 67.6313 116.65 69.0807 116.65C70.5301 116.65 71.706 117.828 71.706 119.287ZM88.1919 135.848C88.1919 137.307 87.016 138.485 85.5667 138.485C84.1143 138.485 82.9384 137.307 82.9384 135.848C82.9384 134.388 84.1143 133.21 85.5667 133.21C87.016 133.21 88.1919 134.388 88.1919 135.848ZM88.1919 119.287C88.1919 120.746 87.016 121.925 85.5667 121.925C84.1143 121.925 82.9384 120.746 82.9384 119.287C82.9384 117.828 84.1143 116.65 85.5667 116.65C87.016 116.65 88.1919 117.828 88.1919 119.287ZM88.1919 53.0423C88.1919 54.5015 87.016 55.6798 85.5667 55.6798C84.1143 55.6798 82.9384 54.5015 82.9384 53.0423C82.9384 51.5831 84.1143 50.4047 85.5667 50.4047C87.016 50.4047 88.1919 51.5831 88.1919 53.0423ZM88.1919 86.1632C88.1919 87.6224 87.016 88.8008 85.5667 88.8008C84.1143 88.8008 82.9384 87.6224 82.9384 86.1632C82.9384 84.707 84.1143 83.5256 85.5667 83.5256C87.016 83.5256 88.1919 84.707 88.1919 86.1632ZM88.1919 69.6027C88.1919 71.0619 87.016 72.2403 85.5667 72.2403C84.1143 72.2403 82.9384 71.0619 82.9384 69.6027C82.9384 68.1435 84.1143 66.9652 85.5667 66.9652C87.016 66.9652 88.1919 68.1435 88.1919 69.6027ZM88.1919 102.727C88.1919 104.183 87.016 105.364 85.5667 105.364C84.1143 105.364 82.9384 104.183 82.9384 102.727C82.9384 101.267 84.1143 100.089 85.5667 100.089C87.016 100.089 88.1919 101.267 88.1919 102.727ZM88.1919 3.15239C88.1919 4.6116 87.016 5.78995 85.5667 5.78995C84.1143 5.78995 82.9384 4.6116 82.9384 3.15239C82.9384 1.69624 84.1143 0.514832 85.5667 0.514832C87.016 0.514832 88.1919 1.69624 88.1919 3.15239ZM88.1919 36.2761C88.1919 37.7353 87.016 38.9136 85.5667 38.9136C84.1143 38.9136 82.9384 37.7353 82.9384 36.2761C82.9384 34.8169 84.1143 33.6385 85.5667 33.6385C87.016 33.6385 88.1919 34.8169 88.1919 36.2761ZM88.1919 19.7156C88.1919 21.1718 87.016 22.3532 85.5667 22.3532C84.1143 22.3532 82.9384 21.1718 82.9384 19.7156C82.9384 18.2564 84.1143 17.078 85.5667 17.078C87.016 17.078 88.1919 18.2564 88.1919 19.7156ZM105.061 119.287C105.061 120.746 103.885 121.925 102.436 121.925C100.983 121.925 99.8075 120.746 99.8075 119.287C99.8075 117.828 100.983 116.65 102.436 116.65C103.885 116.65 105.061 117.828 105.061 119.287ZM105.061 3.15239C105.061 4.6116 103.885 5.78995 102.436 5.78995C100.983 5.78995 99.8075 4.6116 99.8075 3.15239C99.8075 1.69624 100.983 0.514832 102.436 0.514832C103.885 0.514832 105.061 1.69624 105.061 3.15239ZM105.061 102.727C105.061 104.183 103.885 105.364 102.436 105.364C100.983 105.364 99.8075 104.183 99.8075 102.727C99.8075 101.267 100.983 100.089 102.436 100.089C103.885 100.089 105.061 101.267 105.061 102.727ZM105.061 36.2761C105.061 37.7353 103.885 38.9136 102.436 38.9136C100.983 38.9136 99.8075 37.7353 99.8075 36.2761C99.8075 34.8169 100.983 33.6385 102.436 33.6385C103.885 33.6385 105.061 34.8169 105.061 36.2761ZM105.061 135.848C105.061 137.307 103.885 138.485 102.436 138.485C100.983 138.485 99.8075 137.307 99.8075 135.848C99.8075 134.388 100.983 133.21 102.436 133.21C103.885 133.21 105.061 134.388 105.061 135.848ZM105.061 69.6027C105.061 71.0619 103.885 72.2403 102.436 72.2403C100.983 72.2403 99.8075 71.0619 99.8075 69.6027C99.8075 68.1435 100.983 66.9652 102.436 66.9652C103.885 66.9652 105.061 68.1435 105.061 69.6027ZM105.061 53.0423C105.061 54.5015 103.885 55.6798 102.436 55.6798C100.983 55.6798 99.8075 54.5015 99.8075 53.0423C99.8075 51.5831 100.983 50.4047 102.436 50.4047C103.885 50.4047 105.061 51.5831 105.061 53.0423ZM105.061 86.1632C105.061 87.6224 103.885 88.8008 102.436 88.8008C100.983 88.8008 99.8075 87.6224 99.8075 86.1632C99.8075 84.707 100.983 83.5256 102.436 83.5256C103.885 83.5256 105.061 84.707 105.061 86.1632ZM105.061 19.7156C105.061 21.1718 103.885 22.3532 102.436 22.3532C100.983 22.3532 99.8075 21.1718 99.8075 19.7156C99.8075 18.2564 100.983 17.078 102.436 17.078C103.885 17.078 105.061 18.2564 105.061 19.7156ZM121.547 19.7156C121.547 21.1718 120.368 22.3532 118.922 22.3532C117.47 22.3532 116.294 21.1718 116.294 19.7156C116.294 18.2564 117.47 17.078 118.922 17.078C120.368 17.078 121.547 18.2564 121.547 19.7156ZM121.547 135.848C121.547 137.307 120.368 138.485 118.922 138.485C117.47 138.485 116.294 137.307 116.294 135.848C116.294 134.388 117.47 133.21 118.922 133.21C120.368 133.21 121.547 134.388 121.547 135.848ZM121.547 86.1632C121.547 87.6224 120.368 88.8008 118.922 88.8008C117.47 88.8008 116.294 87.6224 116.294 86.1632C116.294 84.707 117.47 83.5256 118.922 83.5256C120.368 83.5256 121.547 84.707 121.547 86.1632ZM121.547 119.287C121.547 120.746 120.368 121.925 118.922 121.925C117.47 121.925 116.294 120.746 116.294 119.287C116.294 117.828 117.47 116.65 118.922 116.65C120.368 116.65 121.547 117.828 121.547 119.287ZM121.547 102.727C121.547 104.183 120.368 105.364 118.922 105.364C117.47 105.364 116.294 104.183 116.294 102.727C116.294 101.267 117.47 100.089 118.922 100.089C120.368 100.089 121.547 101.267 121.547 102.727ZM121.547 53.0423C121.547 54.5015 120.368 55.6798 118.922 55.6798C117.47 55.6798 116.294 54.5015 116.294 53.0423C116.294 51.5831 117.47 50.4047 118.922 50.4047C120.368 50.4047 121.547 51.5831 121.547 53.0423ZM121.547 3.15239C121.547 4.6116 120.368 5.78995 118.922 5.78995C117.47 5.78995 116.294 4.6116 116.294 3.15239C116.294 1.69624 117.47 0.514832 118.922 0.514832C120.368 0.514832 121.547 1.69624 121.547 3.15239ZM121.547 69.6027C121.547 71.0619 120.368 72.2403 118.922 72.2403C117.47 72.2403 116.294 71.0619 116.294 69.6027C116.294 68.1435 117.47 66.9652 118.922 66.9652C120.368 66.9652 121.547 68.1435 121.547 69.6027ZM121.547 36.2761C121.547 37.7353 120.368 38.9136 118.922 38.9136C117.47 38.9136 116.294 37.7353 116.294 36.2761C116.294 34.8169 117.47 33.6385 118.922 33.6385C120.368 33.6385 121.547 34.8169 121.547 36.2761ZM138.031 19.7156C138.031 21.1718 136.855 22.3532 135.405 22.3532C133.953 22.3532 132.777 21.1718 132.777 19.7156C132.777 18.2564 133.953 17.078 135.405 17.078C136.855 17.078 138.031 18.2564 138.031 19.7156ZM138.031 135.848C138.031 137.307 136.855 138.485 135.405 138.485C133.953 138.485 132.777 137.307 132.777 135.848C132.777 134.388 133.953 133.21 135.405 133.21C136.855 133.21 138.031 134.388 138.031 135.848ZM138.031 36.2761C138.031 37.7353 136.855 38.9136 135.405 38.9136C133.953 38.9136 132.777 37.7353 132.777 36.2761C132.777 34.8169 133.953 33.6385 135.405 33.6385C136.855 33.6385 138.031 34.8169 138.031 36.2761ZM138.031 119.287C138.031 120.746 136.855 121.925 135.405 121.925C133.953 121.925 132.777 120.746 132.777 119.287C132.777 117.828 133.953 116.65 135.405 116.65C136.855 116.65 138.031 117.828 138.031 119.287ZM138.031 69.6027C138.031 71.0619 136.855 72.2403 135.405 72.2403C133.953 72.2403 132.777 71.0619 132.777 69.6027C132.777 68.1435 133.953 66.9652 135.405 66.9652C136.855 66.9652 138.031 68.1435 138.031 69.6027ZM138.031 86.1632C138.031 87.6224 136.855 88.8008 135.405 88.8008C133.953 88.8008 132.777 87.6224 132.777 86.1632C132.777 84.707 133.953 83.5256 135.405 83.5256C136.855 83.5256 138.031 84.707 138.031 86.1632ZM138.031 102.727C138.031 104.183 136.855 105.364 135.405 105.364C133.953 105.364 132.777 104.183 132.777 102.727C132.777 101.267 133.953 100.089 135.405 100.089C136.855 100.089 138.031 101.267 138.031 102.727ZM138.031 3.15239C138.031 4.6116 136.855 5.78995 135.405 5.78995C133.953 5.78995 132.777 4.6116 132.777 3.15239C132.777 1.69624 133.953 0.514832 135.405 0.514832C136.855 0.514832 138.031 1.69624 138.031 3.15239ZM138.031 53.0423C138.031 54.5015 136.855 55.6798 135.405 55.6798C133.953 55.6798 132.777 54.5015 132.777 53.0423C132.777 51.5831 133.953 50.4047 135.405 50.4047C136.855 50.4047 138.031 51.5831 138.031 53.0423ZM154.514 3.15239C154.514 4.6116 153.338 5.78995 151.889 5.78995C150.439 5.78995 149.26 4.6116 149.26 3.15239C149.26 1.69624 150.439 0.514832 151.889 0.514832C153.338 0.514832 154.514 1.69624 154.514 3.15239ZM154.514 102.727C154.514 104.183 153.338 105.364 151.889 105.364C150.439 105.364 149.26 104.183 149.26 102.727C149.26 101.267 150.439 100.089 151.889 100.089C153.338 100.089 154.514 101.267 154.514 102.727ZM154.514 53.0423C154.514 54.5015 153.338 55.6798 151.889 55.6798C150.439 55.6798 149.26 54.5015 149.26 53.0423C149.26 51.5831 150.439 50.4047 151.889 50.4047C153.338 50.4047 154.514 51.5831 154.514 53.0423ZM154.514 36.2761C154.514 37.7353 153.338 38.9136 151.889 38.9136C150.439 38.9136 149.26 37.7353 149.26 36.2761C149.26 34.8169 150.439 33.6385 151.889 33.6385C153.338 33.6385 154.514 34.8169 154.514 36.2761ZM154.514 86.1632C154.514 87.6224 153.338 88.8008 151.889 88.8008C150.439 88.8008 149.26 87.6224 149.26 86.1632C149.26 84.707 150.439 83.5256 151.889 83.5256C153.338 83.5256 154.514 84.707 154.514 86.1632ZM154.514 19.7156C154.514 21.1718 153.338 22.3532 151.889 22.3532C150.439 22.3532 149.26 21.1718 149.26 19.7156C149.26 18.2564 150.439 17.078 151.889 17.078C153.338 17.078 154.514 18.2564 154.514 19.7156ZM154.514 69.6027C154.514 71.0619 153.338 72.2403 151.889 72.2403C150.439 72.2403 149.26 71.0619 149.26 69.6027C149.26 68.1435 150.439 66.9652 151.889 66.9652C153.338 66.9652 154.514 68.1435 154.514 69.6027ZM154.514 119.287C154.514 120.746 153.338 121.925 151.889 121.925C150.439 121.925 149.26 120.746 149.26 119.287C149.26 117.828 150.439 116.65 151.889 116.65C153.338 116.65 154.514 117.828 154.514 119.287ZM154.514 135.848C154.514 137.307 153.338 138.485 151.889 138.485C150.439 138.485 149.26 137.307 149.26 135.848C149.26 134.388 150.439 133.21 151.889 133.21C153.338 133.21 154.514 134.388 154.514 135.848ZM171 102.727C171 104.183 169.824 105.364 168.375 105.364C166.922 105.364 165.747 104.183 165.747 102.727C165.747 101.267 166.922 100.089 168.375 100.089C169.824 100.089 171 101.267 171 102.727ZM171 135.848C171 137.307 169.824 138.485 168.375 138.485C166.922 138.485 165.747 137.307 165.747 135.848C165.747 134.388 166.922 133.21 168.375 133.21C169.824 133.21 171 134.388 171 135.848ZM171 19.7156C171 21.1718 169.824 22.3532 168.375 22.3532C166.922 22.3532 165.747 21.1718 165.747 19.7156C165.747 18.2564 166.922 17.078 168.375 17.078C169.824 17.078 171 18.2564 171 19.7156ZM171 119.287C171 120.746 169.824 121.925 168.375 121.925C166.922 121.925 165.747 120.746 165.747 119.287C165.747 117.828 166.922 116.65 168.375 116.65C169.824 116.65 171 117.828 171 119.287ZM171 53.0423C171 54.5015 169.824 55.6798 168.375 55.6798C166.922 55.6798 165.747 54.5015 165.747 53.0423C165.747 51.5831 166.922 50.4047 168.375 50.4047C169.824 50.4047 171 51.5831 171 53.0423ZM171 86.1632C171 87.6224 169.824 88.8008 168.375 88.8008C166.922 88.8008 165.747 87.6224 165.747 86.1632C165.747 84.707 166.922 83.5256 168.375 83.5256C169.824 83.5256 171 84.707 171 86.1632ZM171 69.6027C171 71.0619 169.824 72.2403 168.375 72.2403C166.922 72.2403 165.747 71.0619 165.747 69.6027C165.747 68.1435 166.922 66.9652 168.375 66.9652C169.824 66.9652 171 68.1435 171 69.6027ZM171 3.15239C171 4.6116 169.824 5.78995 168.375 5.78995C166.922 5.78995 165.747 4.6116 165.747 3.15239C165.747 1.69624 166.922 0.514832 168.375 0.514832C169.824 0.514832 171 1.69624 171 3.15239ZM171 36.2761C171 37.7353 169.824 38.9136 168.375 38.9136C166.922 38.9136 165.747 37.7353 165.747 36.2761C165.747 34.8169 166.922 33.6385 168.375 33.6385C169.824 33.6385 171 34.8169 171 36.2761ZM187.483 102.727C187.483 104.183 186.308 105.364 184.858 105.364C183.406 105.364 182.23 104.183 182.23 102.727C182.23 101.267 183.406 100.089 184.858 100.089C186.308 100.089 187.483 101.267 187.483 102.727ZM187.483 135.848C187.483 137.307 186.308 138.485 184.858 138.485C183.406 138.485 182.23 137.307 182.23 135.848C182.23 134.388 183.406 133.21 184.858 133.21C186.308 133.21 187.483 134.388 187.483 135.848ZM187.483 119.287C187.483 120.746 186.308 121.925 184.858 121.925C183.406 121.925 182.23 120.746 182.23 119.287C182.23 117.828 183.406 116.65 184.858 116.65C186.308 116.65 187.483 117.828 187.483 119.287ZM187.483 53.0423C187.483 54.5015 186.308 55.6798 184.858 55.6798C183.406 55.6798 182.23 54.5015 182.23 53.0423C182.23 51.5831 183.406 50.4047 184.858 50.4047C186.308 50.4047 187.483 51.5831 187.483 53.0423ZM187.483 86.1632C187.483 87.6224 186.308 88.8008 184.858 88.8008C183.406 88.8008 182.23 87.6224 182.23 86.1632C182.23 84.707 183.406 83.5256 184.858 83.5256C186.308 83.5256 187.483 84.707 187.483 86.1632ZM187.483 69.6027C187.483 71.0619 186.308 72.2403 184.858 72.2403C183.406 72.2403 182.23 71.0619 182.23 69.6027C182.23 68.1435 183.406 66.9652 184.858 66.9652C186.308 66.9652 187.483 68.1435 187.483 69.6027ZM187.483 3.15239C187.483 4.6116 186.308 5.78995 184.858 5.78995C183.406 5.78995 182.23 4.6116 182.23 3.15239C182.23 1.69624 183.406 0.514832 184.858 0.514832C186.308 0.514832 187.483 1.69624 187.483 3.15239ZM187.483 36.2761C187.483 37.7353 186.308 38.9136 184.858 38.9136C183.406 38.9136 182.23 37.7353 182.23 36.2761C182.23 34.8169 183.406 33.6385 184.858 33.6385C186.308 33.6385 187.483 34.8169 187.483 36.2761ZM187.483 19.7156C187.483 21.1718 186.308 22.3532 184.858 22.3532C183.406 22.3532 182.23 21.1718 182.23 19.7156C182.23 18.2564 183.406 17.078 184.858 17.078C186.308 17.078 187.483 18.2564 187.483 19.7156Z" fill="#4461D7"/>
</mask>
<g mask="url(#mask0)">
<path d="M214 74L-7 63L-17.5 142.5L20 169.5L217 156.5L214 74Z" fill="white"/>
</g>
</svg>
