<svg width="116" height="86" viewBox="0 0 116 86" fill="none" xmlns="http://www.w3.org/2000/svg">
<g opacity="0.25">
<path fill-rule="evenodd" clip-rule="evenodd" d="M3.56007 63.5576C3.56007 64.4585 2.83452 65.1895 1.94023 65.1895C1.04407 65.1895 0.318512 64.4585 0.318512 63.5576C0.318512 62.6548 1.04407 61.9257 1.94023 61.9257C2.83452 61.9257 3.56007 62.6548 3.56007 63.5576ZM3.56007 84.0497C3.56007 84.9525 2.83452 85.6815 1.94023 85.6815C1.04407 85.6815 0.318512 84.9525 0.318512 84.0497C0.318512 83.1469 1.04407 82.4178 1.94023 82.4178C2.83452 82.4178 3.56007 83.1469 3.56007 84.0497ZM3.56007 73.8036C3.56007 74.7065 2.83452 75.4355 1.94023 75.4355C1.04407 75.4355 0.318512 74.7065 0.318512 73.8036C0.318512 72.9008 1.04407 72.1718 1.94023 72.1718C2.83452 72.1718 3.56007 72.9008 3.56007 73.8036ZM3.56007 32.8176C3.56007 33.7204 2.83452 34.4495 1.94023 34.4495C1.04407 34.4495 0.318512 33.7204 0.318512 32.8176C0.318512 31.9148 1.04407 31.1857 1.94023 31.1857C2.83452 31.1857 3.56007 31.9148 3.56007 32.8176ZM3.56007 53.3097C3.56007 54.2125 2.83452 54.9415 1.94023 54.9415C1.04407 54.9415 0.318512 54.2125 0.318512 53.3097C0.318512 52.4087 1.04407 51.6778 1.94023 51.6778C2.83452 51.6778 3.56007 52.4087 3.56007 53.3097ZM3.56007 43.0636C3.56007 43.9665 2.83452 44.6955 1.94023 44.6955C1.04407 44.6955 0.318512 43.9665 0.318512 43.0636C0.318512 42.1608 1.04407 41.4318 1.94023 41.4318C2.83452 41.4318 3.56007 42.1608 3.56007 43.0636ZM3.56007 1.95047C3.56007 2.85329 2.83452 3.58235 1.94023 3.58235C1.04407 3.58235 0.318512 2.85329 0.318512 1.95047C0.318512 1.04955 1.04407 0.318604 1.94023 0.318604C2.83452 0.318604 3.56007 1.04955 3.56007 1.95047ZM3.56007 22.4443C3.56007 23.3471 2.83452 24.0761 1.94023 24.0761C1.04407 24.0761 0.318512 23.3471 0.318512 22.4443C0.318512 21.5414 1.04407 20.8124 1.94023 20.8124C2.83452 20.8124 3.56007 21.5414 3.56007 22.4443ZM3.56007 12.1982C3.56007 13.0991 2.83452 13.8301 1.94023 13.8301C1.04407 13.8301 0.318512 13.0991 0.318512 12.1982C0.318512 11.2954 1.04407 10.5663 1.94023 10.5663C2.83452 10.5663 3.56007 11.2954 3.56007 12.1982ZM13.9685 63.3621C13.9685 63.9301 13.6813 64.4293 13.2456 64.7215C12.9538 65.0108 12.5529 65.1895 12.1107 65.1895C11.2146 65.1895 10.489 64.4585 10.489 63.5576C10.489 62.9913 10.7745 62.4933 11.2085 62.2008C11.5013 61.9098 11.904 61.7302 12.3487 61.7302C13.243 61.7302 13.9685 62.4593 13.9685 63.3621ZM13.7306 84.0497C13.7306 84.9525 13.005 85.6815 12.1107 85.6815C11.2146 85.6815 10.489 84.9525 10.489 84.0497C10.489 83.1469 11.2146 82.4178 12.1107 82.4178C13.005 82.4178 13.7306 83.1469 13.7306 84.0497ZM13.9685 73.6082C13.9685 74.177 13.6805 74.6776 13.2437 74.9701C12.9515 75.2583 12.5516 75.4355 12.1107 75.4355C11.2146 75.4355 10.489 74.7065 10.489 73.8036C10.489 73.2362 10.7757 72.7374 11.2111 72.4451C11.503 72.1555 11.9049 71.9763 12.3487 71.9763C13.243 71.9763 13.9685 72.7072 13.9685 73.6082ZM13.7306 1.95047C13.7306 2.85329 13.005 3.58235 12.1107 3.58235C11.2146 3.58235 10.489 2.85329 10.489 1.95047C10.489 1.04955 11.2146 0.318604 12.1107 0.318604C13.005 0.318604 13.7306 1.04955 13.7306 1.95047ZM13.7306 22.4443C13.7306 23.3471 13.005 24.0761 12.1107 24.0761C11.2146 24.0761 10.489 23.3471 10.489 22.4443C10.489 21.5414 11.2146 20.8124 12.1107 20.8124C13.005 20.8124 13.7306 21.5414 13.7306 22.4443ZM13.7306 12.1982C13.7306 13.0991 13.005 13.8301 12.1107 13.8301C11.2146 13.8301 10.489 13.0991 10.489 12.1982C10.489 11.2954 11.2146 10.5663 12.1107 10.5663C13.005 10.5663 13.7306 11.2954 13.7306 12.1982ZM13.7306 32.8176C13.7306 33.7204 13.005 34.4495 12.1107 34.4495C11.2146 34.4495 10.489 33.7204 10.489 32.8176C10.489 31.9148 11.2146 31.1857 12.1107 31.1857C13.005 31.1857 13.7306 31.9148 13.7306 32.8176ZM13.9685 53.1161C13.9685 53.6858 13.6796 54.1863 13.2417 54.4781C12.9497 54.7651 12.5506 54.9415 12.1107 54.9415C11.2146 54.9415 10.489 54.2125 10.489 53.3097C10.489 52.7426 10.7765 52.2428 11.2131 51.9503C11.5048 51.6622 11.9059 51.4842 12.3487 51.4842C13.243 51.4842 13.9685 52.2133 13.9685 53.1161ZM13.7306 43.0636C13.7306 43.9665 13.005 44.6955 12.1107 44.6955C11.2146 44.6955 10.489 43.9665 10.489 43.0636C10.489 42.1608 11.2146 41.4318 12.1107 41.4318C13.005 41.4318 13.7306 42.1608 13.7306 43.0636ZM23.903 1.95047C23.903 2.85329 23.1755 3.58235 22.2831 3.58235C21.387 3.58235 20.6614 2.85329 20.6614 1.95047C20.6614 1.04955 21.387 0.318604 22.2831 0.318604C23.1755 0.318604 23.903 1.04955 23.903 1.95047ZM24.1409 63.3621C24.1409 63.9301 23.853 64.4293 23.4172 64.7215C23.1252 65.0108 22.7243 65.1895 22.2831 65.1895C21.387 65.1895 20.6614 64.4585 20.6614 63.5576C20.6614 62.9913 20.9469 62.4933 21.3809 62.2008C21.6737 61.9098 22.0764 61.7302 22.521 61.7302C23.4135 61.7302 24.1409 62.4593 24.1409 63.3621ZM24.1409 53.1161C24.1409 53.6858 23.8512 54.1863 23.4133 54.4781C23.1212 54.7651 22.7221 54.9415 22.2831 54.9415C21.387 54.9415 20.6614 54.2125 20.6614 53.3097C20.6614 52.7426 20.9489 52.2428 21.3854 51.9503C21.6772 51.6622 22.0783 51.4842 22.521 51.4842C23.4135 51.4842 24.1409 52.2133 24.1409 53.1161ZM23.903 84.0497C23.903 84.9525 23.1755 85.6815 22.2831 85.6815C21.387 85.6815 20.6614 84.9525 20.6614 84.0497C20.6614 83.1469 21.387 82.4178 22.2831 82.4178C23.1755 82.4178 23.903 83.1469 23.903 84.0497ZM23.903 22.4443C23.903 23.3471 23.1755 24.0761 22.2831 24.0761C21.387 24.0761 20.6614 23.3471 20.6614 22.4443C20.6614 21.5414 21.387 20.8124 22.2831 20.8124C23.1755 20.8124 23.903 21.5414 23.903 22.4443ZM24.1409 73.6082C24.1409 74.177 23.8521 74.6776 23.4152 74.9701C23.1229 75.2583 22.7231 75.4355 22.2831 75.4355C21.387 75.4355 20.6614 74.7065 20.6614 73.8036C20.6614 73.2362 20.9481 72.7374 21.3835 72.4451C21.6754 72.1555 22.0773 71.9763 22.521 71.9763C23.4135 71.9763 24.1409 72.7072 24.1409 73.6082ZM23.903 32.8176C23.903 33.7204 23.1755 34.4495 22.2831 34.4495C21.387 34.4495 20.6614 33.7204 20.6614 32.8176C20.6614 31.9148 21.387 31.1857 22.2831 31.1857C23.1755 31.1857 23.903 31.9148 23.903 32.8176ZM23.903 43.0636C23.903 43.9665 23.1755 44.6955 22.2831 44.6955C21.387 44.6955 20.6614 43.9665 20.6614 43.0636C20.6614 42.1608 21.387 41.4318 22.2831 41.4318C23.1755 41.4318 23.903 42.1608 23.903 43.0636ZM23.903 12.1982C23.903 13.0991 23.1755 13.8301 22.2831 13.8301C21.387 13.8301 20.6614 13.0991 20.6614 12.1982C20.6614 11.2954 21.387 10.5663 22.2831 10.5663C23.1755 10.5663 23.903 11.2954 23.903 12.1982ZM34.0735 32.8176C34.0735 33.7204 33.3479 34.4495 32.4536 34.4495C31.5575 34.4495 30.8319 33.7204 30.8319 32.8176C30.8319 31.9148 31.5575 31.1857 32.4536 31.1857C33.3479 31.1857 34.0735 31.9148 34.0735 32.8176ZM34.3114 53.1161C34.3114 53.6855 34.0228 54.1858 33.5853 54.4776C33.2932 54.7649 32.8939 54.9415 32.4536 54.9415C31.5575 54.9415 30.8319 54.2125 30.8319 53.3097C30.8319 52.7433 31.1186 52.2442 31.5542 51.9515C31.8471 51.6624 32.2485 51.4842 32.6916 51.4842C33.5859 51.4842 34.3114 52.2133 34.3114 53.1161ZM34.0735 84.0497C34.0735 84.9525 33.3479 85.6815 32.4536 85.6815C31.5575 85.6815 30.8319 84.9525 30.8319 84.0497C30.8319 83.1469 31.5575 82.4178 32.4536 82.4178C33.3479 82.4178 34.0735 83.1469 34.0735 84.0497ZM34.0735 1.95047C34.0735 2.85329 33.3479 3.58235 32.4536 3.58235C31.5575 3.58235 30.8319 2.85329 30.8319 1.95047C30.8319 1.04955 31.5575 0.318604 32.4536 0.318604C33.3479 0.318604 34.0735 1.04955 34.0735 1.95047ZM34.0735 22.4443C34.0735 23.3471 33.3479 24.0761 32.4536 24.0761C31.5575 24.0761 30.8319 23.3471 30.8319 22.4443C30.8319 21.5414 31.5575 20.8124 32.4536 20.8124C33.3479 20.8124 34.0735 21.5414 34.0735 22.4443ZM34.3114 63.3621C34.3114 63.9298 34.0245 64.4289 33.5891 64.7211C33.2967 65.0108 32.8958 65.1895 32.4536 65.1895C31.5575 65.1895 30.8319 64.4585 30.8319 63.5576C30.8319 62.9917 31.117 62.4941 31.5504 62.2015C31.8436 61.91 32.2466 61.7302 32.6916 61.7302C33.5859 61.7302 34.3114 62.4593 34.3114 63.3621ZM34.3114 73.6082C34.3114 74.1767 34.0237 74.6771 33.5872 74.9697C33.295 75.2581 32.8948 75.4355 32.4536 75.4355C31.5575 75.4355 30.8319 74.7065 30.8319 73.8036C30.8319 73.237 31.1178 72.7387 31.5523 72.4463C31.8454 72.1557 32.2475 71.9763 32.6916 71.9763C33.5859 71.9763 34.3114 72.7072 34.3114 73.6082ZM34.0735 43.0636C34.0735 43.9665 33.3479 44.6955 32.4536 44.6955C31.5575 44.6955 30.8319 43.9665 30.8319 43.0636C30.8319 42.1608 31.5575 41.4318 32.4536 41.4318C33.3479 41.4318 34.0735 42.1608 34.0735 43.0636ZM34.0735 12.1982C34.0735 13.0991 33.3479 13.8301 32.4536 13.8301C31.5575 13.8301 30.8319 13.0991 30.8319 12.1982C30.8319 11.2954 31.5575 10.5663 32.4536 10.5663C33.3479 10.5663 34.0735 11.2954 34.0735 12.1982ZM44.244 32.8176C44.244 33.7204 43.5184 34.4495 42.6242 34.4495C41.7299 34.4495 41.0024 33.7204 41.0024 32.8176C41.0024 31.9148 41.7299 31.1857 42.6242 31.1857C43.5184 31.1857 44.244 31.9148 44.244 32.8176ZM44.244 53.3097C44.244 54.2125 43.5184 54.9415 42.6242 54.9415C41.7299 54.9415 41.0024 54.2125 41.0024 53.3097C41.0024 52.4087 41.7299 51.6778 42.6242 51.6778C43.5184 51.6778 44.244 52.4087 44.244 53.3097ZM44.244 63.5576C44.244 64.4585 43.5184 65.1895 42.6242 65.1895C41.7299 65.1895 41.0024 64.4585 41.0024 63.5576C41.0024 62.6548 41.7299 61.9257 42.6242 61.9257C43.5184 61.9257 44.244 62.6548 44.244 63.5576ZM44.244 43.0636C44.244 43.9665 43.5184 44.6955 42.6242 44.6955C41.7299 44.6955 41.0024 43.9665 41.0024 43.0636C41.0024 42.1608 41.7299 41.4318 42.6242 41.4318C43.5184 41.4318 44.244 42.1608 44.244 43.0636ZM44.244 1.95047C44.244 2.85329 43.5184 3.58235 42.6242 3.58235C41.7299 3.58235 41.0024 2.85329 41.0024 1.95047C41.0024 1.04955 41.7299 0.318604 42.6242 0.318604C43.5184 0.318604 44.244 1.04955 44.244 1.95047ZM44.244 84.0497C44.244 84.9525 43.5184 85.6815 42.6242 85.6815C41.7299 85.6815 41.0024 84.9525 41.0024 84.0497C41.0024 83.1469 41.7299 82.4178 42.6242 82.4178C43.5184 82.4178 44.244 83.1469 44.244 84.0497ZM44.244 22.4443C44.244 23.3471 43.5184 24.0761 42.6242 24.0761C41.7299 24.0761 41.0024 23.3471 41.0024 22.4443C41.0024 21.5414 41.7299 20.8124 42.6242 20.8124C43.5184 20.8124 44.244 21.5414 44.244 22.4443ZM44.244 12.1982C44.244 13.0991 43.5184 13.8301 42.6242 13.8301C41.7299 13.8301 41.0024 13.0991 41.0024 12.1982C41.0024 11.2954 41.7299 10.5663 42.6242 10.5663C43.5184 10.5663 44.244 11.2954 44.244 12.1982ZM44.244 73.8036C44.244 74.7065 43.5184 75.4355 42.6242 75.4355C41.7299 75.4355 41.0024 74.7065 41.0024 73.8036C41.0024 72.9008 41.7299 72.1718 42.6242 72.1718C43.5184 72.1718 44.244 72.9008 44.244 73.8036ZM54.4162 84.0497C54.4162 84.9525 53.6907 85.6815 52.7964 85.6815C51.9002 85.6815 51.1747 84.9525 51.1747 84.0497C51.1747 83.1469 51.9002 82.4178 52.7964 82.4178C53.6907 82.4178 54.4162 83.1469 54.4162 84.0497ZM54.4162 73.8036C54.4162 74.7065 53.6907 75.4355 52.7964 75.4355C51.9002 75.4355 51.1747 74.7065 51.1747 73.8036C51.1747 72.9008 51.9002 72.1718 52.7964 72.1718C53.6907 72.1718 54.4162 72.9008 54.4162 73.8036ZM54.4162 32.8176C54.4162 33.7204 53.6907 34.4495 52.7964 34.4495C51.9002 34.4495 51.1747 33.7204 51.1747 32.8176C51.1747 31.9148 51.9002 31.1857 52.7964 31.1857C53.6907 31.1857 54.4162 31.9148 54.4162 32.8176ZM54.4162 53.3097C54.4162 54.2125 53.6907 54.9415 52.7964 54.9415C51.9002 54.9415 51.1747 54.2125 51.1747 53.3097C51.1747 52.4087 51.9002 51.6778 52.7964 51.6778C53.6907 51.6778 54.4162 52.4087 54.4162 53.3097ZM54.4162 43.0636C54.4162 43.9665 53.6907 44.6955 52.7964 44.6955C51.9002 44.6955 51.1747 43.9665 51.1747 43.0636C51.1747 42.1608 51.9002 41.4318 52.7964 41.4318C53.6907 41.4318 54.4162 42.1608 54.4162 43.0636ZM54.4162 63.5576C54.4162 64.4585 53.6907 65.1895 52.7964 65.1895C51.9002 65.1895 51.1747 64.4585 51.1747 63.5576C51.1747 62.6548 51.9002 61.9257 52.7964 61.9257C53.6907 61.9257 54.4162 62.6548 54.4162 63.5576ZM54.4162 1.95047C54.4162 2.85329 53.6907 3.58235 52.7964 3.58235C51.9002 3.58235 51.1747 2.85329 51.1747 1.95047C51.1747 1.04955 51.9002 0.318604 52.7964 0.318604C53.6907 0.318604 54.4162 1.04955 54.4162 1.95047ZM54.4162 22.4443C54.4162 23.3471 53.6907 24.0761 52.7964 24.0761C51.9002 24.0761 51.1747 23.3471 51.1747 22.4443C51.1747 21.5414 51.9002 20.8124 52.7964 20.8124C53.6907 20.8124 54.4162 21.5414 54.4162 22.4443ZM54.4162 12.1982C54.4162 13.0991 53.6907 13.8301 52.7964 13.8301C51.9002 13.8301 51.1747 13.0991 51.1747 12.1982C51.1747 11.2954 51.9002 10.5663 52.7964 10.5663C53.6907 10.5663 54.4162 11.2954 54.4162 12.1982ZM64.8248 73.8036C64.8248 74.7065 64.0993 75.4355 63.205 75.4355C62.3088 75.4355 61.5833 74.7065 61.5833 73.8036C61.5833 72.9008 62.3088 72.1718 63.205 72.1718C64.0993 72.1718 64.8248 72.9008 64.8248 73.8036ZM64.8248 1.95047C64.8248 2.85329 64.0993 3.58235 63.205 3.58235C62.3088 3.58235 61.5833 2.85329 61.5833 1.95047C61.5833 1.04955 62.3088 0.318604 63.205 0.318604C64.0993 0.318604 64.8248 1.04955 64.8248 1.95047ZM64.8248 63.5576C64.8248 64.4585 64.0993 65.1895 63.205 65.1895C62.3088 65.1895 61.5833 64.4585 61.5833 63.5576C61.5833 62.6548 62.3088 61.9257 63.205 61.9257C64.0993 61.9257 64.8248 62.6548 64.8248 63.5576ZM64.8248 22.4443C64.8248 23.3471 64.0993 24.0761 63.205 24.0761C62.3088 24.0761 61.5833 23.3471 61.5833 22.4443C61.5833 21.5414 62.3088 20.8124 63.205 20.8124C64.0993 20.8124 64.8248 21.5414 64.8248 22.4443ZM64.8248 84.0497C64.8248 84.9525 64.0993 85.6815 63.205 85.6815C62.3088 85.6815 61.5833 84.9525 61.5833 84.0497C61.5833 83.1469 62.3088 82.4178 63.205 82.4178C64.0993 82.4178 64.8248 83.1469 64.8248 84.0497ZM64.8248 43.0636C64.8248 43.9665 64.0993 44.6955 63.205 44.6955C62.3088 44.6955 61.5833 43.9665 61.5833 43.0636C61.5833 42.1608 62.3088 41.4318 63.205 41.4318C64.0993 41.4318 64.8248 42.1608 64.8248 43.0636ZM64.8248 32.8176C64.8248 33.7204 64.0993 34.4495 63.205 34.4495C62.3088 34.4495 61.5833 33.7204 61.5833 32.8176C61.5833 31.9148 62.3088 31.1857 63.205 31.1857C64.0993 31.1857 64.8248 31.9148 64.8248 32.8176ZM64.8248 53.3097C64.8248 54.2125 64.0993 54.9415 63.205 54.9415C62.3088 54.9415 61.5833 54.2125 61.5833 53.3097C61.5833 52.4087 62.3088 51.6778 63.205 51.6778C64.0993 51.6778 64.8248 52.4087 64.8248 53.3097ZM64.8248 12.1982C64.8248 13.0991 64.0993 13.8301 63.205 13.8301C62.3088 13.8301 61.5833 13.0991 61.5833 12.1982C61.5833 11.2954 62.3088 10.5663 63.205 10.5663C64.0993 10.5663 64.8248 11.2954 64.8248 12.1982ZM74.9972 12.1982C74.9972 13.0991 74.2698 13.8301 73.3774 13.8301C72.4812 13.8301 71.7557 13.0991 71.7557 12.1982C71.7557 11.2954 72.4812 10.5663 73.3774 10.5663C74.2698 10.5663 74.9972 11.2954 74.9972 12.1982ZM74.9972 84.0497C74.9972 84.9525 74.2698 85.6815 73.3774 85.6815C72.4812 85.6815 71.7557 84.9525 71.7557 84.0497C71.7557 83.1469 72.4812 82.4178 73.3774 82.4178C74.2698 82.4178 74.9972 83.1469 74.9972 84.0497ZM74.9972 53.3097C74.9972 54.2125 74.2698 54.9415 73.3774 54.9415C72.4812 54.9415 71.7557 54.2125 71.7557 53.3097C71.7557 52.4087 72.4812 51.6778 73.3774 51.6778C74.2698 51.6778 74.9972 52.4087 74.9972 53.3097ZM74.9972 73.8036C74.9972 74.7065 74.2698 75.4355 73.3774 75.4355C72.4812 75.4355 71.7557 74.7065 71.7557 73.8036C71.7557 72.9008 72.4812 72.1718 73.3774 72.1718C74.2698 72.1718 74.9972 72.9008 74.9972 73.8036ZM74.9972 63.5576C74.9972 64.4585 74.2698 65.1895 73.3774 65.1895C72.4812 65.1895 71.7557 64.4585 71.7557 63.5576C71.7557 62.6548 72.4812 61.9257 73.3774 61.9257C74.2698 61.9257 74.9972 62.6548 74.9972 63.5576ZM74.9972 32.8176C74.9972 33.7204 74.2698 34.4495 73.3774 34.4495C72.4812 34.4495 71.7557 33.7204 71.7557 32.8176C71.7557 31.9148 72.4812 31.1857 73.3774 31.1857C74.2698 31.1857 74.9972 31.9148 74.9972 32.8176ZM74.9972 1.95047C74.9972 2.85329 74.2698 3.58235 73.3774 3.58235C72.4812 3.58235 71.7557 2.85329 71.7557 1.95047C71.7557 1.04955 72.4812 0.318604 73.3774 0.318604C74.2698 0.318604 74.9972 1.04955 74.9972 1.95047ZM74.9972 43.0636C74.9972 43.9665 74.2698 44.6955 73.3774 44.6955C72.4812 44.6955 71.7557 43.9665 71.7557 43.0636C71.7557 42.1608 72.4812 41.4318 73.3774 41.4318C74.2698 41.4318 74.9972 42.1608 74.9972 43.0636ZM74.9972 22.4443C74.9972 23.3471 74.2698 24.0761 73.3774 24.0761C72.4812 24.0761 71.7557 23.3471 71.7557 22.4443C71.7557 21.5414 72.4812 20.8124 73.3774 20.8124C74.2698 20.8124 74.9972 21.5414 74.9972 22.4443ZM85.1677 12.1982C85.1677 13.0991 84.4422 13.8301 83.5479 13.8301C82.6517 13.8301 81.9262 13.0991 81.9262 12.1982C81.9262 11.2954 82.6517 10.5663 83.5479 10.5663C84.4422 10.5663 85.1677 11.2954 85.1677 12.1982ZM85.1677 84.0497C85.1677 84.9525 84.4422 85.6815 83.5479 85.6815C82.6517 85.6815 81.9262 84.9525 81.9262 84.0497C81.9262 83.1469 82.6517 82.4178 83.5479 82.4178C84.4422 82.4178 85.1677 83.1469 85.1677 84.0497ZM85.1677 22.4443C85.1677 23.3471 84.4422 24.0761 83.5479 24.0761C82.6517 24.0761 81.9262 23.3471 81.9262 22.4443C81.9262 21.5414 82.6517 20.8124 83.5479 20.8124C84.4422 20.8124 85.1677 21.5414 85.1677 22.4443ZM85.1677 73.8036C85.1677 74.7065 84.4422 75.4355 83.5479 75.4355C82.6517 75.4355 81.9262 74.7065 81.9262 73.8036C81.9262 72.9008 82.6517 72.1718 83.5479 72.1718C84.4422 72.1718 85.1677 72.9008 85.1677 73.8036ZM85.1677 43.0636C85.1677 43.9665 84.4422 44.6955 83.5479 44.6955C82.6517 44.6955 81.9262 43.9665 81.9262 43.0636C81.9262 42.1608 82.6517 41.4318 83.5479 41.4318C84.4422 41.4318 85.1677 42.1608 85.1677 43.0636ZM85.1677 53.3097C85.1677 54.2125 84.4422 54.9415 83.5479 54.9415C82.6517 54.9415 81.9262 54.2125 81.9262 53.3097C81.9262 52.4087 82.6517 51.6778 83.5479 51.6778C84.4422 51.6778 85.1677 52.4087 85.1677 53.3097ZM85.1677 63.5576C85.1677 64.4585 84.4422 65.1895 83.5479 65.1895C82.6517 65.1895 81.9262 64.4585 81.9262 63.5576C81.9262 62.6548 82.6517 61.9257 83.5479 61.9257C84.4422 61.9257 85.1677 62.6548 85.1677 63.5576ZM85.1677 1.95047C85.1677 2.85329 84.4422 3.58235 83.5479 3.58235C82.6517 3.58235 81.9262 2.85329 81.9262 1.95047C81.9262 1.04955 82.6517 0.318604 83.5479 0.318604C84.4422 0.318604 85.1677 1.04955 85.1677 1.95047ZM85.1677 32.8176C85.1677 33.7204 84.4422 34.4495 83.5479 34.4495C82.6517 34.4495 81.9262 33.7204 81.9262 32.8176C81.9262 31.9148 82.6517 31.1857 83.5479 31.1857C84.4422 31.1857 85.1677 31.9148 85.1677 32.8176ZM95.3382 1.95047C95.3382 2.85329 94.6127 3.58235 93.7184 3.58235C92.8241 3.58235 92.0967 2.85329 92.0967 1.95047C92.0967 1.04955 92.8241 0.318604 93.7184 0.318604C94.6127 0.318604 95.3382 1.04955 95.3382 1.95047ZM95.3382 63.5576C95.3382 64.4585 94.6127 65.1895 93.7184 65.1895C92.8241 65.1895 92.0967 64.4585 92.0967 63.5576C92.0967 62.6548 92.8241 61.9257 93.7184 61.9257C94.6127 61.9257 95.3382 62.6548 95.3382 63.5576ZM95.3382 32.8176C95.3382 33.7204 94.6127 34.4495 93.7184 34.4495C92.8241 34.4495 92.0967 33.7204 92.0967 32.8176C92.0967 31.9148 92.8241 31.1857 93.7184 31.1857C94.6127 31.1857 95.3382 31.9148 95.3382 32.8176ZM95.3382 22.4443C95.3382 23.3471 94.6127 24.0761 93.7184 24.0761C92.8241 24.0761 92.0967 23.3471 92.0967 22.4443C92.0967 21.5414 92.8241 20.8124 93.7184 20.8124C94.6127 20.8124 95.3382 21.5414 95.3382 22.4443ZM95.3382 53.3097C95.3382 54.2125 94.6127 54.9415 93.7184 54.9415C92.8241 54.9415 92.0967 54.2125 92.0967 53.3097C92.0967 52.4087 92.8241 51.6778 93.7184 51.6778C94.6127 51.6778 95.3382 52.4087 95.3382 53.3097ZM95.3382 12.1982C95.3382 13.0991 94.6127 13.8301 93.7184 13.8301C92.8241 13.8301 92.0967 13.0991 92.0967 12.1982C92.0967 11.2954 92.8241 10.5663 93.7184 10.5663C94.6127 10.5663 95.3382 11.2954 95.3382 12.1982ZM95.3382 43.0636C95.3382 43.9665 94.6127 44.6955 93.7184 44.6955C92.8241 44.6955 92.0967 43.9665 92.0967 43.0636C92.0967 42.1608 92.8241 41.4318 93.7184 41.4318C94.6127 41.4318 95.3382 42.1608 95.3382 43.0636ZM95.3382 73.8036C95.3382 74.7065 94.6127 75.4355 93.7184 75.4355C92.8241 75.4355 92.0967 74.7065 92.0967 73.8036C92.0967 72.9008 92.8241 72.1718 93.7184 72.1718C94.6127 72.1718 95.3382 72.9008 95.3382 73.8036ZM95.3382 84.0497C95.3382 84.9525 94.6127 85.6815 93.7184 85.6815C92.8241 85.6815 92.0967 84.9525 92.0967 84.0497C92.0967 83.1469 92.8241 82.4178 93.7184 82.4178C94.6127 82.4178 95.3382 83.1469 95.3382 84.0497ZM105.511 63.5576C105.511 64.4585 104.785 65.1895 103.891 65.1895C102.995 65.1895 102.269 64.4585 102.269 63.5576C102.269 62.6548 102.995 61.9257 103.891 61.9257C104.785 61.9257 105.511 62.6548 105.511 63.5576ZM105.511 84.0497C105.511 84.9525 104.785 85.6815 103.891 85.6815C102.995 85.6815 102.269 84.9525 102.269 84.0497C102.269 83.1469 102.995 82.4178 103.891 82.4178C104.785 82.4178 105.511 83.1469 105.511 84.0497ZM105.511 12.1982C105.511 13.0991 104.785 13.8301 103.891 13.8301C102.995 13.8301 102.269 13.0991 102.269 12.1982C102.269 11.2954 102.995 10.5663 103.891 10.5663C104.785 10.5663 105.511 11.2954 105.511 12.1982ZM105.511 73.8036C105.511 74.7065 104.785 75.4355 103.891 75.4355C102.995 75.4355 102.269 74.7065 102.269 73.8036C102.269 72.9008 102.995 72.1718 103.891 72.1718C104.785 72.1718 105.511 72.9008 105.511 73.8036ZM105.511 32.8176C105.511 33.7204 104.785 34.4495 103.891 34.4495C102.995 34.4495 102.269 33.7204 102.269 32.8176C102.269 31.9148 102.995 31.1857 103.891 31.1857C104.785 31.1857 105.511 31.9148 105.511 32.8176ZM105.511 53.3097C105.511 54.2125 104.785 54.9415 103.891 54.9415C102.995 54.9415 102.269 54.2125 102.269 53.3097C102.269 52.4087 102.995 51.6778 103.891 51.6778C104.785 51.6778 105.511 52.4087 105.511 53.3097ZM105.511 43.0636C105.511 43.9665 104.785 44.6955 103.891 44.6955C102.995 44.6955 102.269 43.9665 102.269 43.0636C102.269 42.1608 102.995 41.4318 103.891 41.4318C104.785 41.4318 105.511 42.1608 105.511 43.0636ZM105.511 1.95047C105.511 2.85329 104.785 3.58235 103.891 3.58235C102.995 3.58235 102.269 2.85329 102.269 1.95047C102.269 1.04955 102.995 0.318604 103.891 0.318604C104.785 0.318604 105.511 1.04955 105.511 1.95047ZM105.511 22.4443C105.511 23.3471 104.785 24.0761 103.891 24.0761C102.995 24.0761 102.269 23.3471 102.269 22.4443C102.269 21.5414 102.995 20.8124 103.891 20.8124C104.785 20.8124 105.511 21.5414 105.511 22.4443ZM115.681 63.5576C115.681 64.4585 114.956 65.1895 114.061 65.1895C113.165 65.1895 112.44 64.4585 112.44 63.5576C112.44 62.6548 113.165 61.9257 114.061 61.9257C114.956 61.9257 115.681 62.6548 115.681 63.5576ZM115.681 84.0497C115.681 84.9525 114.956 85.6815 114.061 85.6815C113.165 85.6815 112.44 84.9525 112.44 84.0497C112.44 83.1469 113.165 82.4178 114.061 82.4178C114.956 82.4178 115.681 83.1469 115.681 84.0497ZM115.681 73.8036C115.681 74.7065 114.956 75.4355 114.061 75.4355C113.165 75.4355 112.44 74.7065 112.44 73.8036C112.44 72.9008 113.165 72.1718 114.061 72.1718C114.956 72.1718 115.681 72.9008 115.681 73.8036ZM115.681 32.8176C115.681 33.7204 114.956 34.4495 114.061 34.4495C113.165 34.4495 112.44 33.7204 112.44 32.8176C112.44 31.9148 113.165 31.1857 114.061 31.1857C114.956 31.1857 115.681 31.9148 115.681 32.8176ZM115.681 53.3097C115.681 54.2125 114.956 54.9415 114.061 54.9415C113.165 54.9415 112.44 54.2125 112.44 53.3097C112.44 52.4087 113.165 51.6778 114.061 51.6778C114.956 51.6778 115.681 52.4087 115.681 53.3097ZM115.681 43.0636C115.681 43.9665 114.956 44.6955 114.061 44.6955C113.165 44.6955 112.44 43.9665 112.44 43.0636C112.44 42.1608 113.165 41.4318 114.061 41.4318C114.956 41.4318 115.681 42.1608 115.681 43.0636ZM115.681 1.95047C115.681 2.85329 114.956 3.58235 114.061 3.58235C113.165 3.58235 112.44 2.85329 112.44 1.95047C112.44 1.04955 113.165 0.318604 114.061 0.318604C114.956 0.318604 115.681 1.04955 115.681 1.95047ZM115.681 22.4443C115.681 23.3471 114.956 24.0761 114.061 24.0761C113.165 24.0761 112.44 23.3471 112.44 22.4443C112.44 21.5414 113.165 20.8124 114.061 20.8124C114.956 20.8124 115.681 21.5414 115.681 22.4443ZM115.681 12.1982C115.681 13.0991 114.956 13.8301 114.061 13.8301C113.165 13.8301 112.44 13.0991 112.44 12.1982C112.44 11.2954 113.165 10.5663 114.061 10.5663C114.956 10.5663 115.681 11.2954 115.681 12.1982Z" fill="#4461D7"/>
</g>
</svg>
