<svg width="188" height="139" viewBox="0 0 188 139" fill="none" xmlns="http://www.w3.org/2000/svg">
<path fill-rule="evenodd" clip-rule="evenodd" d="M5.76991 102.727C5.76991 104.183 4.59402 105.364 3.14465 105.364C1.69225 105.364 0.516357 104.183 0.516357 102.727C0.516357 101.267 1.69225 100.089 3.14465 100.089C4.59402 100.089 5.76991 101.267 5.76991 102.727ZM5.76991 135.848C5.76991 137.307 4.59402 138.485 3.14465 138.485C1.69225 138.485 0.516357 137.307 0.516357 135.848C0.516357 134.388 1.69225 133.21 3.14465 133.21C4.59402 133.21 5.76991 134.388 5.76991 135.848ZM5.76991 119.287C5.76991 120.746 4.59402 121.925 3.14465 121.925C1.69225 121.925 0.516357 120.746 0.516357 119.287C0.516357 117.828 1.69225 116.65 3.14465 116.65C4.59402 116.65 5.76991 117.828 5.76991 119.287ZM5.76991 53.0422C5.76991 54.5014 4.59402 55.6798 3.14465 55.6798C1.69225 55.6798 0.516357 54.5014 0.516357 53.0422C0.516357 51.583 1.69225 50.4047 3.14465 50.4047C4.59402 50.4047 5.76991 51.583 5.76991 53.0422ZM5.76991 86.1631C5.76991 87.6223 4.59402 88.8007 3.14465 88.8007C1.69225 88.8007 0.516357 87.6223 0.516357 86.1631C0.516357 84.707 1.69225 83.5256 3.14465 83.5256C4.59402 83.5256 5.76991 84.707 5.76991 86.1631ZM5.76991 69.6027C5.76991 71.0619 4.59402 72.2402 3.14465 72.2402C1.69225 72.2402 0.516357 71.0619 0.516357 69.6027C0.516357 68.1435 1.69225 66.9651 3.14465 66.9651C4.59402 66.9651 5.76991 68.1435 5.76991 69.6027ZM5.76991 3.15233C5.76991 4.61154 4.59402 5.78989 3.14465 5.78989C1.69225 5.78989 0.516357 4.61154 0.516357 3.15233C0.516357 1.69618 1.69225 0.514771 3.14465 0.514771C4.59402 0.514771 5.76991 1.69618 5.76991 3.15233ZM5.76991 36.276C5.76991 37.7352 4.59402 38.9136 3.14465 38.9136C1.69225 38.9136 0.516357 37.7352 0.516357 36.276C0.516357 34.8168 1.69225 33.6384 3.14465 33.6384C4.59402 33.6384 5.76991 34.8168 5.76991 36.276ZM5.76991 19.7155C5.76991 21.1717 4.59402 22.3531 3.14465 22.3531C1.69225 22.3531 0.516357 21.1717 0.516357 19.7155C0.516357 18.2563 1.69225 17.078 3.14465 17.078C4.59402 17.078 5.76991 18.2563 5.76991 19.7155ZM22.6388 102.411C22.6388 103.329 22.1733 104.136 21.4671 104.608C20.9942 105.075 20.3445 105.364 19.6279 105.364C18.1755 105.364 16.9996 104.183 16.9996 102.727C16.9996 101.811 17.4623 101.006 18.1657 100.534C18.6402 100.063 19.2928 99.7731 20.0135 99.7731C21.4629 99.7731 22.6388 100.951 22.6388 102.411ZM22.2532 135.848C22.2532 137.307 21.0773 138.485 19.6279 138.485C18.1755 138.485 16.9996 137.307 16.9996 135.848C16.9996 134.388 18.1755 133.21 19.6279 133.21C21.0773 133.21 22.2532 134.388 22.2532 135.848ZM22.6388 118.971C22.6388 119.891 22.1719 120.7 21.464 121.172C20.9904 121.638 20.3424 121.925 19.6279 121.925C18.1755 121.925 16.9996 120.746 16.9996 119.287C16.9996 118.37 17.4641 117.564 18.1699 117.091C18.643 116.623 19.2944 116.334 20.0135 116.334C21.4629 116.334 22.6388 117.515 22.6388 118.971ZM22.2532 3.15233C22.2532 4.61154 21.0773 5.78989 19.6279 5.78989C18.1755 5.78989 16.9996 4.61154 16.9996 3.15233C16.9996 1.69618 18.1755 0.514771 19.6279 0.514771C21.0773 0.514771 22.2532 1.69618 22.2532 3.15233ZM22.2532 36.276C22.2532 37.7352 21.0773 38.9136 19.6279 38.9136C18.1755 38.9136 16.9996 37.7352 16.9996 36.276C16.9996 34.8168 18.1755 33.6384 19.6279 33.6384C21.0773 33.6384 22.2532 34.8168 22.2532 36.276ZM22.2532 19.7155C22.2532 21.1717 21.0773 22.3531 19.6279 22.3531C18.1755 22.3531 16.9996 21.1717 16.9996 19.7155C16.9996 18.2563 18.1755 17.078 19.6279 17.078C21.0773 17.078 22.2532 18.2563 22.2532 19.7155ZM22.2532 53.0422C22.2532 54.5014 21.0773 55.6798 19.6279 55.6798C18.1755 55.6798 16.9996 54.5014 16.9996 53.0422C16.9996 51.583 18.1755 50.4047 19.6279 50.4047C21.0773 50.4047 22.2532 51.583 22.2532 53.0422ZM22.6388 85.8502C22.6388 86.771 22.1705 87.5799 21.4609 88.0516C20.9876 88.5156 20.3408 88.8007 19.6279 88.8007C18.1755 88.8007 16.9996 87.6223 16.9996 86.1631C16.9996 85.2465 17.4655 84.4388 18.173 83.9661C18.6458 83.5003 19.2959 83.2127 20.0135 83.2127C21.4629 83.2127 22.6388 84.391 22.6388 85.8502ZM22.2532 69.6027C22.2532 71.0619 21.0773 72.2402 19.6279 72.2402C18.1755 72.2402 16.9996 71.0619 16.9996 69.6027C16.9996 68.1435 18.1755 66.9651 19.6279 66.9651C21.0773 66.9651 22.2532 68.1435 22.2532 69.6027ZM38.7394 3.15233C38.7394 4.61154 37.5605 5.78989 36.1142 5.78989C34.6618 5.78989 33.4859 4.61154 33.4859 3.15233C33.4859 1.69618 34.6618 0.514771 36.1142 0.514771C37.5605 0.514771 38.7394 1.69618 38.7394 3.15233ZM39.125 102.411C39.125 103.329 38.6584 104.136 37.9521 104.608C37.479 105.075 36.8293 105.364 36.1142 105.364C34.6618 105.364 33.4859 104.183 33.4859 102.727C33.4859 101.811 33.9486 101.006 34.652 100.534C35.1264 100.063 35.7791 99.7731 36.4998 99.7731C37.9461 99.7731 39.125 100.951 39.125 102.411ZM39.125 85.8502C39.125 86.771 38.6556 87.5799 37.9458 88.0516C37.4724 88.5156 36.8256 88.8007 36.1142 88.8007C34.6618 88.8007 33.4859 87.6223 33.4859 86.1631C33.4859 85.2465 33.9518 84.4388 34.6593 83.9661C35.1321 83.5003 35.7822 83.2127 36.4998 83.2127C37.9461 83.2127 39.125 84.391 39.125 85.8502ZM38.7394 135.848C38.7394 137.307 37.5605 138.485 36.1142 138.485C34.6618 138.485 33.4859 137.307 33.4859 135.848C33.4859 134.388 34.6618 133.21 36.1142 133.21C37.5605 133.21 38.7394 134.388 38.7394 135.848ZM38.7394 36.276C38.7394 37.7352 37.5605 38.9136 36.1142 38.9136C34.6618 38.9136 33.4859 37.7352 33.4859 36.276C33.4859 34.8168 34.6618 33.6384 36.1142 33.6384C37.5605 33.6384 38.7394 34.8168 38.7394 36.276ZM39.125 118.971C39.125 119.891 38.657 120.7 37.949 121.172C37.4752 121.638 36.8272 121.925 36.1142 121.925C34.6618 121.925 33.4859 120.746 33.4859 119.287C33.4859 118.37 33.9504 117.564 34.6562 117.091C35.1293 116.623 35.7807 116.334 36.4998 116.334C37.9461 116.334 39.125 117.515 39.125 118.971ZM38.7394 53.0422C38.7394 54.5014 37.5605 55.6798 36.1142 55.6798C34.6618 55.6798 33.4859 54.5014 33.4859 53.0422C33.4859 51.583 34.6618 50.4047 36.1142 50.4047C37.5605 50.4047 38.7394 51.583 38.7394 53.0422ZM38.7394 69.6027C38.7394 71.0619 37.5605 72.2402 36.1142 72.2402C34.6618 72.2402 33.4859 71.0619 33.4859 69.6027C33.4859 68.1435 34.6618 66.9651 36.1142 66.9651C37.5605 66.9651 38.7394 68.1435 38.7394 69.6027ZM38.7394 19.7155C38.7394 21.1717 37.5605 22.3531 36.1142 22.3531C34.6618 22.3531 33.4859 21.1717 33.4859 19.7155C33.4859 18.2563 34.6618 17.078 36.1142 17.078C37.5605 17.078 38.7394 18.2563 38.7394 19.7155ZM55.2227 53.0422C55.2227 54.5014 54.0468 55.6798 52.5974 55.6798C51.145 55.6798 49.9691 54.5014 49.9691 53.0422C49.9691 51.583 51.145 50.4047 52.5974 50.4047C54.0468 50.4047 55.2227 51.583 55.2227 53.0422ZM55.6083 85.8502C55.6083 86.7705 55.1405 87.5791 54.4314 88.0509C53.9581 88.5152 53.3109 88.8007 52.5974 88.8007C51.145 88.8007 49.9691 87.6223 49.9691 86.1631C49.9691 85.2478 50.4338 84.441 51.1397 83.968C51.6144 83.5007 52.2649 83.2127 52.983 83.2127C54.4324 83.2127 55.6083 84.391 55.6083 85.8502ZM55.2227 135.848C55.2227 137.307 54.0468 138.485 52.5974 138.485C51.145 138.485 49.9691 137.307 49.9691 135.848C49.9691 134.388 51.145 133.21 52.5974 133.21C54.0468 133.21 55.2227 134.388 55.2227 135.848ZM55.2227 3.15233C55.2227 4.61154 54.0468 5.78989 52.5974 5.78989C51.145 5.78989 49.9691 4.61154 49.9691 3.15233C49.9691 1.69618 51.145 0.514771 52.5974 0.514771C54.0468 0.514771 55.2227 1.69618 55.2227 3.15233ZM55.2227 36.276C55.2227 37.7352 54.0468 38.9136 52.5974 38.9136C51.145 38.9136 49.9691 37.7352 49.9691 36.276C49.9691 34.8168 51.145 33.6384 52.5974 33.6384C54.0468 33.6384 55.2227 34.8168 55.2227 36.276ZM55.6083 102.411C55.6083 103.328 55.1433 104.135 54.4377 104.607C53.9638 105.075 53.314 105.364 52.5974 105.364C51.145 105.364 49.9691 104.183 49.9691 102.727C49.9691 101.812 50.4311 101.008 51.1335 100.535C51.6087 100.064 52.2618 99.7731 52.983 99.7731C54.4324 99.7731 55.6083 100.951 55.6083 102.411ZM55.6083 118.971C55.6083 119.89 55.1419 120.699 54.4346 121.172C53.9609 121.638 53.3125 121.925 52.5974 121.925C51.145 121.925 49.9691 120.746 49.9691 119.287C49.9691 118.371 50.4324 117.566 51.1366 117.093C51.6116 116.624 52.2634 116.334 52.983 116.334C54.4324 116.334 55.6083 117.515 55.6083 118.971ZM55.2227 69.6027C55.2227 71.0619 54.0468 72.2402 52.5974 72.2402C51.145 72.2402 49.9691 71.0619 49.9691 69.6027C49.9691 68.1435 51.145 66.9651 52.5974 66.9651C54.0468 66.9651 55.2227 68.1435 55.2227 69.6027ZM55.2227 19.7155C55.2227 21.1717 54.0468 22.3531 52.5974 22.3531C51.145 22.3531 49.9691 21.1717 49.9691 19.7155C49.9691 18.2563 51.145 17.078 52.5974 17.078C54.0468 17.078 55.2227 18.2563 55.2227 19.7155ZM71.706 53.0422C71.706 54.5014 70.5301 55.6798 69.0807 55.6798C67.6313 55.6798 66.4524 54.5014 66.4524 53.0422C66.4524 51.583 67.6313 50.4047 69.0807 50.4047C70.5301 50.4047 71.706 51.583 71.706 53.0422ZM71.706 86.1631C71.706 87.6223 70.5301 88.8007 69.0807 88.8007C67.6313 88.8007 66.4524 87.6223 66.4524 86.1631C66.4524 84.707 67.6313 83.5256 69.0807 83.5256C70.5301 83.5256 71.706 84.707 71.706 86.1631ZM71.706 102.727C71.706 104.183 70.5301 105.364 69.0807 105.364C67.6313 105.364 66.4524 104.183 66.4524 102.727C66.4524 101.267 67.6313 100.089 69.0807 100.089C70.5301 100.089 71.706 101.267 71.706 102.727ZM71.706 69.6027C71.706 71.0619 70.5301 72.2402 69.0807 72.2402C67.6313 72.2402 66.4524 71.0619 66.4524 69.6027C66.4524 68.1435 67.6313 66.9651 69.0807 66.9651C70.5301 66.9651 71.706 68.1435 71.706 69.6027ZM71.706 3.15233C71.706 4.61154 70.5301 5.78989 69.0807 5.78989C67.6313 5.78989 66.4524 4.61154 66.4524 3.15233C66.4524 1.69618 67.6313 0.514771 69.0807 0.514771C70.5301 0.514771 71.706 1.69618 71.706 3.15233ZM71.706 135.848C71.706 137.307 70.5301 138.485 69.0807 138.485C67.6313 138.485 66.4524 137.307 66.4524 135.848C66.4524 134.388 67.6313 133.21 69.0807 133.21C70.5301 133.21 71.706 134.388 71.706 135.848ZM71.706 36.276C71.706 37.7352 70.5301 38.9136 69.0807 38.9136C67.6313 38.9136 66.4524 37.7352 66.4524 36.276C66.4524 34.8168 67.6313 33.6384 69.0807 33.6384C70.5301 33.6384 71.706 34.8168 71.706 36.276ZM71.706 19.7155C71.706 21.1717 70.5301 22.3531 69.0807 22.3531C67.6313 22.3531 66.4524 21.1717 66.4524 19.7155C66.4524 18.2563 67.6313 17.078 69.0807 17.078C70.5301 17.078 71.706 18.2563 71.706 19.7155ZM71.706 119.287C71.706 120.746 70.5301 121.925 69.0807 121.925C67.6313 121.925 66.4524 120.746 66.4524 119.287C66.4524 117.828 67.6313 116.65 69.0807 116.65C70.5301 116.65 71.706 117.828 71.706 119.287ZM88.1919 135.848C88.1919 137.307 87.016 138.485 85.5667 138.485C84.1143 138.485 82.9384 137.307 82.9384 135.848C82.9384 134.388 84.1143 133.21 85.5667 133.21C87.016 133.21 88.1919 134.388 88.1919 135.848ZM88.1919 119.287C88.1919 120.746 87.016 121.925 85.5667 121.925C84.1143 121.925 82.9384 120.746 82.9384 119.287C82.9384 117.828 84.1143 116.65 85.5667 116.65C87.016 116.65 88.1919 117.828 88.1919 119.287ZM88.1919 53.0422C88.1919 54.5014 87.016 55.6798 85.5667 55.6798C84.1143 55.6798 82.9384 54.5014 82.9384 53.0422C82.9384 51.583 84.1143 50.4047 85.5667 50.4047C87.016 50.4047 88.1919 51.583 88.1919 53.0422ZM88.1919 86.1631C88.1919 87.6223 87.016 88.8007 85.5667 88.8007C84.1143 88.8007 82.9384 87.6223 82.9384 86.1631C82.9384 84.707 84.1143 83.5256 85.5667 83.5256C87.016 83.5256 88.1919 84.707 88.1919 86.1631ZM88.1919 69.6027C88.1919 71.0619 87.016 72.2402 85.5667 72.2402C84.1143 72.2402 82.9384 71.0619 82.9384 69.6027C82.9384 68.1435 84.1143 66.9651 85.5667 66.9651C87.016 66.9651 88.1919 68.1435 88.1919 69.6027ZM88.1919 102.727C88.1919 104.183 87.016 105.364 85.5667 105.364C84.1143 105.364 82.9384 104.183 82.9384 102.727C82.9384 101.267 84.1143 100.089 85.5667 100.089C87.016 100.089 88.1919 101.267 88.1919 102.727ZM88.1919 3.15233C88.1919 4.61154 87.016 5.78989 85.5667 5.78989C84.1143 5.78989 82.9384 4.61154 82.9384 3.15233C82.9384 1.69618 84.1143 0.514771 85.5667 0.514771C87.016 0.514771 88.1919 1.69618 88.1919 3.15233ZM88.1919 36.276C88.1919 37.7352 87.016 38.9136 85.5667 38.9136C84.1143 38.9136 82.9384 37.7352 82.9384 36.276C82.9384 34.8168 84.1143 33.6384 85.5667 33.6384C87.016 33.6384 88.1919 34.8168 88.1919 36.276ZM88.1919 19.7155C88.1919 21.1717 87.016 22.3531 85.5667 22.3531C84.1143 22.3531 82.9384 21.1717 82.9384 19.7155C82.9384 18.2563 84.1143 17.078 85.5667 17.078C87.016 17.078 88.1919 18.2563 88.1919 19.7155ZM105.061 119.287C105.061 120.746 103.885 121.925 102.436 121.925C100.983 121.925 99.8075 120.746 99.8075 119.287C99.8075 117.828 100.983 116.65 102.436 116.65C103.885 116.65 105.061 117.828 105.061 119.287ZM105.061 3.15233C105.061 4.61154 103.885 5.78989 102.436 5.78989C100.983 5.78989 99.8075 4.61154 99.8075 3.15233C99.8075 1.69618 100.983 0.514771 102.436 0.514771C103.885 0.514771 105.061 1.69618 105.061 3.15233ZM105.061 102.727C105.061 104.183 103.885 105.364 102.436 105.364C100.983 105.364 99.8075 104.183 99.8075 102.727C99.8075 101.267 100.983 100.089 102.436 100.089C103.885 100.089 105.061 101.267 105.061 102.727ZM105.061 36.276C105.061 37.7352 103.885 38.9136 102.436 38.9136C100.983 38.9136 99.8075 37.7352 99.8075 36.276C99.8075 34.8168 100.983 33.6384 102.436 33.6384C103.885 33.6384 105.061 34.8168 105.061 36.276ZM105.061 135.848C105.061 137.307 103.885 138.485 102.436 138.485C100.983 138.485 99.8075 137.307 99.8075 135.848C99.8075 134.388 100.983 133.21 102.436 133.21C103.885 133.21 105.061 134.388 105.061 135.848ZM105.061 69.6027C105.061 71.0619 103.885 72.2402 102.436 72.2402C100.983 72.2402 99.8075 71.0619 99.8075 69.6027C99.8075 68.1435 100.983 66.9651 102.436 66.9651C103.885 66.9651 105.061 68.1435 105.061 69.6027ZM105.061 53.0422C105.061 54.5014 103.885 55.6798 102.436 55.6798C100.983 55.6798 99.8075 54.5014 99.8075 53.0422C99.8075 51.583 100.983 50.4047 102.436 50.4047C103.885 50.4047 105.061 51.583 105.061 53.0422ZM105.061 86.1631C105.061 87.6223 103.885 88.8007 102.436 88.8007C100.983 88.8007 99.8075 87.6223 99.8075 86.1631C99.8075 84.707 100.983 83.5256 102.436 83.5256C103.885 83.5256 105.061 84.707 105.061 86.1631ZM105.061 19.7155C105.061 21.1717 103.885 22.3531 102.436 22.3531C100.983 22.3531 99.8075 21.1717 99.8075 19.7155C99.8075 18.2563 100.983 17.078 102.436 17.078C103.885 17.078 105.061 18.2563 105.061 19.7155ZM121.547 19.7155C121.547 21.1717 120.368 22.3531 118.922 22.3531C117.47 22.3531 116.294 21.1717 116.294 19.7155C116.294 18.2563 117.47 17.078 118.922 17.078C120.368 17.078 121.547 18.2563 121.547 19.7155ZM121.547 135.848C121.547 137.307 120.368 138.485 118.922 138.485C117.47 138.485 116.294 137.307 116.294 135.848C116.294 134.388 117.47 133.21 118.922 133.21C120.368 133.21 121.547 134.388 121.547 135.848ZM121.547 86.1631C121.547 87.6223 120.368 88.8007 118.922 88.8007C117.47 88.8007 116.294 87.6223 116.294 86.1631C116.294 84.707 117.47 83.5256 118.922 83.5256C120.368 83.5256 121.547 84.707 121.547 86.1631ZM121.547 119.287C121.547 120.746 120.368 121.925 118.922 121.925C117.47 121.925 116.294 120.746 116.294 119.287C116.294 117.828 117.47 116.65 118.922 116.65C120.368 116.65 121.547 117.828 121.547 119.287ZM121.547 102.727C121.547 104.183 120.368 105.364 118.922 105.364C117.47 105.364 116.294 104.183 116.294 102.727C116.294 101.267 117.47 100.089 118.922 100.089C120.368 100.089 121.547 101.267 121.547 102.727ZM121.547 53.0422C121.547 54.5014 120.368 55.6798 118.922 55.6798C117.47 55.6798 116.294 54.5014 116.294 53.0422C116.294 51.583 117.47 50.4047 118.922 50.4047C120.368 50.4047 121.547 51.583 121.547 53.0422ZM121.547 3.15233C121.547 4.61154 120.368 5.78989 118.922 5.78989C117.47 5.78989 116.294 4.61154 116.294 3.15233C116.294 1.69618 117.47 0.514771 118.922 0.514771C120.368 0.514771 121.547 1.69618 121.547 3.15233ZM121.547 69.6027C121.547 71.0619 120.368 72.2402 118.922 72.2402C117.47 72.2402 116.294 71.0619 116.294 69.6027C116.294 68.1435 117.47 66.9651 118.922 66.9651C120.368 66.9651 121.547 68.1435 121.547 69.6027ZM121.547 36.276C121.547 37.7352 120.368 38.9136 118.922 38.9136C117.47 38.9136 116.294 37.7352 116.294 36.276C116.294 34.8168 117.47 33.6384 118.922 33.6384C120.368 33.6384 121.547 34.8168 121.547 36.276ZM138.031 19.7155C138.031 21.1717 136.855 22.3531 135.405 22.3531C133.953 22.3531 132.777 21.1717 132.777 19.7155C132.777 18.2563 133.953 17.078 135.405 17.078C136.855 17.078 138.031 18.2563 138.031 19.7155ZM138.031 135.848C138.031 137.307 136.855 138.485 135.405 138.485C133.953 138.485 132.777 137.307 132.777 135.848C132.777 134.388 133.953 133.21 135.405 133.21C136.855 133.21 138.031 134.388 138.031 135.848ZM138.031 36.276C138.031 37.7352 136.855 38.9136 135.405 38.9136C133.953 38.9136 132.777 37.7352 132.777 36.276C132.777 34.8168 133.953 33.6384 135.405 33.6384C136.855 33.6384 138.031 34.8168 138.031 36.276ZM138.031 119.287C138.031 120.746 136.855 121.925 135.405 121.925C133.953 121.925 132.777 120.746 132.777 119.287C132.777 117.828 133.953 116.65 135.405 116.65C136.855 116.65 138.031 117.828 138.031 119.287ZM138.031 69.6027C138.031 71.0619 136.855 72.2402 135.405 72.2402C133.953 72.2402 132.777 71.0619 132.777 69.6027C132.777 68.1435 133.953 66.9651 135.405 66.9651C136.855 66.9651 138.031 68.1435 138.031 69.6027ZM138.031 86.1631C138.031 87.6223 136.855 88.8007 135.405 88.8007C133.953 88.8007 132.777 87.6223 132.777 86.1631C132.777 84.707 133.953 83.5256 135.405 83.5256C136.855 83.5256 138.031 84.707 138.031 86.1631ZM138.031 102.727C138.031 104.183 136.855 105.364 135.405 105.364C133.953 105.364 132.777 104.183 132.777 102.727C132.777 101.267 133.953 100.089 135.405 100.089C136.855 100.089 138.031 101.267 138.031 102.727ZM138.031 3.15233C138.031 4.61154 136.855 5.78989 135.405 5.78989C133.953 5.78989 132.777 4.61154 132.777 3.15233C132.777 1.69618 133.953 0.514771 135.405 0.514771C136.855 0.514771 138.031 1.69618 138.031 3.15233ZM138.031 53.0422C138.031 54.5014 136.855 55.6798 135.405 55.6798C133.953 55.6798 132.777 54.5014 132.777 53.0422C132.777 51.583 133.953 50.4047 135.405 50.4047C136.855 50.4047 138.031 51.583 138.031 53.0422ZM154.514 3.15233C154.514 4.61154 153.338 5.78989 151.889 5.78989C150.439 5.78989 149.26 4.61154 149.26 3.15233C149.26 1.69618 150.439 0.514771 151.889 0.514771C153.338 0.514771 154.514 1.69618 154.514 3.15233ZM154.514 102.727C154.514 104.183 153.338 105.364 151.889 105.364C150.439 105.364 149.26 104.183 149.26 102.727C149.26 101.267 150.439 100.089 151.889 100.089C153.338 100.089 154.514 101.267 154.514 102.727ZM154.514 53.0422C154.514 54.5014 153.338 55.6798 151.889 55.6798C150.439 55.6798 149.26 54.5014 149.26 53.0422C149.26 51.583 150.439 50.4047 151.889 50.4047C153.338 50.4047 154.514 51.583 154.514 53.0422ZM154.514 36.276C154.514 37.7352 153.338 38.9136 151.889 38.9136C150.439 38.9136 149.26 37.7352 149.26 36.276C149.26 34.8168 150.439 33.6384 151.889 33.6384C153.338 33.6384 154.514 34.8168 154.514 36.276ZM154.514 86.1631C154.514 87.6223 153.338 88.8007 151.889 88.8007C150.439 88.8007 149.26 87.6223 149.26 86.1631C149.26 84.707 150.439 83.5256 151.889 83.5256C153.338 83.5256 154.514 84.707 154.514 86.1631ZM154.514 19.7155C154.514 21.1717 153.338 22.3531 151.889 22.3531C150.439 22.3531 149.26 21.1717 149.26 19.7155C149.26 18.2563 150.439 17.078 151.889 17.078C153.338 17.078 154.514 18.2563 154.514 19.7155ZM154.514 69.6027C154.514 71.0619 153.338 72.2402 151.889 72.2402C150.439 72.2402 149.26 71.0619 149.26 69.6027C149.26 68.1435 150.439 66.9651 151.889 66.9651C153.338 66.9651 154.514 68.1435 154.514 69.6027ZM154.514 119.287C154.514 120.746 153.338 121.925 151.889 121.925C150.439 121.925 149.26 120.746 149.26 119.287C149.26 117.828 150.439 116.65 151.889 116.65C153.338 116.65 154.514 117.828 154.514 119.287ZM154.514 135.848C154.514 137.307 153.338 138.485 151.889 138.485C150.439 138.485 149.26 137.307 149.26 135.848C149.26 134.388 150.439 133.21 151.889 133.21C153.338 133.21 154.514 134.388 154.514 135.848ZM171 102.727C171 104.183 169.824 105.364 168.375 105.364C166.922 105.364 165.747 104.183 165.747 102.727C165.747 101.267 166.922 100.089 168.375 100.089C169.824 100.089 171 101.267 171 102.727ZM171 135.848C171 137.307 169.824 138.485 168.375 138.485C166.922 138.485 165.747 137.307 165.747 135.848C165.747 134.388 166.922 133.21 168.375 133.21C169.824 133.21 171 134.388 171 135.848ZM171 19.7155C171 21.1717 169.824 22.3531 168.375 22.3531C166.922 22.3531 165.747 21.1717 165.747 19.7155C165.747 18.2563 166.922 17.078 168.375 17.078C169.824 17.078 171 18.2563 171 19.7155ZM171 119.287C171 120.746 169.824 121.925 168.375 121.925C166.922 121.925 165.747 120.746 165.747 119.287C165.747 117.828 166.922 116.65 168.375 116.65C169.824 116.65 171 117.828 171 119.287ZM171 53.0422C171 54.5014 169.824 55.6798 168.375 55.6798C166.922 55.6798 165.747 54.5014 165.747 53.0422C165.747 51.583 166.922 50.4047 168.375 50.4047C169.824 50.4047 171 51.583 171 53.0422ZM171 86.1631C171 87.6223 169.824 88.8007 168.375 88.8007C166.922 88.8007 165.747 87.6223 165.747 86.1631C165.747 84.707 166.922 83.5256 168.375 83.5256C169.824 83.5256 171 84.707 171 86.1631ZM171 69.6027C171 71.0619 169.824 72.2402 168.375 72.2402C166.922 72.2402 165.747 71.0619 165.747 69.6027C165.747 68.1435 166.922 66.9651 168.375 66.9651C169.824 66.9651 171 68.1435 171 69.6027ZM171 3.15233C171 4.61154 169.824 5.78989 168.375 5.78989C166.922 5.78989 165.747 4.61154 165.747 3.15233C165.747 1.69618 166.922 0.514771 168.375 0.514771C169.824 0.514771 171 1.69618 171 3.15233ZM171 36.276C171 37.7352 169.824 38.9136 168.375 38.9136C166.922 38.9136 165.747 37.7352 165.747 36.276C165.747 34.8168 166.922 33.6384 168.375 33.6384C169.824 33.6384 171 34.8168 171 36.276ZM187.483 102.727C187.483 104.183 186.308 105.364 184.858 105.364C183.406 105.364 182.23 104.183 182.23 102.727C182.23 101.267 183.406 100.089 184.858 100.089C186.308 100.089 187.483 101.267 187.483 102.727ZM187.483 135.848C187.483 137.307 186.308 138.485 184.858 138.485C183.406 138.485 182.23 137.307 182.23 135.848C182.23 134.388 183.406 133.21 184.858 133.21C186.308 133.21 187.483 134.388 187.483 135.848ZM187.483 119.287C187.483 120.746 186.308 121.925 184.858 121.925C183.406 121.925 182.23 120.746 182.23 119.287C182.23 117.828 183.406 116.65 184.858 116.65C186.308 116.65 187.483 117.828 187.483 119.287ZM187.483 53.0422C187.483 54.5014 186.308 55.6798 184.858 55.6798C183.406 55.6798 182.23 54.5014 182.23 53.0422C182.23 51.583 183.406 50.4047 184.858 50.4047C186.308 50.4047 187.483 51.583 187.483 53.0422ZM187.483 86.1631C187.483 87.6223 186.308 88.8007 184.858 88.8007C183.406 88.8007 182.23 87.6223 182.23 86.1631C182.23 84.707 183.406 83.5256 184.858 83.5256C186.308 83.5256 187.483 84.707 187.483 86.1631ZM187.483 69.6027C187.483 71.0619 186.308 72.2402 184.858 72.2402C183.406 72.2402 182.23 71.0619 182.23 69.6027C182.23 68.1435 183.406 66.9651 184.858 66.9651C186.308 66.9651 187.483 68.1435 187.483 69.6027ZM187.483 3.15233C187.483 4.61154 186.308 5.78989 184.858 5.78989C183.406 5.78989 182.23 4.61154 182.23 3.15233C182.23 1.69618 183.406 0.514771 184.858 0.514771C186.308 0.514771 187.483 1.69618 187.483 3.15233ZM187.483 36.276C187.483 37.7352 186.308 38.9136 184.858 38.9136C183.406 38.9136 182.23 37.7352 182.23 36.276C182.23 34.8168 183.406 33.6384 184.858 33.6384C186.308 33.6384 187.483 34.8168 187.483 36.276ZM187.483 19.7155C187.483 21.1717 186.308 22.3531 184.858 22.3531C183.406 22.3531 182.23 21.1717 182.23 19.7155C182.23 18.2563 183.406 17.078 184.858 17.078C186.308 17.078 187.483 18.2563 187.483 19.7155Z" fill="#4461D7"/>
</svg>
