<svg width="124" height="139" viewBox="0 0 124 139" fill="none" xmlns="http://www.w3.org/2000/svg">
<mask id="mask0" mask-type="alpha" maskUnits="userSpaceOnUse" x="18" y="16" width="151" height="106">
<rect x="18" y="16" width="151" height="106" fill="#C4C4C4"/>
</mask>
<g mask="url(#mask0)">
<path fill-rule="evenodd" clip-rule="evenodd" d="M5.76991 102.727C5.76991 104.183 4.59402 105.364 3.14465 105.364C1.69225 105.364 0.516357 104.183 0.516357 102.727C0.516357 101.267 1.69225 100.089 3.14465 100.089C4.59402 100.089 5.76991 101.267 5.76991 102.727ZM5.76991 135.847C5.76991 137.307 4.59402 138.485 3.14465 138.485C1.69225 138.485 0.516357 137.307 0.516357 135.847C0.516357 134.388 1.69225 133.21 3.14465 133.21C4.59402 133.21 5.76991 134.388 5.76991 135.847ZM5.76991 119.287C5.76991 120.746 4.59402 121.925 3.14465 121.925C1.69225 121.925 0.516357 120.746 0.516357 119.287C0.516357 117.828 1.69225 116.649 3.14465 116.649C4.59402 116.649 5.76991 117.828 5.76991 119.287ZM5.76991 53.0421C5.76991 54.5013 4.59402 55.6797 3.14465 55.6797C1.69225 55.6797 0.516357 54.5013 0.516357 53.0421C0.516357 51.5829 1.69225 50.4045 3.14465 50.4045C4.59402 50.4045 5.76991 51.5829 5.76991 53.0421ZM5.76991 86.163C5.76991 87.6222 4.59402 88.8006 3.14465 88.8006C1.69225 88.8006 0.516357 87.6222 0.516357 86.163C0.516357 84.7069 1.69225 83.5254 3.14465 83.5254C4.59402 83.5254 5.76991 84.7069 5.76991 86.163ZM5.76991 69.6025C5.76991 71.0618 4.59402 72.2401 3.14465 72.2401C1.69225 72.2401 0.516357 71.0618 0.516357 69.6025C0.516357 68.1433 1.69225 66.965 3.14465 66.965C4.59402 66.965 5.76991 68.1433 5.76991 69.6025ZM5.76991 3.15221C5.76991 4.61141 4.59402 5.78977 3.14465 5.78977C1.69225 5.78977 0.516357 4.61141 0.516357 3.15221C0.516357 1.69605 1.69225 0.514648 3.14465 0.514648C4.59402 0.514648 5.76991 1.69605 5.76991 3.15221ZM5.76991 36.2759C5.76991 37.7351 4.59402 38.9134 3.14465 38.9134C1.69225 38.9134 0.516357 37.7351 0.516357 36.2759C0.516357 34.8167 1.69225 33.6383 3.14465 33.6383C4.59402 33.6383 5.76991 34.8167 5.76991 36.2759ZM5.76991 19.7154C5.76991 21.1716 4.59402 22.353 3.14465 22.353C1.69225 22.353 0.516357 21.1716 0.516357 19.7154C0.516357 18.2562 1.69225 17.0779 3.14465 17.0779C4.59402 17.0779 5.76991 18.2562 5.76991 19.7154ZM22.6388 102.411C22.6388 103.329 22.1733 104.135 21.4671 104.608C20.9942 105.075 20.3445 105.364 19.6279 105.364C18.1755 105.364 16.9996 104.183 16.9996 102.727C16.9996 101.811 17.4623 101.006 18.1657 100.534C18.6402 100.063 19.2928 99.773 20.0135 99.773C21.4629 99.773 22.6388 100.951 22.6388 102.411ZM22.2532 135.847C22.2532 137.307 21.0773 138.485 19.6279 138.485C18.1755 138.485 16.9996 137.307 16.9996 135.847C16.9996 134.388 18.1755 133.21 19.6279 133.21C21.0773 133.21 22.2532 134.388 22.2532 135.847ZM22.6388 118.971C22.6388 119.89 22.1719 120.7 21.464 121.172C20.9904 121.638 20.3424 121.925 19.6279 121.925C18.1755 121.925 16.9996 120.746 16.9996 119.287C16.9996 118.37 17.4641 117.564 18.1699 117.091C18.643 116.623 19.2944 116.333 20.0135 116.333C21.4629 116.333 22.6388 117.515 22.6388 118.971ZM22.2532 3.15221C22.2532 4.61141 21.0773 5.78977 19.6279 5.78977C18.1755 5.78977 16.9996 4.61141 16.9996 3.15221C16.9996 1.69605 18.1755 0.514648 19.6279 0.514648C21.0773 0.514648 22.2532 1.69605 22.2532 3.15221ZM22.2532 36.2759C22.2532 37.7351 21.0773 38.9134 19.6279 38.9134C18.1755 38.9134 16.9996 37.7351 16.9996 36.2759C16.9996 34.8167 18.1755 33.6383 19.6279 33.6383C21.0773 33.6383 22.2532 34.8167 22.2532 36.2759ZM22.2532 19.7154C22.2532 21.1716 21.0773 22.353 19.6279 22.353C18.1755 22.353 16.9996 21.1716 16.9996 19.7154C16.9996 18.2562 18.1755 17.0779 19.6279 17.0779C21.0773 17.0779 22.2532 18.2562 22.2532 19.7154ZM22.2532 53.0421C22.2532 54.5013 21.0773 55.6797 19.6279 55.6797C18.1755 55.6797 16.9996 54.5013 16.9996 53.0421C16.9996 51.5829 18.1755 50.4045 19.6279 50.4045C21.0773 50.4045 22.2532 51.5829 22.2532 53.0421ZM22.6388 85.8501C22.6388 86.7709 22.1705 87.5798 21.4609 88.0514C20.9876 88.5154 20.3408 88.8006 19.6279 88.8006C18.1755 88.8006 16.9996 87.6222 16.9996 86.163C16.9996 85.2464 17.4655 84.4387 18.173 83.966C18.6458 83.5002 19.2959 83.2125 20.0135 83.2125C21.4629 83.2125 22.6388 84.3909 22.6388 85.8501ZM22.2532 69.6025C22.2532 71.0618 21.0773 72.2401 19.6279 72.2401C18.1755 72.2401 16.9996 71.0618 16.9996 69.6025C16.9996 68.1433 18.1755 66.965 19.6279 66.965C21.0773 66.965 22.2532 68.1433 22.2532 69.6025ZM38.7394 3.15221C38.7394 4.61141 37.5605 5.78977 36.1142 5.78977C34.6618 5.78977 33.4859 4.61141 33.4859 3.15221C33.4859 1.69605 34.6618 0.514648 36.1142 0.514648C37.5605 0.514648 38.7394 1.69605 38.7394 3.15221ZM39.125 102.411C39.125 103.329 38.6584 104.135 37.9521 104.608C37.479 105.075 36.8293 105.364 36.1142 105.364C34.6618 105.364 33.4859 104.183 33.4859 102.727C33.4859 101.811 33.9486 101.006 34.652 100.534C35.1264 100.063 35.7791 99.773 36.4998 99.773C37.9461 99.773 39.125 100.951 39.125 102.411ZM39.125 85.8501C39.125 86.7709 38.6556 87.5798 37.9458 88.0514C37.4724 88.5154 36.8256 88.8006 36.1142 88.8006C34.6618 88.8006 33.4859 87.6222 33.4859 86.163C33.4859 85.2464 33.9518 84.4387 34.6593 83.966C35.1321 83.5002 35.7822 83.2125 36.4998 83.2125C37.9461 83.2125 39.125 84.3909 39.125 85.8501ZM38.7394 135.847C38.7394 137.307 37.5605 138.485 36.1142 138.485C34.6618 138.485 33.4859 137.307 33.4859 135.847C33.4859 134.388 34.6618 133.21 36.1142 133.21C37.5605 133.21 38.7394 134.388 38.7394 135.847ZM38.7394 36.2759C38.7394 37.7351 37.5605 38.9134 36.1142 38.9134C34.6618 38.9134 33.4859 37.7351 33.4859 36.2759C33.4859 34.8167 34.6618 33.6383 36.1142 33.6383C37.5605 33.6383 38.7394 34.8167 38.7394 36.2759ZM39.125 118.971C39.125 119.89 38.657 120.7 37.949 121.172C37.4752 121.638 36.8272 121.925 36.1142 121.925C34.6618 121.925 33.4859 120.746 33.4859 119.287C33.4859 118.37 33.9504 117.564 34.6562 117.091C35.1293 116.623 35.7807 116.333 36.4998 116.333C37.9461 116.333 39.125 117.515 39.125 118.971ZM38.7394 53.0421C38.7394 54.5013 37.5605 55.6797 36.1142 55.6797C34.6618 55.6797 33.4859 54.5013 33.4859 53.0421C33.4859 51.5829 34.6618 50.4045 36.1142 50.4045C37.5605 50.4045 38.7394 51.5829 38.7394 53.0421ZM38.7394 69.6025C38.7394 71.0618 37.5605 72.2401 36.1142 72.2401C34.6618 72.2401 33.4859 71.0618 33.4859 69.6025C33.4859 68.1433 34.6618 66.965 36.1142 66.965C37.5605 66.965 38.7394 68.1433 38.7394 69.6025ZM38.7394 19.7154C38.7394 21.1716 37.5605 22.353 36.1142 22.353C34.6618 22.353 33.4859 21.1716 33.4859 19.7154C33.4859 18.2562 34.6618 17.0779 36.1142 17.0779C37.5605 17.0779 38.7394 18.2562 38.7394 19.7154ZM55.2227 53.0421C55.2227 54.5013 54.0468 55.6797 52.5974 55.6797C51.145 55.6797 49.9691 54.5013 49.9691 53.0421C49.9691 51.5829 51.145 50.4045 52.5974 50.4045C54.0468 50.4045 55.2227 51.5829 55.2227 53.0421ZM55.6083 85.8501C55.6083 86.7704 55.1405 87.579 54.4314 88.0507C53.9581 88.515 53.3109 88.8006 52.5974 88.8006C51.145 88.8006 49.9691 87.6222 49.9691 86.163C49.9691 85.2476 50.4338 84.4409 51.1397 83.9678C51.6144 83.5006 52.2649 83.2125 52.983 83.2125C54.4324 83.2125 55.6083 84.3909 55.6083 85.8501ZM55.2227 135.847C55.2227 137.307 54.0468 138.485 52.5974 138.485C51.145 138.485 49.9691 137.307 49.9691 135.847C49.9691 134.388 51.145 133.21 52.5974 133.21C54.0468 133.21 55.2227 134.388 55.2227 135.847ZM55.2227 3.15221C55.2227 4.61141 54.0468 5.78977 52.5974 5.78977C51.145 5.78977 49.9691 4.61141 49.9691 3.15221C49.9691 1.69605 51.145 0.514648 52.5974 0.514648C54.0468 0.514648 55.2227 1.69605 55.2227 3.15221ZM55.2227 36.2759C55.2227 37.7351 54.0468 38.9134 52.5974 38.9134C51.145 38.9134 49.9691 37.7351 49.9691 36.2759C49.9691 34.8167 51.145 33.6383 52.5974 33.6383C54.0468 33.6383 55.2227 34.8167 55.2227 36.2759ZM55.6083 102.411C55.6083 103.328 55.1433 104.135 54.4377 104.607C53.9638 105.075 53.314 105.364 52.5974 105.364C51.145 105.364 49.9691 104.183 49.9691 102.727C49.9691 101.812 50.4311 101.008 51.1335 100.535C51.6087 100.064 52.2618 99.773 52.983 99.773C54.4324 99.773 55.6083 100.951 55.6083 102.411ZM55.6083 118.971C55.6083 119.89 55.1419 120.699 54.4346 121.172C53.9609 121.638 53.3125 121.925 52.5974 121.925C51.145 121.925 49.9691 120.746 49.9691 119.287C49.9691 118.371 50.4324 117.566 51.1366 117.093C51.6116 116.624 52.2634 116.333 52.983 116.333C54.4324 116.333 55.6083 117.515 55.6083 118.971ZM55.2227 69.6025C55.2227 71.0618 54.0468 72.2401 52.5974 72.2401C51.145 72.2401 49.9691 71.0618 49.9691 69.6025C49.9691 68.1433 51.145 66.965 52.5974 66.965C54.0468 66.965 55.2227 68.1433 55.2227 69.6025ZM55.2227 19.7154C55.2227 21.1716 54.0468 22.353 52.5974 22.353C51.145 22.353 49.9691 21.1716 49.9691 19.7154C49.9691 18.2562 51.145 17.0779 52.5974 17.0779C54.0468 17.0779 55.2227 18.2562 55.2227 19.7154ZM71.706 53.0421C71.706 54.5013 70.5301 55.6797 69.0807 55.6797C67.6313 55.6797 66.4524 54.5013 66.4524 53.0421C66.4524 51.5829 67.6313 50.4045 69.0807 50.4045C70.5301 50.4045 71.706 51.5829 71.706 53.0421ZM71.706 86.163C71.706 87.6222 70.5301 88.8006 69.0807 88.8006C67.6313 88.8006 66.4524 87.6222 66.4524 86.163C66.4524 84.7069 67.6313 83.5254 69.0807 83.5254C70.5301 83.5254 71.706 84.7069 71.706 86.163ZM71.706 102.727C71.706 104.183 70.5301 105.364 69.0807 105.364C67.6313 105.364 66.4524 104.183 66.4524 102.727C66.4524 101.267 67.6313 100.089 69.0807 100.089C70.5301 100.089 71.706 101.267 71.706 102.727ZM71.706 69.6025C71.706 71.0618 70.5301 72.2401 69.0807 72.2401C67.6313 72.2401 66.4524 71.0618 66.4524 69.6025C66.4524 68.1433 67.6313 66.965 69.0807 66.965C70.5301 66.965 71.706 68.1433 71.706 69.6025ZM71.706 3.15221C71.706 4.61141 70.5301 5.78977 69.0807 5.78977C67.6313 5.78977 66.4524 4.61141 66.4524 3.15221C66.4524 1.69605 67.6313 0.514648 69.0807 0.514648C70.5301 0.514648 71.706 1.69605 71.706 3.15221ZM71.706 135.847C71.706 137.307 70.5301 138.485 69.0807 138.485C67.6313 138.485 66.4524 137.307 66.4524 135.847C66.4524 134.388 67.6313 133.21 69.0807 133.21C70.5301 133.21 71.706 134.388 71.706 135.847ZM71.706 36.2759C71.706 37.7351 70.5301 38.9134 69.0807 38.9134C67.6313 38.9134 66.4524 37.7351 66.4524 36.2759C66.4524 34.8167 67.6313 33.6383 69.0807 33.6383C70.5301 33.6383 71.706 34.8167 71.706 36.2759ZM71.706 19.7154C71.706 21.1716 70.5301 22.353 69.0807 22.353C67.6313 22.353 66.4524 21.1716 66.4524 19.7154C66.4524 18.2562 67.6313 17.0779 69.0807 17.0779C70.5301 17.0779 71.706 18.2562 71.706 19.7154ZM71.706 119.287C71.706 120.746 70.5301 121.925 69.0807 121.925C67.6313 121.925 66.4524 120.746 66.4524 119.287C66.4524 117.828 67.6313 116.649 69.0807 116.649C70.5301 116.649 71.706 117.828 71.706 119.287ZM88.1919 135.847C88.1919 137.307 87.016 138.485 85.5667 138.485C84.1143 138.485 82.9384 137.307 82.9384 135.847C82.9384 134.388 84.1143 133.21 85.5667 133.21C87.016 133.21 88.1919 134.388 88.1919 135.847ZM88.1919 119.287C88.1919 120.746 87.016 121.925 85.5667 121.925C84.1143 121.925 82.9384 120.746 82.9384 119.287C82.9384 117.828 84.1143 116.649 85.5667 116.649C87.016 116.649 88.1919 117.828 88.1919 119.287ZM88.1919 53.0421C88.1919 54.5013 87.016 55.6797 85.5667 55.6797C84.1143 55.6797 82.9384 54.5013 82.9384 53.0421C82.9384 51.5829 84.1143 50.4045 85.5667 50.4045C87.016 50.4045 88.1919 51.5829 88.1919 53.0421ZM88.1919 86.163C88.1919 87.6222 87.016 88.8006 85.5667 88.8006C84.1143 88.8006 82.9384 87.6222 82.9384 86.163C82.9384 84.7069 84.1143 83.5254 85.5667 83.5254C87.016 83.5254 88.1919 84.7069 88.1919 86.163ZM88.1919 69.6025C88.1919 71.0618 87.016 72.2401 85.5667 72.2401C84.1143 72.2401 82.9384 71.0618 82.9384 69.6025C82.9384 68.1433 84.1143 66.965 85.5667 66.965C87.016 66.965 88.1919 68.1433 88.1919 69.6025ZM88.1919 102.727C88.1919 104.183 87.016 105.364 85.5667 105.364C84.1143 105.364 82.9384 104.183 82.9384 102.727C82.9384 101.267 84.1143 100.089 85.5667 100.089C87.016 100.089 88.1919 101.267 88.1919 102.727ZM88.1919 3.15221C88.1919 4.61141 87.016 5.78977 85.5667 5.78977C84.1143 5.78977 82.9384 4.61141 82.9384 3.15221C82.9384 1.69605 84.1143 0.514648 85.5667 0.514648C87.016 0.514648 88.1919 1.69605 88.1919 3.15221ZM88.1919 36.2759C88.1919 37.7351 87.016 38.9134 85.5667 38.9134C84.1143 38.9134 82.9384 37.7351 82.9384 36.2759C82.9384 34.8167 84.1143 33.6383 85.5667 33.6383C87.016 33.6383 88.1919 34.8167 88.1919 36.2759ZM88.1919 19.7154C88.1919 21.1716 87.016 22.353 85.5667 22.353C84.1143 22.353 82.9384 21.1716 82.9384 19.7154C82.9384 18.2562 84.1143 17.0779 85.5667 17.0779C87.016 17.0779 88.1919 18.2562 88.1919 19.7154ZM105.061 119.287C105.061 120.746 103.885 121.925 102.436 121.925C100.983 121.925 99.8075 120.746 99.8075 119.287C99.8075 117.828 100.983 116.649 102.436 116.649C103.885 116.649 105.061 117.828 105.061 119.287ZM105.061 3.15221C105.061 4.61141 103.885 5.78977 102.436 5.78977C100.983 5.78977 99.8075 4.61141 99.8075 3.15221C99.8075 1.69605 100.983 0.514648 102.436 0.514648C103.885 0.514648 105.061 1.69605 105.061 3.15221ZM105.061 102.727C105.061 104.183 103.885 105.364 102.436 105.364C100.983 105.364 99.8075 104.183 99.8075 102.727C99.8075 101.267 100.983 100.089 102.436 100.089C103.885 100.089 105.061 101.267 105.061 102.727ZM105.061 36.2759C105.061 37.7351 103.885 38.9134 102.436 38.9134C100.983 38.9134 99.8075 37.7351 99.8075 36.2759C99.8075 34.8167 100.983 33.6383 102.436 33.6383C103.885 33.6383 105.061 34.8167 105.061 36.2759ZM105.061 135.847C105.061 137.307 103.885 138.485 102.436 138.485C100.983 138.485 99.8075 137.307 99.8075 135.847C99.8075 134.388 100.983 133.21 102.436 133.21C103.885 133.21 105.061 134.388 105.061 135.847ZM105.061 69.6025C105.061 71.0618 103.885 72.2401 102.436 72.2401C100.983 72.2401 99.8075 71.0618 99.8075 69.6025C99.8075 68.1433 100.983 66.965 102.436 66.965C103.885 66.965 105.061 68.1433 105.061 69.6025ZM105.061 53.0421C105.061 54.5013 103.885 55.6797 102.436 55.6797C100.983 55.6797 99.8075 54.5013 99.8075 53.0421C99.8075 51.5829 100.983 50.4045 102.436 50.4045C103.885 50.4045 105.061 51.5829 105.061 53.0421ZM105.061 86.163C105.061 87.6222 103.885 88.8006 102.436 88.8006C100.983 88.8006 99.8075 87.6222 99.8075 86.163C99.8075 84.7069 100.983 83.5254 102.436 83.5254C103.885 83.5254 105.061 84.7069 105.061 86.163ZM105.061 19.7154C105.061 21.1716 103.885 22.353 102.436 22.353C100.983 22.353 99.8075 21.1716 99.8075 19.7154C99.8075 18.2562 100.983 17.0779 102.436 17.0779C103.885 17.0779 105.061 18.2562 105.061 19.7154ZM121.547 19.7154C121.547 21.1716 120.368 22.353 118.922 22.353C117.47 22.353 116.294 21.1716 116.294 19.7154C116.294 18.2562 117.47 17.0779 118.922 17.0779C120.368 17.0779 121.547 18.2562 121.547 19.7154ZM121.547 135.847C121.547 137.307 120.368 138.485 118.922 138.485C117.47 138.485 116.294 137.307 116.294 135.847C116.294 134.388 117.47 133.21 118.922 133.21C120.368 133.21 121.547 134.388 121.547 135.847ZM121.547 86.163C121.547 87.6222 120.368 88.8006 118.922 88.8006C117.47 88.8006 116.294 87.6222 116.294 86.163C116.294 84.7069 117.47 83.5254 118.922 83.5254C120.368 83.5254 121.547 84.7069 121.547 86.163ZM121.547 119.287C121.547 120.746 120.368 121.925 118.922 121.925C117.47 121.925 116.294 120.746 116.294 119.287C116.294 117.828 117.47 116.649 118.922 116.649C120.368 116.649 121.547 117.828 121.547 119.287ZM121.547 102.727C121.547 104.183 120.368 105.364 118.922 105.364C117.47 105.364 116.294 104.183 116.294 102.727C116.294 101.267 117.47 100.089 118.922 100.089C120.368 100.089 121.547 101.267 121.547 102.727ZM121.547 53.0421C121.547 54.5013 120.368 55.6797 118.922 55.6797C117.47 55.6797 116.294 54.5013 116.294 53.0421C116.294 51.5829 117.47 50.4045 118.922 50.4045C120.368 50.4045 121.547 51.5829 121.547 53.0421ZM121.547 3.15221C121.547 4.61141 120.368 5.78977 118.922 5.78977C117.47 5.78977 116.294 4.61141 116.294 3.15221C116.294 1.69605 117.47 0.514648 118.922 0.514648C120.368 0.514648 121.547 1.69605 121.547 3.15221ZM121.547 69.6025C121.547 71.0618 120.368 72.2401 118.922 72.2401C117.47 72.2401 116.294 71.0618 116.294 69.6025C116.294 68.1433 117.47 66.965 118.922 66.965C120.368 66.965 121.547 68.1433 121.547 69.6025ZM121.547 36.2759C121.547 37.7351 120.368 38.9134 118.922 38.9134C117.47 38.9134 116.294 37.7351 116.294 36.2759C116.294 34.8167 117.47 33.6383 118.922 33.6383C120.368 33.6383 121.547 34.8167 121.547 36.2759ZM138.031 19.7154C138.031 21.1716 136.855 22.353 135.405 22.353C133.953 22.353 132.777 21.1716 132.777 19.7154C132.777 18.2562 133.953 17.0779 135.405 17.0779C136.855 17.0779 138.031 18.2562 138.031 19.7154ZM138.031 135.847C138.031 137.307 136.855 138.485 135.405 138.485C133.953 138.485 132.777 137.307 132.777 135.847C132.777 134.388 133.953 133.21 135.405 133.21C136.855 133.21 138.031 134.388 138.031 135.847ZM138.031 36.2759C138.031 37.7351 136.855 38.9134 135.405 38.9134C133.953 38.9134 132.777 37.7351 132.777 36.2759C132.777 34.8167 133.953 33.6383 135.405 33.6383C136.855 33.6383 138.031 34.8167 138.031 36.2759ZM138.031 119.287C138.031 120.746 136.855 121.925 135.405 121.925C133.953 121.925 132.777 120.746 132.777 119.287C132.777 117.828 133.953 116.649 135.405 116.649C136.855 116.649 138.031 117.828 138.031 119.287ZM138.031 69.6025C138.031 71.0618 136.855 72.2401 135.405 72.2401C133.953 72.2401 132.777 71.0618 132.777 69.6025C132.777 68.1433 133.953 66.965 135.405 66.965C136.855 66.965 138.031 68.1433 138.031 69.6025ZM138.031 86.163C138.031 87.6222 136.855 88.8006 135.405 88.8006C133.953 88.8006 132.777 87.6222 132.777 86.163C132.777 84.7069 133.953 83.5254 135.405 83.5254C136.855 83.5254 138.031 84.7069 138.031 86.163ZM138.031 102.727C138.031 104.183 136.855 105.364 135.405 105.364C133.953 105.364 132.777 104.183 132.777 102.727C132.777 101.267 133.953 100.089 135.405 100.089C136.855 100.089 138.031 101.267 138.031 102.727ZM138.031 3.15221C138.031 4.61141 136.855 5.78977 135.405 5.78977C133.953 5.78977 132.777 4.61141 132.777 3.15221C132.777 1.69605 133.953 0.514648 135.405 0.514648C136.855 0.514648 138.031 1.69605 138.031 3.15221ZM138.031 53.0421C138.031 54.5013 136.855 55.6797 135.405 55.6797C133.953 55.6797 132.777 54.5013 132.777 53.0421C132.777 51.5829 133.953 50.4045 135.405 50.4045C136.855 50.4045 138.031 51.5829 138.031 53.0421ZM154.514 3.15221C154.514 4.61141 153.338 5.78977 151.889 5.78977C150.439 5.78977 149.26 4.61141 149.26 3.15221C149.26 1.69605 150.439 0.514648 151.889 0.514648C153.338 0.514648 154.514 1.69605 154.514 3.15221ZM154.514 102.727C154.514 104.183 153.338 105.364 151.889 105.364C150.439 105.364 149.26 104.183 149.26 102.727C149.26 101.267 150.439 100.089 151.889 100.089C153.338 100.089 154.514 101.267 154.514 102.727ZM154.514 53.0421C154.514 54.5013 153.338 55.6797 151.889 55.6797C150.439 55.6797 149.26 54.5013 149.26 53.0421C149.26 51.5829 150.439 50.4045 151.889 50.4045C153.338 50.4045 154.514 51.5829 154.514 53.0421ZM154.514 36.2759C154.514 37.7351 153.338 38.9134 151.889 38.9134C150.439 38.9134 149.26 37.7351 149.26 36.2759C149.26 34.8167 150.439 33.6383 151.889 33.6383C153.338 33.6383 154.514 34.8167 154.514 36.2759ZM154.514 86.163C154.514 87.6222 153.338 88.8006 151.889 88.8006C150.439 88.8006 149.26 87.6222 149.26 86.163C149.26 84.7069 150.439 83.5254 151.889 83.5254C153.338 83.5254 154.514 84.7069 154.514 86.163ZM154.514 19.7154C154.514 21.1716 153.338 22.353 151.889 22.353C150.439 22.353 149.26 21.1716 149.26 19.7154C149.26 18.2562 150.439 17.0779 151.889 17.0779C153.338 17.0779 154.514 18.2562 154.514 19.7154ZM154.514 69.6025C154.514 71.0618 153.338 72.2401 151.889 72.2401C150.439 72.2401 149.26 71.0618 149.26 69.6025C149.26 68.1433 150.439 66.965 151.889 66.965C153.338 66.965 154.514 68.1433 154.514 69.6025ZM154.514 119.287C154.514 120.746 153.338 121.925 151.889 121.925C150.439 121.925 149.26 120.746 149.26 119.287C149.26 117.828 150.439 116.649 151.889 116.649C153.338 116.649 154.514 117.828 154.514 119.287ZM154.514 135.847C154.514 137.307 153.338 138.485 151.889 138.485C150.439 138.485 149.26 137.307 149.26 135.847C149.26 134.388 150.439 133.21 151.889 133.21C153.338 133.21 154.514 134.388 154.514 135.847ZM171 102.727C171 104.183 169.824 105.364 168.375 105.364C166.922 105.364 165.747 104.183 165.747 102.727C165.747 101.267 166.922 100.089 168.375 100.089C169.824 100.089 171 101.267 171 102.727ZM171 135.847C171 137.307 169.824 138.485 168.375 138.485C166.922 138.485 165.747 137.307 165.747 135.847C165.747 134.388 166.922 133.21 168.375 133.21C169.824 133.21 171 134.388 171 135.847ZM171 19.7154C171 21.1716 169.824 22.353 168.375 22.353C166.922 22.353 165.747 21.1716 165.747 19.7154C165.747 18.2562 166.922 17.0779 168.375 17.0779C169.824 17.0779 171 18.2562 171 19.7154ZM171 119.287C171 120.746 169.824 121.925 168.375 121.925C166.922 121.925 165.747 120.746 165.747 119.287C165.747 117.828 166.922 116.649 168.375 116.649C169.824 116.649 171 117.828 171 119.287ZM171 53.0421C171 54.5013 169.824 55.6797 168.375 55.6797C166.922 55.6797 165.747 54.5013 165.747 53.0421C165.747 51.5829 166.922 50.4045 168.375 50.4045C169.824 50.4045 171 51.5829 171 53.0421ZM171 86.163C171 87.6222 169.824 88.8006 168.375 88.8006C166.922 88.8006 165.747 87.6222 165.747 86.163C165.747 84.7069 166.922 83.5254 168.375 83.5254C169.824 83.5254 171 84.7069 171 86.163ZM171 69.6025C171 71.0618 169.824 72.2401 168.375 72.2401C166.922 72.2401 165.747 71.0618 165.747 69.6025C165.747 68.1433 166.922 66.965 168.375 66.965C169.824 66.965 171 68.1433 171 69.6025ZM171 3.15221C171 4.61141 169.824 5.78977 168.375 5.78977C166.922 5.78977 165.747 4.61141 165.747 3.15221C165.747 1.69605 166.922 0.514648 168.375 0.514648C169.824 0.514648 171 1.69605 171 3.15221ZM171 36.2759C171 37.7351 169.824 38.9134 168.375 38.9134C166.922 38.9134 165.747 37.7351 165.747 36.2759C165.747 34.8167 166.922 33.6383 168.375 33.6383C169.824 33.6383 171 34.8167 171 36.2759ZM187.483 102.727C187.483 104.183 186.308 105.364 184.858 105.364C183.406 105.364 182.23 104.183 182.23 102.727C182.23 101.267 183.406 100.089 184.858 100.089C186.308 100.089 187.483 101.267 187.483 102.727ZM187.483 135.847C187.483 137.307 186.308 138.485 184.858 138.485C183.406 138.485 182.23 137.307 182.23 135.847C182.23 134.388 183.406 133.21 184.858 133.21C186.308 133.21 187.483 134.388 187.483 135.847ZM187.483 119.287C187.483 120.746 186.308 121.925 184.858 121.925C183.406 121.925 182.23 120.746 182.23 119.287C182.23 117.828 183.406 116.649 184.858 116.649C186.308 116.649 187.483 117.828 187.483 119.287ZM187.483 53.0421C187.483 54.5013 186.308 55.6797 184.858 55.6797C183.406 55.6797 182.23 54.5013 182.23 53.0421C182.23 51.5829 183.406 50.4045 184.858 50.4045C186.308 50.4045 187.483 51.5829 187.483 53.0421ZM187.483 86.163C187.483 87.6222 186.308 88.8006 184.858 88.8006C183.406 88.8006 182.23 87.6222 182.23 86.163C182.23 84.7069 183.406 83.5254 184.858 83.5254C186.308 83.5254 187.483 84.7069 187.483 86.163ZM187.483 69.6025C187.483 71.0618 186.308 72.2401 184.858 72.2401C183.406 72.2401 182.23 71.0618 182.23 69.6025C182.23 68.1433 183.406 66.965 184.858 66.965C186.308 66.965 187.483 68.1433 187.483 69.6025ZM187.483 3.15221C187.483 4.61141 186.308 5.78977 184.858 5.78977C183.406 5.78977 182.23 4.61141 182.23 3.15221C182.23 1.69605 183.406 0.514648 184.858 0.514648C186.308 0.514648 187.483 1.69605 187.483 3.15221ZM187.483 36.2759C187.483 37.7351 186.308 38.9134 184.858 38.9134C183.406 38.9134 182.23 37.7351 182.23 36.2759C182.23 34.8167 183.406 33.6383 184.858 33.6383C186.308 33.6383 187.483 34.8167 187.483 36.2759ZM187.483 19.7154C187.483 21.1716 186.308 22.353 184.858 22.353C183.406 22.353 182.23 21.1716 182.23 19.7154C182.23 18.2562 183.406 17.0779 184.858 17.0779C186.308 17.0779 187.483 18.2562 187.483 19.7154Z" fill="#4461D7"/>
</g>
</svg>
