<svg width="41" height="39" viewBox="0 0 41 39" fill="none" xmlns="http://www.w3.org/2000/svg">
<path d="M40.5 19.5C40.5 29.9701 31.5696 38.5 20.5 38.5C9.43045 38.5 0.5 29.9701 0.5 19.5C0.5 9.02986 9.43045 0.5 20.5 0.5C31.5696 0.5 40.5 9.02986 40.5 19.5Z" stroke="white"/>
<path d="M25.5481 7.94112L22.6699 7.93652C19.4362 7.93652 17.3465 10.0686 17.3465 13.3685V15.873H14.4526C14.2025 15.873 14 16.0746 14 16.3233V19.952C14 20.2007 14.2027 20.4021 14.4526 20.4021H17.3465V29.5585C17.3465 29.8072 17.549 30.0086 17.7991 30.0086H21.5749C21.825 30.0086 22.0275 29.807 22.0275 29.5585V20.4021H25.4112C25.6613 20.4021 25.8638 20.2007 25.8638 19.952L25.8652 16.3233C25.8652 16.2039 25.8174 16.0895 25.7326 16.005C25.6479 15.9205 25.5324 15.873 25.4123 15.873H22.0275V13.7499C22.0275 12.7294 22.272 12.2114 23.6087 12.2114L25.5477 12.2107C25.7975 12.2107 26 12.0091 26 11.7607V8.39118C26 8.14295 25.7977 7.94158 25.5481 7.94112Z" fill="white"/>
</svg>
