<svg width="116" height="86" viewBox="0 0 116 86" fill="none" xmlns="http://www.w3.org/2000/svg">
<g opacity="0.8">
<path fill-rule="evenodd" clip-rule="evenodd" d="M3.56031 63.5574C3.56031 64.4583 2.83476 65.1892 1.94048 65.1892C1.04431 65.1892 0.318756 64.4583 0.318756 63.5574C0.318756 62.6545 1.04431 61.9255 1.94048 61.9255C2.83476 61.9255 3.56031 62.6545 3.56031 63.5574ZM3.56031 84.0494C3.56031 84.9523 2.83476 85.6813 1.94048 85.6813C1.04431 85.6813 0.318756 84.9523 0.318756 84.0494C0.318756 83.1466 1.04431 82.4176 1.94048 82.4176C2.83476 82.4176 3.56031 83.1466 3.56031 84.0494ZM3.56031 73.8034C3.56031 74.7062 2.83476 75.4353 1.94048 75.4353C1.04431 75.4353 0.318756 74.7062 0.318756 73.8034C0.318756 72.9006 1.04431 72.1715 1.94048 72.1715C2.83476 72.1715 3.56031 72.9006 3.56031 73.8034ZM3.56031 32.8174C3.56031 33.7202 2.83476 34.4492 1.94048 34.4492C1.04431 34.4492 0.318756 33.7202 0.318756 32.8174C0.318756 31.9145 1.04431 31.1855 1.94048 31.1855C2.83476 31.1855 3.56031 31.9145 3.56031 32.8174ZM3.56031 53.3094C3.56031 54.2122 2.83476 54.9413 1.94048 54.9413C1.04431 54.9413 0.318756 54.2122 0.318756 53.3094C0.318756 52.4085 1.04431 51.6776 1.94048 51.6776C2.83476 51.6776 3.56031 52.4085 3.56031 53.3094ZM3.56031 43.0634C3.56031 43.9662 2.83476 44.6953 1.94048 44.6953C1.04431 44.6953 0.318756 43.9662 0.318756 43.0634C0.318756 42.1606 1.04431 41.4315 1.94048 41.4315C2.83476 41.4315 3.56031 42.1606 3.56031 43.0634ZM3.56031 1.95023C3.56031 2.85305 2.83476 3.5821 1.94048 3.5821C1.04431 3.5821 0.318756 2.85305 0.318756 1.95023C0.318756 1.0493 1.04431 0.318359 1.94048 0.318359C2.83476 0.318359 3.56031 1.0493 3.56031 1.95023ZM3.56031 22.444C3.56031 23.3468 2.83476 24.0759 1.94048 24.0759C1.04431 24.0759 0.318756 23.3468 0.318756 22.444C0.318756 21.5412 1.04431 20.8121 1.94048 20.8121C2.83476 20.8121 3.56031 21.5412 3.56031 22.444ZM3.56031 12.198C3.56031 13.0989 2.83476 13.8298 1.94048 13.8298C1.04431 13.8298 0.318756 13.0989 0.318756 12.198C0.318756 11.2952 1.04431 10.5661 1.94048 10.5661C2.83476 10.5661 3.56031 11.2952 3.56031 12.198ZM13.9688 63.3619C13.9688 63.9299 13.6815 64.4291 13.2458 64.7213C12.954 65.0106 12.5531 65.1892 12.111 65.1892C11.2148 65.1892 10.4893 64.4583 10.4893 63.5574C10.4893 62.991 10.7748 62.4931 11.2088 62.2006C11.5015 61.9095 11.9042 61.73 12.3489 61.73C13.2432 61.73 13.9688 62.4591 13.9688 63.3619ZM13.7308 84.0494C13.7308 84.9523 13.0053 85.6813 12.111 85.6813C11.2148 85.6813 10.4893 84.9523 10.4893 84.0494C10.4893 83.1466 11.2148 82.4176 12.111 82.4176C13.0053 82.4176 13.7308 83.1466 13.7308 84.0494ZM13.9688 73.6079C13.9688 74.1768 13.6807 74.6774 13.2439 74.9699C12.9517 75.2581 12.5518 75.4353 12.111 75.4353C11.2148 75.4353 10.4893 74.7062 10.4893 73.8034C10.4893 73.236 10.7759 72.7371 11.2114 72.4449C11.5033 72.1552 11.9052 71.976 12.3489 71.976C13.2432 71.976 13.9688 72.707 13.9688 73.6079ZM13.7308 1.95023C13.7308 2.85305 13.0053 3.5821 12.111 3.5821C11.2148 3.5821 10.4893 2.85305 10.4893 1.95023C10.4893 1.0493 11.2148 0.318359 12.111 0.318359C13.0053 0.318359 13.7308 1.0493 13.7308 1.95023ZM13.7308 22.444C13.7308 23.3468 13.0053 24.0759 12.111 24.0759C11.2148 24.0759 10.4893 23.3468 10.4893 22.444C10.4893 21.5412 11.2148 20.8121 12.111 20.8121C13.0053 20.8121 13.7308 21.5412 13.7308 22.444ZM13.7308 12.198C13.7308 13.0989 13.0053 13.8298 12.111 13.8298C11.2148 13.8298 10.4893 13.0989 10.4893 12.198C10.4893 11.2952 11.2148 10.5661 12.111 10.5661C13.0053 10.5661 13.7308 11.2952 13.7308 12.198ZM13.7308 32.8174C13.7308 33.7202 13.0053 34.4492 12.111 34.4492C11.2148 34.4492 10.4893 33.7202 10.4893 32.8174C10.4893 31.9145 11.2148 31.1855 12.111 31.1855C13.0053 31.1855 13.7308 31.9145 13.7308 32.8174ZM13.9688 53.1158C13.9688 53.6855 13.6798 54.186 13.242 54.4778C12.9499 54.7649 12.5509 54.9413 12.111 54.9413C11.2148 54.9413 10.4893 54.2122 10.4893 53.3094C10.4893 52.7423 10.7767 52.2426 11.2133 51.9501C11.505 51.6619 11.9062 51.484 12.3489 51.484C13.2432 51.484 13.9688 52.213 13.9688 53.1158ZM13.7308 43.0634C13.7308 43.9662 13.0053 44.6953 12.111 44.6953C11.2148 44.6953 10.4893 43.9662 10.4893 43.0634C10.4893 42.1606 11.2148 41.4315 12.111 41.4315C13.0053 41.4315 13.7308 42.1606 13.7308 43.0634ZM23.9032 1.95023C23.9032 2.85305 23.1758 3.5821 22.2834 3.5821C21.3872 3.5821 20.6617 2.85305 20.6617 1.95023C20.6617 1.0493 21.3872 0.318359 22.2834 0.318359C23.1758 0.318359 23.9032 1.0493 23.9032 1.95023ZM24.1411 63.3619C24.1411 63.9299 23.8532 64.4291 23.4174 64.7213C23.1255 65.0106 22.7246 65.1892 22.2834 65.1892C21.3872 65.1892 20.6617 64.4583 20.6617 63.5574C20.6617 62.991 20.9472 62.4931 21.3812 62.2006C21.6739 61.9095 22.0766 61.73 22.5213 61.73C23.4137 61.73 24.1411 62.4591 24.1411 63.3619ZM24.1411 53.1158C24.1411 53.6855 23.8515 54.186 23.4135 54.4778C23.1214 54.7649 22.7223 54.9413 22.2834 54.9413C21.3872 54.9413 20.6617 54.2122 20.6617 53.3094C20.6617 52.7423 20.9491 52.2426 21.3857 51.9501C21.6774 51.6619 22.0785 51.484 22.5213 51.484C23.4137 51.484 24.1411 52.213 24.1411 53.1158ZM23.9032 84.0494C23.9032 84.9523 23.1758 85.6813 22.2834 85.6813C21.3872 85.6813 20.6617 84.9523 20.6617 84.0494C20.6617 83.1466 21.3872 82.4176 22.2834 82.4176C23.1758 82.4176 23.9032 83.1466 23.9032 84.0494ZM23.9032 22.444C23.9032 23.3468 23.1758 24.0759 22.2834 24.0759C21.3872 24.0759 20.6617 23.3468 20.6617 22.444C20.6617 21.5412 21.3872 20.8121 22.2834 20.8121C23.1758 20.8121 23.9032 21.5412 23.9032 22.444ZM24.1411 73.6079C24.1411 74.1768 23.8524 74.6774 23.4155 74.9699C23.1232 75.2581 22.7233 75.4353 22.2834 75.4353C21.3872 75.4353 20.6617 74.7062 20.6617 73.8034C20.6617 73.236 20.9483 72.7371 21.3838 72.4449C21.6757 72.1552 22.0776 71.976 22.5213 71.976C23.4137 71.976 24.1411 72.707 24.1411 73.6079ZM23.9032 32.8174C23.9032 33.7202 23.1758 34.4492 22.2834 34.4492C21.3872 34.4492 20.6617 33.7202 20.6617 32.8174C20.6617 31.9145 21.3872 31.1855 22.2834 31.1855C23.1758 31.1855 23.9032 31.9145 23.9032 32.8174ZM23.9032 43.0634C23.9032 43.9662 23.1758 44.6953 22.2834 44.6953C21.3872 44.6953 20.6617 43.9662 20.6617 43.0634C20.6617 42.1606 21.3872 41.4315 22.2834 41.4315C23.1758 41.4315 23.9032 42.1606 23.9032 43.0634ZM23.9032 12.198C23.9032 13.0989 23.1758 13.8298 22.2834 13.8298C21.3872 13.8298 20.6617 13.0989 20.6617 12.198C20.6617 11.2952 21.3872 10.5661 22.2834 10.5661C23.1758 10.5661 23.9032 11.2952 23.9032 12.198ZM34.0737 32.8174C34.0737 33.7202 33.3482 34.4492 32.4539 34.4492C31.5577 34.4492 30.8322 33.7202 30.8322 32.8174C30.8322 31.9145 31.5577 31.1855 32.4539 31.1855C33.3482 31.1855 34.0737 31.9145 34.0737 32.8174ZM34.3117 53.1158C34.3117 53.6852 34.023 54.1855 33.5855 54.4774C33.2934 54.7646 32.8941 54.9413 32.4539 54.9413C31.5577 54.9413 30.8322 54.2122 30.8322 53.3094C30.8322 52.7431 31.1189 52.2439 31.5544 51.9513C31.8474 51.6622 32.2487 51.484 32.6918 51.484C33.5861 51.484 34.3117 52.213 34.3117 53.1158ZM34.0737 84.0494C34.0737 84.9523 33.3482 85.6813 32.4539 85.6813C31.5577 85.6813 30.8322 84.9523 30.8322 84.0494C30.8322 83.1466 31.5577 82.4176 32.4539 82.4176C33.3482 82.4176 34.0737 83.1466 34.0737 84.0494ZM34.0737 1.95023C34.0737 2.85305 33.3482 3.5821 32.4539 3.5821C31.5577 3.5821 30.8322 2.85305 30.8322 1.95023C30.8322 1.0493 31.5577 0.318359 32.4539 0.318359C33.3482 0.318359 34.0737 1.0493 34.0737 1.95023ZM34.0737 22.444C34.0737 23.3468 33.3482 24.0759 32.4539 24.0759C31.5577 24.0759 30.8322 23.3468 30.8322 22.444C30.8322 21.5412 31.5577 20.8121 32.4539 20.8121C33.3482 20.8121 34.0737 21.5412 34.0737 22.444ZM34.3117 63.3619C34.3117 63.9296 34.0247 64.4286 33.5894 64.7208C33.297 65.0106 32.896 65.1892 32.4539 65.1892C31.5577 65.1892 30.8322 64.4583 30.8322 63.5574C30.8322 62.9915 31.1172 62.4939 31.5506 62.2013C31.8438 61.9098 32.2468 61.73 32.6918 61.73C33.5861 61.73 34.3117 62.4591 34.3117 63.3619ZM34.3117 73.6079C34.3117 74.1765 34.0239 74.6769 33.5874 74.9695C33.2952 75.2578 32.8951 75.4353 32.4539 75.4353C31.5577 75.4353 30.8322 74.7062 30.8322 73.8034C30.8322 73.2367 31.118 72.7385 31.5525 72.446C31.8456 72.1555 32.2478 71.976 32.6918 71.976C33.5861 71.976 34.3117 72.707 34.3117 73.6079ZM34.0737 43.0634C34.0737 43.9662 33.3482 44.6953 32.4539 44.6953C31.5577 44.6953 30.8322 43.9662 30.8322 43.0634C30.8322 42.1606 31.5577 41.4315 32.4539 41.4315C33.3482 41.4315 34.0737 42.1606 34.0737 43.0634ZM34.0737 12.198C34.0737 13.0989 33.3482 13.8298 32.4539 13.8298C31.5577 13.8298 30.8322 13.0989 30.8322 12.198C30.8322 11.2952 31.5577 10.5661 32.4539 10.5661C33.3482 10.5661 34.0737 11.2952 34.0737 12.198ZM44.2443 32.8174C44.2443 33.7202 43.5187 34.4492 42.6244 34.4492C41.7301 34.4492 41.0027 33.7202 41.0027 32.8174C41.0027 31.9145 41.7301 31.1855 42.6244 31.1855C43.5187 31.1855 44.2443 31.9145 44.2443 32.8174ZM44.2443 53.3094C44.2443 54.2122 43.5187 54.9413 42.6244 54.9413C41.7301 54.9413 41.0027 54.2122 41.0027 53.3094C41.0027 52.4085 41.7301 51.6776 42.6244 51.6776C43.5187 51.6776 44.2443 52.4085 44.2443 53.3094ZM44.2443 63.5574C44.2443 64.4583 43.5187 65.1892 42.6244 65.1892C41.7301 65.1892 41.0027 64.4583 41.0027 63.5574C41.0027 62.6545 41.7301 61.9255 42.6244 61.9255C43.5187 61.9255 44.2443 62.6545 44.2443 63.5574ZM44.2443 43.0634C44.2443 43.9662 43.5187 44.6953 42.6244 44.6953C41.7301 44.6953 41.0027 43.9662 41.0027 43.0634C41.0027 42.1606 41.7301 41.4315 42.6244 41.4315C43.5187 41.4315 44.2443 42.1606 44.2443 43.0634ZM44.2443 1.95023C44.2443 2.85305 43.5187 3.5821 42.6244 3.5821C41.7301 3.5821 41.0027 2.85305 41.0027 1.95023C41.0027 1.0493 41.7301 0.318359 42.6244 0.318359C43.5187 0.318359 44.2443 1.0493 44.2443 1.95023ZM44.2443 84.0494C44.2443 84.9523 43.5187 85.6813 42.6244 85.6813C41.7301 85.6813 41.0027 84.9523 41.0027 84.0494C41.0027 83.1466 41.7301 82.4176 42.6244 82.4176C43.5187 82.4176 44.2443 83.1466 44.2443 84.0494ZM44.2443 22.444C44.2443 23.3468 43.5187 24.0759 42.6244 24.0759C41.7301 24.0759 41.0027 23.3468 41.0027 22.444C41.0027 21.5412 41.7301 20.8121 42.6244 20.8121C43.5187 20.8121 44.2443 21.5412 44.2443 22.444ZM44.2443 12.198C44.2443 13.0989 43.5187 13.8298 42.6244 13.8298C41.7301 13.8298 41.0027 13.0989 41.0027 12.198C41.0027 11.2952 41.7301 10.5661 42.6244 10.5661C43.5187 10.5661 44.2443 11.2952 44.2443 12.198ZM44.2443 73.8034C44.2443 74.7062 43.5187 75.4353 42.6244 75.4353C41.7301 75.4353 41.0027 74.7062 41.0027 73.8034C41.0027 72.9006 41.7301 72.1715 42.6244 72.1715C43.5187 72.1715 44.2443 72.9006 44.2443 73.8034ZM54.4165 84.0494C54.4165 84.9523 53.6909 85.6813 52.7966 85.6813C51.9004 85.6813 51.1749 84.9523 51.1749 84.0494C51.1749 83.1466 51.9004 82.4176 52.7966 82.4176C53.6909 82.4176 54.4165 83.1466 54.4165 84.0494ZM54.4165 73.8034C54.4165 74.7062 53.6909 75.4353 52.7966 75.4353C51.9004 75.4353 51.1749 74.7062 51.1749 73.8034C51.1749 72.9006 51.9004 72.1715 52.7966 72.1715C53.6909 72.1715 54.4165 72.9006 54.4165 73.8034ZM54.4165 32.8174C54.4165 33.7202 53.6909 34.4492 52.7966 34.4492C51.9004 34.4492 51.1749 33.7202 51.1749 32.8174C51.1749 31.9145 51.9004 31.1855 52.7966 31.1855C53.6909 31.1855 54.4165 31.9145 54.4165 32.8174ZM54.4165 53.3094C54.4165 54.2122 53.6909 54.9413 52.7966 54.9413C51.9004 54.9413 51.1749 54.2122 51.1749 53.3094C51.1749 52.4085 51.9004 51.6776 52.7966 51.6776C53.6909 51.6776 54.4165 52.4085 54.4165 53.3094ZM54.4165 43.0634C54.4165 43.9662 53.6909 44.6953 52.7966 44.6953C51.9004 44.6953 51.1749 43.9662 51.1749 43.0634C51.1749 42.1606 51.9004 41.4315 52.7966 41.4315C53.6909 41.4315 54.4165 42.1606 54.4165 43.0634ZM54.4165 63.5574C54.4165 64.4583 53.6909 65.1892 52.7966 65.1892C51.9004 65.1892 51.1749 64.4583 51.1749 63.5574C51.1749 62.6545 51.9004 61.9255 52.7966 61.9255C53.6909 61.9255 54.4165 62.6545 54.4165 63.5574ZM54.4165 1.95023C54.4165 2.85305 53.6909 3.5821 52.7966 3.5821C51.9004 3.5821 51.1749 2.85305 51.1749 1.95023C51.1749 1.0493 51.9004 0.318359 52.7966 0.318359C53.6909 0.318359 54.4165 1.0493 54.4165 1.95023ZM54.4165 22.444C54.4165 23.3468 53.6909 24.0759 52.7966 24.0759C51.9004 24.0759 51.1749 23.3468 51.1749 22.444C51.1749 21.5412 51.9004 20.8121 52.7966 20.8121C53.6909 20.8121 54.4165 21.5412 54.4165 22.444ZM54.4165 12.198C54.4165 13.0989 53.6909 13.8298 52.7966 13.8298C51.9004 13.8298 51.1749 13.0989 51.1749 12.198C51.1749 11.2952 51.9004 10.5661 52.7966 10.5661C53.6909 10.5661 54.4165 11.2952 54.4165 12.198ZM64.8251 73.8034C64.8251 74.7062 64.0995 75.4353 63.2052 75.4353C62.3091 75.4353 61.5835 74.7062 61.5835 73.8034C61.5835 72.9006 62.3091 72.1715 63.2052 72.1715C64.0995 72.1715 64.8251 72.9006 64.8251 73.8034ZM64.8251 1.95023C64.8251 2.85305 64.0995 3.5821 63.2052 3.5821C62.3091 3.5821 61.5835 2.85305 61.5835 1.95023C61.5835 1.0493 62.3091 0.318359 63.2052 0.318359C64.0995 0.318359 64.8251 1.0493 64.8251 1.95023ZM64.8251 63.5574C64.8251 64.4583 64.0995 65.1892 63.2052 65.1892C62.3091 65.1892 61.5835 64.4583 61.5835 63.5574C61.5835 62.6545 62.3091 61.9255 63.2052 61.9255C64.0995 61.9255 64.8251 62.6545 64.8251 63.5574ZM64.8251 22.444C64.8251 23.3468 64.0995 24.0759 63.2052 24.0759C62.3091 24.0759 61.5835 23.3468 61.5835 22.444C61.5835 21.5412 62.3091 20.8121 63.2052 20.8121C64.0995 20.8121 64.8251 21.5412 64.8251 22.444ZM64.8251 84.0494C64.8251 84.9523 64.0995 85.6813 63.2052 85.6813C62.3091 85.6813 61.5835 84.9523 61.5835 84.0494C61.5835 83.1466 62.3091 82.4176 63.2052 82.4176C64.0995 82.4176 64.8251 83.1466 64.8251 84.0494ZM64.8251 43.0634C64.8251 43.9662 64.0995 44.6953 63.2052 44.6953C62.3091 44.6953 61.5835 43.9662 61.5835 43.0634C61.5835 42.1606 62.3091 41.4315 63.2052 41.4315C64.0995 41.4315 64.8251 42.1606 64.8251 43.0634ZM64.8251 32.8174C64.8251 33.7202 64.0995 34.4492 63.2052 34.4492C62.3091 34.4492 61.5835 33.7202 61.5835 32.8174C61.5835 31.9145 62.3091 31.1855 63.2052 31.1855C64.0995 31.1855 64.8251 31.9145 64.8251 32.8174ZM64.8251 53.3094C64.8251 54.2122 64.0995 54.9413 63.2052 54.9413C62.3091 54.9413 61.5835 54.2122 61.5835 53.3094C61.5835 52.4085 62.3091 51.6776 63.2052 51.6776C64.0995 51.6776 64.8251 52.4085 64.8251 53.3094ZM64.8251 12.198C64.8251 13.0989 64.0995 13.8298 63.2052 13.8298C62.3091 13.8298 61.5835 13.0989 61.5835 12.198C61.5835 11.2952 62.3091 10.5661 63.2052 10.5661C64.0995 10.5661 64.8251 11.2952 64.8251 12.198ZM74.9975 12.198C74.9975 13.0989 74.27 13.8298 73.3776 13.8298C72.4815 13.8298 71.7559 13.0989 71.7559 12.198C71.7559 11.2952 72.4815 10.5661 73.3776 10.5661C74.27 10.5661 74.9975 11.2952 74.9975 12.198ZM74.9975 84.0494C74.9975 84.9523 74.27 85.6813 73.3776 85.6813C72.4815 85.6813 71.7559 84.9523 71.7559 84.0494C71.7559 83.1466 72.4815 82.4176 73.3776 82.4176C74.27 82.4176 74.9975 83.1466 74.9975 84.0494ZM74.9975 53.3094C74.9975 54.2122 74.27 54.9413 73.3776 54.9413C72.4815 54.9413 71.7559 54.2122 71.7559 53.3094C71.7559 52.4085 72.4815 51.6776 73.3776 51.6776C74.27 51.6776 74.9975 52.4085 74.9975 53.3094ZM74.9975 73.8034C74.9975 74.7062 74.27 75.4353 73.3776 75.4353C72.4815 75.4353 71.7559 74.7062 71.7559 73.8034C71.7559 72.9006 72.4815 72.1715 73.3776 72.1715C74.27 72.1715 74.9975 72.9006 74.9975 73.8034ZM74.9975 63.5574C74.9975 64.4583 74.27 65.1892 73.3776 65.1892C72.4815 65.1892 71.7559 64.4583 71.7559 63.5574C71.7559 62.6545 72.4815 61.9255 73.3776 61.9255C74.27 61.9255 74.9975 62.6545 74.9975 63.5574ZM74.9975 32.8174C74.9975 33.7202 74.27 34.4492 73.3776 34.4492C72.4815 34.4492 71.7559 33.7202 71.7559 32.8174C71.7559 31.9145 72.4815 31.1855 73.3776 31.1855C74.27 31.1855 74.9975 31.9145 74.9975 32.8174ZM74.9975 1.95023C74.9975 2.85305 74.27 3.5821 73.3776 3.5821C72.4815 3.5821 71.7559 2.85305 71.7559 1.95023C71.7559 1.0493 72.4815 0.318359 73.3776 0.318359C74.27 0.318359 74.9975 1.0493 74.9975 1.95023ZM74.9975 43.0634C74.9975 43.9662 74.27 44.6953 73.3776 44.6953C72.4815 44.6953 71.7559 43.9662 71.7559 43.0634C71.7559 42.1606 72.4815 41.4315 73.3776 41.4315C74.27 41.4315 74.9975 42.1606 74.9975 43.0634ZM74.9975 22.444C74.9975 23.3468 74.27 24.0759 73.3776 24.0759C72.4815 24.0759 71.7559 23.3468 71.7559 22.444C71.7559 21.5412 72.4815 20.8121 73.3776 20.8121C74.27 20.8121 74.9975 21.5412 74.9975 22.444ZM85.168 12.198C85.168 13.0989 84.4424 13.8298 83.5481 13.8298C82.652 13.8298 81.9264 13.0989 81.9264 12.198C81.9264 11.2952 82.652 10.5661 83.5481 10.5661C84.4424 10.5661 85.168 11.2952 85.168 12.198ZM85.168 84.0494C85.168 84.9523 84.4424 85.6813 83.5481 85.6813C82.652 85.6813 81.9264 84.9523 81.9264 84.0494C81.9264 83.1466 82.652 82.4176 83.5481 82.4176C84.4424 82.4176 85.168 83.1466 85.168 84.0494ZM85.168 22.444C85.168 23.3468 84.4424 24.0759 83.5481 24.0759C82.652 24.0759 81.9264 23.3468 81.9264 22.444C81.9264 21.5412 82.652 20.8121 83.5481 20.8121C84.4424 20.8121 85.168 21.5412 85.168 22.444ZM85.168 73.8034C85.168 74.7062 84.4424 75.4353 83.5481 75.4353C82.652 75.4353 81.9264 74.7062 81.9264 73.8034C81.9264 72.9006 82.652 72.1715 83.5481 72.1715C84.4424 72.1715 85.168 72.9006 85.168 73.8034ZM85.168 43.0634C85.168 43.9662 84.4424 44.6953 83.5481 44.6953C82.652 44.6953 81.9264 43.9662 81.9264 43.0634C81.9264 42.1606 82.652 41.4315 83.5481 41.4315C84.4424 41.4315 85.168 42.1606 85.168 43.0634ZM85.168 53.3094C85.168 54.2122 84.4424 54.9413 83.5481 54.9413C82.652 54.9413 81.9264 54.2122 81.9264 53.3094C81.9264 52.4085 82.652 51.6776 83.5481 51.6776C84.4424 51.6776 85.168 52.4085 85.168 53.3094ZM85.168 63.5574C85.168 64.4583 84.4424 65.1892 83.5481 65.1892C82.652 65.1892 81.9264 64.4583 81.9264 63.5574C81.9264 62.6545 82.652 61.9255 83.5481 61.9255C84.4424 61.9255 85.168 62.6545 85.168 63.5574ZM85.168 1.95023C85.168 2.85305 84.4424 3.5821 83.5481 3.5821C82.652 3.5821 81.9264 2.85305 81.9264 1.95023C81.9264 1.0493 82.652 0.318359 83.5481 0.318359C84.4424 0.318359 85.168 1.0493 85.168 1.95023ZM85.168 32.8174C85.168 33.7202 84.4424 34.4492 83.5481 34.4492C82.652 34.4492 81.9264 33.7202 81.9264 32.8174C81.9264 31.9145 82.652 31.1855 83.5481 31.1855C84.4424 31.1855 85.168 31.9145 85.168 32.8174ZM95.3385 1.95023C95.3385 2.85305 94.6129 3.5821 93.7186 3.5821C92.8244 3.5821 92.0969 2.85305 92.0969 1.95023C92.0969 1.0493 92.8244 0.318359 93.7186 0.318359C94.6129 0.318359 95.3385 1.0493 95.3385 1.95023ZM95.3385 63.5574C95.3385 64.4583 94.6129 65.1892 93.7186 65.1892C92.8244 65.1892 92.0969 64.4583 92.0969 63.5574C92.0969 62.6545 92.8244 61.9255 93.7186 61.9255C94.6129 61.9255 95.3385 62.6545 95.3385 63.5574ZM95.3385 32.8174C95.3385 33.7202 94.6129 34.4492 93.7186 34.4492C92.8244 34.4492 92.0969 33.7202 92.0969 32.8174C92.0969 31.9145 92.8244 31.1855 93.7186 31.1855C94.6129 31.1855 95.3385 31.9145 95.3385 32.8174ZM95.3385 22.444C95.3385 23.3468 94.6129 24.0759 93.7186 24.0759C92.8244 24.0759 92.0969 23.3468 92.0969 22.444C92.0969 21.5412 92.8244 20.8121 93.7186 20.8121C94.6129 20.8121 95.3385 21.5412 95.3385 22.444ZM95.3385 53.3094C95.3385 54.2122 94.6129 54.9413 93.7186 54.9413C92.8244 54.9413 92.0969 54.2122 92.0969 53.3094C92.0969 52.4085 92.8244 51.6776 93.7186 51.6776C94.6129 51.6776 95.3385 52.4085 95.3385 53.3094ZM95.3385 12.198C95.3385 13.0989 94.6129 13.8298 93.7186 13.8298C92.8244 13.8298 92.0969 13.0989 92.0969 12.198C92.0969 11.2952 92.8244 10.5661 93.7186 10.5661C94.6129 10.5661 95.3385 11.2952 95.3385 12.198ZM95.3385 43.0634C95.3385 43.9662 94.6129 44.6953 93.7186 44.6953C92.8244 44.6953 92.0969 43.9662 92.0969 43.0634C92.0969 42.1606 92.8244 41.4315 93.7186 41.4315C94.6129 41.4315 95.3385 42.1606 95.3385 43.0634ZM95.3385 73.8034C95.3385 74.7062 94.6129 75.4353 93.7186 75.4353C92.8244 75.4353 92.0969 74.7062 92.0969 73.8034C92.0969 72.9006 92.8244 72.1715 93.7186 72.1715C94.6129 72.1715 95.3385 72.9006 95.3385 73.8034ZM95.3385 84.0494C95.3385 84.9523 94.6129 85.6813 93.7186 85.6813C92.8244 85.6813 92.0969 84.9523 92.0969 84.0494C92.0969 83.1466 92.8244 82.4176 93.7186 82.4176C94.6129 82.4176 95.3385 83.1466 95.3385 84.0494ZM105.511 63.5574C105.511 64.4583 104.785 65.1892 103.891 65.1892C102.995 65.1892 102.269 64.4583 102.269 63.5574C102.269 62.6545 102.995 61.9255 103.891 61.9255C104.785 61.9255 105.511 62.6545 105.511 63.5574ZM105.511 84.0494C105.511 84.9523 104.785 85.6813 103.891 85.6813C102.995 85.6813 102.269 84.9523 102.269 84.0494C102.269 83.1466 102.995 82.4176 103.891 82.4176C104.785 82.4176 105.511 83.1466 105.511 84.0494ZM105.511 12.198C105.511 13.0989 104.785 13.8298 103.891 13.8298C102.995 13.8298 102.269 13.0989 102.269 12.198C102.269 11.2952 102.995 10.5661 103.891 10.5661C104.785 10.5661 105.511 11.2952 105.511 12.198ZM105.511 73.8034C105.511 74.7062 104.785 75.4353 103.891 75.4353C102.995 75.4353 102.269 74.7062 102.269 73.8034C102.269 72.9006 102.995 72.1715 103.891 72.1715C104.785 72.1715 105.511 72.9006 105.511 73.8034ZM105.511 32.8174C105.511 33.7202 104.785 34.4492 103.891 34.4492C102.995 34.4492 102.269 33.7202 102.269 32.8174C102.269 31.9145 102.995 31.1855 103.891 31.1855C104.785 31.1855 105.511 31.9145 105.511 32.8174ZM105.511 53.3094C105.511 54.2122 104.785 54.9413 103.891 54.9413C102.995 54.9413 102.269 54.2122 102.269 53.3094C102.269 52.4085 102.995 51.6776 103.891 51.6776C104.785 51.6776 105.511 52.4085 105.511 53.3094ZM105.511 43.0634C105.511 43.9662 104.785 44.6953 103.891 44.6953C102.995 44.6953 102.269 43.9662 102.269 43.0634C102.269 42.1606 102.995 41.4315 103.891 41.4315C104.785 41.4315 105.511 42.1606 105.511 43.0634ZM105.511 1.95023C105.511 2.85305 104.785 3.5821 103.891 3.5821C102.995 3.5821 102.269 2.85305 102.269 1.95023C102.269 1.0493 102.995 0.318359 103.891 0.318359C104.785 0.318359 105.511 1.0493 105.511 1.95023ZM105.511 22.444C105.511 23.3468 104.785 24.0759 103.891 24.0759C102.995 24.0759 102.269 23.3468 102.269 22.444C102.269 21.5412 102.995 20.8121 103.891 20.8121C104.785 20.8121 105.511 21.5412 105.511 22.444ZM115.681 63.5574C115.681 64.4583 114.956 65.1892 114.062 65.1892C113.165 65.1892 112.44 64.4583 112.44 63.5574C112.44 62.6545 113.165 61.9255 114.062 61.9255C114.956 61.9255 115.681 62.6545 115.681 63.5574ZM115.681 84.0494C115.681 84.9523 114.956 85.6813 114.062 85.6813C113.165 85.6813 112.44 84.9523 112.44 84.0494C112.44 83.1466 113.165 82.4176 114.062 82.4176C114.956 82.4176 115.681 83.1466 115.681 84.0494ZM115.681 73.8034C115.681 74.7062 114.956 75.4353 114.062 75.4353C113.165 75.4353 112.44 74.7062 112.44 73.8034C112.44 72.9006 113.165 72.1715 114.062 72.1715C114.956 72.1715 115.681 72.9006 115.681 73.8034ZM115.681 32.8174C115.681 33.7202 114.956 34.4492 114.062 34.4492C113.165 34.4492 112.44 33.7202 112.44 32.8174C112.44 31.9145 113.165 31.1855 114.062 31.1855C114.956 31.1855 115.681 31.9145 115.681 32.8174ZM115.681 53.3094C115.681 54.2122 114.956 54.9413 114.062 54.9413C113.165 54.9413 112.44 54.2122 112.44 53.3094C112.44 52.4085 113.165 51.6776 114.062 51.6776C114.956 51.6776 115.681 52.4085 115.681 53.3094ZM115.681 43.0634C115.681 43.9662 114.956 44.6953 114.062 44.6953C113.165 44.6953 112.44 43.9662 112.44 43.0634C112.44 42.1606 113.165 41.4315 114.062 41.4315C114.956 41.4315 115.681 42.1606 115.681 43.0634ZM115.681 1.95023C115.681 2.85305 114.956 3.5821 114.062 3.5821C113.165 3.5821 112.44 2.85305 112.44 1.95023C112.44 1.0493 113.165 0.318359 114.062 0.318359C114.956 0.318359 115.681 1.0493 115.681 1.95023ZM115.681 22.444C115.681 23.3468 114.956 24.0759 114.062 24.0759C113.165 24.0759 112.44 23.3468 112.44 22.444C112.44 21.5412 113.165 20.8121 114.062 20.8121C114.956 20.8121 115.681 21.5412 115.681 22.444ZM115.681 12.198C115.681 13.0989 114.956 13.8298 114.062 13.8298C113.165 13.8298 112.44 13.0989 112.44 12.198C112.44 11.2952 113.165 10.5661 114.062 10.5661C114.956 10.5661 115.681 11.2952 115.681 12.198Z" fill="#4461D7"/>
</g>
</svg>
