<svg width="14" height="14" viewBox="0 0 14 14" fill="none" xmlns="http://www.w3.org/2000/svg">
<g clip-path="url(#clip0)">
<path d="M13.7762 6.45606L8.72034 1.40006C8.57601 1.25573 8.38366 1.17651 8.17855 1.17651C7.97322 1.17651 7.78098 1.25585 7.63665 1.40006L7.17762 1.85921C7.03341 2.0033 6.95396 2.19577 6.95396 2.40099C6.95396 2.6061 7.03341 2.80505 7.17762 2.94915L10.1272 5.90517H0.756335C0.333835 5.90517 0 6.23594 0 6.65855V7.30767C0 7.73028 0.333835 8.09439 0.756335 8.09439H10.1606L7.17773 11.0669C7.03352 11.2112 6.95407 11.3985 6.95407 11.6037C6.95407 11.8087 7.03352 11.9987 7.17773 12.1429L7.63677 12.6005C7.78109 12.7449 7.97333 12.8235 8.17867 12.8235C8.38377 12.8235 8.57613 12.7438 8.72045 12.5995L13.7763 7.54362C13.921 7.39884 14.0006 7.20557 14 7.00013C14.0005 6.794 13.921 6.60062 13.7762 6.45606Z" fill="#4461D7"/>
</g>
<defs>
<clipPath id="clip0">
<rect width="14" height="14" fill="white"/>
</clipPath>
</defs>
</svg>
