<svg width="225" height="237" viewBox="0 0 225 237" fill="none" xmlns="http://www.w3.org/2000/svg">
<g opacity="0.5">
<path d="M111.591 129.402C121.345 148.981 145.246 156.824 164.976 146.92C184.705 137.015 192.792 113.114 183.037 93.535C173.283 73.9558 149.382 66.1127 129.653 76.017C109.923 85.9212 101.837 109.822 111.591 129.402Z" stroke="#49CED9" stroke-width="3" stroke-miterlimit="10"/>
<path d="M84.4874 97.7474C94.5072 117.193 118.515 124.712 138.11 114.543C157.705 104.374 165.467 80.3664 155.447 60.921C145.427 41.4757 121.42 33.956 101.825 44.1253C82.2297 54.2946 74.4675 78.302 84.4874 97.7474Z" fill="#49CED9"/>
<path d="M14.5293 144.677C11.8211 155.224 18.1084 165.902 28.5724 168.528C39.0364 171.154 49.7147 164.732 52.423 154.185C55.1312 143.639 48.8439 132.96 38.3798 130.335C27.9158 127.709 17.2376 134.131 14.5293 144.677Z" fill="#FAD141"/>
</g>
</svg>
