<svg width="42" height="42" viewBox="0 0 42 42" fill="none" xmlns="http://www.w3.org/2000/svg">
<g clip-path="url(#clip0)">
<path d="M26.0078 13.9606C26.0078 9.56145 22.4167 5.98242 18.0024 5.98242C13.5882 5.98242 9.99707 9.56145 9.99707 13.9606C9.99707 18.3598 13.5882 21.9387 18.0024 21.9387C22.4166 21.9387 26.0078 18.3598 26.0078 13.9606ZM18.8227 20.0343V14.7809H21.0436C20.872 17.4054 19.8931 19.3535 18.8227 20.0343ZM18.8227 13.1403V7.88686C19.8932 8.56764 20.8721 10.5157 21.0436 13.1403H18.8227ZM17.1821 7.88686V13.1403H14.9613C15.1327 10.5157 16.1117 8.56764 17.1821 7.88686ZM17.1821 14.7809V20.0343C16.1117 19.3535 15.1327 17.4054 14.9613 14.7809H17.1821ZM21.5811 19.199C22.1911 17.998 22.5894 16.4751 22.6872 14.7809H24.3141C24.0752 16.6135 23.0469 18.2029 21.5811 19.199ZM24.3141 13.1403H22.6871C22.5894 11.4461 22.1911 9.92329 21.581 8.72218C23.0469 9.71812 24.0752 11.3076 24.3141 13.1403ZM14.4236 8.72218C13.8137 9.9232 13.4154 11.446 13.3176 13.1402H11.6908C11.9297 11.3076 12.9579 9.71821 14.4236 8.72218ZM11.6908 14.7809H13.3176C13.4154 16.4751 13.8137 17.9979 14.4236 19.199C12.9579 18.2029 11.9297 16.6135 11.6908 14.7809Z" fill="white"/>
<path d="M37.5686 22.0606L40.8662 11.2131C40.9418 10.9645 40.8951 10.6948 40.7404 10.4861C40.5856 10.2773 40.3412 10.1542 40.0814 10.1542H30.925V2.87438C30.925 2.42132 30.5576 2.05406 30.1046 2.05406H6.72114V0.820312C6.72114 0.367254 6.35381 0 5.90083 0H1.91797C1.46499 0 1.09766 0.367254 1.09766 0.820312V41.1797C1.09766 41.6327 1.46499 42 1.91797 42H5.90091C6.35389 42 6.72123 41.6327 6.72123 41.1797V25.8668H17.1824V33.1466C17.1824 33.5997 17.5498 33.9669 18.0027 33.9669H40.0814C40.3412 33.9669 40.5856 33.8439 40.7404 33.6351C40.8951 33.4263 40.9418 33.1566 40.8662 32.9081L37.5686 22.0606ZM5.08052 40.3594H2.73828V1.64062H5.0806V40.3594H5.08052ZM6.72114 3.69469H29.2843V24.2262H6.72114V3.69469ZM18.8231 32.3263V25.8668H30.1046C30.5576 25.8668 30.925 25.4996 30.925 25.0465V11.7948H38.9746L35.9264 21.822C35.8791 21.9775 35.8791 22.1436 35.9264 22.2991L38.9746 32.3263H18.8231Z" fill="white"/>
</g>
<defs>
<clipPath id="clip0">
<rect width="42" height="42" fill="white"/>
</clipPath>
</defs>
</svg>
