<svg width="132" height="139" viewBox="0 0 132 139" fill="none" xmlns="http://www.w3.org/2000/svg">
<g opacity="0.2">
<path fill-rule="evenodd" clip-rule="evenodd" d="M-50.2301 102.727C-50.2301 104.183 -51.406 105.364 -52.8553 105.364C-54.3078 105.364 -55.4836 104.183 -55.4836 102.727C-55.4836 101.267 -54.3078 100.089 -52.8553 100.089C-51.406 100.089 -50.2301 101.267 -50.2301 102.727ZM-50.2301 135.848C-50.2301 137.307 -51.406 138.485 -52.8553 138.485C-54.3078 138.485 -55.4836 137.307 -55.4836 135.848C-55.4836 134.388 -54.3078 133.21 -52.8553 133.21C-51.406 133.21 -50.2301 134.388 -50.2301 135.848ZM-50.2301 119.287C-50.2301 120.746 -51.406 121.925 -52.8553 121.925C-54.3078 121.925 -55.4836 120.746 -55.4836 119.287C-55.4836 117.828 -54.3078 116.65 -52.8553 116.65C-51.406 116.65 -50.2301 117.828 -50.2301 119.287ZM-50.2301 53.0423C-50.2301 54.5015 -51.406 55.6798 -52.8553 55.6798C-54.3078 55.6798 -55.4836 54.5015 -55.4836 53.0423C-55.4836 51.5831 -54.3078 50.4047 -52.8553 50.4047C-51.406 50.4047 -50.2301 51.5831 -50.2301 53.0423ZM-50.2301 86.1632C-50.2301 87.6224 -51.406 88.8008 -52.8553 88.8008C-54.3078 88.8008 -55.4836 87.6224 -55.4836 86.1632C-55.4836 84.707 -54.3078 83.5256 -52.8553 83.5256C-51.406 83.5256 -50.2301 84.707 -50.2301 86.1632ZM-50.2301 69.6027C-50.2301 71.0619 -51.406 72.2403 -52.8553 72.2403C-54.3078 72.2403 -55.4836 71.0619 -55.4836 69.6027C-55.4836 68.1435 -54.3078 66.9652 -52.8553 66.9652C-51.406 66.9652 -50.2301 68.1435 -50.2301 69.6027ZM-50.2301 3.15239C-50.2301 4.6116 -51.406 5.78995 -52.8553 5.78995C-54.3078 5.78995 -55.4836 4.6116 -55.4836 3.15239C-55.4836 1.69624 -54.3078 0.514832 -52.8553 0.514832C-51.406 0.514832 -50.2301 1.69624 -50.2301 3.15239ZM-50.2301 36.2761C-50.2301 37.7353 -51.406 38.9136 -52.8553 38.9136C-54.3078 38.9136 -55.4836 37.7353 -55.4836 36.2761C-55.4836 34.8169 -54.3078 33.6385 -52.8553 33.6385C-51.406 33.6385 -50.2301 34.8169 -50.2301 36.2761ZM-50.2301 19.7156C-50.2301 21.1718 -51.406 22.3532 -52.8553 22.3532C-54.3078 22.3532 -55.4836 21.1718 -55.4836 19.7156C-55.4836 18.2564 -54.3078 17.078 -52.8553 17.078C-51.406 17.078 -50.2301 18.2564 -50.2301 19.7156ZM-33.3612 102.411C-33.3612 103.329 -33.8267 104.136 -34.5329 104.608C-35.0058 105.075 -35.6555 105.364 -36.3721 105.364C-37.8245 105.364 -39.0004 104.183 -39.0004 102.727C-39.0004 101.811 -38.5377 101.007 -37.8343 100.534C-37.3598 100.063 -36.7072 99.7732 -35.9865 99.7732C-34.5371 99.7732 -33.3612 100.952 -33.3612 102.411ZM-33.7468 135.848C-33.7468 137.307 -34.9227 138.485 -36.3721 138.485C-37.8245 138.485 -39.0004 137.307 -39.0004 135.848C-39.0004 134.388 -37.8245 133.21 -36.3721 133.21C-34.9227 133.21 -33.7468 134.388 -33.7468 135.848ZM-33.3612 118.971C-33.3612 119.891 -33.8281 120.7 -34.536 121.173C-35.0096 121.638 -35.6576 121.925 -36.3721 121.925C-37.8245 121.925 -39.0004 120.746 -39.0004 119.287C-39.0004 118.37 -38.5359 117.564 -37.8301 117.091C-37.357 116.623 -36.7056 116.334 -35.9865 116.334C-34.5371 116.334 -33.3612 117.515 -33.3612 118.971ZM-33.7468 3.15239C-33.7468 4.6116 -34.9227 5.78995 -36.3721 5.78995C-37.8245 5.78995 -39.0004 4.6116 -39.0004 3.15239C-39.0004 1.69624 -37.8245 0.514832 -36.3721 0.514832C-34.9227 0.514832 -33.7468 1.69624 -33.7468 3.15239ZM-33.7468 36.2761C-33.7468 37.7353 -34.9227 38.9136 -36.3721 38.9136C-37.8245 38.9136 -39.0004 37.7353 -39.0004 36.2761C-39.0004 34.8169 -37.8245 33.6385 -36.3721 33.6385C-34.9227 33.6385 -33.7468 34.8169 -33.7468 36.2761ZM-33.7468 19.7156C-33.7468 21.1718 -34.9227 22.3532 -36.3721 22.3532C-37.8245 22.3532 -39.0004 21.1718 -39.0004 19.7156C-39.0004 18.2564 -37.8245 17.078 -36.3721 17.078C-34.9227 17.078 -33.7468 18.2564 -33.7468 19.7156ZM-33.7468 53.0423C-33.7468 54.5015 -34.9227 55.6798 -36.3721 55.6798C-37.8245 55.6798 -39.0004 54.5015 -39.0004 53.0423C-39.0004 51.5831 -37.8245 50.4047 -36.3721 50.4047C-34.9227 50.4047 -33.7468 51.5831 -33.7468 53.0423ZM-33.3612 85.8503C-33.3612 86.771 -33.8295 87.58 -34.5391 88.0516C-35.0124 88.5156 -35.6592 88.8008 -36.3721 88.8008C-37.8245 88.8008 -39.0004 87.6224 -39.0004 86.1632C-39.0004 85.2466 -38.5345 84.4389 -37.827 83.9661C-37.3542 83.5004 -36.7041 83.2127 -35.9865 83.2127C-34.5371 83.2127 -33.3612 84.3911 -33.3612 85.8503ZM-33.7468 69.6027C-33.7468 71.0619 -34.9227 72.2403 -36.3721 72.2403C-37.8245 72.2403 -39.0004 71.0619 -39.0004 69.6027C-39.0004 68.1435 -37.8245 66.9652 -36.3721 66.9652C-34.9227 66.9652 -33.7468 68.1435 -33.7468 69.6027ZM-17.2606 3.15239C-17.2606 4.6116 -18.4395 5.78995 -19.8858 5.78995C-21.3382 5.78995 -22.5141 4.6116 -22.5141 3.15239C-22.5141 1.69624 -21.3382 0.514832 -19.8858 0.514832C-18.4395 0.514832 -17.2606 1.69624 -17.2606 3.15239ZM-16.875 102.411C-16.875 103.329 -17.3416 104.136 -18.0479 104.608C-18.521 105.075 -19.1707 105.364 -19.8858 105.364C-21.3382 105.364 -22.5141 104.183 -22.5141 102.727C-22.5141 101.811 -22.0514 101.007 -21.348 100.534C-20.8736 100.063 -20.2209 99.7732 -19.5002 99.7732C-18.0539 99.7732 -16.875 100.952 -16.875 102.411ZM-16.875 85.8503C-16.875 86.771 -17.3444 87.58 -18.0542 88.0516C-18.5276 88.5156 -19.1744 88.8008 -19.8858 88.8008C-21.3382 88.8008 -22.5141 87.6224 -22.5141 86.1632C-22.5141 85.2466 -22.0482 84.4389 -21.3407 83.9661C-20.8679 83.5004 -20.2178 83.2127 -19.5002 83.2127C-18.0539 83.2127 -16.875 84.3911 -16.875 85.8503ZM-17.2606 135.848C-17.2606 137.307 -18.4395 138.485 -19.8858 138.485C-21.3382 138.485 -22.5141 137.307 -22.5141 135.848C-22.5141 134.388 -21.3382 133.21 -19.8858 133.21C-18.4395 133.21 -17.2606 134.388 -17.2606 135.848ZM-17.2606 36.2761C-17.2606 37.7353 -18.4395 38.9136 -19.8858 38.9136C-21.3382 38.9136 -22.5141 37.7353 -22.5141 36.2761C-22.5141 34.8169 -21.3382 33.6385 -19.8858 33.6385C-18.4395 33.6385 -17.2606 34.8169 -17.2606 36.2761ZM-16.875 118.971C-16.875 119.891 -17.343 120.7 -18.051 121.173C-18.5248 121.638 -19.1728 121.925 -19.8858 121.925C-21.3382 121.925 -22.5141 120.746 -22.5141 119.287C-22.5141 118.37 -22.0496 117.564 -21.3438 117.091C-20.8707 116.623 -20.2193 116.334 -19.5002 116.334C-18.0539 116.334 -16.875 117.515 -16.875 118.971ZM-17.2606 53.0423C-17.2606 54.5015 -18.4395 55.6798 -19.8858 55.6798C-21.3382 55.6798 -22.5141 54.5015 -22.5141 53.0423C-22.5141 51.5831 -21.3382 50.4047 -19.8858 50.4047C-18.4395 50.4047 -17.2606 51.5831 -17.2606 53.0423ZM-17.2606 69.6027C-17.2606 71.0619 -18.4395 72.2403 -19.8858 72.2403C-21.3382 72.2403 -22.5141 71.0619 -22.5141 69.6027C-22.5141 68.1435 -21.3382 66.9652 -19.8858 66.9652C-18.4395 66.9652 -17.2606 68.1435 -17.2606 69.6027ZM-17.2606 19.7156C-17.2606 21.1718 -18.4395 22.3532 -19.8858 22.3532C-21.3382 22.3532 -22.5141 21.1718 -22.5141 19.7156C-22.5141 18.2564 -21.3382 17.078 -19.8858 17.078C-18.4395 17.078 -17.2606 18.2564 -17.2606 19.7156ZM-0.777298 53.0423C-0.777298 54.5015 -1.9532 55.6798 -3.40257 55.6798C-4.85497 55.6798 -6.03085 54.5015 -6.03085 53.0423C-6.03085 51.5831 -4.85497 50.4047 -3.40257 50.4047C-1.9532 50.4047 -0.777298 51.5831 -0.777298 53.0423ZM-0.391708 85.8503C-0.391708 86.7706 -0.859451 87.5792 -1.56856 88.0509C-2.04192 88.5152 -2.68912 88.8008 -3.40257 88.8008C-4.85497 88.8008 -6.03085 87.6224 -6.03085 86.1632C-6.03085 85.2478 -5.56621 84.441 -4.86028 83.968C-4.38556 83.5008 -3.73506 83.2127 -3.01697 83.2127C-1.56761 83.2127 -0.391708 84.3911 -0.391708 85.8503ZM-0.777298 135.848C-0.777298 137.307 -1.9532 138.485 -3.40257 138.485C-4.85497 138.485 -6.03085 137.307 -6.03085 135.848C-6.03085 134.388 -4.85497 133.21 -3.40257 133.21C-1.9532 133.21 -0.777298 134.388 -0.777298 135.848ZM-0.777298 3.15239C-0.777298 4.6116 -1.9532 5.78995 -3.40257 5.78995C-4.85497 5.78995 -6.03085 4.6116 -6.03085 3.15239C-6.03085 1.69624 -4.85497 0.514832 -3.40257 0.514832C-1.9532 0.514832 -0.777298 1.69624 -0.777298 3.15239ZM-0.777298 36.2761C-0.777298 37.7353 -1.9532 38.9136 -3.40257 38.9136C-4.85497 38.9136 -6.03085 37.7353 -6.03085 36.2761C-6.03085 34.8169 -4.85497 33.6385 -3.40257 33.6385C-1.9532 33.6385 -0.777298 34.8169 -0.777298 36.2761ZM-0.391708 102.411C-0.391708 103.328 -0.856689 104.135 -1.56227 104.607C-2.03622 105.075 -2.68597 105.364 -3.40257 105.364C-4.85497 105.364 -6.03085 104.183 -6.03085 102.727C-6.03085 101.812 -5.56892 101.008 -4.86649 100.535C-4.39125 100.064 -3.7382 99.7732 -3.01697 99.7732C-1.56761 99.7732 -0.391708 100.952 -0.391708 102.411ZM-0.391708 118.971C-0.391708 119.89 -0.858078 120.699 -1.56541 121.172C-2.03908 121.638 -2.68755 121.925 -3.40257 121.925C-4.85497 121.925 -6.03085 120.746 -6.03085 119.287C-6.03085 118.371 -5.56757 117.566 -4.86339 117.093C-4.38841 116.624 -3.73663 116.334 -3.01697 116.334C-1.56761 116.334 -0.391708 117.515 -0.391708 118.971ZM-0.777298 69.6027C-0.777298 71.0619 -1.9532 72.2403 -3.40257 72.2403C-4.85497 72.2403 -6.03085 71.0619 -6.03085 69.6027C-6.03085 68.1435 -4.85497 66.9652 -3.40257 66.9652C-1.9532 66.9652 -0.777298 68.1435 -0.777298 69.6027ZM-0.777298 19.7156C-0.777298 21.1718 -1.9532 22.3532 -3.40257 22.3532C-4.85497 22.3532 -6.03085 21.1718 -6.03085 19.7156C-6.03085 18.2564 -4.85497 17.078 -3.40257 17.078C-1.9532 17.078 -0.777298 18.2564 -0.777298 19.7156ZM15.706 53.0423C15.706 54.5015 14.5301 55.6798 13.0807 55.6798C11.6313 55.6798 10.4524 54.5015 10.4524 53.0423C10.4524 51.5831 11.6313 50.4047 13.0807 50.4047C14.5301 50.4047 15.706 51.5831 15.706 53.0423ZM15.706 86.1632C15.706 87.6224 14.5301 88.8008 13.0807 88.8008C11.6313 88.8008 10.4524 87.6224 10.4524 86.1632C10.4524 84.707 11.6313 83.5256 13.0807 83.5256C14.5301 83.5256 15.706 84.707 15.706 86.1632ZM15.706 102.727C15.706 104.183 14.5301 105.364 13.0807 105.364C11.6313 105.364 10.4524 104.183 10.4524 102.727C10.4524 101.267 11.6313 100.089 13.0807 100.089C14.5301 100.089 15.706 101.267 15.706 102.727ZM15.706 69.6027C15.706 71.0619 14.5301 72.2403 13.0807 72.2403C11.6313 72.2403 10.4524 71.0619 10.4524 69.6027C10.4524 68.1435 11.6313 66.9652 13.0807 66.9652C14.5301 66.9652 15.706 68.1435 15.706 69.6027ZM15.706 3.15239C15.706 4.6116 14.5301 5.78995 13.0807 5.78995C11.6313 5.78995 10.4524 4.6116 10.4524 3.15239C10.4524 1.69624 11.6313 0.514832 13.0807 0.514832C14.5301 0.514832 15.706 1.69624 15.706 3.15239ZM15.706 135.848C15.706 137.307 14.5301 138.485 13.0807 138.485C11.6313 138.485 10.4524 137.307 10.4524 135.848C10.4524 134.388 11.6313 133.21 13.0807 133.21C14.5301 133.21 15.706 134.388 15.706 135.848ZM15.706 36.2761C15.706 37.7353 14.5301 38.9136 13.0807 38.9136C11.6313 38.9136 10.4524 37.7353 10.4524 36.2761C10.4524 34.8169 11.6313 33.6385 13.0807 33.6385C14.5301 33.6385 15.706 34.8169 15.706 36.2761ZM15.706 19.7156C15.706 21.1718 14.5301 22.3532 13.0807 22.3532C11.6313 22.3532 10.4524 21.1718 10.4524 19.7156C10.4524 18.2564 11.6313 17.078 13.0807 17.078C14.5301 17.078 15.706 18.2564 15.706 19.7156ZM15.706 119.287C15.706 120.746 14.5301 121.925 13.0807 121.925C11.6313 121.925 10.4524 120.746 10.4524 119.287C10.4524 117.828 11.6313 116.65 13.0807 116.65C14.5301 116.65 15.706 117.828 15.706 119.287ZM32.1919 135.848C32.1919 137.307 31.016 138.485 29.5667 138.485C28.1143 138.485 26.9384 137.307 26.9384 135.848C26.9384 134.388 28.1143 133.21 29.5667 133.21C31.016 133.21 32.1919 134.388 32.1919 135.848ZM32.1919 119.287C32.1919 120.746 31.016 121.925 29.5667 121.925C28.1143 121.925 26.9384 120.746 26.9384 119.287C26.9384 117.828 28.1143 116.65 29.5667 116.65C31.016 116.65 32.1919 117.828 32.1919 119.287ZM32.1919 53.0423C32.1919 54.5015 31.016 55.6798 29.5667 55.6798C28.1143 55.6798 26.9384 54.5015 26.9384 53.0423C26.9384 51.5831 28.1143 50.4047 29.5667 50.4047C31.016 50.4047 32.1919 51.5831 32.1919 53.0423ZM32.1919 86.1632C32.1919 87.6224 31.016 88.8008 29.5667 88.8008C28.1143 88.8008 26.9384 87.6224 26.9384 86.1632C26.9384 84.707 28.1143 83.5256 29.5667 83.5256C31.016 83.5256 32.1919 84.707 32.1919 86.1632ZM32.1919 69.6027C32.1919 71.0619 31.016 72.2403 29.5667 72.2403C28.1143 72.2403 26.9384 71.0619 26.9384 69.6027C26.9384 68.1435 28.1143 66.9652 29.5667 66.9652C31.016 66.9652 32.1919 68.1435 32.1919 69.6027ZM32.1919 102.727C32.1919 104.183 31.016 105.364 29.5667 105.364C28.1143 105.364 26.9384 104.183 26.9384 102.727C26.9384 101.267 28.1143 100.089 29.5667 100.089C31.016 100.089 32.1919 101.267 32.1919 102.727ZM32.1919 3.15239C32.1919 4.6116 31.016 5.78995 29.5667 5.78995C28.1143 5.78995 26.9384 4.6116 26.9384 3.15239C26.9384 1.69624 28.1143 0.514832 29.5667 0.514832C31.016 0.514832 32.1919 1.69624 32.1919 3.15239ZM32.1919 36.2761C32.1919 37.7353 31.016 38.9136 29.5667 38.9136C28.1143 38.9136 26.9384 37.7353 26.9384 36.2761C26.9384 34.8169 28.1143 33.6385 29.5667 33.6385C31.016 33.6385 32.1919 34.8169 32.1919 36.2761ZM32.1919 19.7156C32.1919 21.1718 31.016 22.3532 29.5667 22.3532C28.1143 22.3532 26.9384 21.1718 26.9384 19.7156C26.9384 18.2564 28.1143 17.078 29.5667 17.078C31.016 17.078 32.1919 18.2564 32.1919 19.7156ZM49.0611 119.287C49.0611 120.746 47.8852 121.925 46.4358 121.925C44.9834 121.925 43.8075 120.746 43.8075 119.287C43.8075 117.828 44.9834 116.65 46.4358 116.65C47.8852 116.65 49.0611 117.828 49.0611 119.287ZM49.0611 3.15239C49.0611 4.6116 47.8852 5.78995 46.4358 5.78995C44.9834 5.78995 43.8075 4.6116 43.8075 3.15239C43.8075 1.69624 44.9834 0.514832 46.4358 0.514832C47.8852 0.514832 49.0611 1.69624 49.0611 3.15239ZM49.0611 102.727C49.0611 104.183 47.8852 105.364 46.4358 105.364C44.9834 105.364 43.8075 104.183 43.8075 102.727C43.8075 101.267 44.9834 100.089 46.4358 100.089C47.8852 100.089 49.0611 101.267 49.0611 102.727ZM49.0611 36.2761C49.0611 37.7353 47.8852 38.9136 46.4358 38.9136C44.9834 38.9136 43.8075 37.7353 43.8075 36.2761C43.8075 34.8169 44.9834 33.6385 46.4358 33.6385C47.8852 33.6385 49.0611 34.8169 49.0611 36.2761ZM49.0611 135.848C49.0611 137.307 47.8852 138.485 46.4358 138.485C44.9834 138.485 43.8075 137.307 43.8075 135.848C43.8075 134.388 44.9834 133.21 46.4358 133.21C47.8852 133.21 49.0611 134.388 49.0611 135.848ZM49.0611 69.6027C49.0611 71.0619 47.8852 72.2403 46.4358 72.2403C44.9834 72.2403 43.8075 71.0619 43.8075 69.6027C43.8075 68.1435 44.9834 66.9652 46.4358 66.9652C47.8852 66.9652 49.0611 68.1435 49.0611 69.6027ZM49.0611 53.0423C49.0611 54.5015 47.8852 55.6798 46.4358 55.6798C44.9834 55.6798 43.8075 54.5015 43.8075 53.0423C43.8075 51.5831 44.9834 50.4047 46.4358 50.4047C47.8852 50.4047 49.0611 51.5831 49.0611 53.0423ZM49.0611 86.1632C49.0611 87.6224 47.8852 88.8008 46.4358 88.8008C44.9834 88.8008 43.8075 87.6224 43.8075 86.1632C43.8075 84.707 44.9834 83.5256 46.4358 83.5256C47.8852 83.5256 49.0611 84.707 49.0611 86.1632ZM49.0611 19.7156C49.0611 21.1718 47.8852 22.3532 46.4358 22.3532C44.9834 22.3532 43.8075 21.1718 43.8075 19.7156C43.8075 18.2564 44.9834 17.078 46.4358 17.078C47.8852 17.078 49.0611 18.2564 49.0611 19.7156ZM65.5474 19.7156C65.5474 21.1718 64.3684 22.3532 62.9221 22.3532C61.4697 22.3532 60.2938 21.1718 60.2938 19.7156C60.2938 18.2564 61.4697 17.078 62.9221 17.078C64.3684 17.078 65.5474 18.2564 65.5474 19.7156ZM65.5474 135.848C65.5474 137.307 64.3684 138.485 62.9221 138.485C61.4697 138.485 60.2938 137.307 60.2938 135.848C60.2938 134.388 61.4697 133.21 62.9221 133.21C64.3684 133.21 65.5474 134.388 65.5474 135.848ZM65.5474 86.1632C65.5474 87.6224 64.3684 88.8008 62.9221 88.8008C61.4697 88.8008 60.2938 87.6224 60.2938 86.1632C60.2938 84.707 61.4697 83.5256 62.9221 83.5256C64.3684 83.5256 65.5474 84.707 65.5474 86.1632ZM65.5474 119.287C65.5474 120.746 64.3684 121.925 62.9221 121.925C61.4697 121.925 60.2938 120.746 60.2938 119.287C60.2938 117.828 61.4697 116.65 62.9221 116.65C64.3684 116.65 65.5474 117.828 65.5474 119.287ZM65.5474 102.727C65.5474 104.183 64.3684 105.364 62.9221 105.364C61.4697 105.364 60.2938 104.183 60.2938 102.727C60.2938 101.267 61.4697 100.089 62.9221 100.089C64.3684 100.089 65.5474 101.267 65.5474 102.727ZM65.5474 53.0423C65.5474 54.5015 64.3684 55.6798 62.9221 55.6798C61.4697 55.6798 60.2938 54.5015 60.2938 53.0423C60.2938 51.5831 61.4697 50.4047 62.9221 50.4047C64.3684 50.4047 65.5474 51.5831 65.5474 53.0423ZM65.5474 3.15239C65.5474 4.6116 64.3684 5.78995 62.9221 5.78995C61.4697 5.78995 60.2938 4.6116 60.2938 3.15239C60.2938 1.69624 61.4697 0.514832 62.9221 0.514832C64.3684 0.514832 65.5474 1.69624 65.5474 3.15239ZM65.5474 69.6027C65.5474 71.0619 64.3684 72.2403 62.9221 72.2403C61.4697 72.2403 60.2938 71.0619 60.2938 69.6027C60.2938 68.1435 61.4697 66.9652 62.9221 66.9652C64.3684 66.9652 65.5474 68.1435 65.5474 69.6027ZM65.5474 36.2761C65.5474 37.7353 64.3684 38.9136 62.9221 38.9136C61.4697 38.9136 60.2938 37.7353 60.2938 36.2761C60.2938 34.8169 61.4697 33.6385 62.9221 33.6385C64.3684 33.6385 65.5474 34.8169 65.5474 36.2761ZM82.0306 19.7156C82.0306 21.1718 80.8547 22.3532 79.4053 22.3532C77.9529 22.3532 76.7771 21.1718 76.7771 19.7156C76.7771 18.2564 77.9529 17.078 79.4053 17.078C80.8547 17.078 82.0306 18.2564 82.0306 19.7156ZM82.0306 135.848C82.0306 137.307 80.8547 138.485 79.4053 138.485C77.9529 138.485 76.7771 137.307 76.7771 135.848C76.7771 134.388 77.9529 133.21 79.4053 133.21C80.8547 133.21 82.0306 134.388 82.0306 135.848ZM82.0306 36.2761C82.0306 37.7353 80.8547 38.9136 79.4053 38.9136C77.9529 38.9136 76.7771 37.7353 76.7771 36.2761C76.7771 34.8169 77.9529 33.6385 79.4053 33.6385C80.8547 33.6385 82.0306 34.8169 82.0306 36.2761ZM82.0306 119.287C82.0306 120.746 80.8547 121.925 79.4053 121.925C77.9529 121.925 76.7771 120.746 76.7771 119.287C76.7771 117.828 77.9529 116.65 79.4053 116.65C80.8547 116.65 82.0306 117.828 82.0306 119.287ZM82.0306 69.6027C82.0306 71.0619 80.8547 72.2403 79.4053 72.2403C77.9529 72.2403 76.7771 71.0619 76.7771 69.6027C76.7771 68.1435 77.9529 66.9652 79.4053 66.9652C80.8547 66.9652 82.0306 68.1435 82.0306 69.6027ZM82.0306 86.1632C82.0306 87.6224 80.8547 88.8008 79.4053 88.8008C77.9529 88.8008 76.7771 87.6224 76.7771 86.1632C76.7771 84.707 77.9529 83.5256 79.4053 83.5256C80.8547 83.5256 82.0306 84.707 82.0306 86.1632ZM82.0306 102.727C82.0306 104.183 80.8547 105.364 79.4053 105.364C77.9529 105.364 76.7771 104.183 76.7771 102.727C76.7771 101.267 77.9529 100.089 79.4053 100.089C80.8547 100.089 82.0306 101.267 82.0306 102.727ZM82.0306 3.15239C82.0306 4.6116 80.8547 5.78995 79.4053 5.78995C77.9529 5.78995 76.7771 4.6116 76.7771 3.15239C76.7771 1.69624 77.9529 0.514832 79.4053 0.514832C80.8547 0.514832 82.0306 1.69624 82.0306 3.15239ZM82.0306 53.0423C82.0306 54.5015 80.8547 55.6798 79.4053 55.6798C77.9529 55.6798 76.7771 54.5015 76.7771 53.0423C76.7771 51.5831 77.9529 50.4047 79.4053 50.4047C80.8547 50.4047 82.0306 51.5831 82.0306 53.0423ZM98.5139 3.15239C98.5139 4.6116 97.338 5.78995 95.8886 5.78995C94.4392 5.78995 93.2603 4.6116 93.2603 3.15239C93.2603 1.69624 94.4392 0.514832 95.8886 0.514832C97.338 0.514832 98.5139 1.69624 98.5139 3.15239ZM98.5139 102.727C98.5139 104.183 97.338 105.364 95.8886 105.364C94.4392 105.364 93.2603 104.183 93.2603 102.727C93.2603 101.267 94.4392 100.089 95.8886 100.089C97.338 100.089 98.5139 101.267 98.5139 102.727ZM98.5139 53.0423C98.5139 54.5015 97.338 55.6798 95.8886 55.6798C94.4392 55.6798 93.2603 54.5015 93.2603 53.0423C93.2603 51.5831 94.4392 50.4047 95.8886 50.4047C97.338 50.4047 98.5139 51.5831 98.5139 53.0423ZM98.5139 36.2761C98.5139 37.7353 97.338 38.9136 95.8886 38.9136C94.4392 38.9136 93.2603 37.7353 93.2603 36.2761C93.2603 34.8169 94.4392 33.6385 95.8886 33.6385C97.338 33.6385 98.5139 34.8169 98.5139 36.2761ZM98.5139 86.1632C98.5139 87.6224 97.338 88.8008 95.8886 88.8008C94.4392 88.8008 93.2603 87.6224 93.2603 86.1632C93.2603 84.707 94.4392 83.5256 95.8886 83.5256C97.338 83.5256 98.5139 84.707 98.5139 86.1632ZM98.5139 19.7156C98.5139 21.1718 97.338 22.3532 95.8886 22.3532C94.4392 22.3532 93.2603 21.1718 93.2603 19.7156C93.2603 18.2564 94.4392 17.078 95.8886 17.078C97.338 17.078 98.5139 18.2564 98.5139 19.7156ZM98.5139 69.6027C98.5139 71.0619 97.338 72.2403 95.8886 72.2403C94.4392 72.2403 93.2603 71.0619 93.2603 69.6027C93.2603 68.1435 94.4392 66.9652 95.8886 66.9652C97.338 66.9652 98.5139 68.1435 98.5139 69.6027ZM98.5139 119.287C98.5139 120.746 97.338 121.925 95.8886 121.925C94.4392 121.925 93.2603 120.746 93.2603 119.287C93.2603 117.828 94.4392 116.65 95.8886 116.65C97.338 116.65 98.5139 117.828 98.5139 119.287ZM98.5139 135.848C98.5139 137.307 97.338 138.485 95.8886 138.485C94.4392 138.485 93.2603 137.307 93.2603 135.848C93.2603 134.388 94.4392 133.21 95.8886 133.21C97.338 133.21 98.5139 134.388 98.5139 135.848ZM115 102.727C115 104.183 113.824 105.364 112.375 105.364C110.922 105.364 109.747 104.183 109.747 102.727C109.747 101.267 110.922 100.089 112.375 100.089C113.824 100.089 115 101.267 115 102.727ZM115 135.848C115 137.307 113.824 138.485 112.375 138.485C110.922 138.485 109.747 137.307 109.747 135.848C109.747 134.388 110.922 133.21 112.375 133.21C113.824 133.21 115 134.388 115 135.848ZM115 19.7156C115 21.1718 113.824 22.3532 112.375 22.3532C110.922 22.3532 109.747 21.1718 109.747 19.7156C109.747 18.2564 110.922 17.078 112.375 17.078C113.824 17.078 115 18.2564 115 19.7156ZM115 119.287C115 120.746 113.824 121.925 112.375 121.925C110.922 121.925 109.747 120.746 109.747 119.287C109.747 117.828 110.922 116.65 112.375 116.65C113.824 116.65 115 117.828 115 119.287ZM115 53.0423C115 54.5015 113.824 55.6798 112.375 55.6798C110.922 55.6798 109.747 54.5015 109.747 53.0423C109.747 51.5831 110.922 50.4047 112.375 50.4047C113.824 50.4047 115 51.5831 115 53.0423ZM115 86.1632C115 87.6224 113.824 88.8008 112.375 88.8008C110.922 88.8008 109.747 87.6224 109.747 86.1632C109.747 84.707 110.922 83.5256 112.375 83.5256C113.824 83.5256 115 84.707 115 86.1632ZM115 69.6027C115 71.0619 113.824 72.2403 112.375 72.2403C110.922 72.2403 109.747 71.0619 109.747 69.6027C109.747 68.1435 110.922 66.9652 112.375 66.9652C113.824 66.9652 115 68.1435 115 69.6027ZM115 3.15239C115 4.6116 113.824 5.78995 112.375 5.78995C110.922 5.78995 109.747 4.6116 109.747 3.15239C109.747 1.69624 110.922 0.514832 112.375 0.514832C113.824 0.514832 115 1.69624 115 3.15239ZM115 36.2761C115 37.7353 113.824 38.9136 112.375 38.9136C110.922 38.9136 109.747 37.7353 109.747 36.2761C109.747 34.8169 110.922 33.6385 112.375 33.6385C113.824 33.6385 115 34.8169 115 36.2761ZM131.483 102.727C131.483 104.183 130.308 105.364 128.858 105.364C127.406 105.364 126.23 104.183 126.23 102.727C126.23 101.267 127.406 100.089 128.858 100.089C130.308 100.089 131.483 101.267 131.483 102.727ZM131.483 135.848C131.483 137.307 130.308 138.485 128.858 138.485C127.406 138.485 126.23 137.307 126.23 135.848C126.23 134.388 127.406 133.21 128.858 133.21C130.308 133.21 131.483 134.388 131.483 135.848ZM131.483 119.287C131.483 120.746 130.308 121.925 128.858 121.925C127.406 121.925 126.23 120.746 126.23 119.287C126.23 117.828 127.406 116.65 128.858 116.65C130.308 116.65 131.483 117.828 131.483 119.287ZM131.483 53.0423C131.483 54.5015 130.308 55.6798 128.858 55.6798C127.406 55.6798 126.23 54.5015 126.23 53.0423C126.23 51.5831 127.406 50.4047 128.858 50.4047C130.308 50.4047 131.483 51.5831 131.483 53.0423ZM131.483 86.1632C131.483 87.6224 130.308 88.8008 128.858 88.8008C127.406 88.8008 126.23 87.6224 126.23 86.1632C126.23 84.707 127.406 83.5256 128.858 83.5256C130.308 83.5256 131.483 84.707 131.483 86.1632ZM131.483 69.6027C131.483 71.0619 130.308 72.2403 128.858 72.2403C127.406 72.2403 126.23 71.0619 126.23 69.6027C126.23 68.1435 127.406 66.9652 128.858 66.9652C130.308 66.9652 131.483 68.1435 131.483 69.6027ZM131.483 3.15239C131.483 4.6116 130.308 5.78995 128.858 5.78995C127.406 5.78995 126.23 4.6116 126.23 3.15239C126.23 1.69624 127.406 0.514832 128.858 0.514832C130.308 0.514832 131.483 1.69624 131.483 3.15239ZM131.483 36.2761C131.483 37.7353 130.308 38.9136 128.858 38.9136C127.406 38.9136 126.23 37.7353 126.23 36.2761C126.23 34.8169 127.406 33.6385 128.858 33.6385C130.308 33.6385 131.483 34.8169 131.483 36.2761ZM131.483 19.7156C131.483 21.1718 130.308 22.3532 128.858 22.3532C127.406 22.3532 126.23 21.1718 126.23 19.7156C126.23 18.2564 127.406 17.078 128.858 17.078C130.308 17.078 131.483 18.2564 131.483 19.7156Z" fill="#4461D7"/>
</g>
</svg>
