<svg width="56" height="61" viewBox="0 0 56 61" fill="none" xmlns="http://www.w3.org/2000/svg">
<path d="M35.6366 56.0021H49.8911C50.4535 56.0021 50.9093 55.5544 50.9093 55.0021C50.9093 54.4498 50.4535 54.0021 49.8911 54.0021H35.6366C35.0743 54.0021 34.6184 54.4498 34.6184 55.0021C34.6184 55.5544 35.0743 56.0021 35.6366 56.0021Z" fill="white"/>
<path d="M1.52722 15.0315C0.964889 15.0346 0.506526 14.5893 0.503434 14.037C0.500341 13.4847 0.953689 13.0345 1.51602 13.0315H1.52722C2.08954 13.0315 2.5454 13.4792 2.5454 14.0315C2.5454 14.5838 2.08954 15.0315 1.52722 15.0315Z" fill="white"/>
<path d="M12.8291 40.2879C11.3152 40.9498 10.297 42.3784 10.1818 44.002C10.1818 46.802 13.7597 49.002 18.3273 49.002C22.8948 49.002 26.4727 46.802 26.4727 44.002C26.3569 42.3734 25.3339 40.9412 23.8143 40.2799C25.8736 38.5977 27.7848 36.7478 29.5273 34.7498V55.0021C29.5306 57.7622 31.8079 59.9989 34.6182 60.0022H50.9091C53.7193 59.9989 55.9966 57.7622 56 55.0021V25.0017C55.9955 22.2789 53.7736 20.0602 51.0017 20.0106H50.9529C50.9376 20.0106 50.9244 20.0106 50.9091 20.0106H36.5395C36.6125 19.3433 36.6509 18.6727 36.6545 18.0016C36.6635 11.4842 33.0799 5.47271 27.2889 2.29052C21.4979 -0.891663 14.4068 -0.74594 8.75636 2.67137C8.04 3.1021 7.35172 3.57637 6.69556 4.09139C6.05421 4.62381 5.44721 5.19492 4.87811 5.80141C3.73037 7.00825 2.76263 8.36881 2.00378 9.84247C1.87169 10.0815 1.84679 10.3637 1.93506 10.6215C2.02332 10.8793 2.21679 11.0894 2.46909 11.2015C2.96928 11.4237 3.55925 11.2269 3.81818 10.7515C4.49183 9.44027 5.35236 8.23008 6.37382 7.15743C6.87969 6.61825 7.41899 6.11027 7.98865 5.63641C8.57266 5.17957 9.18473 4.75843 9.82138 4.37539C14.8435 1.33673 21.147 1.2066 26.2947 4.03532C31.4423 6.86404 34.6273 12.2082 34.6182 18.0016C34.6137 18.6745 34.5705 19.3465 34.4889 20.0146C31.733 20.0834 29.5336 22.2941 29.5273 25.0017V31.5368C26.391 35.5408 22.6075 39.0126 18.3273 41.8139C15.4764 39.9609 2.03636 30.5578 2.03636 18.0016C2.03636 17.4493 1.58051 17.0016 1.01818 17.0016C0.455855 17.0016 0 17.4493 0 18.0016C0 28.0537 7.55185 35.9778 12.8291 40.2879ZM49.2617 22.0016L48.5245 23.4487C48.3533 23.7884 48.0002 24.0029 47.6143 24.0017H37.913C37.5271 24.0029 37.174 23.7884 37.0028 23.4487L36.2656 22.0016H49.2617ZM31.5636 25.0017C31.564 23.5718 32.5919 22.3409 34.0195 22.0606L35.1812 24.3437C35.6956 25.3626 36.7551 26.0057 37.913 26.0017H47.6143C48.7722 26.0057 49.8317 25.3626 50.346 24.3437L51.5078 22.0606C52.9354 22.3409 53.9632 23.5718 53.9636 25.0017V55.0021C53.9636 56.659 52.5961 58.0022 50.9091 58.0022H34.6182C32.9312 58.0022 31.5636 56.659 31.5636 55.0021V25.0017ZM18.3273 44.002C18.5131 44.0019 18.6954 43.9521 18.8547 43.858C18.9769 43.785 20.2486 43.0179 22.0528 41.6649C23.5139 42.2439 24.4364 43.13 24.4364 44.002C24.4364 45.421 21.9276 47.002 18.3273 47.002C14.727 47.002 12.2182 45.421 12.2182 44.002C12.2182 43.133 13.1345 42.2489 14.5916 41.6689C16.3561 42.9869 17.6145 43.747 17.7999 43.858C17.9591 43.9521 18.1414 44.0019 18.3273 44.002Z" fill="white"/>
<path d="M29.5274 18.0016C29.5274 11.9264 24.513 7.00146 18.3274 7.00146C12.1419 7.00146 7.12744 11.9264 7.12744 18.0016C7.12744 24.0768 12.1419 29.0018 18.3274 29.0018C24.51 28.9946 29.5201 24.0739 29.5274 18.0016ZM9.1638 18.0016C9.1638 13.031 13.2665 9.00149 18.3274 9.00149C23.3884 9.00149 27.4911 13.031 27.4911 18.0016C27.4911 22.9723 23.3884 27.0018 18.3274 27.0018C13.2691 26.9957 9.16998 22.9697 9.1638 18.0016Z" fill="white"/>
<path d="M35.9346 44.2949C35.6699 44.546 35.5638 44.9178 35.657 45.2675C35.7501 45.6171 36.0282 45.8902 36.3841 45.9817C36.7401 46.0732 37.1187 45.9689 37.3743 45.709L37.7735 45.317C40.7066 47.5626 44.8185 47.5626 47.7516 45.317L48.1508 45.709C48.5503 46.0879 49.1853 46.0825 49.5781 45.6968C49.9708 45.3111 49.9764 44.6873 49.5905 44.2949L49.1914 43.9029C51.4778 41.0222 51.4778 36.9836 49.1914 34.1028L49.5905 33.7108C49.9764 33.3184 49.9708 32.6947 49.5781 32.3089C49.1853 31.9232 48.5503 31.9178 48.1508 32.2968L47.7516 32.6888C44.8185 30.4431 40.7066 30.4431 37.7735 32.6888L37.3743 32.2968C36.9748 31.9178 36.3398 31.9232 35.947 32.3089C35.5543 32.6947 35.5488 33.3184 35.9346 33.7108L36.3338 34.1028C34.0473 36.9836 34.0473 41.0222 36.3338 43.9029L35.9346 44.2949ZM36.6545 39.0019C36.6526 37.7562 37.049 36.5414 37.7877 35.5288L37.971 35.7088C38.3705 36.0878 39.0055 36.0824 39.3983 35.6966C39.791 35.3109 39.7966 34.6872 39.4107 34.2948L39.2274 34.1148C41.3427 32.6307 44.1844 32.6307 46.2997 34.1148L46.1164 34.2948C45.8518 34.5459 45.7456 34.9177 45.8388 35.2673C45.932 35.617 46.21 35.89 46.566 35.9815C46.922 36.073 47.3005 35.9688 47.5562 35.7088L47.7394 35.5288C49.2504 37.6064 49.2504 40.3974 47.7394 42.4749L47.5562 42.2949C47.1566 41.9159 46.5216 41.9214 46.1288 42.3071C45.7361 42.6928 45.7306 43.3166 46.1164 43.7089L46.2997 43.8889C44.1844 45.373 41.3427 45.373 39.2274 43.8889L39.4107 43.7089C39.7966 43.3166 39.791 42.6928 39.3983 42.3071C39.0055 41.9214 38.3705 41.9159 37.971 42.2949L37.7877 42.4749C37.049 41.4623 36.6526 40.2475 36.6545 39.0019Z" fill="white"/>
<path d="M42.7635 40.0019C43.3259 40.0019 43.7817 39.5541 43.7817 39.0018C43.7817 38.4496 43.3259 38.0018 42.7635 38.0018C42.2012 38.0018 41.7454 38.4496 41.7454 39.0018C41.7454 39.5541 42.2012 40.0019 42.7635 40.0019Z" fill="white"/>
</svg>
