<svg width="152" height="230" viewBox="0 0 152 230" fill="none" xmlns="http://www.w3.org/2000/svg">
<g opacity="0.25">
<path d="M113.014 127.021C122.623 146.372 146.511 153.846 166.369 143.714C186.228 133.582 194.536 109.681 184.927 90.3295C175.318 70.978 151.43 63.5041 131.572 73.6361C111.713 83.7681 103.404 107.669 113.014 127.021Z" stroke="#49CED9" stroke-width="3" stroke-miterlimit="10"/>
<path d="M85.9271 95.3661C95.8029 114.584 119.797 121.735 139.52 111.339C159.244 100.942 167.226 76.9341 157.35 57.716C147.475 38.4978 123.48 31.3467 103.757 41.7435C84.0341 52.1403 76.0513 76.1479 85.9271 95.3661Z" fill="#49CED9"/>
<path d="M16.3693 142.15C13.6012 152.844 19.7856 163.522 30.1826 166.001C40.5796 168.479 51.252 161.819 54.0201 151.125C56.7882 140.431 50.6038 129.753 40.2068 127.275C29.8098 124.796 19.1374 131.456 16.3693 142.15Z" fill="url(#paint0_linear)"/>
</g>
<defs>
<linearGradient id="paint0_linear" x1="47.6793" y1="163.2" x2="21.0578" y2="125.842" gradientUnits="userSpaceOnUse">
<stop stop-color="#EA7FB8"/>
<stop offset="1" stop-color="#9958B3"/>
</linearGradient>
</defs>
</svg>
