<svg width="1087" height="473" viewBox="0 0 1087 473" fill="none" xmlns="http://www.w3.org/2000/svg">
<rect width="1087" height="473" fill="#292B46"/>
<rect opacity="0.7" y="443" width="1087" height="29" fill="#4461D7"/>
<path d="M37.6 457.704C37.6 458.456 37.518 459.108 37.354 459.66C37.194 460.208 36.974 460.662 36.694 461.022C36.414 461.382 36.082 461.65 35.698 461.826C35.318 462.002 34.91 462.09 34.474 462.09C34.034 462.09 33.624 462.002 33.244 461.826C32.868 461.65 32.54 461.382 32.26 461.022C31.98 460.662 31.76 460.208 31.6 459.66C31.44 459.108 31.36 458.456 31.36 457.704C31.36 456.952 31.44 456.3 31.6 455.748C31.76 455.196 31.98 454.74 32.26 454.38C32.54 454.016 32.868 453.746 33.244 453.57C33.624 453.394 34.034 453.306 34.474 453.306C34.91 453.306 35.318 453.394 35.698 453.57C36.082 453.746 36.414 454.016 36.694 454.38C36.974 454.74 37.194 455.196 37.354 455.748C37.518 456.3 37.6 456.952 37.6 457.704ZM36.49 457.704C36.49 457.048 36.434 456.498 36.322 456.054C36.214 455.606 36.066 455.246 35.878 454.974C35.694 454.702 35.48 454.508 35.236 454.392C34.992 454.272 34.738 454.212 34.474 454.212C34.21 454.212 33.956 454.272 33.712 454.392C33.468 454.508 33.254 454.702 33.07 454.974C32.886 455.246 32.738 455.606 32.626 456.054C32.518 456.498 32.464 457.048 32.464 457.704C32.464 458.36 32.518 458.91 32.626 459.354C32.738 459.798 32.886 460.156 33.07 460.428C33.254 460.7 33.468 460.896 33.712 461.016C33.956 461.132 34.21 461.19 34.474 461.19C34.738 461.19 34.992 461.132 35.236 461.016C35.48 460.896 35.694 460.7 35.878 460.428C36.066 460.156 36.214 459.798 36.322 459.354C36.434 458.91 36.49 458.36 36.49 457.704ZM39.6829 461.184H41.5309V455.322C41.5309 455.146 41.5369 454.968 41.5489 454.788L40.0129 456.102C39.9729 456.134 39.9329 456.158 39.8929 456.174C39.8529 456.186 39.8149 456.192 39.7789 456.192C39.7189 456.192 39.6649 456.18 39.6169 456.156C39.5689 456.128 39.5329 456.096 39.5089 456.06L39.1729 455.598L41.7289 453.384H42.5989V461.184H44.2909V462H39.6829V461.184ZM45.6899 461.34C45.6899 461.236 45.7079 461.138 45.7439 461.046C45.7839 460.954 45.8359 460.874 45.8999 460.806C45.9679 460.738 46.0479 460.684 46.1399 460.644C46.2319 460.604 46.3299 460.584 46.4339 460.584C46.5379 460.584 46.6359 460.604 46.7279 460.644C46.8199 460.684 46.8999 460.738 46.9679 460.806C47.0359 460.874 47.0879 460.954 47.1239 461.046C47.1639 461.138 47.1839 461.236 47.1839 461.34C47.1839 461.448 47.1639 461.548 47.1239 461.64C47.0879 461.728 47.0359 461.806 46.9679 461.874C46.8999 461.942 46.8199 461.994 46.7279 462.03C46.6359 462.07 46.5379 462.09 46.4339 462.09C46.3299 462.09 46.2319 462.07 46.1399 462.03C46.0479 461.994 45.9679 461.942 45.8999 461.874C45.8359 461.806 45.7839 461.728 45.7439 461.64C45.7079 461.548 45.6899 461.448 45.6899 461.34ZM45.6899 456.84C45.6899 456.736 45.7079 456.638 45.7439 456.546C45.7839 456.454 45.8359 456.374 45.8999 456.306C45.9679 456.238 46.0479 456.184 46.1399 456.144C46.2319 456.104 46.3299 456.084 46.4339 456.084C46.5379 456.084 46.6359 456.104 46.7279 456.144C46.8199 456.184 46.8999 456.238 46.9679 456.306C47.0359 456.374 47.0879 456.454 47.1239 456.546C47.1639 456.638 47.1839 456.736 47.1839 456.84C47.1839 456.948 47.1639 457.048 47.1239 457.14C47.0879 457.228 47.0359 457.306 46.9679 457.374C46.8999 457.442 46.8199 457.496 46.7279 457.536C46.6359 457.572 46.5379 457.59 46.4339 457.59C46.3299 457.59 46.2319 457.572 46.1399 457.536C46.0479 457.496 45.9679 457.442 45.8999 457.374C45.8359 457.306 45.7839 457.228 45.7439 457.14C45.7079 457.048 45.6899 456.948 45.6899 456.84ZM51.5513 453.306C51.9153 453.306 52.2553 453.36 52.5713 453.468C52.8873 453.576 53.1593 453.734 53.3873 453.942C53.6193 454.146 53.8013 454.396 53.9333 454.692C54.0653 454.988 54.1313 455.324 54.1313 455.7C54.1313 456.02 54.0833 456.316 53.9873 456.588C53.8913 456.86 53.7613 457.122 53.5973 457.374C53.4333 457.622 53.2433 457.864 53.0273 458.1C52.8153 458.332 52.5893 458.57 52.3493 458.814L50.0873 461.13C50.2473 461.086 50.4093 461.052 50.5733 461.028C50.7373 461 50.8953 460.986 51.0473 460.986H53.9273C54.0433 460.986 54.1353 461.02 54.2033 461.088C54.2713 461.156 54.3053 461.244 54.3053 461.352V462H48.5693V461.634C48.5693 461.558 48.5833 461.48 48.6113 461.4C48.6433 461.32 48.6933 461.246 48.7613 461.178L51.5153 458.412C51.7433 458.18 51.9513 457.958 52.1393 457.746C52.3273 457.53 52.4873 457.314 52.6193 457.098C52.7553 456.882 52.8593 456.664 52.9313 456.444C53.0033 456.22 53.0393 455.982 53.0393 455.73C53.0393 455.478 52.9993 455.258 52.9193 455.07C52.8393 454.878 52.7293 454.72 52.5893 454.596C52.4493 454.472 52.2853 454.38 52.0973 454.32C51.9093 454.256 51.7073 454.224 51.4913 454.224C51.2753 454.224 51.0753 454.256 50.8913 454.32C50.7073 454.384 50.5433 454.474 50.3993 454.59C50.2593 454.702 50.1393 454.836 50.0393 454.992C49.9433 455.148 49.8753 455.32 49.8353 455.508C49.8033 455.624 49.7553 455.708 49.6913 455.76C49.6273 455.812 49.5433 455.838 49.4393 455.838C49.4193 455.838 49.3973 455.838 49.3733 455.838C49.3533 455.834 49.3293 455.83 49.3013 455.826L48.7433 455.73C48.7993 455.338 48.9073 454.992 49.0673 454.692C49.2273 454.388 49.4293 454.134 49.6733 453.93C49.9213 453.726 50.2033 453.572 50.5193 453.468C50.8393 453.36 51.1833 453.306 51.5513 453.306ZM58.6263 453.306C58.9903 453.306 59.3263 453.358 59.6343 453.462C59.9423 453.566 60.2063 453.714 60.4263 453.906C60.6503 454.098 60.8243 454.33 60.9483 454.602C61.0723 454.874 61.1343 455.176 61.1343 455.508C61.1343 455.78 61.0983 456.024 61.0263 456.24C60.9583 456.452 60.8583 456.64 60.7263 456.804C60.5983 456.964 60.4423 457.1 60.2583 457.212C60.0743 457.324 59.8683 457.414 59.6403 457.482C60.2003 457.63 60.6203 457.878 60.9003 458.226C61.1843 458.574 61.3263 459.01 61.3263 459.534C61.3263 459.93 61.2503 460.286 61.0983 460.602C60.9503 460.918 60.7463 461.188 60.4863 461.412C60.2263 461.632 59.9223 461.802 59.5743 461.922C59.2303 462.038 58.8603 462.096 58.4643 462.096C58.0083 462.096 57.6183 462.04 57.2943 461.928C56.9703 461.812 56.6963 461.654 56.4723 461.454C56.2483 461.254 56.0643 461.018 55.9203 460.746C55.7763 460.47 55.6543 460.172 55.5543 459.852L56.0103 459.66C56.0943 459.624 56.1783 459.606 56.2623 459.606C56.3423 459.606 56.4123 459.624 56.4723 459.66C56.5363 459.692 56.5843 459.744 56.6163 459.816C56.6243 459.832 56.6323 459.85 56.6403 459.87C56.6483 459.886 56.6563 459.904 56.6643 459.924C56.7203 460.04 56.7883 460.172 56.8683 460.32C56.9483 460.464 57.0563 460.6 57.1923 460.728C57.3283 460.856 57.4963 460.964 57.6963 461.052C57.9003 461.14 58.1523 461.184 58.4523 461.184C58.7523 461.184 59.0143 461.136 59.2383 461.04C59.4663 460.94 59.6543 460.812 59.8023 460.656C59.9543 460.5 60.0683 460.326 60.1443 460.134C60.2203 459.942 60.2583 459.752 60.2583 459.564C60.2583 459.332 60.2263 459.12 60.1623 458.928C60.1023 458.736 59.9903 458.57 59.8263 458.43C59.6663 458.29 59.4423 458.18 59.1543 458.1C58.8703 458.02 58.5043 457.98 58.0563 457.98V457.206C58.4203 457.202 58.7303 457.162 58.9863 457.086C59.2463 457.01 59.4583 456.906 59.6223 456.774C59.7863 456.642 59.9043 456.484 59.9763 456.3C60.0523 456.116 60.0903 455.912 60.0903 455.688C60.0903 455.44 60.0503 455.224 59.9703 455.04C59.8943 454.856 59.7883 454.704 59.6523 454.584C59.5163 454.464 59.3543 454.374 59.1663 454.314C58.9823 454.254 58.7823 454.224 58.5663 454.224C58.3503 454.224 58.1503 454.256 57.9663 454.32C57.7823 454.384 57.6183 454.474 57.4743 454.59C57.3343 454.702 57.2163 454.838 57.1203 454.998C57.0243 455.154 56.9523 455.324 56.9043 455.508C56.8723 455.624 56.8243 455.708 56.7603 455.76C56.6963 455.812 56.6143 455.838 56.5143 455.838C56.4943 455.838 56.4723 455.838 56.4482 455.838C56.4283 455.834 56.4043 455.83 56.3763 455.826L55.8183 455.73C55.8743 455.338 55.9823 454.992 56.1423 454.692C56.3023 454.388 56.5043 454.134 56.7483 453.93C56.9963 453.726 57.2783 453.572 57.5943 453.468C57.9143 453.36 58.2582 453.306 58.6263 453.306Z" fill="white"/>
<ellipse cx="874.986" cy="255.885" rx="14.1527" ry="13.9155" fill="#8BC444"/>
<ellipse cx="835.36" cy="255.885" rx="14.1527" ry="13.9155" fill="#F6931E"/>
<ellipse cx="795.731" cy="255.886" rx="14.1527" ry="13.9155" fill="#EC1E24"/>
<path d="M288.479 209.83L263.382 271H250.686C250.013 271 249.479 270.782 249.084 270.347C248.688 269.912 248.392 269.181 248.194 268.152L242.973 235.046C242.735 233.463 242.557 231.862 242.439 230.24C242.162 231.07 241.865 231.901 241.549 232.732C241.232 233.523 240.916 234.334 240.599 235.164L227.369 268.152C226.578 270.051 225.411 271 223.868 271H211.646L201.441 209.83H213.96C215.028 209.83 215.898 210.107 216.571 210.661C217.282 211.214 217.737 211.926 217.935 212.797L220.664 243.055C220.902 246.813 221.08 250.432 221.198 253.913C221.871 252.133 222.543 250.353 223.216 248.573C223.888 246.793 224.62 244.954 225.411 243.055L237.336 212.678C237.653 211.847 238.206 211.155 238.998 210.601C239.828 210.048 240.738 209.771 241.727 209.771H248.728C249.875 209.771 250.785 210.048 251.457 210.601C252.169 211.155 252.564 211.847 252.644 212.678L257.034 243.055C257.311 244.914 257.548 246.734 257.746 248.514C257.983 250.294 258.201 252.073 258.399 253.853C258.913 252.073 259.447 250.313 260.001 248.573C260.554 246.793 261.167 244.954 261.84 243.055L272.163 212.797C272.48 211.926 273.034 211.214 273.825 210.661C274.616 210.107 275.506 209.83 276.495 209.83H288.479ZM312.847 259.609C315.141 259.609 317.198 258.936 319.017 257.591C320.837 256.246 322.379 254.447 323.645 252.192C324.911 249.898 325.88 247.248 326.552 244.242C327.264 241.236 327.62 238.052 327.62 234.69C327.62 229.943 326.888 226.522 325.425 224.425C323.961 222.289 321.687 221.222 318.602 221.222C316.347 221.222 314.29 221.894 312.431 223.239C310.612 224.544 309.069 226.324 307.804 228.579C306.538 230.833 305.549 233.483 304.837 236.529C304.165 239.535 303.828 242.719 303.828 246.081C303.828 250.748 304.56 254.17 306.024 256.345C307.487 258.521 309.761 259.609 312.847 259.609ZM311.423 271.89C308.021 271.89 304.857 271.336 301.93 270.229C299.003 269.082 296.471 267.42 294.335 265.245C292.2 263.069 290.519 260.38 289.292 257.176C288.106 253.972 287.512 250.313 287.512 246.2C287.512 240.86 288.383 235.916 290.123 231.367C291.863 226.779 294.217 222.823 297.183 219.501C300.15 216.178 303.611 213.588 307.566 211.729C311.522 209.83 315.695 208.881 320.085 208.881C323.487 208.881 326.631 209.454 329.519 210.601C332.446 211.709 334.977 213.37 337.113 215.585C339.249 217.761 340.93 220.45 342.156 223.654C343.382 226.858 343.995 230.517 343.995 234.63C343.995 239.93 343.125 244.855 341.385 249.404C339.644 253.952 337.271 257.888 334.265 261.21C331.299 264.533 327.838 267.144 323.882 269.042C319.966 270.941 315.813 271.89 311.423 271.89ZM370.503 223.476C372.046 220.628 373.667 218.196 375.368 216.178C377.109 214.161 378.908 212.599 380.767 211.491C382.626 210.344 384.525 209.692 386.463 209.533C388.401 209.336 390.359 209.672 392.337 210.542L389.37 225.909C387.037 224.92 384.841 224.504 382.785 224.663C380.767 224.821 378.889 225.612 377.148 227.036C375.447 228.46 373.905 230.536 372.52 233.266C371.136 235.995 369.93 239.436 368.901 243.589L365.579 271H349.5L356.916 209.771H365.341C367.042 209.771 368.367 210.186 369.317 211.017C370.266 211.847 370.74 213.172 370.74 214.992L370.503 223.476ZM418.905 182.538L412.735 232.732H414.158C415.108 232.732 415.879 232.593 416.472 232.316C417.066 232 417.699 231.446 418.371 230.655L432.966 212.619C433.678 211.709 434.45 211.017 435.28 210.542C436.111 210.067 437.119 209.83 438.306 209.83H452.961L434.153 232.138C433.362 233.048 432.551 233.879 431.72 234.63C430.929 235.342 430.079 235.975 429.169 236.529C429.96 237.162 430.613 237.893 431.127 238.724C431.681 239.555 432.195 240.484 432.67 241.513L446.494 271H432.314C431.127 271 430.138 270.802 429.347 270.407C428.556 269.972 427.943 269.22 427.508 268.152L417.184 245.666C416.749 244.716 416.294 244.103 415.82 243.827C415.345 243.55 414.534 243.411 413.387 243.411H411.429L408.047 271H391.909L402.826 182.538H418.905Z" fill="white"/>
<path d="M494.103 221.933C493.628 222.606 493.154 223.1 492.679 223.417C492.244 223.694 491.69 223.832 491.018 223.832C490.266 223.832 489.515 223.634 488.763 223.239C488.051 222.843 487.24 222.428 486.331 221.993C485.421 221.518 484.373 221.083 483.186 220.688C482.039 220.292 480.674 220.094 479.092 220.094C476.126 220.094 473.911 220.727 472.447 221.993C471.023 223.259 470.311 224.841 470.311 226.739C470.311 228.282 470.885 229.528 472.032 230.477C473.179 231.387 474.623 232.217 476.363 232.969C478.103 233.681 479.982 234.413 481.999 235.164C484.017 235.916 485.896 236.885 487.636 238.071C489.376 239.258 490.82 240.781 491.967 242.64C493.114 244.499 493.688 246.872 493.688 249.76C493.688 252.766 493.094 255.614 491.908 258.303C490.721 260.993 489 263.346 486.746 265.364C484.531 267.381 481.841 268.983 478.677 270.169C475.513 271.356 471.973 271.949 468.057 271.949C466.119 271.949 464.22 271.752 462.361 271.356C460.542 271 458.801 270.486 457.14 269.813C455.518 269.101 454.035 268.291 452.69 267.381C451.385 266.471 450.277 265.482 449.368 264.414L453.402 258.303C453.877 257.591 454.45 257.038 455.123 256.642C455.795 256.246 456.606 256.049 457.555 256.049C458.425 256.049 459.216 256.306 459.928 256.82C460.64 257.295 461.431 257.829 462.302 258.422C463.172 258.976 464.2 259.51 465.387 260.024C466.613 260.498 468.195 260.736 470.133 260.736C471.597 260.736 472.882 260.558 473.99 260.202C475.137 259.806 476.086 259.292 476.838 258.659C477.629 257.987 478.202 257.215 478.558 256.345C478.954 255.475 479.152 254.565 479.152 253.616C479.152 251.876 478.578 250.531 477.431 249.582C476.284 248.632 474.84 247.802 473.1 247.09C471.399 246.378 469.54 245.686 467.523 245.013C465.506 244.341 463.627 243.431 461.886 242.284C460.186 241.137 458.762 239.654 457.615 237.834C456.467 236.015 455.894 233.582 455.894 230.536C455.894 227.768 456.408 225.098 457.437 222.527C458.504 219.916 460.047 217.602 462.064 215.585C464.082 213.568 466.573 211.946 469.54 210.72C472.546 209.494 476.007 208.881 479.923 208.881C483.918 208.881 487.458 209.573 490.543 210.957C493.668 212.302 496.259 214.023 498.315 216.119L494.103 221.933ZM506.411 258.185C506.411 257.908 506.411 257.591 506.411 257.235C506.411 256.84 506.431 256.286 506.471 255.574C506.55 254.822 506.649 253.853 506.767 252.667C506.925 251.441 507.123 249.858 507.361 247.92L510.624 221.578H505.284C504.493 221.578 503.84 221.301 503.326 220.747C502.851 220.193 502.693 219.362 502.851 218.255L503.623 211.847L512.878 210.067L517.921 194.226C518.475 192.446 519.682 191.556 521.541 191.556H530.322L528.008 210.186H542.306L540.942 221.578H526.643L523.499 247.03C523.301 248.652 523.143 249.938 523.024 250.887C522.905 251.836 522.806 252.568 522.727 253.082C522.688 253.596 522.668 253.952 522.668 254.15C522.668 254.308 522.668 254.427 522.668 254.506C522.668 255.89 522.984 256.998 523.617 257.829C524.25 258.62 525.199 259.015 526.465 259.015C527.177 259.015 527.79 258.936 528.304 258.778C528.818 258.58 529.254 258.382 529.61 258.185C530.005 257.947 530.361 257.749 530.678 257.591C530.994 257.393 531.33 257.295 531.686 257.295C532.2 257.295 532.576 257.413 532.813 257.651C533.051 257.848 533.288 258.204 533.525 258.719L537.085 266.55C534.791 268.33 532.279 269.675 529.55 270.585C526.821 271.494 524.072 271.949 521.303 271.949C516.794 271.949 513.215 270.743 510.564 268.33C507.954 265.878 506.569 262.496 506.411 258.185ZM583.704 220.391C583.348 220.351 582.992 220.332 582.636 220.332C582.28 220.332 581.924 220.332 581.568 220.332C578.404 220.332 575.497 221.044 572.847 222.467C570.197 223.891 567.903 225.83 565.964 228.282C564.066 230.734 562.563 233.582 561.455 236.826C560.387 240.069 559.853 243.49 559.853 247.09C559.853 251.203 560.486 254.19 561.752 256.049C563.018 257.868 564.679 258.778 566.736 258.778C568.199 258.778 569.643 258.244 571.067 257.176C572.53 256.108 573.895 254.644 575.161 252.785C576.426 250.926 577.593 248.751 578.661 246.259C579.729 243.728 580.659 241.038 581.45 238.19L583.704 220.391ZM579.67 259.49C577.059 263.327 574.132 266.352 570.889 268.567C567.685 270.782 564.145 271.89 560.269 271.89C558.014 271.89 555.858 271.455 553.802 270.585C551.784 269.675 550.005 268.33 548.462 266.55C546.919 264.731 545.693 262.456 544.783 259.727C543.913 256.958 543.478 253.735 543.478 250.056C543.478 246.378 543.933 242.818 544.843 239.377C545.752 235.896 547.058 232.633 548.759 229.587C550.459 226.542 552.516 223.753 554.929 221.222C557.381 218.651 560.091 216.455 563.057 214.636C566.063 212.816 569.307 211.412 572.788 210.423C576.308 209.395 580.006 208.881 583.882 208.881C586.73 208.881 589.578 209.098 592.426 209.533C595.274 209.929 598.082 210.641 600.851 211.669L593.494 271H584.772C583.744 271 582.874 270.862 582.162 270.585C581.489 270.308 580.936 269.932 580.501 269.457C580.105 268.983 579.828 268.429 579.67 267.796C579.512 267.163 579.433 266.471 579.433 265.72L579.67 259.49ZM611.399 258.185C611.399 257.908 611.399 257.591 611.399 257.235C611.399 256.84 611.419 256.286 611.458 255.574C611.537 254.822 611.636 253.853 611.755 252.667C611.913 251.441 612.111 249.858 612.348 247.92L615.611 221.578H610.272C609.48 221.578 608.828 221.301 608.314 220.747C607.839 220.193 607.681 219.362 607.839 218.255L608.61 211.847L617.866 210.067L622.909 194.226C623.463 192.446 624.669 191.556 626.528 191.556H635.309L632.995 210.186H647.294L645.929 221.578H631.631L628.486 247.03C628.288 248.652 628.13 249.938 628.011 250.887C627.893 251.836 627.794 252.568 627.715 253.082C627.675 253.596 627.655 253.952 627.655 254.15C627.655 254.308 627.655 254.427 627.655 254.506C627.655 255.89 627.972 256.998 628.605 257.829C629.238 258.62 630.187 259.015 631.453 259.015C632.165 259.015 632.778 258.936 633.292 258.778C633.806 258.58 634.241 258.382 634.597 258.185C634.993 257.947 635.349 257.749 635.665 257.591C635.982 257.393 636.318 257.295 636.674 257.295C637.188 257.295 637.564 257.413 637.801 257.651C638.038 257.848 638.276 258.204 638.513 258.719L642.073 266.55C639.779 268.33 637.267 269.675 634.538 270.585C631.809 271.494 629.06 271.949 626.291 271.949C621.782 271.949 618.202 270.743 615.552 268.33C612.941 265.878 611.557 262.496 611.399 258.185ZM709.427 209.83L702.011 271H693.704C689.828 271 687.89 269.161 687.89 265.482L688.068 259.964C685.062 263.999 681.779 267.005 678.219 268.983C674.699 270.921 671.04 271.89 667.243 271.89C664.672 271.89 662.358 271.376 660.301 270.347C658.244 269.319 656.544 267.816 655.199 265.838C653.854 263.861 652.905 261.448 652.351 258.6C651.797 255.712 651.758 252.41 652.232 248.692L656.801 209.83H673.176L668.548 248.692C668.113 252.37 668.291 254.981 669.082 256.523C669.913 258.026 671.396 258.778 673.532 258.778C674.956 258.778 676.419 258.382 677.922 257.591C679.465 256.761 680.929 255.594 682.313 254.091C683.737 252.588 685.042 250.788 686.229 248.692C687.455 246.556 688.464 244.183 689.255 241.572L693.111 209.83H709.427ZM756.108 221.933C755.634 222.606 755.159 223.1 754.684 223.417C754.249 223.694 753.696 223.832 753.023 223.832C752.272 223.832 751.52 223.634 750.769 223.239C750.057 222.843 749.246 222.428 748.336 221.993C747.426 221.518 746.378 221.083 745.191 220.688C744.044 220.292 742.68 220.094 741.098 220.094C738.131 220.094 735.916 220.727 734.453 221.993C733.029 223.259 732.317 224.841 732.317 226.739C732.317 228.282 732.89 229.528 734.037 230.477C735.184 231.387 736.628 232.217 738.368 232.969C740.109 233.681 741.988 234.413 744.005 235.164C746.022 235.916 747.901 236.885 749.641 238.071C751.382 239.258 752.825 240.781 753.972 242.64C755.119 244.499 755.693 246.872 755.693 249.76C755.693 252.766 755.1 255.614 753.913 258.303C752.726 260.993 751.006 263.346 748.751 265.364C746.536 267.381 743.847 268.983 740.682 270.169C737.518 271.356 733.978 271.949 730.062 271.949C728.124 271.949 726.225 271.752 724.366 271.356C722.547 271 720.807 270.486 719.145 269.813C717.524 269.101 716.04 268.291 714.695 267.381C713.39 266.471 712.283 265.482 711.373 264.414L715.407 258.303C715.882 257.591 716.456 257.038 717.128 256.642C717.8 256.246 718.611 256.049 719.561 256.049C720.431 256.049 721.222 256.306 721.934 256.82C722.646 257.295 723.437 257.829 724.307 258.422C725.177 258.976 726.206 259.51 727.392 260.024C728.618 260.498 730.201 260.736 732.139 260.736C733.602 260.736 734.888 260.558 735.995 260.202C737.142 259.806 738.092 259.292 738.843 258.659C739.634 257.987 740.208 257.215 740.564 256.345C740.959 255.475 741.157 254.565 741.157 253.616C741.157 251.876 740.583 250.531 739.436 249.582C738.289 248.632 736.846 247.802 735.105 247.09C733.404 246.378 731.545 245.686 729.528 245.013C727.511 244.341 725.632 243.431 723.892 242.284C722.191 241.137 720.767 239.654 719.62 237.834C718.473 236.015 717.899 233.582 717.899 230.536C717.899 227.768 718.414 225.098 719.442 222.527C720.51 219.916 722.052 217.602 724.07 215.585C726.087 213.568 728.579 211.946 731.545 210.72C734.551 209.494 738.012 208.881 741.928 208.881C745.923 208.881 749.463 209.573 752.548 210.957C755.673 212.302 758.264 214.023 760.321 216.119L756.108 221.933Z" fill="#4461D7"/>
<circle opacity="0.3" cx="544" cy="232" r="66" fill="#4461D7"/>
<circle opacity="0.4" cx="543.999" cy="232" r="52.4299" fill="#4461D7"/>
<path d="M526.966 208.465C526.946 207.695 527.767 207.192 528.443 207.56L569.881 230.067C570.558 230.434 570.583 231.396 569.926 231.798L529.716 256.431C529.06 256.833 528.214 256.374 528.194 255.605L526.966 208.465Z" fill="white"/>
<rect opacity="0.7" x="68" y="456" width="946" height="2" fill="white"/>
<path d="M1040.5 462.552C1040.5 462.781 1040.37 462.989 1040.16 463.087C1040.08 463.124 1040 463.143 1039.91 463.143C1039.78 463.143 1039.64 463.096 1039.54 463.007L1036.31 460.332H1034.59C1034.26 460.333 1034 460.068 1034 459.742V457.39C1034 457.064 1034.26 456.8 1034.59 456.8H1036.31L1039.54 454.125C1039.71 453.979 1039.96 453.948 1040.16 454.046C1040.37 454.143 1040.5 454.351 1040.5 454.58L1040.5 462.552ZM1042.77 461.63C1042.76 461.631 1042.74 461.631 1042.73 461.631C1042.57 461.631 1042.42 461.57 1042.31 461.459L1042.23 461.379C1042.03 461.173 1042 460.845 1042.18 460.61C1042.62 460.014 1042.85 459.308 1042.85 458.566C1042.85 457.769 1042.59 457.021 1042.09 456.404C1041.9 456.169 1041.91 455.828 1042.13 455.614L1042.21 455.535C1042.32 455.417 1042.48 455.353 1042.65 455.363C1042.82 455.372 1042.97 455.45 1043.08 455.579C1043.78 456.43 1044.14 457.463 1044.14 458.566C1044.14 459.594 1043.82 460.572 1043.2 461.395C1043.1 461.532 1042.94 461.618 1042.77 461.63ZM1045.21 463.454C1045.11 463.58 1044.95 463.656 1044.79 463.663C1044.78 463.663 1044.77 463.664 1044.76 463.664C1044.61 463.664 1044.46 463.602 1044.34 463.491L1044.27 463.413C1044.05 463.197 1044.04 462.85 1044.23 462.616C1045.18 461.484 1045.71 460.046 1045.71 458.566C1045.71 457.028 1045.15 455.547 1044.13 454.396C1043.92 454.162 1043.93 453.809 1044.15 453.588L1044.23 453.51C1044.34 453.395 1044.49 453.331 1044.67 453.337C1044.83 453.341 1044.98 453.413 1045.09 453.535C1046.32 454.922 1047 456.709 1047 458.566C1047 460.353 1046.37 462.089 1045.21 463.454Z" fill="white"/>
<path d="M1074.71 459.606L1073.19 459.975C1073.1 460.243 1073 460.502 1072.87 460.749L1073.65 462.049C1073.74 462.199 1073.72 462.391 1073.59 462.514L1072.51 463.591C1072.39 463.715 1072.2 463.739 1072.05 463.649L1070.75 462.869C1070.5 462.997 1070.24 463.104 1069.98 463.188L1069.61 464.709C1069.56 464.88 1069.41 465 1069.24 465H1067.71C1067.54 465 1067.38 464.88 1067.34 464.709L1066.97 463.188C1066.71 463.104 1066.45 462.997 1066.2 462.869L1064.9 463.649C1064.75 463.739 1064.56 463.715 1064.43 463.591L1063.36 462.514C1063.23 462.391 1063.21 462.199 1063.3 462.049L1064.08 460.749C1063.95 460.501 1063.85 460.242 1063.76 459.974L1062.29 459.606C1062.12 459.563 1062 459.411 1062 459.236V457.713C1062 457.538 1062.12 457.386 1062.29 457.343L1063.76 456.975C1063.85 456.707 1063.95 456.448 1064.08 456.2L1063.3 454.9C1063.21 454.75 1063.23 454.559 1063.36 454.435L1064.43 453.358C1064.56 453.234 1064.75 453.211 1064.9 453.3L1066.2 454.081C1066.45 453.952 1066.71 453.845 1066.98 453.76L1067.34 452.288C1067.39 452.119 1067.54 452 1067.71 452H1069.24C1069.41 452 1069.56 452.119 1069.61 452.288L1069.97 453.76C1070.24 453.845 1070.5 453.952 1070.75 454.081L1072.05 453.3C1072.2 453.211 1072.39 453.234 1072.51 453.358L1073.59 454.435C1073.72 454.559 1073.74 454.75 1073.65 454.9L1072.87 456.2C1073 456.447 1073.1 456.706 1073.19 456.974L1074.71 457.343C1074.88 457.384 1075 457.537 1075 457.713V459.236C1075 459.412 1074.88 459.565 1074.71 459.606ZM1074.24 458.012L1072.79 457.662C1072.66 457.629 1072.55 457.525 1072.52 457.39C1072.42 457.035 1072.28 456.696 1072.1 456.382C1072.03 456.262 1072.03 456.114 1072.1 455.996L1072.84 454.763L1072.19 454.107L1070.95 454.846C1070.83 454.917 1070.69 454.918 1070.57 454.849C1070.25 454.668 1069.91 454.527 1069.56 454.432C1069.43 454.397 1069.32 454.291 1069.29 454.157L1068.94 452.762H1068.01L1067.66 454.157C1067.63 454.291 1067.52 454.397 1067.39 454.432C1067.04 454.527 1066.7 454.668 1066.38 454.849C1066.26 454.918 1066.11 454.917 1066 454.846L1064.76 454.107L1064.11 454.763L1064.85 455.996C1064.92 456.114 1064.92 456.262 1064.85 456.382C1064.67 456.696 1064.53 457.035 1064.43 457.39C1064.4 457.524 1064.29 457.628 1064.16 457.661L1062.76 458.01V458.939L1064.16 459.288C1064.29 459.321 1064.4 459.425 1064.43 459.559C1064.53 459.914 1064.67 460.253 1064.85 460.567C1064.92 460.687 1064.92 460.835 1064.85 460.954L1064.11 462.186L1064.76 462.843L1066 462.103C1066.11 462.032 1066.26 462.031 1066.38 462.1C1066.7 462.282 1067.04 462.422 1067.39 462.517C1067.53 462.553 1067.63 462.66 1067.66 462.795L1068.01 464.238H1068.94L1069.29 462.795C1069.32 462.66 1069.42 462.553 1069.56 462.517C1069.91 462.422 1070.25 462.282 1070.57 462.1C1070.69 462.031 1070.83 462.032 1070.95 462.103L1072.19 462.843L1072.84 462.186L1072.1 460.954C1072.03 460.835 1072.03 460.687 1072.1 460.567C1072.28 460.253 1072.42 459.914 1072.52 459.559C1072.55 459.424 1072.66 459.32 1072.79 459.287L1074.24 458.937V458.012Z" fill="white"/>
<path d="M1068.47 461.141C1067 461.141 1065.81 459.945 1065.81 458.475C1065.81 457.005 1067 455.809 1068.47 455.809C1069.94 455.809 1071.14 457.005 1071.14 458.475C1071.14 459.945 1069.94 461.141 1068.47 461.141ZM1068.47 456.57C1067.42 456.57 1066.57 457.425 1066.57 458.475C1066.57 459.525 1067.42 460.379 1068.47 460.379C1069.52 460.379 1070.38 459.525 1070.38 458.475C1070.38 457.425 1069.52 456.57 1068.47 456.57Z" fill="white"/>
</svg>
