<svg width="42" height="42" viewBox="0 0 42 42" fill="none" xmlns="http://www.w3.org/2000/svg">
<mask id="path-1-outside-1" maskUnits="userSpaceOnUse" x="0" y="0" width="42" height="42" fill="black">
<rect fill="white" width="42" height="42"/>
<path d="M40.957 30.8986L40.2137 27.1289C39.915 25.614 39.1791 24.2369 38.0858 23.1465L36.7805 21.845V17.4089C37.5962 17.0865 38.1751 16.2906 38.1751 15.3616C38.1751 15.1108 38.1324 14.8698 38.0548 14.6451C38.979 14.3841 39.6586 13.5337 39.6586 12.5271C39.6586 12.2612 39.6112 12.0062 39.5244 11.7701C40.3823 11.4694 40.9994 10.6519 40.9994 9.69273C40.9994 8.73344 40.3823 7.91609 39.5244 7.61539C39.6112 7.37922 39.6586 7.12422 39.6586 6.85836C39.6586 5.64469 38.6712 4.65743 37.4576 4.65743H33.0466C33.4515 4.16829 33.6463 3.51204 33.5287 2.8454C33.4237 2.24978 33.0911 1.73353 32.5922 1.39165C32.0934 1.04978 31.4918 0.92595 30.8986 1.04298L27.1288 1.78634C25.6139 2.08509 24.2368 2.82095 23.1465 3.9143L21.8449 5.21961H17.4088C17.0864 4.40383 16.2906 3.82493 15.3616 3.82493C15.1108 3.82493 14.8698 3.86766 14.6451 3.94532C14.3841 3.02102 13.5338 2.34149 12.5272 2.34149C12.2613 2.34149 12.0063 2.38892 11.7702 2.47571C11.4694 1.61782 10.652 1.00072 9.6928 1.00072C8.7335 1.00072 7.91616 1.6179 7.61545 2.47579C7.37928 2.38899 7.12428 2.34157 6.85842 2.34157C5.64482 2.34157 4.65748 3.32891 4.65748 4.54251V8.95351C4.16841 8.54867 3.51232 8.35398 2.84544 8.47148C2.24981 8.57648 1.73356 8.90906 1.39169 9.40797C1.04981 9.90679 0.925983 10.5084 1.04294 11.1016L1.78645 14.8714C2.08521 16.3863 2.82107 17.7633 3.91435 18.8537L5.21959 20.1552V24.5912C4.40373 24.9136 3.82474 25.7096 3.82474 26.6386C3.82474 26.8894 3.86748 27.1303 3.94513 27.3551C3.02083 27.6161 2.3413 28.4664 2.3413 29.473C2.3413 29.7389 2.38872 29.9939 2.47552 30.2301C1.61755 30.5308 1.00051 31.3482 1.00051 32.3075C1.00051 33.2668 1.61763 34.0841 2.47552 34.3847C2.38872 34.6209 2.3413 34.876 2.3413 35.1418C2.3413 36.3554 3.32872 37.3428 4.54224 37.3428H8.95327C8.54843 37.8319 8.35366 38.4881 8.47124 39.1547C8.57624 39.7503 8.90882 40.2666 9.40765 40.6084C9.7839 40.8663 10.2186 41.0001 10.6641 41.0001C10.8092 41.0001 10.9555 40.9858 11.1014 40.9571L14.8713 40.2137C16.386 39.915 17.7631 39.1792 18.8535 38.0858L20.1551 36.7805H24.5912C24.9136 37.5964 25.7095 38.1753 26.6386 38.1753C26.8893 38.1753 27.1303 38.1326 27.355 38.0549C27.6161 38.9792 28.4664 39.6587 29.4729 39.6587C29.7388 39.6587 29.9939 39.6113 30.23 39.5245C30.5307 40.3824 31.3481 40.9995 32.3073 40.9995C33.2666 40.9995 34.084 40.3824 34.3847 39.5245C34.6208 39.6113 34.8759 39.6587 35.1418 39.6587C36.3554 39.6587 37.3426 38.6713 37.3426 37.4578V33.0469C37.8318 33.4517 38.4877 33.6465 39.1547 33.5289C39.7503 33.4239 40.2666 33.0913 40.6084 32.5925C40.9501 32.0936 41.0741 31.492 40.957 30.8986ZM17.5627 11.2988V9.1693V6.78203H22.1693C22.3769 6.78203 22.576 6.69938 22.7225 6.55242L24.253 5.01766C25.1232 4.14509 26.2221 3.55774 27.4311 3.31938L31.201 2.57603C31.3791 2.54103 31.5595 2.57806 31.7092 2.68063C31.8589 2.78321 31.9586 2.93813 31.9901 3.11681C32.0512 3.46313 31.8315 3.79993 31.4901 3.88368L29.9235 4.26782C29.4293 4.38891 29.1149 4.84344 29.1759 5.34852C29.2369 5.8536 29.6504 6.22024 30.1593 6.22024H37.4579C37.81 6.22024 38.0964 6.50672 38.0964 6.85875C38.0964 7.185 37.8504 7.45438 37.5341 7.49219L33.2102 7.49719C32.7788 7.49719 32.429 7.84695 32.429 8.27844C32.429 8.70992 32.7788 9.05969 33.2102 9.05969L38.7987 9.05469C39.1508 9.05469 39.4373 9.34117 39.4373 9.6932C39.4373 10.0452 39.1508 10.3317 38.7987 10.3317H33.2102C32.7788 10.3317 32.429 10.6815 32.429 11.113C32.429 11.5444 32.7788 11.8942 33.2102 11.8942H37.5344C37.8505 11.9322 38.0964 12.2016 38.0964 12.5276C38.0964 12.8797 37.81 13.1662 37.4579 13.1662H33.2102C32.7788 13.1662 32.429 13.5159 32.429 13.9474C32.429 14.3789 32.7788 14.7287 33.2102 14.7287H36.0508C36.3669 14.7666 36.613 15.0359 36.613 15.3622C36.613 15.7142 36.3265 16.0006 35.9745 16.0006H28.0848C26.432 16.0006 24.8789 15.3561 23.7119 14.1857L22.7227 13.1937C22.5761 13.0467 22.3771 12.9641 22.1695 12.9641H17.5627V11.2988ZM5.01756 17.747C4.1449 16.8769 3.55763 15.778 3.31935 14.5689L2.57591 10.7991C2.54075 10.6211 2.57794 10.4406 2.68052 10.2909C2.7831 10.1412 2.93802 10.0415 3.11669 10.01C3.46341 9.94906 3.79974 10.1686 3.88349 10.5101L4.26755 12.0766C4.38857 12.5708 4.84342 12.8847 5.34818 12.8242C5.85334 12.7633 6.21998 12.3497 6.21998 11.8409V4.54235C6.21998 4.19032 6.50639 3.90384 6.8585 3.90384C7.18467 3.90384 7.45397 4.14977 7.49194 4.46587L7.49694 8.79C7.49694 9.22148 7.84678 9.57125 8.27819 9.57125C8.7096 9.57125 9.05944 9.22148 9.05944 8.79V4.54235C9.05944 4.49477 9.05741 4.44774 9.05444 4.40087V3.20149C9.05444 2.84946 9.34085 2.56306 9.69296 2.56306C10.0451 2.56306 10.3315 2.84946 10.3315 3.20149V4.40094C10.3285 4.44774 10.3265 4.49485 10.3265 4.54243L10.3315 8.79008C10.3315 9.22156 10.6813 9.57133 11.1127 9.57133C11.5441 9.57133 11.894 9.22156 11.894 8.79008V4.46587C11.9319 4.14977 12.2013 3.90384 12.5274 3.90384C12.8795 3.90384 13.1659 4.19032 13.1659 4.54235C13.1659 4.54235 13.1628 8.34297 13.1659 8.37141V8.79008C13.1659 9.22156 13.5158 9.57133 13.9472 9.57133C14.3786 9.57133 14.7284 9.22156 14.7284 8.79008V5.9493C14.7664 5.63321 15.0358 5.38727 15.3619 5.38727C15.714 5.38727 16.0004 5.67375 16.0004 6.02579V13.9154C16.0004 15.5442 15.3388 17.1381 14.1855 18.2883L13.1935 19.2775C13.0465 19.424 12.9639 19.6231 12.9639 19.8307V24.4373H11.4015V22.363C11.4015 21.9316 11.0516 21.5818 10.6202 21.5818C10.1888 21.5818 9.83898 21.9316 9.83898 22.363V24.4373H6.78201V19.8307C6.78201 19.6231 6.69936 19.424 6.5524 19.2775L5.01756 17.747ZM24.4375 35.2178H19.8307V35.2179C19.6231 35.2179 19.4241 35.3006 19.2775 35.4475L17.747 36.9822C16.8768 37.8549 15.7779 38.4422 14.5689 38.6804L10.7991 39.4239C10.6209 39.4591 10.4405 39.4219 10.2909 39.3192C10.1412 39.2166 10.0414 39.0617 10.0099 38.8831C9.94882 38.5368 10.1685 38.2 10.5099 38.1164L12.0767 37.7322C12.5708 37.611 12.8852 37.1566 12.8241 36.6515C12.7631 36.1464 12.3495 35.7799 11.8408 35.7799H4.54232C4.19021 35.7799 3.9038 35.4935 3.9038 35.1414C3.9038 34.815 4.14998 34.5456 4.46631 34.5078L8.79007 34.5029C9.22147 34.5029 9.57132 34.1531 9.57132 33.7217C9.57132 33.2903 9.22147 32.9404 8.79007 32.9404L3.20154 32.9453C2.84943 32.9453 2.56302 32.6589 2.56302 32.3068C2.56302 31.9548 2.84943 31.6684 3.20154 31.6684H8.79007C9.22147 31.6684 9.57132 31.3186 9.57132 30.8871C9.57132 30.4557 9.22147 30.1059 8.79007 30.1059H4.46631C4.14998 30.0682 3.9038 29.7987 3.9038 29.4724C3.9038 29.1204 4.19021 28.8339 4.54232 28.8339H8.79007C9.22147 28.8339 9.57132 28.4841 9.57132 28.0527C9.57132 27.6213 9.22147 27.2715 8.79007 27.2715H5.94975C5.6335 27.2337 5.38732 26.9643 5.38732 26.6379C5.38732 26.2858 5.67373 25.9994 6.02576 25.9994H13.9154C15.5681 25.9994 17.1212 26.644 18.2883 27.8143L19.2775 28.8064C19.4241 28.9534 19.6231 29.036 19.8307 29.036H24.4375V35.2178ZM24.4614 27.474H20.1549L19.3947 26.7116C18.077 25.3901 16.3667 24.604 14.5261 24.4613V20.1549L15.2885 19.3947C16.5892 18.0976 17.3903 16.3503 17.5377 14.526H21.8452L22.6054 15.2884C23.9232 16.6099 25.6335 17.396 27.4741 17.5387V21.8452L26.7117 22.6054C25.3902 23.923 24.604 25.6334 24.4614 27.474ZM39.3194 31.709C39.2169 31.8587 39.0619 31.9585 38.8832 31.99C38.5366 32.0514 38.2001 31.8314 38.1166 31.49L37.7324 29.9232C37.6112 29.429 37.1559 29.1152 36.6516 29.1758C36.1465 29.2368 35.78 29.6504 35.78 30.1591V37.4577C35.78 37.8098 35.4936 38.0962 35.1415 38.0962C34.8152 38.0962 34.5458 37.85 34.508 37.5337L34.5031 33.21C34.5031 32.7786 34.1533 32.4288 33.7219 32.4288C33.2904 32.4288 32.9406 32.7786 32.9406 33.21L32.9455 38.7986C32.9455 39.1507 32.6591 39.4371 32.307 39.4371C31.955 39.4371 31.6686 39.1507 31.6686 38.7986V33.21C31.6686 32.7786 31.3187 32.4288 30.8873 32.4288C30.4559 32.4288 30.1061 32.7786 30.1061 33.21V37.5337C30.0683 37.85 29.7989 38.0962 29.4725 38.0962C29.1204 38.0962 28.834 37.8098 28.834 37.4577V33.21C28.834 32.7786 28.4842 32.4288 28.0528 32.4288C27.6214 32.4288 27.2715 32.7786 27.2715 33.21V36.0508C27.2336 36.3669 26.9642 36.6128 26.6381 36.6128C26.286 36.6128 25.9996 36.3264 25.9996 35.9743V32.8311V30.7015V28.0847C25.9996 26.432 26.6442 24.879 27.8145 23.7118L28.8065 22.7226C28.9536 22.576 29.0361 22.3769 29.0361 22.1693V17.5626H30.701H32.0494V19.9324C32.0494 20.3639 32.3993 20.7136 32.8307 20.7136C33.2621 20.7136 33.6119 20.3639 33.6119 19.9324V17.5626H35.2177V22.1693C35.2177 22.3769 35.3004 22.576 35.4472 22.7226L36.982 24.253C37.8548 25.1233 38.442 26.2222 38.6802 27.4312L39.4237 31.201C39.4592 31.3789 39.4221 31.5594 39.3194 31.709Z"/>
</mask>
<path d="M40.957 30.8986L40.2137 27.1289C39.915 25.614 39.1791 24.2369 38.0858 23.1465L36.7805 21.845V17.4089C37.5962 17.0865 38.1751 16.2906 38.1751 15.3616C38.1751 15.1108 38.1324 14.8698 38.0548 14.6451C38.979 14.3841 39.6586 13.5337 39.6586 12.5271C39.6586 12.2612 39.6112 12.0062 39.5244 11.7701C40.3823 11.4694 40.9994 10.6519 40.9994 9.69273C40.9994 8.73344 40.3823 7.91609 39.5244 7.61539C39.6112 7.37922 39.6586 7.12422 39.6586 6.85836C39.6586 5.64469 38.6712 4.65743 37.4576 4.65743H33.0466C33.4515 4.16829 33.6463 3.51204 33.5287 2.8454C33.4237 2.24978 33.0911 1.73353 32.5922 1.39165C32.0934 1.04978 31.4918 0.92595 30.8986 1.04298L27.1288 1.78634C25.6139 2.08509 24.2368 2.82095 23.1465 3.9143L21.8449 5.21961H17.4088C17.0864 4.40383 16.2906 3.82493 15.3616 3.82493C15.1108 3.82493 14.8698 3.86766 14.6451 3.94532C14.3841 3.02102 13.5338 2.34149 12.5272 2.34149C12.2613 2.34149 12.0063 2.38892 11.7702 2.47571C11.4694 1.61782 10.652 1.00072 9.6928 1.00072C8.7335 1.00072 7.91616 1.6179 7.61545 2.47579C7.37928 2.38899 7.12428 2.34157 6.85842 2.34157C5.64482 2.34157 4.65748 3.32891 4.65748 4.54251V8.95351C4.16841 8.54867 3.51232 8.35398 2.84544 8.47148C2.24981 8.57648 1.73356 8.90906 1.39169 9.40797C1.04981 9.90679 0.925983 10.5084 1.04294 11.1016L1.78645 14.8714C2.08521 16.3863 2.82107 17.7633 3.91435 18.8537L5.21959 20.1552V24.5912C4.40373 24.9136 3.82474 25.7096 3.82474 26.6386C3.82474 26.8894 3.86748 27.1303 3.94513 27.3551C3.02083 27.6161 2.3413 28.4664 2.3413 29.473C2.3413 29.7389 2.38872 29.9939 2.47552 30.2301C1.61755 30.5308 1.00051 31.3482 1.00051 32.3075C1.00051 33.2668 1.61763 34.0841 2.47552 34.3847C2.38872 34.6209 2.3413 34.876 2.3413 35.1418C2.3413 36.3554 3.32872 37.3428 4.54224 37.3428H8.95327C8.54843 37.8319 8.35366 38.4881 8.47124 39.1547C8.57624 39.7503 8.90882 40.2666 9.40765 40.6084C9.7839 40.8663 10.2186 41.0001 10.6641 41.0001C10.8092 41.0001 10.9555 40.9858 11.1014 40.9571L14.8713 40.2137C16.386 39.915 17.7631 39.1792 18.8535 38.0858L20.1551 36.7805H24.5912C24.9136 37.5964 25.7095 38.1753 26.6386 38.1753C26.8893 38.1753 27.1303 38.1326 27.355 38.0549C27.6161 38.9792 28.4664 39.6587 29.4729 39.6587C29.7388 39.6587 29.9939 39.6113 30.23 39.5245C30.5307 40.3824 31.3481 40.9995 32.3073 40.9995C33.2666 40.9995 34.084 40.3824 34.3847 39.5245C34.6208 39.6113 34.8759 39.6587 35.1418 39.6587C36.3554 39.6587 37.3426 38.6713 37.3426 37.4578V33.0469C37.8318 33.4517 38.4877 33.6465 39.1547 33.5289C39.7503 33.4239 40.2666 33.0913 40.6084 32.5925C40.9501 32.0936 41.0741 31.492 40.957 30.8986ZM17.5627 11.2988V9.1693V6.78203H22.1693C22.3769 6.78203 22.576 6.69938 22.7225 6.55242L24.253 5.01766C25.1232 4.14509 26.2221 3.55774 27.4311 3.31938L31.201 2.57603C31.3791 2.54103 31.5595 2.57806 31.7092 2.68063C31.8589 2.78321 31.9586 2.93813 31.9901 3.11681C32.0512 3.46313 31.8315 3.79993 31.4901 3.88368L29.9235 4.26782C29.4293 4.38891 29.1149 4.84344 29.1759 5.34852C29.2369 5.8536 29.6504 6.22024 30.1593 6.22024H37.4579C37.81 6.22024 38.0964 6.50672 38.0964 6.85875C38.0964 7.185 37.8504 7.45438 37.5341 7.49219L33.2102 7.49719C32.7788 7.49719 32.429 7.84695 32.429 8.27844C32.429 8.70992 32.7788 9.05969 33.2102 9.05969L38.7987 9.05469C39.1508 9.05469 39.4373 9.34117 39.4373 9.6932C39.4373 10.0452 39.1508 10.3317 38.7987 10.3317H33.2102C32.7788 10.3317 32.429 10.6815 32.429 11.113C32.429 11.5444 32.7788 11.8942 33.2102 11.8942H37.5344C37.8505 11.9322 38.0964 12.2016 38.0964 12.5276C38.0964 12.8797 37.81 13.1662 37.4579 13.1662H33.2102C32.7788 13.1662 32.429 13.5159 32.429 13.9474C32.429 14.3789 32.7788 14.7287 33.2102 14.7287H36.0508C36.3669 14.7666 36.613 15.0359 36.613 15.3622C36.613 15.7142 36.3265 16.0006 35.9745 16.0006H28.0848C26.432 16.0006 24.8789 15.3561 23.7119 14.1857L22.7227 13.1937C22.5761 13.0467 22.3771 12.9641 22.1695 12.9641H17.5627V11.2988ZM5.01756 17.747C4.1449 16.8769 3.55763 15.778 3.31935 14.5689L2.57591 10.7991C2.54075 10.6211 2.57794 10.4406 2.68052 10.2909C2.7831 10.1412 2.93802 10.0415 3.11669 10.01C3.46341 9.94906 3.79974 10.1686 3.88349 10.5101L4.26755 12.0766C4.38857 12.5708 4.84342 12.8847 5.34818 12.8242C5.85334 12.7633 6.21998 12.3497 6.21998 11.8409V4.54235C6.21998 4.19032 6.50639 3.90384 6.8585 3.90384C7.18467 3.90384 7.45397 4.14977 7.49194 4.46587L7.49694 8.79C7.49694 9.22148 7.84678 9.57125 8.27819 9.57125C8.7096 9.57125 9.05944 9.22148 9.05944 8.79V4.54235C9.05944 4.49477 9.05741 4.44774 9.05444 4.40087V3.20149C9.05444 2.84946 9.34085 2.56306 9.69296 2.56306C10.0451 2.56306 10.3315 2.84946 10.3315 3.20149V4.40094C10.3285 4.44774 10.3265 4.49485 10.3265 4.54243L10.3315 8.79008C10.3315 9.22156 10.6813 9.57133 11.1127 9.57133C11.5441 9.57133 11.894 9.22156 11.894 8.79008V4.46587C11.9319 4.14977 12.2013 3.90384 12.5274 3.90384C12.8795 3.90384 13.1659 4.19032 13.1659 4.54235C13.1659 4.54235 13.1628 8.34297 13.1659 8.37141V8.79008C13.1659 9.22156 13.5158 9.57133 13.9472 9.57133C14.3786 9.57133 14.7284 9.22156 14.7284 8.79008V5.9493C14.7664 5.63321 15.0358 5.38727 15.3619 5.38727C15.714 5.38727 16.0004 5.67375 16.0004 6.02579V13.9154C16.0004 15.5442 15.3388 17.1381 14.1855 18.2883L13.1935 19.2775C13.0465 19.424 12.9639 19.6231 12.9639 19.8307V24.4373H11.4015V22.363C11.4015 21.9316 11.0516 21.5818 10.6202 21.5818C10.1888 21.5818 9.83898 21.9316 9.83898 22.363V24.4373H6.78201V19.8307C6.78201 19.6231 6.69936 19.424 6.5524 19.2775L5.01756 17.747ZM24.4375 35.2178H19.8307V35.2179C19.6231 35.2179 19.4241 35.3006 19.2775 35.4475L17.747 36.9822C16.8768 37.8549 15.7779 38.4422 14.5689 38.6804L10.7991 39.4239C10.6209 39.4591 10.4405 39.4219 10.2909 39.3192C10.1412 39.2166 10.0414 39.0617 10.0099 38.8831C9.94882 38.5368 10.1685 38.2 10.5099 38.1164L12.0767 37.7322C12.5708 37.611 12.8852 37.1566 12.8241 36.6515C12.7631 36.1464 12.3495 35.7799 11.8408 35.7799H4.54232C4.19021 35.7799 3.9038 35.4935 3.9038 35.1414C3.9038 34.815 4.14998 34.5456 4.46631 34.5078L8.79007 34.5029C9.22147 34.5029 9.57132 34.1531 9.57132 33.7217C9.57132 33.2903 9.22147 32.9404 8.79007 32.9404L3.20154 32.9453C2.84943 32.9453 2.56302 32.6589 2.56302 32.3068C2.56302 31.9548 2.84943 31.6684 3.20154 31.6684H8.79007C9.22147 31.6684 9.57132 31.3186 9.57132 30.8871C9.57132 30.4557 9.22147 30.1059 8.79007 30.1059H4.46631C4.14998 30.0682 3.9038 29.7987 3.9038 29.4724C3.9038 29.1204 4.19021 28.8339 4.54232 28.8339H8.79007C9.22147 28.8339 9.57132 28.4841 9.57132 28.0527C9.57132 27.6213 9.22147 27.2715 8.79007 27.2715H5.94975C5.6335 27.2337 5.38732 26.9643 5.38732 26.6379C5.38732 26.2858 5.67373 25.9994 6.02576 25.9994H13.9154C15.5681 25.9994 17.1212 26.644 18.2883 27.8143L19.2775 28.8064C19.4241 28.9534 19.6231 29.036 19.8307 29.036H24.4375V35.2178ZM24.4614 27.474H20.1549L19.3947 26.7116C18.077 25.3901 16.3667 24.604 14.5261 24.4613V20.1549L15.2885 19.3947C16.5892 18.0976 17.3903 16.3503 17.5377 14.526H21.8452L22.6054 15.2884C23.9232 16.6099 25.6335 17.396 27.4741 17.5387V21.8452L26.7117 22.6054C25.3902 23.923 24.604 25.6334 24.4614 27.474ZM39.3194 31.709C39.2169 31.8587 39.0619 31.9585 38.8832 31.99C38.5366 32.0514 38.2001 31.8314 38.1166 31.49L37.7324 29.9232C37.6112 29.429 37.1559 29.1152 36.6516 29.1758C36.1465 29.2368 35.78 29.6504 35.78 30.1591V37.4577C35.78 37.8098 35.4936 38.0962 35.1415 38.0962C34.8152 38.0962 34.5458 37.85 34.508 37.5337L34.5031 33.21C34.5031 32.7786 34.1533 32.4288 33.7219 32.4288C33.2904 32.4288 32.9406 32.7786 32.9406 33.21L32.9455 38.7986C32.9455 39.1507 32.6591 39.4371 32.307 39.4371C31.955 39.4371 31.6686 39.1507 31.6686 38.7986V33.21C31.6686 32.7786 31.3187 32.4288 30.8873 32.4288C30.4559 32.4288 30.1061 32.7786 30.1061 33.21V37.5337C30.0683 37.85 29.7989 38.0962 29.4725 38.0962C29.1204 38.0962 28.834 37.8098 28.834 37.4577V33.21C28.834 32.7786 28.4842 32.4288 28.0528 32.4288C27.6214 32.4288 27.2715 32.7786 27.2715 33.21V36.0508C27.2336 36.3669 26.9642 36.6128 26.6381 36.6128C26.286 36.6128 25.9996 36.3264 25.9996 35.9743V32.8311V30.7015V28.0847C25.9996 26.432 26.6442 24.879 27.8145 23.7118L28.8065 22.7226C28.9536 22.576 29.0361 22.3769 29.0361 22.1693V17.5626H30.701H32.0494V19.9324C32.0494 20.3639 32.3993 20.7136 32.8307 20.7136C33.2621 20.7136 33.6119 20.3639 33.6119 19.9324V17.5626H35.2177V22.1693C35.2177 22.3769 35.3004 22.576 35.4472 22.7226L36.982 24.253C37.8548 25.1233 38.442 26.2222 38.6802 27.4312L39.4237 31.201C39.4592 31.3789 39.4221 31.5594 39.3194 31.709Z" fill="white"/>
<path d="M40.957 30.8986L40.2137 27.1289C39.915 25.614 39.1791 24.2369 38.0858 23.1465L36.7805 21.845V17.4089C37.5962 17.0865 38.1751 16.2906 38.1751 15.3616C38.1751 15.1108 38.1324 14.8698 38.0548 14.6451C38.979 14.3841 39.6586 13.5337 39.6586 12.5271C39.6586 12.2612 39.6112 12.0062 39.5244 11.7701C40.3823 11.4694 40.9994 10.6519 40.9994 9.69273C40.9994 8.73344 40.3823 7.91609 39.5244 7.61539C39.6112 7.37922 39.6586 7.12422 39.6586 6.85836C39.6586 5.64469 38.6712 4.65743 37.4576 4.65743H33.0466C33.4515 4.16829 33.6463 3.51204 33.5287 2.8454C33.4237 2.24978 33.0911 1.73353 32.5922 1.39165C32.0934 1.04978 31.4918 0.92595 30.8986 1.04298L27.1288 1.78634C25.6139 2.08509 24.2368 2.82095 23.1465 3.9143L21.8449 5.21961H17.4088C17.0864 4.40383 16.2906 3.82493 15.3616 3.82493C15.1108 3.82493 14.8698 3.86766 14.6451 3.94532C14.3841 3.02102 13.5338 2.34149 12.5272 2.34149C12.2613 2.34149 12.0063 2.38892 11.7702 2.47571C11.4694 1.61782 10.652 1.00072 9.6928 1.00072C8.7335 1.00072 7.91616 1.6179 7.61545 2.47579C7.37928 2.38899 7.12428 2.34157 6.85842 2.34157C5.64482 2.34157 4.65748 3.32891 4.65748 4.54251V8.95351C4.16841 8.54867 3.51232 8.35398 2.84544 8.47148C2.24981 8.57648 1.73356 8.90906 1.39169 9.40797C1.04981 9.90679 0.925983 10.5084 1.04294 11.1016L1.78645 14.8714C2.08521 16.3863 2.82107 17.7633 3.91435 18.8537L5.21959 20.1552V24.5912C4.40373 24.9136 3.82474 25.7096 3.82474 26.6386C3.82474 26.8894 3.86748 27.1303 3.94513 27.3551C3.02083 27.6161 2.3413 28.4664 2.3413 29.473C2.3413 29.7389 2.38872 29.9939 2.47552 30.2301C1.61755 30.5308 1.00051 31.3482 1.00051 32.3075C1.00051 33.2668 1.61763 34.0841 2.47552 34.3847C2.38872 34.6209 2.3413 34.876 2.3413 35.1418C2.3413 36.3554 3.32872 37.3428 4.54224 37.3428H8.95327C8.54843 37.8319 8.35366 38.4881 8.47124 39.1547C8.57624 39.7503 8.90882 40.2666 9.40765 40.6084C9.7839 40.8663 10.2186 41.0001 10.6641 41.0001C10.8092 41.0001 10.9555 40.9858 11.1014 40.9571L14.8713 40.2137C16.386 39.915 17.7631 39.1792 18.8535 38.0858L20.1551 36.7805H24.5912C24.9136 37.5964 25.7095 38.1753 26.6386 38.1753C26.8893 38.1753 27.1303 38.1326 27.355 38.0549C27.6161 38.9792 28.4664 39.6587 29.4729 39.6587C29.7388 39.6587 29.9939 39.6113 30.23 39.5245C30.5307 40.3824 31.3481 40.9995 32.3073 40.9995C33.2666 40.9995 34.084 40.3824 34.3847 39.5245C34.6208 39.6113 34.8759 39.6587 35.1418 39.6587C36.3554 39.6587 37.3426 38.6713 37.3426 37.4578V33.0469C37.8318 33.4517 38.4877 33.6465 39.1547 33.5289C39.7503 33.4239 40.2666 33.0913 40.6084 32.5925C40.9501 32.0936 41.0741 31.492 40.957 30.8986ZM17.5627 11.2988V9.1693V6.78203H22.1693C22.3769 6.78203 22.576 6.69938 22.7225 6.55242L24.253 5.01766C25.1232 4.14509 26.2221 3.55774 27.4311 3.31938L31.201 2.57603C31.3791 2.54103 31.5595 2.57806 31.7092 2.68063C31.8589 2.78321 31.9586 2.93813 31.9901 3.11681C32.0512 3.46313 31.8315 3.79993 31.4901 3.88368L29.9235 4.26782C29.4293 4.38891 29.1149 4.84344 29.1759 5.34852C29.2369 5.8536 29.6504 6.22024 30.1593 6.22024H37.4579C37.81 6.22024 38.0964 6.50672 38.0964 6.85875C38.0964 7.185 37.8504 7.45438 37.5341 7.49219L33.2102 7.49719C32.7788 7.49719 32.429 7.84695 32.429 8.27844C32.429 8.70992 32.7788 9.05969 33.2102 9.05969L38.7987 9.05469C39.1508 9.05469 39.4373 9.34117 39.4373 9.6932C39.4373 10.0452 39.1508 10.3317 38.7987 10.3317H33.2102C32.7788 10.3317 32.429 10.6815 32.429 11.113C32.429 11.5444 32.7788 11.8942 33.2102 11.8942H37.5344C37.8505 11.9322 38.0964 12.2016 38.0964 12.5276C38.0964 12.8797 37.81 13.1662 37.4579 13.1662H33.2102C32.7788 13.1662 32.429 13.5159 32.429 13.9474C32.429 14.3789 32.7788 14.7287 33.2102 14.7287H36.0508C36.3669 14.7666 36.613 15.0359 36.613 15.3622C36.613 15.7142 36.3265 16.0006 35.9745 16.0006H28.0848C26.432 16.0006 24.8789 15.3561 23.7119 14.1857L22.7227 13.1937C22.5761 13.0467 22.3771 12.9641 22.1695 12.9641H17.5627V11.2988ZM5.01756 17.747C4.1449 16.8769 3.55763 15.778 3.31935 14.5689L2.57591 10.7991C2.54075 10.6211 2.57794 10.4406 2.68052 10.2909C2.7831 10.1412 2.93802 10.0415 3.11669 10.01C3.46341 9.94906 3.79974 10.1686 3.88349 10.5101L4.26755 12.0766C4.38857 12.5708 4.84342 12.8847 5.34818 12.8242C5.85334 12.7633 6.21998 12.3497 6.21998 11.8409V4.54235C6.21998 4.19032 6.50639 3.90384 6.8585 3.90384C7.18467 3.90384 7.45397 4.14977 7.49194 4.46587L7.49694 8.79C7.49694 9.22148 7.84678 9.57125 8.27819 9.57125C8.7096 9.57125 9.05944 9.22148 9.05944 8.79V4.54235C9.05944 4.49477 9.05741 4.44774 9.05444 4.40087V3.20149C9.05444 2.84946 9.34085 2.56306 9.69296 2.56306C10.0451 2.56306 10.3315 2.84946 10.3315 3.20149V4.40094C10.3285 4.44774 10.3265 4.49485 10.3265 4.54243L10.3315 8.79008C10.3315 9.22156 10.6813 9.57133 11.1127 9.57133C11.5441 9.57133 11.894 9.22156 11.894 8.79008V4.46587C11.9319 4.14977 12.2013 3.90384 12.5274 3.90384C12.8795 3.90384 13.1659 4.19032 13.1659 4.54235C13.1659 4.54235 13.1628 8.34297 13.1659 8.37141V8.79008C13.1659 9.22156 13.5158 9.57133 13.9472 9.57133C14.3786 9.57133 14.7284 9.22156 14.7284 8.79008V5.9493C14.7664 5.63321 15.0358 5.38727 15.3619 5.38727C15.714 5.38727 16.0004 5.67375 16.0004 6.02579V13.9154C16.0004 15.5442 15.3388 17.1381 14.1855 18.2883L13.1935 19.2775C13.0465 19.424 12.9639 19.6231 12.9639 19.8307V24.4373H11.4015V22.363C11.4015 21.9316 11.0516 21.5818 10.6202 21.5818C10.1888 21.5818 9.83898 21.9316 9.83898 22.363V24.4373H6.78201V19.8307C6.78201 19.6231 6.69936 19.424 6.5524 19.2775L5.01756 17.747ZM24.4375 35.2178H19.8307V35.2179C19.6231 35.2179 19.4241 35.3006 19.2775 35.4475L17.747 36.9822C16.8768 37.8549 15.7779 38.4422 14.5689 38.6804L10.7991 39.4239C10.6209 39.4591 10.4405 39.4219 10.2909 39.3192C10.1412 39.2166 10.0414 39.0617 10.0099 38.8831C9.94882 38.5368 10.1685 38.2 10.5099 38.1164L12.0767 37.7322C12.5708 37.611 12.8852 37.1566 12.8241 36.6515C12.7631 36.1464 12.3495 35.7799 11.8408 35.7799H4.54232C4.19021 35.7799 3.9038 35.4935 3.9038 35.1414C3.9038 34.815 4.14998 34.5456 4.46631 34.5078L8.79007 34.5029C9.22147 34.5029 9.57132 34.1531 9.57132 33.7217C9.57132 33.2903 9.22147 32.9404 8.79007 32.9404L3.20154 32.9453C2.84943 32.9453 2.56302 32.6589 2.56302 32.3068C2.56302 31.9548 2.84943 31.6684 3.20154 31.6684H8.79007C9.22147 31.6684 9.57132 31.3186 9.57132 30.8871C9.57132 30.4557 9.22147 30.1059 8.79007 30.1059H4.46631C4.14998 30.0682 3.9038 29.7987 3.9038 29.4724C3.9038 29.1204 4.19021 28.8339 4.54232 28.8339H8.79007C9.22147 28.8339 9.57132 28.4841 9.57132 28.0527C9.57132 27.6213 9.22147 27.2715 8.79007 27.2715H5.94975C5.6335 27.2337 5.38732 26.9643 5.38732 26.6379C5.38732 26.2858 5.67373 25.9994 6.02576 25.9994H13.9154C15.5681 25.9994 17.1212 26.644 18.2883 27.8143L19.2775 28.8064C19.4241 28.9534 19.6231 29.036 19.8307 29.036H24.4375V35.2178ZM24.4614 27.474H20.1549L19.3947 26.7116C18.077 25.3901 16.3667 24.604 14.5261 24.4613V20.1549L15.2885 19.3947C16.5892 18.0976 17.3903 16.3503 17.5377 14.526H21.8452L22.6054 15.2884C23.9232 16.6099 25.6335 17.396 27.4741 17.5387V21.8452L26.7117 22.6054C25.3902 23.923 24.604 25.6334 24.4614 27.474ZM39.3194 31.709C39.2169 31.8587 39.0619 31.9585 38.8832 31.99C38.5366 32.0514 38.2001 31.8314 38.1166 31.49L37.7324 29.9232C37.6112 29.429 37.1559 29.1152 36.6516 29.1758C36.1465 29.2368 35.78 29.6504 35.78 30.1591V37.4577C35.78 37.8098 35.4936 38.0962 35.1415 38.0962C34.8152 38.0962 34.5458 37.85 34.508 37.5337L34.5031 33.21C34.5031 32.7786 34.1533 32.4288 33.7219 32.4288C33.2904 32.4288 32.9406 32.7786 32.9406 33.21L32.9455 38.7986C32.9455 39.1507 32.6591 39.4371 32.307 39.4371C31.955 39.4371 31.6686 39.1507 31.6686 38.7986V33.21C31.6686 32.7786 31.3187 32.4288 30.8873 32.4288C30.4559 32.4288 30.1061 32.7786 30.1061 33.21V37.5337C30.0683 37.85 29.7989 38.0962 29.4725 38.0962C29.1204 38.0962 28.834 37.8098 28.834 37.4577V33.21C28.834 32.7786 28.4842 32.4288 28.0528 32.4288C27.6214 32.4288 27.2715 32.7786 27.2715 33.21V36.0508C27.2336 36.3669 26.9642 36.6128 26.6381 36.6128C26.286 36.6128 25.9996 36.3264 25.9996 35.9743V32.8311V30.7015V28.0847C25.9996 26.432 26.6442 24.879 27.8145 23.7118L28.8065 22.7226C28.9536 22.576 29.0361 22.3769 29.0361 22.1693V17.5626H30.701H32.0494V19.9324C32.0494 20.3639 32.3993 20.7136 32.8307 20.7136C33.2621 20.7136 33.6119 20.3639 33.6119 19.9324V17.5626H35.2177V22.1693C35.2177 22.3769 35.3004 22.576 35.4472 22.7226L36.982 24.253C37.8548 25.1233 38.442 26.2222 38.6802 27.4312L39.4237 31.201C39.4592 31.3789 39.4221 31.5594 39.3194 31.709Z" stroke="#4461D7" stroke-width="0.4" mask="url(#path-1-outside-1)"/>
</svg>
