<svg width="40" height="40" viewBox="0 0 40 40" fill="none" xmlns="http://www.w3.org/2000/svg">
<path d="M39.9531 2.98607C39.8665 1.39717 38.6028 0.133662 37.0139 0.0469433C33.8078 -0.128212 27.5341 0.0421779 21.535 3.14506C18.4768 4.72693 15.2424 7.40887 12.6613 10.5032C12.6295 10.5414 12.5985 10.5797 12.567 10.6179L6.70916 11.0704C5.74494 11.1449 4.88611 11.6503 4.35283 12.4569L0.356426 18.5016C-0.0480274 19.1133 -0.112324 19.8788 0.184316 20.5494C0.481035 21.22 1.09072 21.6873 1.81533 21.7996L6.75057 22.564C6.73314 22.6599 6.71564 22.7558 6.69963 22.8517C6.53533 23.8345 6.86096 24.845 7.5708 25.5547L14.4452 32.4292C15.0337 33.0177 15.8289 33.3421 16.6438 33.3421C16.8116 33.3421 16.9803 33.3283 17.1483 33.3003C17.2442 33.2842 17.3401 33.2667 17.436 33.2493L18.2004 38.1846C18.3127 38.9092 18.78 39.519 19.4505 39.8156C19.7295 39.9391 20.0247 40 20.3186 40C20.7313 39.9999 21.1412 39.8798 21.4984 39.6436L27.5431 35.6471C28.3497 35.1138 28.855 34.2549 28.9294 33.2908L29.3819 27.4331C29.4201 27.4015 29.4585 27.3706 29.4967 27.3388C32.5911 24.7576 35.2731 21.5233 36.8549 18.465C39.958 12.4657 40.1281 6.19192 39.9531 2.98607ZM26.2505 33.692L20.4684 37.5149L19.7234 32.7051C22.1671 31.9866 24.5846 30.8358 26.8876 29.2942L26.5928 33.1102C26.5745 33.3482 26.4496 33.5603 26.2505 33.692ZM16.1024 30.7719L9.22799 23.8975C9.0526 23.722 8.9715 23.4755 9.01127 23.2381C9.21564 22.016 9.53322 20.8526 9.92635 19.7567L20.241 30.0714C18.9248 30.5428 17.7458 30.8241 16.7618 30.9886C16.524 31.0282 16.2778 30.9473 16.1024 30.7719ZM6.88971 13.4072L10.7056 13.1124C9.16393 15.4155 8.01314 17.8329 7.29463 20.2766L2.48494 19.5317L6.30791 13.7495C6.43963 13.5503 6.65174 13.4256 6.88971 13.4072ZM27.9956 25.5389C26.1024 27.118 24.2646 28.2602 22.5707 29.0867L10.9128 17.4288C11.9955 15.2176 13.3168 13.3763 14.461 12.0046C16.8497 9.14089 19.8206 6.67051 22.6119 5.22677C28.1177 2.37889 33.9185 2.22553 36.8863 2.38709C37.2792 2.4085 37.5916 2.72092 37.613 3.11381C37.7748 6.08161 37.6211 11.8824 34.7732 17.3882C33.3295 20.1794 30.8592 23.1502 27.9956 25.5389Z" fill="white"/>
<path d="M27.4012 18.4562C28.9014 18.4561 30.4021 17.885 31.5443 16.7429C32.651 15.6362 33.2603 14.1648 33.2603 12.5998C33.2603 11.0348 32.6509 9.56344 31.5443 8.4568C29.2597 6.1722 25.5425 6.17235 23.2582 8.4568C22.1514 9.56344 21.542 11.0348 21.542 12.5998C21.542 14.1648 22.1515 15.6362 23.2582 16.7429C24.4005 17.8852 25.9005 18.4564 27.4012 18.4562ZM24.9153 10.114C25.6006 9.4286 26.5008 9.08594 27.4011 9.08594C28.3014 9.08594 29.2016 9.4286 29.8869 10.114C30.5509 10.778 30.9165 11.6608 30.9165 12.5998C30.9165 13.5387 30.5509 14.4216 29.8869 15.0856C28.5163 16.4563 26.2859 16.4562 24.9152 15.0856C24.2512 14.4216 23.8855 13.5388 23.8855 12.5998C23.8855 11.6609 24.2513 10.778 24.9153 10.114Z" fill="white"/>
<path d="M1.19527 32.9638C1.4952 32.9638 1.79512 32.8494 2.02387 32.6205L5.84988 28.7945C6.30754 28.3368 6.30754 27.5949 5.84988 27.1372C5.3923 26.6795 4.65027 26.6795 4.19262 27.1372L0.36668 30.9632C-0.0909766 31.4209 -0.0909766 32.1629 0.36668 32.6205C0.59543 32.8493 0.895352 32.9638 1.19527 32.9638Z" fill="white"/>
<path d="M9.3563 30.6435C8.89872 30.1859 8.15668 30.1859 7.69903 30.6435L0.343242 37.9993C-0.114414 38.457 -0.114414 39.1989 0.343242 39.6566C0.572071 39.8854 0.871915 39.9998 1.17184 39.9998C1.47176 39.9998 1.77168 39.8854 2.00043 39.6565L9.35622 32.3008C9.81395 31.8431 9.81395 31.1012 9.3563 30.6435Z" fill="white"/>
<path d="M11.2054 34.1499L7.37937 37.9759C6.92172 38.4336 6.92172 39.1756 7.37937 39.6332C7.6082 39.862 7.90812 39.9765 8.20797 39.9765C8.50781 39.9765 8.80781 39.8621 9.03656 39.6332L12.8626 35.8072C13.3202 35.3495 13.3202 34.6075 12.8626 34.1499C12.405 33.6922 11.663 33.6922 11.2054 34.1499Z" fill="white"/>
</svg>
