<svg width="671" height="535" viewBox="0 0 671 535" fill="none" xmlns="http://www.w3.org/2000/svg">
<rect width="671" height="535" fill="#051441"/>
<path d="M318.187 75.9375H321C321.799 75.9375 322.518 75.4931 322.875 74.7787L322.973 74.5809L324.65 75.42L324.552 75.6178C323.875 76.9716 322.514 77.8125 321 77.8125H318.187V75.9375ZM323.812 113.438H318.187V115.312H323.812V113.438ZM323.812 109.688H318.187V111.562H323.812V109.688ZM323.812 105.938H318.187V107.812H323.812V105.938ZM350.062 104.062V117.188C350.062 118.222 349.221 119.062 348.187 119.062H338.812C337.778 119.062 336.937 118.222 336.937 117.188V104.062C336.937 103.028 337.778 102.188 338.812 102.188H341.237L334.54 95.4909C330.629 97.2656 326.357 98.2791 321.937 98.4056V102.188H325.687C326.721 102.188 327.562 103.028 327.562 104.062V117.188C327.562 118.222 326.721 119.062 325.687 119.062H316.312C315.278 119.062 314.437 118.222 314.437 117.188V104.062C314.437 103.028 315.278 102.188 316.312 102.188H320.062V98.4056C315.643 98.2791 311.371 97.2656 307.459 95.4909L300.763 102.188H303.187C304.221 102.188 305.062 103.028 305.062 104.062V117.188C305.062 118.222 304.221 119.062 303.187 119.062H293.812C292.778 119.062 291.937 118.222 291.937 117.188V104.062C291.937 103.028 292.778 102.188 293.812 102.188H298.112L305.679 94.62C300.152 91.6969 295.466 87.2194 292.324 81.5644L291.801 80.625L292.324 79.6856C296.564 72.0553 303.795 66.3656 312.196 64.0219C313.585 62.1544 315.801 60.9375 318.302 60.9375H323.697C326.198 60.9375 328.414 62.1544 329.804 64.0219C338.205 66.3656 345.436 72.0544 349.675 79.6856L350.198 80.625L349.675 81.5644C346.533 87.2194 341.848 91.6969 336.32 94.62L343.888 102.188H348.187C349.221 102.188 350.062 103.028 350.062 104.062ZM303.187 104.062H293.812V117.188H303.189L303.187 104.062ZM325.687 104.062H316.312V117.188H325.689L325.687 104.062ZM332.252 66.8156C336.392 70.1822 338.812 75.2025 338.812 80.625C338.812 86.1881 336.245 91.1597 332.238 94.4287C338.84 91.8497 344.484 87.0487 348.036 80.6541L348.051 80.625L348.035 80.5959C344.545 74.3128 338.901 69.4266 332.252 66.8156ZM314.437 72.1875C313.403 72.1875 312.562 73.0284 312.562 74.0625C312.562 75.0966 313.403 75.9375 314.437 75.9375V72.1875ZM310.687 68.5528C310.687 68.5256 310.691 68.4994 310.691 68.4731C307.134 71.4816 305.062 75.8813 305.062 80.625C305.062 84.5634 306.505 88.1653 308.881 90.9497C309.339 86.6381 312.326 82.9931 316.517 81.7294L316.789 80.9156C315.65 80.2547 314.803 79.1437 314.532 77.8125H314.437C312.369 77.8125 310.687 76.1306 310.687 74.0625C310.687 73.2984 310.92 72.5878 311.313 71.9944L310.915 70.3997C310.764 69.7978 310.687 69.1762 310.687 68.5528ZM327.562 75.9375C328.596 75.9375 329.437 75.0966 329.437 74.0625C329.437 73.0284 328.596 72.1875 327.562 72.1875V75.9375ZM325.209 80.9156L325.481 81.7294C329.673 82.9931 332.659 86.6372 333.118 90.9497C335.494 88.1653 336.937 84.5634 336.937 80.625C336.937 75.8803 334.865 71.4806 331.308 68.4722C331.308 68.4994 331.312 68.5256 331.312 68.5528C331.312 69.1762 331.235 69.7978 331.084 70.4006L330.686 71.9944C331.08 72.5878 331.312 73.2984 331.312 74.0625C331.312 76.1306 329.63 77.8125 327.562 77.8125H327.467C327.197 79.1428 326.349 80.2537 325.209 80.9156ZM318.569 81.5063L318.396 82.0247L321 83.3269L323.603 82.0256L323.431 81.5072C323.246 81.5287 323.065 81.5625 322.875 81.5625H319.125C318.934 81.5625 318.753 81.5288 318.569 81.5063ZM325.245 85.8291L326.046 83.9428C325.66 83.7684 325.256 83.6241 324.841 83.5031L322.947 84.45L325.245 85.8291ZM315.953 83.9428L316.755 85.8291L319.053 84.45L317.16 83.5031C316.744 83.6231 316.339 83.7675 315.953 83.9428ZM310.687 92.1056V92.7544C312.359 94.1775 314.325 95.2612 316.483 95.9006L319.057 88.1766L318.51 86.9616L315.87 88.545L314.323 84.9009C312.09 86.5528 310.687 89.19 310.687 92.1056ZM321.332 87.1875L321.871 85.9903L321 85.4681L320.129 85.9903L320.668 87.1875H321.332ZM322.942 88.1766L325.517 95.9006C327.675 95.2612 329.641 94.1775 331.312 92.7544V92.1056C331.312 89.19 329.91 86.5528 327.677 84.9019L326.13 88.5459L323.49 86.9625L322.942 88.1766ZM325.687 72.0984L320.888 71.6184C319.365 71.4656 318.06 70.6613 317.237 69.495C316.664 69.8316 316.312 70.4409 316.312 71.1131V76.875C316.312 78.4256 317.574 79.6875 319.125 79.6875H322.875C324.425 79.6875 325.687 78.4256 325.687 76.875V72.0984ZM321 96.5625C321.915 96.5625 322.807 96.4678 323.68 96.3188L321.262 89.0625H320.737L318.319 96.3188C319.192 96.4678 320.085 96.5625 321 96.5625ZM312.562 68.5528C312.562 69.0225 312.62 69.4913 312.734 69.9441L312.909 70.6453C313.377 70.4353 313.892 70.3125 314.437 70.3125H314.531C314.764 69.2344 315.452 68.3062 316.458 67.785C316.363 67.3931 316.312 66.9834 316.312 66.5625H318.187C318.187 68.2172 319.428 69.5887 321.075 69.7528L326.674 70.3125H327.562C328.108 70.3125 328.623 70.4353 329.091 70.6462L329.267 69.9459C329.379 69.4913 329.437 69.0225 329.437 68.5528C329.437 65.3878 326.862 62.8125 323.697 62.8125H318.302C315.137 62.8125 312.562 65.3878 312.562 68.5528ZM309.761 94.4287C305.754 91.1597 303.187 86.1881 303.187 80.625C303.187 75.2016 305.608 70.1813 309.751 66.8147C303.099 69.4247 297.454 74.3119 293.963 80.5959L293.948 80.625L293.964 80.6541C297.516 87.0487 303.159 91.8497 309.761 94.4287ZM348.189 117.188L348.187 104.062H338.812V117.188H348.189ZM301.312 113.438H295.687V115.312H301.312V113.438ZM301.312 109.688H295.687V111.562H301.312V109.688ZM301.312 105.938H295.687V107.812H301.312V105.938ZM342.417 111.967L341.35 110.9L340.024 112.225L342.708 114.908L347.092 108.332L345.532 107.292L342.417 111.967Z" fill="white"/>
<g filter="url(#filter0_d)">
<path d="M344.673 219.915H305.875C302.508 219.915 299.768 222.629 299.768 225.954L299.518 260.118H291.947C291.41 260.118 291 260.592 291 261.129V265.83C291 270.232 294.522 273.831 298.773 274.029V274.085H331.445V274.021C331.688 274.031 331.835 274.085 332.002 274.085H332.026C336.559 274.058 340.214 270.363 340.19 265.829V235.947H350.054C350.59 235.947 351 235.462 351 234.925V226.299C351.006 222.793 348.179 219.94 344.673 219.915ZM299.198 272.142H299.192C295.735 272.142 292.943 269.285 292.943 265.829V262.061H323.793V265.813C323.786 268 324.65 270.1 326.194 271.649C326.358 271.814 326.53 271.899 326.706 272.142H299.198ZM338.247 265.828C338.247 269.285 335.482 272.142 332.024 272.142H332.004C328.529 272.117 325.729 269.288 325.737 265.814V261.129C325.74 260.584 325.309 260.137 324.765 260.118H301.462L301.712 225.96C301.712 223.701 303.579 221.858 305.875 221.858H340.085C338.978 223.073 338.247 224.61 338.247 226.325V265.828ZM349.057 226.316V234.004H340.19V226.323C340.19 223.891 342.213 221.858 344.644 221.858H344.671C347.109 221.883 349.068 223.871 349.057 226.309V226.316Z" fill="white"/>
<path d="M313.816 243.832L318.826 247.257C319.153 247.482 319.585 247.482 319.912 247.257L324.906 243.833C326.641 242.649 327.923 240.174 327.923 238.076V231.146C327.933 230.78 327.731 230.44 327.405 230.273L319.777 226.522C319.509 226.389 319.195 226.389 318.928 226.522L311.314 230.263C310.988 230.43 310.786 230.769 310.797 231.136V238.076C310.797 240.174 312.082 242.649 313.816 243.832ZM312.741 231.742L319.36 228.476L325.979 231.751V238.076C325.979 239.539 325.02 241.401 323.81 242.226L319.349 245.277L314.905 242.227C313.695 241.401 312.741 239.539 312.741 238.076V231.742Z" fill="white"/>
<path d="M317.717 239.543C317.898 239.728 318.146 239.833 318.405 239.834H318.408C318.666 239.833 318.913 239.73 319.095 239.547L322.96 235.68C323.34 235.3 323.34 234.684 322.96 234.305C322.581 233.925 321.965 233.925 321.586 234.304L318.411 237.479L317.142 236.197C316.764 235.816 316.148 235.813 315.767 236.191C315.385 236.569 315.383 237.185 315.761 237.566L317.717 239.543Z" fill="white"/>
<path d="M331.445 250.036H308.126C307.589 250.036 307.154 250.471 307.154 251.008C307.154 251.545 307.589 251.98 308.126 251.98H331.445C331.982 251.98 332.417 251.545 332.417 251.008C332.417 250.471 331.982 250.036 331.445 250.036Z" fill="white"/>
<path d="M331.445 254.53H308.126C307.589 254.53 307.154 254.965 307.154 255.502C307.154 256.038 307.589 256.474 308.126 256.474H331.445C331.982 256.474 332.417 256.038 332.417 255.502C332.417 254.965 331.982 254.53 331.445 254.53Z" fill="white"/>
</g>
<path d="M302.25 433.438V409.062C302.251 408.317 302.547 407.602 303.075 407.075C303.602 406.547 304.317 406.251 305.062 406.25H342.562C343.308 406.251 344.023 406.547 344.55 407.075C345.078 407.602 345.374 408.317 345.375 409.062V414.688H347.25V409.062C347.249 407.82 346.754 406.628 345.875 405.75C344.997 404.871 343.805 404.376 342.562 404.375V390.152C342.564 389.782 342.491 389.416 342.35 389.075C342.208 388.733 342.001 388.423 341.739 388.163L336.275 382.699C336.014 382.437 335.704 382.229 335.363 382.088C335.021 381.946 334.655 381.874 334.286 381.875H306C305.254 381.876 304.54 382.172 304.012 382.7C303.485 383.227 303.188 383.942 303.188 384.688V395.938H297.562C296.32 395.939 295.128 396.433 294.249 397.312C293.371 398.191 292.876 399.382 292.875 400.625V433.438C292.876 434.68 293.371 435.872 294.249 436.75C295.128 437.629 296.32 438.124 297.562 438.125H334.125V436.25H301.31C301.921 435.44 302.251 434.452 302.25 433.438ZM335.062 384.138L339.362 388.438H336C335.751 388.437 335.513 388.338 335.337 388.163C335.162 387.987 335.063 387.749 335.062 387.5V384.138ZM335.062 402.5H338.812V400.625H335.062V397.812H338.812V395.938H335.062V390.151C335.363 390.258 335.681 390.313 336 390.312H340.688V404.375H335.062V402.5ZM333.188 383.75V387.112L329.826 383.75H333.188ZM327.562 384.138L331.862 388.438H328.5C328.251 388.437 328.013 388.338 327.837 388.163C327.662 387.987 327.563 387.749 327.562 387.5V384.138ZM305.062 384.688C305.063 384.439 305.162 384.201 305.337 384.025C305.513 383.849 305.751 383.75 306 383.75H325.688V387.5C325.688 388.246 325.985 388.961 326.512 389.488C327.039 390.015 327.754 390.312 328.5 390.312H333.188V404.375H305.062V384.688ZM300.375 433.438C300.375 434.183 300.079 434.899 299.551 435.426C299.024 435.954 298.308 436.25 297.562 436.25C296.817 436.25 296.101 435.954 295.574 435.426C295.046 434.899 294.75 434.183 294.75 433.438V400.625C294.751 399.879 295.047 399.164 295.575 398.637C296.102 398.11 296.817 397.813 297.562 397.812H303.188V404.768C302.352 405.133 301.641 405.734 301.142 406.496C300.643 407.259 300.376 408.151 300.375 409.062V433.438Z" fill="white"/>
<path d="M345.375 425.22V421.03L342.531 420.348L342.033 419.147L343.567 416.645L340.605 413.684L338.103 415.217L336.902 414.719L336.22 411.875H332.03L331.348 414.719L330.147 415.217L327.645 413.683L324.684 416.645L326.217 419.147L325.719 420.348L322.875 421.03V425.22L325.719 425.902L326.217 427.103L324.683 429.605L327.645 432.566L330.147 431.033L331.348 431.531L332.03 434.375H336.22L336.902 431.531L338.103 431.033L340.605 432.567L343.567 429.605L342.033 427.103L342.531 425.902L345.375 425.22ZM341.195 429.324L340.324 430.195L338.267 428.935L335.301 430.164L334.741 432.5H333.509L332.949 430.165L329.983 428.935L327.926 430.195L327.055 429.324L328.315 427.267L327.085 424.301L324.75 423.741V422.509L327.085 421.949L328.315 418.983L327.055 416.926L327.926 416.055L329.982 417.315L332.949 416.085L333.509 413.75H334.741L335.301 416.086L338.267 417.315L340.324 416.055L341.195 416.926L339.935 418.983L341.165 421.949L343.5 422.509V423.741L341.165 424.301L339.935 427.267L341.195 429.324Z" fill="white"/>
<path d="M334.125 418.438C333.198 418.438 332.292 418.712 331.521 419.228C330.75 419.743 330.149 420.475 329.794 421.331C329.44 422.188 329.347 423.13 329.528 424.04C329.708 424.949 330.155 425.784 330.81 426.44C331.466 427.095 332.301 427.542 333.21 427.722C334.12 427.903 335.062 427.81 335.919 427.456C336.775 427.101 337.507 426.5 338.023 425.729C338.538 424.958 338.813 424.052 338.813 423.125C338.811 421.882 338.317 420.691 337.438 419.812C336.559 418.933 335.368 418.439 334.125 418.438ZM334.125 425.938C333.569 425.938 333.025 425.773 332.563 425.464C332.1 425.155 331.74 424.715 331.527 424.201C331.314 423.687 331.258 423.122 331.367 422.576C331.475 422.031 331.743 421.53 332.136 421.136C332.53 420.743 333.031 420.475 333.576 420.367C334.122 420.258 334.687 420.314 335.201 420.527C335.715 420.739 336.155 421.1 336.464 421.562C336.773 422.025 336.938 422.569 336.938 423.125C336.937 423.871 336.64 424.586 336.113 425.113C335.586 425.64 334.871 425.937 334.125 425.938Z" fill="white"/>
<path d="M325.688 391.25H306.938V393.125H325.688V391.25Z" fill="white"/>
<path d="M331.312 395.938H306.938V397.812H331.312V395.938Z" fill="white"/>
<path d="M331.312 400.625H306.938V402.5H331.312V400.625Z" fill="white"/>
<path d="M328.875 411.092L328.125 409.374C324.48 410.967 321.616 413.943 320.163 417.646C318.709 421.349 318.785 425.478 320.374 429.125L322.092 428.375C320.703 425.183 320.637 421.57 321.908 418.33C323.18 415.09 325.686 412.486 328.875 411.092Z" fill="white"/>
<path d="M332.374 410.116L332.126 408.257C331.451 408.347 330.782 408.483 330.125 408.664L330.624 410.472C331.199 410.313 331.783 410.194 332.374 410.116Z" fill="white"/>
<path d="M347.876 417.125L346.158 417.876C347.547 421.067 347.613 424.68 346.342 427.92C345.07 431.161 342.564 433.764 339.375 435.158L340.125 436.877C343.77 435.283 346.634 432.308 348.087 428.604C349.541 424.901 349.465 420.772 347.876 417.125Z" fill="white"/>
<path d="M335.876 436.134L336.124 437.993C336.799 437.903 337.467 437.767 338.124 437.586L337.625 435.778C337.051 435.937 336.466 436.056 335.876 436.134Z" fill="white"/>
<path d="M323.812 386.562H306.938V388.438H323.812V386.562Z" fill="white"/>
<defs>
<filter id="filter0_d" x="287" y="219.915" width="68" height="62.1701" filterUnits="userSpaceOnUse" color-interpolation-filters="sRGB">
<feFlood flood-opacity="0" result="BackgroundImageFix"/>
<feColorMatrix in="SourceAlpha" type="matrix" values="0 0 0 0 0 0 0 0 0 0 0 0 0 0 0 0 0 0 127 0"/>
<feOffset dy="4"/>
<feGaussianBlur stdDeviation="2"/>
<feColorMatrix type="matrix" values="0 0 0 0 0 0 0 0 0 0 0 0 0 0 0 0 0 0 0.25 0"/>
<feBlend mode="normal" in2="BackgroundImageFix" result="effect1_dropShadow"/>
<feBlend mode="normal" in="SourceGraphic" in2="effect1_dropShadow" result="shape"/>
</filter>
</defs>
</svg>
