<svg width="671" height="535" viewBox="0 0 671 535" fill="none" xmlns="http://www.w3.org/2000/svg">
<rect width="671" height="535" fill="#051441"/>
<g filter="url(#filter0_d)">
<path d="M353.312 56.8125H302.688C301.942 56.8134 301.227 57.11 300.7 57.6372C300.172 58.1645 299.876 58.8794 299.875 59.625V108.375C299.876 109.121 300.172 109.836 300.7 110.363C301.227 110.89 301.942 111.187 302.688 111.188H353.312C354.058 111.187 354.773 110.89 355.3 110.363C355.828 109.836 356.124 109.121 356.125 108.375V59.625C356.124 58.8794 355.828 58.1645 355.3 57.6372C354.773 57.11 354.058 56.8134 353.312 56.8125ZM302.688 58.6875H353.312C353.561 58.6878 353.799 58.7866 353.975 58.9624C354.151 59.1381 354.25 59.3765 354.25 59.625V64.3125H301.75V59.625C301.75 59.3765 301.849 59.1381 302.025 58.9624C302.201 58.7866 302.439 58.6878 302.688 58.6875ZM353.312 109.312H302.688C302.439 109.312 302.201 109.213 302.025 109.038C301.849 108.862 301.75 108.624 301.75 108.375V66.1875H354.25V108.375C354.25 108.624 354.151 108.862 353.975 109.038C353.799 109.213 353.561 109.312 353.312 109.312Z" fill="white"/>
<path d="M312.062 62.4375C312.58 62.4375 313 62.0178 313 61.5C313 60.9822 312.58 60.5625 312.062 60.5625C311.545 60.5625 311.125 60.9822 311.125 61.5C311.125 62.0178 311.545 62.4375 312.062 62.4375Z" fill="white"/>
<path d="M308.312 62.4375C308.83 62.4375 309.25 62.0178 309.25 61.5C309.25 60.9822 308.83 60.5625 308.312 60.5625C307.795 60.5625 307.375 60.9822 307.375 61.5C307.375 62.0178 307.795 62.4375 308.312 62.4375Z" fill="white"/>
<path d="M304.562 62.4375C305.08 62.4375 305.5 62.0178 305.5 61.5C305.5 60.9822 305.08 60.5625 304.562 60.5625C304.045 60.5625 303.625 60.9822 303.625 61.5C303.625 62.0178 304.045 62.4375 304.562 62.4375Z" fill="white"/>
<path d="M349.562 69.9375H306.438C306.189 69.9375 305.95 70.0363 305.775 70.2121C305.599 70.3879 305.5 70.6264 305.5 70.875V85.875C305.5 86.1236 305.599 86.3621 305.775 86.5379C305.95 86.7137 306.189 86.8125 306.438 86.8125H349.562C349.811 86.8125 350.05 86.7137 350.225 86.5379C350.401 86.3621 350.5 86.1236 350.5 85.875V70.875C350.5 70.6264 350.401 70.3879 350.225 70.2121C350.05 70.0363 349.811 69.9375 349.562 69.9375ZM348.625 84.9375H345.812V78.375C345.812 78.1264 345.714 77.8879 345.538 77.7121C345.362 77.5363 345.124 77.4375 344.875 77.4375C344.626 77.4375 344.388 77.5363 344.212 77.7121C344.036 77.8879 343.938 78.1264 343.938 78.375V84.9375H342.062V82.125C342.062 81.8764 341.964 81.6379 341.788 81.4621C341.612 81.2863 341.374 81.1875 341.125 81.1875C340.876 81.1875 340.638 81.2863 340.462 81.4621C340.286 81.6379 340.188 81.8764 340.188 82.125V84.9375H338.312V80.25C338.312 80.0014 338.214 79.7629 338.038 79.5871C337.862 79.4113 337.624 79.3125 337.375 79.3125C337.126 79.3125 336.888 79.4113 336.712 79.5871C336.536 79.7629 336.438 80.0014 336.438 80.25V84.9375H334.562V82.125C334.562 81.8764 334.464 81.6379 334.288 81.4621C334.112 81.2863 333.874 81.1875 333.625 81.1875C333.376 81.1875 333.138 81.2863 332.962 81.4621C332.786 81.6379 332.688 81.8764 332.688 82.125V84.9375H330.812V78.375C330.812 78.1264 330.714 77.8879 330.538 77.7121C330.362 77.5363 330.124 77.4375 329.875 77.4375C329.626 77.4375 329.388 77.5363 329.212 77.7121C329.036 77.8879 328.938 78.1264 328.938 78.375V84.9375H327.062V76.5C327.062 76.2514 326.964 76.0129 326.788 75.8371C326.612 75.6613 326.374 75.5625 326.125 75.5625C325.876 75.5625 325.638 75.6613 325.462 75.8371C325.286 76.0129 325.188 76.2514 325.188 76.5V84.9375H323.312V78.375C323.312 78.1264 323.214 77.8879 323.038 77.7121C322.862 77.5363 322.624 77.4375 322.375 77.4375C322.126 77.4375 321.888 77.5363 321.712 77.7121C321.536 77.8879 321.438 78.1264 321.438 78.375V84.9375H319.562V80.25C319.562 80.0014 319.464 79.7629 319.288 79.5871C319.112 79.4113 318.874 79.3125 318.625 79.3125C318.376 79.3125 318.138 79.4113 317.962 79.5871C317.786 79.7629 317.688 80.0014 317.688 80.25V84.9375H315.812V78.375C315.812 78.1264 315.714 77.8879 315.538 77.7121C315.362 77.5363 315.124 77.4375 314.875 77.4375C314.626 77.4375 314.388 77.5363 314.212 77.7121C314.036 77.8879 313.938 78.1264 313.938 78.375V84.9375H312.062V82.125C312.062 81.8764 311.964 81.6379 311.788 81.4621C311.612 81.2863 311.374 81.1875 311.125 81.1875C310.876 81.1875 310.638 81.2863 310.462 81.4621C310.286 81.6379 310.188 81.8764 310.188 82.125V84.9375H307.375V71.8125H348.625V84.9375Z" fill="white"/>
<path d="M313 90.5625C311.517 90.5625 310.067 91.0024 308.833 91.8265C307.6 92.6506 306.639 93.8219 306.071 95.1924C305.503 96.5628 305.355 98.0708 305.644 99.5257C305.934 100.98 306.648 102.317 307.697 103.366C308.746 104.415 310.082 105.129 311.537 105.418C312.992 105.708 314.5 105.559 315.87 104.992C317.241 104.424 318.412 103.463 319.236 102.229C320.06 100.996 320.5 99.5459 320.5 98.0625C320.498 96.0741 319.707 94.1677 318.301 92.7617C316.895 91.3556 314.988 90.5647 313 90.5625ZM318.545 97.125H316.631C316.463 96.4769 316.124 95.8856 315.65 95.4121C315.177 94.9386 314.586 94.6 313.938 94.4312V92.5171C315.088 92.7136 316.149 93.2625 316.975 94.0878C317.8 94.9132 318.349 95.9744 318.545 97.125ZM313 96.1875C313.371 96.1875 313.733 96.2975 314.042 96.5035C314.35 96.7095 314.59 97.0024 314.732 97.345C314.874 97.6876 314.911 98.0646 314.839 98.4283C314.767 98.792 314.588 99.1261 314.326 99.3883C314.064 99.6506 313.73 99.8291 313.366 99.9015C313.002 99.9738 312.625 99.9367 312.283 99.7948C311.94 99.6529 311.647 99.4125 311.441 99.1042C311.235 98.7959 311.125 98.4333 311.125 98.0625C311.126 97.5654 311.323 97.0888 311.675 96.7373C312.026 96.3858 312.503 96.1881 313 96.1875ZM313 103.688C311.591 103.686 310.233 103.156 309.196 102.201C308.159 101.247 307.518 99.9375 307.4 98.5329C307.282 97.1284 307.696 95.7307 308.559 94.6167C309.423 93.5026 310.673 92.7533 312.063 92.5171V94.4312C311.422 94.5966 310.837 94.9282 310.367 95.3926C309.896 95.8569 309.557 96.4374 309.383 97.0752C309.209 97.713 309.206 98.3855 309.376 99.0244C309.546 99.6634 309.881 100.246 310.349 100.714C310.816 101.181 311.399 101.517 312.038 101.686C312.677 101.856 313.35 101.854 313.987 101.68C314.625 101.506 315.206 101.166 315.67 100.696C316.134 100.225 316.466 99.6401 316.631 99H318.545C318.322 100.31 317.644 101.499 316.629 102.356C315.614 103.214 314.329 103.686 313 103.688Z" fill="white"/>
<path d="M340.188 100.875H343.938C344.186 100.875 344.425 100.776 344.6 100.6C344.776 100.425 344.875 100.186 344.875 99.9375C344.875 99.6889 344.776 99.4504 344.6 99.2746C344.425 99.0988 344.186 99 343.938 99H340.188C339.939 99 339.7 99.0988 339.525 99.2746C339.349 99.4504 339.25 99.6889 339.25 99.9375C339.25 100.186 339.349 100.425 339.525 100.6C339.7 100.776 339.939 100.875 340.188 100.875Z" fill="white"/>
<path d="M349.562 102.75H340.188C339.939 102.75 339.7 102.849 339.525 103.025C339.349 103.2 339.25 103.439 339.25 103.688C339.25 103.936 339.349 104.175 339.525 104.35C339.7 104.526 339.939 104.625 340.188 104.625H349.562C349.811 104.625 350.05 104.526 350.225 104.35C350.401 104.175 350.5 103.936 350.5 103.688C350.5 103.439 350.401 103.2 350.225 103.025C350.05 102.849 349.811 102.75 349.562 102.75Z" fill="white"/>
<path d="M340.188 93.375H343.938C344.186 93.375 344.425 93.2762 344.6 93.1004C344.776 92.9246 344.875 92.6861 344.875 92.4375C344.875 92.1889 344.776 91.9504 344.6 91.7746C344.425 91.5988 344.186 91.5 343.938 91.5H340.188C339.939 91.5 339.7 91.5988 339.525 91.7746C339.349 91.9504 339.25 92.1889 339.25 92.4375C339.25 92.6861 339.349 92.9246 339.525 93.1004C339.7 93.2762 339.939 93.375 340.188 93.375Z" fill="white"/>
<path d="M349.562 95.25H340.188C339.939 95.25 339.7 95.3488 339.525 95.5246C339.349 95.7004 339.25 95.9389 339.25 96.1875C339.25 96.4361 339.349 96.6746 339.525 96.8504C339.7 97.0262 339.939 97.125 340.188 97.125H349.562C349.811 97.125 350.05 97.0262 350.225 96.8504C350.401 96.6746 350.5 96.4361 350.5 96.1875C350.5 95.9389 350.401 95.7004 350.225 95.5246C350.05 95.3488 349.811 95.25 349.562 95.25Z" fill="white"/>
<path d="M325.188 100.875H328.938C329.186 100.875 329.425 100.776 329.6 100.6C329.776 100.425 329.875 100.186 329.875 99.9375C329.875 99.6889 329.776 99.4504 329.6 99.2746C329.425 99.0988 329.186 99 328.938 99H325.188C324.939 99 324.7 99.0988 324.525 99.2746C324.349 99.4504 324.25 99.6889 324.25 99.9375C324.25 100.186 324.349 100.425 324.525 100.6C324.7 100.776 324.939 100.875 325.188 100.875Z" fill="white"/>
<path d="M334.562 102.75H325.188C324.939 102.75 324.7 102.849 324.525 103.025C324.349 103.2 324.25 103.439 324.25 103.688C324.25 103.936 324.349 104.175 324.525 104.35C324.7 104.526 324.939 104.625 325.188 104.625H334.562C334.811 104.625 335.05 104.526 335.225 104.35C335.401 104.175 335.5 103.936 335.5 103.688C335.5 103.439 335.401 103.2 335.225 103.025C335.05 102.849 334.811 102.75 334.562 102.75Z" fill="white"/>
<path d="M325.188 93.375H328.938C329.186 93.375 329.425 93.2762 329.6 93.1004C329.776 92.9246 329.875 92.6861 329.875 92.4375C329.875 92.1889 329.776 91.9504 329.6 91.7746C329.425 91.5988 329.186 91.5 328.938 91.5H325.188C324.939 91.5 324.7 91.5988 324.525 91.7746C324.349 91.9504 324.25 92.1889 324.25 92.4375C324.25 92.6861 324.349 92.9246 324.525 93.1004C324.7 93.2762 324.939 93.375 325.188 93.375Z" fill="white"/>
<path d="M334.562 95.25H325.188C324.939 95.25 324.7 95.3488 324.525 95.5246C324.349 95.7004 324.25 95.9389 324.25 96.1875C324.25 96.4361 324.349 96.6746 324.525 96.8504C324.7 97.0262 324.939 97.125 325.188 97.125H334.562C334.811 97.125 335.05 97.0262 335.225 96.8504C335.401 96.6746 335.5 96.4361 335.5 96.1875C335.5 95.9389 335.401 95.7004 335.225 95.5246C335.05 95.3488 334.811 95.25 334.562 95.25Z" fill="white"/>
</g>
<path d="M346.225 215.712L338.726 208.213C338.556 208.043 338.321 207.938 338.062 207.938H302.438C301.92 207.938 301.5 208.358 301.5 208.875V265.125C301.5 265.642 301.92 266.062 302.438 266.062H345.562C346.08 266.062 346.5 265.642 346.5 265.125V216.375C346.5 216.116 346.395 215.882 346.225 215.712ZM339 211.138L343.299 215.438H339V211.138ZM344.625 264.188H303.375V209.812H337.125V216.375C337.125 216.892 337.545 217.312 338.062 217.312H344.625V264.188Z" fill="white"/>
<path d="M305.25 225.75V231.375V261.375C305.25 261.892 305.67 262.312 306.188 262.312H341.812C342.33 262.312 342.75 261.892 342.75 261.375V231.375V225.75C342.75 225.233 342.33 224.812 341.812 224.812H306.188C305.67 224.812 305.25 225.233 305.25 225.75ZM335.408 237.52C335.583 237.783 335.876 237.938 336.188 237.938C336.229 237.938 336.27 237.935 336.312 237.929C336.667 237.881 336.964 237.637 337.077 237.296L338.738 232.312H340.875V237.938H336.188H331.5V232.312H336.761L335.903 234.885L335.092 233.667L333.532 234.707L335.408 237.52ZM318.375 252.938V247.312H329.625V252.938H318.375ZM323.22 245.02C323.395 245.283 323.689 245.438 324 245.438C324.041 245.438 324.083 245.435 324.125 245.429C324.479 245.381 324.776 245.137 324.89 244.796L326.551 239.812H329.625V245.438H324H318.375V239.812H324.574L323.716 242.385L322.904 241.167L321.344 242.207L323.22 245.02ZM316.5 245.438H307.125V239.812H316.5V245.438ZM307.125 247.312H316.5V252.938H307.125V247.312ZM331.5 247.312H340.875V252.938H331.5V247.312ZM331.5 245.438V239.812H340.875V245.438H331.5ZM329.625 237.938H318.375V232.312H329.625V237.938ZM316.5 237.938H307.125V232.312H316.5V237.938ZM307.125 254.812H316.5V260.438H307.125V254.812ZM318.375 260.438V254.812H324.574L323.716 257.385L322.904 256.167L321.344 257.207L323.219 260.019C323.395 260.283 323.689 260.438 324 260.438C324.041 260.438 324.083 260.435 324.125 260.429C324.479 260.381 324.776 260.137 324.89 259.796L326.551 254.812H329.625V260.438H324H318.375ZM331.5 260.438V254.812H340.875V260.438H331.5ZM307.125 226.688H340.875V230.438H307.125V226.688Z" fill="white"/>
<path d="M305.25 211.688H325.875V213.562H305.25V211.688Z" fill="white"/>
<path d="M305.25 215.438H325.875V217.312H305.25V215.438Z" fill="white"/>
<path d="M305.25 219.188H335.25V221.062H305.25V219.188Z" fill="white"/>
<path d="M338.688 426.312C338.687 426.561 338.588 426.799 338.413 426.975C338.237 427.151 337.999 427.25 337.75 427.25H309.508C309.29 427.25 309.082 427.163 308.928 427.009C308.774 426.856 308.688 426.647 308.688 426.43V382.25C308.688 382.001 308.787 381.763 308.962 381.587C309.138 381.412 309.376 381.313 309.625 381.312H315.608L316.286 382.669C316.364 382.825 316.484 382.956 316.632 383.047C316.78 383.139 316.951 383.188 317.125 383.188H320.875V379.438H309.625C308.879 379.438 308.164 379.735 307.637 380.262C307.11 380.789 306.813 381.504 306.812 382.25V426.43C306.813 427.144 307.098 427.829 307.603 428.335C308.108 428.84 308.793 429.124 309.508 429.125H337.75C338.496 429.124 339.211 428.828 339.738 428.3C340.265 427.773 340.562 427.058 340.562 426.312V414.125H338.688V426.312Z" fill="white"/>
<path d="M342.438 383.188C340.946 383.189 339.516 383.782 338.462 384.837C337.407 385.891 336.814 387.321 336.812 388.812C336.812 391.649 341.205 397.211 341.706 397.836C341.794 397.946 341.905 398.034 342.032 398.095C342.158 398.156 342.297 398.188 342.438 398.188C342.578 398.188 342.717 398.156 342.843 398.095C342.97 398.034 343.081 397.946 343.169 397.836C343.67 397.211 348.062 391.649 348.062 388.812C348.061 387.321 347.468 385.891 346.413 384.837C345.359 383.782 343.929 383.189 342.438 383.188ZM342.438 395.717C340.758 393.474 338.688 390.239 338.688 388.812C338.688 387.818 339.083 386.864 339.786 386.161C340.489 385.458 341.443 385.062 342.438 385.062C343.432 385.062 344.386 385.458 345.089 386.161C345.792 386.864 346.188 387.818 346.188 388.812C346.188 390.239 344.117 393.474 342.438 395.717Z" fill="white"/>
<path d="M342.438 390.688C343.473 390.688 344.312 389.848 344.312 388.812C344.312 387.777 343.473 386.938 342.438 386.938C341.402 386.938 340.562 387.777 340.562 388.812C340.562 389.848 341.402 390.688 342.438 390.688Z" fill="white"/>
<path d="M345.25 401H339.625V397.25H337.75V401.938C337.75 402.186 337.849 402.425 338.025 402.6C338.2 402.776 338.439 402.875 338.688 402.875H346.188C346.436 402.875 346.675 402.776 346.85 402.6C347.026 402.425 347.125 402.186 347.125 401.938V397.25H345.25V401Z" fill="white"/>
<path d="M359.312 372.875H325.562C324.817 372.876 324.102 373.172 323.575 373.7C323.047 374.227 322.751 374.942 322.75 375.688V409.438C322.751 410.183 323.047 410.898 323.575 411.425C324.102 411.953 324.817 412.249 325.562 412.25H359.312C360.058 412.249 360.773 411.953 361.3 411.425C361.828 410.898 362.124 410.183 362.125 409.438V375.688C362.124 374.942 361.828 374.227 361.3 373.7C360.773 373.172 360.058 372.876 359.312 372.875ZM350.875 393.5C350.626 393.5 350.388 393.599 350.212 393.775C350.036 393.95 349.938 394.189 349.938 394.438V401.938C349.938 402.186 350.036 402.425 350.212 402.6C350.388 402.776 350.626 402.875 350.875 402.875H360.25V405.688H350.875C350.626 405.688 350.388 405.786 350.212 405.962C350.036 406.138 349.938 406.376 349.938 406.625V410.375H347.125V406.625C347.125 406.376 347.026 406.138 346.85 405.962C346.675 405.786 346.436 405.688 346.188 405.688H338.688C338.439 405.688 338.2 405.786 338.025 405.962C337.849 406.138 337.75 406.376 337.75 406.625V410.375H334.938V398.188C334.938 398.002 334.882 397.821 334.779 397.667C334.676 397.513 334.53 397.392 334.359 397.321C334.187 397.25 333.999 397.232 333.817 397.268C333.635 397.304 333.468 397.393 333.337 397.524L324.625 406.237V402.326L332.788 394.163C332.919 394.032 333.008 393.865 333.045 393.683C333.081 393.501 333.062 393.313 332.991 393.141C332.92 392.97 332.8 392.824 332.646 392.721C332.492 392.618 332.31 392.562 332.125 392.562H324.625V390.688H328.375C328.624 390.688 328.862 390.589 329.038 390.413C329.214 390.237 329.312 389.999 329.312 389.75V380.375H332.125V389.75C332.125 389.999 332.224 390.237 332.4 390.413C332.575 390.589 332.814 390.688 333.062 390.688H335.875V388.812H334V380.375H351.424L348.337 383.462L349.663 384.788L354.076 380.375H358.924L350.212 389.087C350.081 389.218 349.992 389.385 349.956 389.567C349.919 389.749 349.938 389.937 350.009 390.109C350.08 390.28 350.2 390.426 350.354 390.529C350.508 390.632 350.69 390.688 350.875 390.688H360.25V393.5H350.875ZM360.25 395.375V401H351.812V395.375H360.25ZM345.25 410.375H339.625V407.562H345.25V410.375ZM324.625 399.674V394.438H329.862L324.625 399.674ZM324.625 388.812V380.375H327.438V388.812H324.625ZM353.138 388.812L360.25 381.701V388.812H353.138ZM325.562 374.75H359.312C359.561 374.75 359.799 374.849 359.975 375.025C360.151 375.201 360.25 375.439 360.25 375.688V378.5H324.625V375.688C324.625 375.439 324.724 375.201 324.9 375.025C325.076 374.849 325.314 374.75 325.562 374.75ZM324.625 409.438V408.888L333.062 400.451V410.375H325.562C325.314 410.375 325.076 410.276 324.9 410.1C324.724 409.924 324.625 409.686 324.625 409.438ZM359.312 410.375H351.812V407.562H360.25V409.438C360.25 409.686 360.151 409.924 359.975 410.1C359.799 410.276 359.561 410.375 359.312 410.375Z" fill="white"/>
<path d="M326.5 377.562C327.018 377.562 327.438 377.143 327.438 376.625C327.438 376.107 327.018 375.688 326.5 375.688C325.982 375.688 325.562 376.107 325.562 376.625C325.562 377.143 325.982 377.562 326.5 377.562Z" fill="white"/>
<path d="M329.312 377.562C329.83 377.562 330.25 377.143 330.25 376.625C330.25 376.107 329.83 375.688 329.312 375.688C328.795 375.688 328.375 376.107 328.375 376.625C328.375 377.143 328.795 377.562 329.312 377.562Z" fill="white"/>
<path d="M332.125 377.562C332.643 377.562 333.062 377.143 333.062 376.625C333.062 376.107 332.643 375.688 332.125 375.688C331.607 375.688 331.188 376.107 331.188 376.625C331.188 377.143 331.607 377.562 332.125 377.562Z" fill="white"/>
<path d="M317.125 423.5H311.5V425.375H317.125V423.5Z" fill="white"/>
<path d="M326.5 423.5H320.875V425.375H326.5V423.5Z" fill="white"/>
<path d="M335.875 423.5H330.25V425.375H335.875V423.5Z" fill="white"/>
<path d="M327.438 421.625V416C327.438 415.751 327.339 415.513 327.163 415.337C326.987 415.161 326.749 415.062 326.5 415.062H320.875C320.626 415.062 320.388 415.161 320.212 415.337C320.036 415.513 319.938 415.751 319.938 416V421.625C319.938 421.874 320.036 422.112 320.212 422.288C320.388 422.464 320.626 422.562 320.875 422.562H326.5C326.749 422.562 326.987 422.464 327.163 422.288C327.339 422.112 327.438 421.874 327.438 421.625ZM325.562 420.688H321.812V416.938H325.562V420.688Z" fill="white"/>
<path d="M318.062 421.625V416C318.062 415.751 317.964 415.513 317.788 415.337C317.612 415.161 317.374 415.062 317.125 415.062H311.5C311.251 415.062 311.013 415.161 310.837 415.337C310.661 415.513 310.563 415.751 310.562 416V421.625C310.563 421.874 310.661 422.112 310.837 422.288C311.013 422.464 311.251 422.562 311.5 422.562H317.125C317.374 422.562 317.612 422.464 317.788 422.288C317.964 422.112 318.062 421.874 318.062 421.625ZM316.188 420.688H312.438V416.938H316.188V420.688Z" fill="white"/>
<path d="M336.812 421.625V416C336.812 415.751 336.714 415.513 336.538 415.337C336.362 415.161 336.124 415.062 335.875 415.062H330.25C330.001 415.062 329.763 415.161 329.587 415.337C329.411 415.513 329.312 415.751 329.312 416V421.625C329.312 421.874 329.411 422.112 329.587 422.288C329.763 422.464 330.001 422.562 330.25 422.562H335.875C336.124 422.562 336.362 422.464 336.538 422.288C336.714 422.112 336.812 421.874 336.812 421.625ZM334.938 420.688H331.188V416.938H334.938V420.688Z" fill="white"/>
<defs>
<filter id="filter0_d" x="295.875" y="56.8125" width="64.25" height="62.375" filterUnits="userSpaceOnUse" color-interpolation-filters="sRGB">
<feFlood flood-opacity="0" result="BackgroundImageFix"/>
<feColorMatrix in="SourceAlpha" type="matrix" values="0 0 0 0 0 0 0 0 0 0 0 0 0 0 0 0 0 0 127 0"/>
<feOffset dy="4"/>
<feGaussianBlur stdDeviation="2"/>
<feColorMatrix type="matrix" values="0 0 0 0 0 0 0 0 0 0 0 0 0 0 0 0 0 0 0.25 0"/>
<feBlend mode="normal" in2="BackgroundImageFix" result="effect1_dropShadow"/>
<feBlend mode="normal" in="SourceGraphic" in2="effect1_dropShadow" result="shape"/>
</filter>
</defs>
</svg>
