<svg width="41" height="39" viewBox="0 0 41 39" fill="none" xmlns="http://www.w3.org/2000/svg">
<path d="M40.5 19.5C40.5 29.9701 31.5696 38.5 20.5 38.5C9.43045 38.5 0.5 29.9701 0.5 19.5C0.5 9.02986 9.43045 0.5 20.5 0.5C31.5696 0.5 40.5 9.02986 40.5 19.5Z" stroke="white"/>
<path d="M25.1904 9H16.8097C13.6062 9 11 11.6062 11 14.8097V23.1903C11 26.3938 13.6062 29 16.8097 29H25.1903C28.3938 29 31 26.3938 31 23.1904V14.8097C31 11.6062 28.3938 9 25.1904 9ZM29.4375 23.1903C29.4375 25.5322 27.5322 27.4375 25.1904 27.4375H16.8097C14.4678 27.4375 12.5625 25.5322 12.5625 23.1904V14.8097C12.5625 12.4678 14.4678 10.5625 16.8097 10.5625H25.1903C27.5322 10.5625 29.4375 12.4678 29.4375 14.8097V23.1903Z" fill="white"/>
<path d="M21 13.6094C18.0276 13.6094 15.6094 16.0276 15.6094 19C15.6094 21.9724 18.0276 24.3906 21 24.3906C23.9724 24.3906 26.3906 21.9724 26.3906 19C26.3906 16.0276 23.9724 13.6094 21 13.6094ZM21 22.8281C18.8892 22.8281 17.1719 21.1108 17.1719 19C17.1719 16.8892 18.8892 15.1719 21 15.1719C23.1108 15.1719 24.8281 16.8892 24.8281 19C24.8281 21.1108 23.1108 22.8281 21 22.8281Z" fill="white"/>
<path d="M26.4688 14.3125C26.9002 14.3125 27.25 13.9627 27.25 13.5312C27.25 13.0998 26.9002 12.75 26.4688 12.75C26.0373 12.75 25.6875 13.0998 25.6875 13.5312C25.6875 13.9627 26.0373 14.3125 26.4688 14.3125Z" fill="white"/>
</svg>
