<svg width="138" height="238" viewBox="0 0 138 238" fill="none" xmlns="http://www.w3.org/2000/svg">
<g opacity="0.25">
<path d="M111.479 129.317C121.3 148.91 145.189 156.777 164.834 146.887C184.48 136.997 192.444 113.096 182.622 93.5025C172.8 73.9089 148.912 66.0425 129.266 75.9323C109.621 85.8222 101.657 109.723 111.479 129.317Z" stroke="#49CED9" stroke-width="3" stroke-miterlimit="10"/>
<path d="M84.3897 97.6635C94.4771 117.123 118.472 124.665 137.983 114.51C157.495 104.354 165.134 80.3469 155.047 60.8875C144.96 41.428 120.965 33.8857 101.454 44.0411C81.9421 54.1965 74.3024 78.2041 84.3897 97.6635Z" fill="#49CED9"/>
<path d="M14.2539 144.629C11.5937 155.181 17.9531 165.86 28.4581 168.479C38.963 171.099 49.6355 164.668 52.2956 154.115C54.9558 143.563 48.5963 132.884 38.0914 130.265C27.5865 127.645 16.9141 134.076 14.2539 144.629Z" fill="url(#paint0_linear)"/>
</g>
<defs>
<linearGradient id="paint0_linear" x1="46.0526" y1="165.98" x2="19.7287" y2="127.889" gradientUnits="userSpaceOnUse">
<stop stop-color="#EA7FB8"/>
<stop offset="1" stop-color="#9958B3"/>
</linearGradient>
</defs>
</svg>
