<svg width="104" height="104" viewBox="0 0 104 104" fill="none" xmlns="http://www.w3.org/2000/svg">
<g filter="url(#filter0_d)">
<ellipse rx="25" ry="25" transform="matrix(-1 -1.74846e-07 -1.74846e-07 1 56 49)" fill="#4461D7"/>
</g>
<g opacity="0.8" clip-path="url(#clip0)">
<path d="M49.0238 49.3841C48.9755 49.5009 49.0023 49.6354 49.0919 49.7247L54.7169 55.3497C54.841 55.4696 55.0388 55.4662 55.1588 55.342C55.2757 55.2209 55.2757 55.0289 55.1588 54.9079L50.0669 49.816L63.6875 49.816C63.8601 49.8159 64 49.676 64 49.5034C64 49.3308 63.8601 49.1909 63.6875 49.1909L50.0669 49.1909L55.1581 44.0997C55.2822 43.9798 55.2857 43.782 55.1658 43.6578C55.0459 43.5337 54.8481 43.5302 54.7239 43.6501C54.7213 43.6526 54.7188 43.6552 54.7162 43.6578L49.0912 49.2828C49.0623 49.3118 49.0394 49.3462 49.0238 49.3841Z" fill="#2196F3"/>
<path d="M54.9374 43.566C55.11 43.5656 55.2502 43.7053 55.2505 43.8779C55.2506 43.9611 55.2176 44.041 55.1587 44.0997L49.7543 49.5034L55.1587 54.9072C55.2786 55.0313 55.2751 55.2292 55.151 55.3491C55.0299 55.466 54.8379 55.466 54.7168 55.3491L49.0918 49.7241C48.9698 49.6021 48.9698 49.4042 49.0918 49.2822L54.7168 43.6572C54.7754 43.5988 54.8547 43.566 54.9374 43.566Z" fill="black"/>
<path d="M49.3125 49.191L63.6875 49.191C63.8601 49.191 64 49.3309 64 49.5034C64 49.676 63.8601 49.8159 63.6875 49.8159L49.3125 49.8159C49.1399 49.8159 49 49.676 49 49.5034C49 49.3308 49.1399 49.191 49.3125 49.191Z" fill="black"/>
</g>
<g clip-path="url(#clip1)">
<path d="M47.2877 49.3006L53.7881 42.8C53.9737 42.6145 54.221 42.5126 54.4847 42.5126C54.7487 42.5126 54.9959 42.6146 55.1814 42.8L55.7716 43.3904C55.957 43.5756 56.0592 43.8231 56.0592 44.087C56.0592 44.3507 55.957 44.6065 55.7716 44.7917L51.9794 48.5923H64.0276C64.5708 48.5923 65 49.0176 65 49.561V50.3955C65 50.9389 64.5708 51.4071 64.0276 51.4071H51.9364L55.7715 55.2289C55.9569 55.4144 56.059 55.6552 56.059 55.919C56.059 56.1826 55.9569 56.4268 55.7715 56.6122L55.1813 57.2007C54.9957 57.3862 54.7486 57.4873 54.4846 57.4873C54.2209 57.4873 53.9736 57.3849 53.788 57.1993L47.2876 50.6989C47.1016 50.5128 46.9993 50.2643 47 50.0001C46.9994 49.7351 47.1016 49.4865 47.2877 49.3006Z" fill="white"/>
</g>
<defs>
<filter id="filter0_d" x="0" y="-3.05176e-05" width="104" height="104" filterUnits="userSpaceOnUse" color-interpolation-filters="sRGB">
<feFlood flood-opacity="0" result="BackgroundImageFix"/>
<feColorMatrix in="SourceAlpha" type="matrix" values="0 0 0 0 0 0 0 0 0 0 0 0 0 0 0 0 0 0 127 0"/>
<feOffset dx="-4" dy="3"/>
<feGaussianBlur stdDeviation="13.5"/>
<feColorMatrix type="matrix" values="0 0 0 0 0 0 0 0 0 0 0 0 0 0 0 0 0 0 0.1 0"/>
<feBlend mode="normal" in2="BackgroundImageFix" result="effect1_dropShadow"/>
<feBlend mode="normal" in="SourceGraphic" in2="effect1_dropShadow" result="shape"/>
</filter>
<clipPath id="clip0">
<rect width="15" height="15" fill="white" transform="translate(64 56.9999) rotate(-180)"/>
</clipPath>
<clipPath id="clip1">
<rect width="18" height="18" fill="white" transform="matrix(-1 0 0 1 65 41)"/>
</clipPath>
</defs>
</svg>
