<svg width="41" height="39" viewBox="0 0 41 39" fill="none" xmlns="http://www.w3.org/2000/svg">
<path d="M40.5 19.5C40.5 29.9701 31.5696 38.5 20.5 38.5C9.43045 38.5 0.5 29.9701 0.5 19.5C0.5 9.02986 9.43045 0.5 20.5 0.5C31.5696 0.5 40.5 9.02986 40.5 19.5Z" stroke="white"/>
<path d="M14.1829 11C12.863 11 12 11.8564 12 12.982C12 14.0827 12.8373 14.9635 14.1322 14.9635H14.1573C15.503 14.9635 16.3405 14.0827 16.3405 12.982C16.3154 11.8564 15.503 11 14.1829 11Z" fill="white"/>
<path d="M12.2285 16.5295H16.0872V27.9999H12.2285V16.5295Z" fill="white"/>
<path d="M25.5569 16.2604C23.4753 16.2604 22.0795 18.1931 22.0795 18.1931V16.5296H18.2207V28H22.0792V21.5945C22.0792 21.2515 22.1044 20.9092 22.2064 20.6639C22.4853 19.9792 23.1201 19.2698 24.1861 19.2698C25.5824 19.2698 26.1408 20.3217 26.1408 21.8637V28H29.9991V21.4231C29.9991 17.8999 28.0954 16.2604 25.5569 16.2604Z" fill="white"/>
</svg>
