<svg width="179" height="36" viewBox="0 0 179 36" fill="none" xmlns="http://www.w3.org/2000/svg">
<ellipse cx="154.808" cy="25.8696" rx="3.66544" ry="3.60402" fill="#EC1E24"/>
<ellipse cx="175.335" cy="25.8696" rx="3.66544" ry="3.60402" fill="#8BC444"/>
<ellipse cx="165.071" cy="25.8696" rx="3.66544" ry="3.60402" fill="#F6931E"/>
<path d="M23.4335 14.1574L16.9336 30H13.6452C13.4711 30 13.3328 29.9437 13.2303 29.831C13.1279 29.7183 13.0511 29.5288 12.9998 29.2624L11.6476 20.6881C11.5861 20.2783 11.54 19.8634 11.5093 19.4434C11.4376 19.6585 11.3608 19.8737 11.2788 20.0888C11.1969 20.2937 11.1149 20.5037 11.033 20.7188L7.60628 29.2624C7.4014 29.7541 7.0992 30 6.69968 30H3.53423L0.891241 14.1574H4.13352C4.41011 14.1574 4.63548 14.2291 4.80963 14.3725C4.99402 14.516 5.11183 14.7004 5.16305 14.9257L5.8699 22.7625C5.93136 23.7357 5.97746 24.673 6.0082 25.5745C6.18235 25.1135 6.3565 24.6526 6.53065 24.1916C6.7048 23.7306 6.89432 23.2542 7.0992 22.7625L10.1878 14.895C10.2698 14.6799 10.4132 14.5006 10.6181 14.3572C10.8332 14.2138 11.0688 14.1421 11.3249 14.1421H13.1381C13.4352 14.1421 13.6708 14.2138 13.845 14.3572C14.0294 14.5006 14.1318 14.6799 14.1523 14.895L15.2894 22.7625C15.3611 23.244 15.4226 23.7152 15.4738 24.1762C15.5353 24.6372 15.5916 25.0982 15.6428 25.5592C15.776 25.0982 15.9143 24.6423 16.0577 24.1916C16.2011 23.7306 16.3599 23.2542 16.5341 22.7625L19.2078 14.9257C19.2897 14.7004 19.4332 14.516 19.638 14.3725C19.8429 14.2291 20.0734 14.1574 20.3295 14.1574H23.4335ZM30.0146 27.0497C30.6087 27.0497 31.1414 26.8755 31.6127 26.5272C32.0839 26.1789 32.4834 25.7128 32.8112 25.1289C33.139 24.5347 33.39 23.8484 33.5642 23.0698C33.7486 22.2913 33.8408 21.4666 33.8408 20.5959C33.8408 19.3666 33.6512 18.4804 33.2722 17.9375C32.8932 17.3843 32.3041 17.1077 31.5051 17.1077C30.9212 17.1077 30.3885 17.2819 29.907 17.6302C29.4358 17.9682 29.0363 18.4292 28.7084 19.0131C28.3806 19.5971 28.1245 20.2834 27.9401 21.0722C27.766 21.8508 27.6789 22.6754 27.6789 23.5462C27.6789 24.755 27.8684 25.6411 28.2475 26.2045C28.6265 26.768 29.2155 27.0497 30.0146 27.0497ZM29.6458 30.2305C28.7648 30.2305 27.9452 30.0871 27.1872 29.8002C26.4291 29.5032 25.7735 29.0729 25.2203 28.5095C24.6671 27.946 24.2317 27.2494 23.9142 26.4197C23.6068 25.5899 23.4532 24.6423 23.4532 23.5769C23.4532 22.194 23.6786 20.9134 24.1293 19.7354C24.58 18.547 25.1896 17.5226 25.9579 16.6621C26.7262 15.8016 27.6226 15.1306 28.647 14.6491C29.6714 14.1574 30.7521 13.9116 31.8892 13.9116C32.7702 13.9116 33.5847 14.0601 34.3325 14.3572C35.0905 14.644 35.7462 15.0743 36.2994 15.6479C36.8525 16.2114 37.2879 16.908 37.6055 17.7377C37.9231 18.5675 38.0818 19.5151 38.0818 20.5805C38.0818 21.9532 37.8565 23.2286 37.4057 24.4067C36.955 25.5848 36.3403 26.6041 35.5618 27.4646C34.7935 28.3251 33.8971 29.0012 32.8727 29.4929C31.8585 29.9846 30.7829 30.2305 29.6458 30.2305ZM44.9472 17.6916C45.3467 16.9541 45.7667 16.3241 46.2072 15.8016C46.658 15.2792 47.1241 14.8745 47.6055 14.5877C48.087 14.2906 48.5787 14.1216 49.0807 14.0806C49.5827 14.0294 50.0897 14.1164 50.602 14.3418L49.8336 18.3217C49.2292 18.0656 48.6607 17.958 48.128 17.999C47.6055 18.04 47.1189 18.2448 46.6682 18.6136C46.2277 18.9824 45.8282 19.5202 45.4696 20.2271C45.1111 20.9339 44.7986 21.8252 44.5323 22.9008L43.6718 30H39.5075L41.4283 14.1421H43.6103C44.0508 14.1421 44.394 14.2496 44.6399 14.4647C44.8857 14.6799 45.0086 15.023 45.0086 15.4943L44.9472 17.6916ZM57.4829 7.08895L55.8848 20.0888H56.2536C56.4995 20.0888 56.6992 20.0529 56.8529 19.9812C57.0065 19.8993 57.1705 19.7558 57.3446 19.551L61.1247 14.8796C61.3091 14.644 61.5089 14.4647 61.724 14.3418C61.9391 14.2189 62.2003 14.1574 62.5077 14.1574H66.3031L61.432 19.9351C61.2271 20.1707 61.0171 20.3859 60.802 20.5805C60.5971 20.7649 60.3769 20.9288 60.1413 21.0722C60.3461 21.2361 60.5152 21.4256 60.6483 21.6408C60.7918 21.8559 60.9249 22.0966 61.0479 22.363L64.6282 30H60.9557C60.6483 30 60.3922 29.9488 60.1874 29.8463C59.9825 29.7337 59.8237 29.539 59.711 29.2624L57.0373 23.4386C56.9246 23.1928 56.8068 23.034 56.6839 22.9623C56.5609 22.8906 56.3509 22.8547 56.0538 22.8547H55.5468L54.6709 30H50.4913L53.3187 7.08895H57.4829Z" fill="#333333"/>
<path d="M76.9586 17.2921C76.8357 17.4663 76.7128 17.5943 76.5898 17.6763C76.4772 17.748 76.3337 17.7838 76.1596 17.7838C75.965 17.7838 75.7703 17.7326 75.5757 17.6302C75.3913 17.5277 75.1813 17.4202 74.9457 17.3075C74.71 17.1846 74.4386 17.0719 74.1312 16.9694C73.8342 16.867 73.4807 16.8158 73.071 16.8158C72.3027 16.8158 71.729 16.9797 71.35 17.3075C70.9812 17.6353 70.7968 18.0451 70.7968 18.5368C70.7968 18.9363 70.9453 19.259 71.2424 19.5049C71.5395 19.7405 71.9134 19.9556 72.3641 20.1502C72.8149 20.3346 73.3015 20.5242 73.8239 20.7188C74.3464 20.9134 74.833 21.1644 75.2837 21.4717C75.7345 21.7791 76.1084 22.1735 76.4054 22.6549C76.7025 23.1364 76.8511 23.7511 76.8511 24.4989C76.8511 25.2774 76.6974 26.015 76.3901 26.7116C76.0828 27.4082 75.6371 28.0178 75.0532 28.5402C74.4795 29.0627 73.7829 29.4775 72.9634 29.7849C72.1439 30.0922 71.227 30.2459 70.2129 30.2459C69.7109 30.2459 69.2192 30.1946 68.7377 30.0922C68.2665 30 67.8157 29.8668 67.3855 29.6927C66.9655 29.5083 66.5813 29.2983 66.233 29.0627C65.8949 28.827 65.6081 28.5709 65.3725 28.2943L66.4174 26.7116C66.5403 26.5272 66.6889 26.3838 66.863 26.2814C67.0372 26.1789 67.2472 26.1277 67.493 26.1277C67.7184 26.1277 67.9233 26.1943 68.1077 26.3275C68.2921 26.4504 68.497 26.5887 68.7223 26.7424C68.9477 26.8858 69.2141 27.0241 69.5214 27.1572C69.8389 27.2802 70.2487 27.3416 70.7507 27.3416C71.1297 27.3416 71.4626 27.2955 71.7495 27.2033C72.0466 27.1009 72.2924 26.9677 72.4871 26.8038C72.6919 26.6297 72.8405 26.4299 72.9327 26.2045C73.0351 25.9792 73.0863 25.7436 73.0863 25.4977C73.0863 25.047 72.9378 24.6987 72.6407 24.4528C72.3436 24.2069 71.9697 23.9918 71.519 23.8074C71.0785 23.623 70.597 23.4437 70.0746 23.2696C69.5521 23.0954 69.0655 22.8598 68.6148 22.5627C68.1743 22.2657 67.8055 21.8815 67.5084 21.4103C67.2113 20.939 67.0628 20.309 67.0628 19.5202C67.0628 18.8031 67.196 18.1117 67.4623 17.4458C67.7389 16.7697 68.1384 16.1704 68.6609 15.6479C69.1833 15.1255 69.8287 14.7055 70.597 14.3879C71.3756 14.0703 72.2719 13.9116 73.2861 13.9116C74.3208 13.9116 75.2376 14.0908 76.0367 14.4494C76.8459 14.7977 77.5169 15.2433 78.0496 15.7862L76.9586 17.2921ZM80.1464 26.6809C80.1464 26.6092 80.1464 26.5272 80.1464 26.435C80.1464 26.3326 80.1515 26.1892 80.1618 26.0048C80.1823 25.8101 80.2079 25.5592 80.2386 25.2518C80.2796 24.9343 80.3308 24.5245 80.3923 24.0225L81.2374 17.1999H79.8545C79.6496 17.1999 79.4805 17.1282 79.3474 16.9848C79.2244 16.8414 79.1835 16.6263 79.2244 16.3394L79.4242 14.6799L81.8213 14.2189L83.1275 10.1161C83.2709 9.65511 83.5833 9.42462 84.0648 9.42462H86.339L85.7397 14.2496H89.443L89.0896 17.1999H85.3863L84.5719 23.792C84.5207 24.2121 84.4797 24.545 84.449 24.7908C84.4182 25.0367 84.3926 25.2262 84.3721 25.3594C84.3619 25.4926 84.3568 25.5848 84.3568 25.636C84.3568 25.677 84.3568 25.7077 84.3568 25.7282C84.3568 26.0867 84.4387 26.3736 84.6026 26.5887C84.7665 26.7936 85.0124 26.896 85.3402 26.896C85.5246 26.896 85.6834 26.8755 85.8165 26.8346C85.9497 26.7833 86.0624 26.7321 86.1546 26.6809C86.257 26.6194 86.3492 26.5682 86.4312 26.5272C86.5131 26.476 86.6002 26.4504 86.6924 26.4504C86.8256 26.4504 86.9229 26.4811 86.9844 26.5426C87.0458 26.5938 87.1073 26.686 87.1688 26.8192L88.0907 28.8475C87.4966 29.3085 86.8461 29.6568 86.1392 29.8924C85.4324 30.1281 84.7204 30.2459 84.0033 30.2459C82.8355 30.2459 81.9084 29.9334 81.222 29.3085C80.5459 28.6734 80.1874 27.7975 80.1464 26.6809ZM100.165 16.8926C100.073 16.8824 99.9804 16.8772 99.8882 16.8772C99.796 16.8772 99.7038 16.8772 99.6116 16.8772C98.792 16.8772 98.0391 17.0616 97.3527 17.4304C96.6664 17.7992 96.0722 18.3012 95.5703 18.9363C95.0785 19.5715 94.6893 20.309 94.4024 21.1491C94.1258 21.9891 93.9875 22.8752 93.9875 23.8074C93.9875 24.8728 94.1514 25.6462 94.4793 26.1277C94.8071 26.5989 95.2373 26.8346 95.77 26.8346C96.1491 26.8346 96.523 26.6963 96.8918 26.4197C97.2708 26.1431 97.6242 25.764 97.952 25.2826C98.2798 24.8011 98.582 24.2377 98.8586 23.5923C99.1352 22.9367 99.376 22.2401 99.5808 21.5025L100.165 16.8926ZM99.1199 27.019C98.4437 28.0126 97.6857 28.7963 96.8457 29.37C96.0159 29.9437 95.099 30.2305 94.0951 30.2305C93.5112 30.2305 92.9529 30.1178 92.4202 29.8924C91.8977 29.6568 91.4367 29.3085 91.0372 28.8475C90.6377 28.3763 90.3201 27.7873 90.0845 27.0804C89.8591 26.3633 89.7465 25.5284 89.7465 24.5757C89.7465 23.623 89.8643 22.701 90.0999 21.8098C90.3355 20.9083 90.6736 20.0632 91.1141 19.2744C91.5546 18.4856 92.0873 17.7634 92.7121 17.1077C93.3473 16.4419 94.049 15.8733 94.8173 15.4021C95.5959 14.9309 96.4359 14.5672 97.3374 14.3111C98.2491 14.0447 99.2069 13.9116 100.211 13.9116C100.948 13.9116 101.686 13.9679 102.424 14.0806C103.161 14.183 103.889 14.3674 104.606 14.6338L102.7 30H100.441C100.175 30 99.9496 29.9641 99.7652 29.8924C99.5911 29.8207 99.4477 29.7234 99.335 29.6005C99.2325 29.4775 99.1608 29.3341 99.1199 29.1702C99.0789 29.0063 99.0584 28.827 99.0584 28.6324L99.1199 27.019ZM107.337 26.6809C107.337 26.6092 107.337 26.5272 107.337 26.435C107.337 26.3326 107.343 26.1892 107.353 26.0048C107.373 25.8101 107.399 25.5592 107.43 25.2518C107.471 24.9343 107.522 24.5245 107.583 24.0225L108.428 17.1999H107.045C106.841 17.1999 106.672 17.1282 106.538 16.9848C106.415 16.8414 106.374 16.6263 106.415 16.3394L106.615 14.6799L109.012 14.2189L110.318 10.1161C110.462 9.65511 110.774 9.42462 111.256 9.42462H113.53L112.931 14.2496H116.634L116.281 17.1999H112.577L111.763 23.792C111.712 24.2121 111.671 24.545 111.64 24.7908C111.609 25.0367 111.584 25.2262 111.563 25.3594C111.553 25.4926 111.548 25.5848 111.548 25.636C111.548 25.677 111.548 25.7077 111.548 25.7282C111.548 26.0867 111.63 26.3736 111.794 26.5887C111.958 26.7936 112.203 26.896 112.531 26.896C112.716 26.896 112.874 26.8755 113.008 26.8346C113.141 26.7833 113.253 26.7321 113.346 26.6809C113.448 26.6194 113.54 26.5682 113.622 26.5272C113.704 26.476 113.791 26.4504 113.883 26.4504C114.017 26.4504 114.114 26.4811 114.175 26.5426C114.237 26.5938 114.298 26.686 114.36 26.8192L115.282 28.8475C114.688 29.3085 114.037 29.6568 113.33 29.8924C112.623 30.1281 111.911 30.2459 111.194 30.2459C110.027 30.2459 109.099 29.9334 108.413 29.3085C107.737 28.6734 107.378 27.7975 107.337 26.6809ZM132.726 14.1574L130.805 30H128.654C127.65 30 127.148 29.5236 127.148 28.5709L127.194 27.1419C126.416 28.1868 125.565 28.9653 124.643 29.4775C123.732 29.9795 122.784 30.2305 121.801 30.2305C121.135 30.2305 120.536 30.0973 120.003 29.831C119.47 29.5646 119.03 29.1753 118.681 28.6631C118.333 28.1509 118.087 27.526 117.944 26.7885C117.8 26.0406 117.79 25.1852 117.913 24.2223L119.096 14.1574H123.337L122.139 24.2223C122.026 25.175 122.072 25.8511 122.277 26.2506C122.492 26.6399 122.876 26.8346 123.429 26.8346C123.798 26.8346 124.177 26.7321 124.567 26.5272C124.966 26.3121 125.345 26.0099 125.704 25.6206C126.072 25.2313 126.411 24.7652 126.718 24.2223C127.035 23.6691 127.297 23.0545 127.502 22.3784L128.5 14.1574H132.726ZM144.816 17.2921C144.693 17.4663 144.57 17.5943 144.447 17.6763C144.335 17.748 144.191 17.7838 144.017 17.7838C143.822 17.7838 143.628 17.7326 143.433 17.6302C143.249 17.5277 143.039 17.4202 142.803 17.3075C142.568 17.1846 142.296 17.0719 141.989 16.9694C141.692 16.867 141.338 16.8158 140.928 16.8158C140.16 16.8158 139.587 16.9797 139.207 17.3075C138.839 17.6353 138.654 18.0451 138.654 18.5368C138.654 18.9363 138.803 19.259 139.1 19.5049C139.397 19.7405 139.771 19.9556 140.222 20.1502C140.672 20.3346 141.159 20.5242 141.681 20.7188C142.204 20.9134 142.69 21.1644 143.141 21.4717C143.592 21.7791 143.966 22.1735 144.263 22.6549C144.56 23.1364 144.709 23.7511 144.709 24.4989C144.709 25.2774 144.555 26.015 144.248 26.7116C143.94 27.4082 143.495 28.0178 142.911 28.5402C142.337 29.0627 141.64 29.4775 140.821 29.7849C140.001 30.0922 139.085 30.2459 138.07 30.2459C137.568 30.2459 137.077 30.1946 136.595 30.0922C136.124 30 135.673 29.8668 135.243 29.6927C134.823 29.5083 134.439 29.2983 134.091 29.0627C133.752 28.827 133.466 28.5709 133.23 28.2943L134.275 26.7116C134.398 26.5272 134.546 26.3838 134.721 26.2814C134.895 26.1789 135.105 26.1277 135.351 26.1277C135.576 26.1277 135.781 26.1943 135.965 26.3275C136.15 26.4504 136.354 26.5887 136.58 26.7424C136.805 26.8858 137.072 27.0241 137.379 27.1572C137.696 27.2802 138.106 27.3416 138.608 27.3416C138.987 27.3416 139.32 27.2955 139.607 27.2033C139.904 27.1009 140.15 26.9677 140.345 26.8038C140.549 26.6297 140.698 26.4299 140.79 26.2045C140.893 25.9792 140.944 25.7436 140.944 25.4977C140.944 25.047 140.795 24.6987 140.498 24.4528C140.201 24.2069 139.827 23.9918 139.377 23.8074C138.936 23.623 138.455 23.4437 137.932 23.2696C137.41 23.0954 136.923 22.8598 136.472 22.5627C136.032 22.2657 135.663 21.8815 135.366 21.4103C135.069 20.939 134.92 20.309 134.92 19.5202C134.92 18.8031 135.053 18.1117 135.32 17.4458C135.596 16.7697 135.996 16.1704 136.518 15.6479C137.041 15.1255 137.686 14.7055 138.455 14.3879C139.233 14.0703 140.129 13.9116 141.144 13.9116C142.178 13.9116 143.095 14.0908 143.894 14.4494C144.703 14.7977 145.374 15.2433 145.907 15.7862L144.816 17.2921Z" fill="#4461D7"/>
</svg>
