<svg width="60" height="60" viewBox="0 0 60 60" fill="none" xmlns="http://www.w3.org/2000/svg">
<g clip-path="url(#clip0)">
<path d="M53 6H49V8H53C54.6567 8 56 9.34326 56 11V38H4V11C4 9.34326 5.34326 8 7 8H11V6H7C4.23975 6.00342 2.00342 8.23975 2 11V43C2.00342 45.7603 4.23975 47.9966 7 48H21.8672L21.1172 54H20C19.4478 54 19 54.4478 19 55V58H15V60H45V58H41V55C41 54.4478 40.5522 54 40 54H38.8828L38.1328 48H53C55.7603 47.9966 57.9966 45.7603 58 43V11C57.9966 8.23975 55.7603 6.00342 53 6ZM39 58H21V56H39V58ZM36.8672 54H23.1328L23.8828 48H36.1172L36.8672 54ZM53 46H7C5.34326 46 4 44.6567 4 43V40H56V43C56 44.6567 54.6567 46 53 46Z" fill="white"/>
<path d="M52 42H54V44H52V42Z" fill="white"/>
<path d="M16 33H44C45.6567 33 47 31.6567 47 30V6C47 4.34326 45.6567 3 44 3H40C40 1.34326 38.6567 0 37 0C35.3433 0 34 1.34326 34 3H26C26 1.34326 24.6567 0 23 0C21.3433 0 20 1.34326 20 3H16C14.3433 3 13 4.34326 13 6V30C13 31.6567 14.3433 33 16 33ZM44 31H16C15.4478 31 15 30.5522 15 30V11H45V30C45 30.5522 44.5522 31 44 31ZM36 3C36 2.44775 36.4478 2 37 2C37.5522 2 38 2.44775 38 3V5C38 5.55225 37.5522 6 37 6C36.4478 6 36 5.55225 36 5V3ZM22 3C22 2.44775 22.4478 2 23 2C23.5522 2 24 2.44775 24 3V5C24 5.55225 23.5522 6 23 6C22.4478 6 22 5.55225 22 5V3ZM16 5H20C20 6.65674 21.3433 8 23 8C24.6567 8 26 6.65674 26 5H34C34 6.65674 35.3433 8 37 8C38.6567 8 40 6.65674 40 5H44C44.5522 5 45 5.44775 45 6V9H15V6C15 5.44775 15.4478 5 16 5Z" fill="white"/>
<path d="M23 14H21C19.8955 14 19 14.8955 19 16V18C19 19.1045 19.8955 20 21 20H23C24.1045 20 25 19.1045 25 18V16C25 14.8955 24.1045 14 23 14ZM21 18V16H23V18H21Z" fill="white"/>
<path d="M31 14H29C27.8955 14 27 14.8955 27 16V18C27 19.1045 27.8955 20 29 20H31C32.1045 20 33 19.1045 33 18V16C33 14.8955 32.1045 14 31 14ZM29 18V16H31V18H29Z" fill="white"/>
<path d="M39 14H37C35.8955 14 35 14.8955 35 16V18C35 19.1045 35.8955 20 37 20H39C40.1045 20 41 19.1045 41 18V16C41 14.8955 40.1045 14 39 14ZM37 18V16H39V18H37Z" fill="white"/>
<path d="M31 22H29C27.8955 22 27 22.8955 27 24V26C27 27.1045 27.8955 28 29 28H31C32.1045 28 33 27.1045 33 26V24C33 22.8955 32.1045 22 31 22ZM29 26V24H31V26H29Z" fill="white"/>
<path d="M23 22H21C19.8955 22 19 22.8955 19 24V26C19 27.1045 19.8955 28 21 28H23C24.1045 28 25 27.1045 25 26V24C25 22.8955 24.1045 22 23 22ZM21 26V24H23V26H21Z" fill="white"/>
<path d="M39 22H37C35.8955 22 35 22.8955 35 24V26C35 27.1045 35.8955 28 37 28H39C40.1045 28 41 27.1045 41 26V24C41 22.8955 40.1045 22 39 22ZM37 26V24H39V26H37Z" fill="white"/>
</g>
<defs>
<clipPath id="clip0">
<rect width="60" height="60" fill="white"/>
</clipPath>
</defs>
</svg>
