<svg width="225" height="239" viewBox="0 0 225 239" fill="none" xmlns="http://www.w3.org/2000/svg">
<g opacity="0.5">
<path d="M107.068 129.769C116.877 149.475 140.778 157.524 160.453 147.747C180.128 137.97 188.127 114.069 178.318 94.3626C168.51 74.6563 144.609 66.6071 124.934 76.3842C105.259 86.1614 97.2601 110.062 107.068 129.769Z" stroke="#49CED9" stroke-width="3" stroke-miterlimit="10"/>
<path d="M79.9638 98.1149C90.0373 117.687 114.045 125.413 133.586 115.371C153.128 105.328 160.803 81.3205 150.729 61.7481C140.656 42.1757 116.648 34.4501 97.107 44.4925C77.5656 54.5349 69.8904 78.5425 79.9638 98.1149Z" fill="#49CED9"/>
<path d="M9.87861 145.124C7.18699 155.588 13.5012 166.266 23.9819 168.975C34.4626 171.683 45.1408 165.396 47.8324 154.932C50.5241 144.469 44.2098 133.79 33.7291 131.082C23.2484 128.373 12.5702 134.66 9.87861 145.124Z" fill="url(#paint0_linear)"/>
</g>
<defs>
<linearGradient id="paint0_linear" x1="41.5588" y1="166.665" x2="15.6518" y2="128.368" gradientUnits="userSpaceOnUse">
<stop stop-color="#EA7FB8"/>
<stop offset="1" stop-color="#9958B3"/>
</linearGradient>
</defs>
</svg>
