<svg width="15" height="13" viewBox="0 0 15 13" fill="none" xmlns="http://www.w3.org/2000/svg">
<path d="M9.06258 12.4341C8.88999 12.4344 8.74983 12.2947 8.74951 12.1221C8.74937 12.0389 8.78241 11.9591 8.84133 11.9003L14.2457 6.49658L8.84133 1.09283C8.72142 0.968701 8.72487 0.770859 8.849 0.650947C8.97012 0.533994 9.1621 0.533994 9.28318 0.650947L14.9082 6.27595C15.0302 6.39797 15.0302 6.59578 14.9082 6.71783L9.28318 12.3428C9.22465 12.4012 9.14531 12.4341 9.06258 12.4341Z" fill="white"/>
<path d="M14.6875 6.80907H0.31251C0.139922 6.80907 0 6.66918 0 6.49659C0 6.324 0.139922 6.18408 0.31251 6.18408H14.6875C14.8601 6.18408 15 6.324 15 6.49659C15 6.66918 14.8601 6.80907 14.6875 6.80907Z" fill="white"/>
</svg>
