<svg width="104" height="104" viewBox="0 0 104 104" fill="none" xmlns="http://www.w3.org/2000/svg">
<g filter="url(#filter0_d)">
<ellipse cx="56" cy="49" rx="25" ry="25" fill="#4461D7"/>
</g>
<g opacity="0.8" clip-path="url(#clip0)">
<path d="M62.9762 49.3841C63.0245 49.5009 62.9977 49.6354 62.9081 49.7247L57.2831 55.3497C57.159 55.4696 56.9612 55.4662 56.8412 55.342C56.7243 55.2209 56.7243 55.0289 56.8412 54.9079L61.9331 49.816L48.3125 49.816C48.1399 49.8159 48 49.676 48 49.5034C48 49.3308 48.1399 49.1909 48.3125 49.1909L61.9331 49.1909L56.8419 44.0997C56.7178 43.9798 56.7143 43.782 56.8342 43.6578C56.9541 43.5337 57.1519 43.5302 57.2761 43.6501C57.2787 43.6526 57.2812 43.6552 57.2838 43.6578L62.9088 49.2828C62.9377 49.3118 62.9606 49.3462 62.9762 49.3841Z" fill="#2196F3"/>
<path d="M57.0626 43.566C56.89 43.5656 56.7498 43.7053 56.7495 43.8779C56.7494 43.9611 56.7824 44.041 56.8413 44.0997L62.2457 49.5034L56.8413 54.9072C56.7214 55.0313 56.7249 55.2292 56.849 55.3491C56.9701 55.466 57.1621 55.466 57.2832 55.3491L62.9082 49.7241C63.0302 49.6021 63.0302 49.4042 62.9082 49.2822L57.2832 43.6572C57.2246 43.5988 57.1453 43.566 57.0626 43.566Z" fill="black"/>
<path d="M62.6875 49.191L48.3125 49.191C48.1399 49.191 48 49.3309 48 49.5034C48 49.676 48.1399 49.8159 48.3125 49.8159L62.6875 49.8159C62.8601 49.8159 63 49.676 63 49.5034C63 49.3308 62.8601 49.191 62.6875 49.191Z" fill="black"/>
</g>
<g clip-path="url(#clip1)">
<path d="M64.7123 49.3006L58.2119 42.8C58.0263 42.6145 57.779 42.5126 57.5153 42.5126C57.2513 42.5126 57.0041 42.6146 56.8186 42.8L56.2284 43.3904C56.043 43.5756 55.9408 43.8231 55.9408 44.087C55.9408 44.3507 56.043 44.6065 56.2284 44.7917L60.0206 48.5923H47.9724C47.4292 48.5923 47 49.0176 47 49.561V50.3955C47 50.9389 47.4292 51.4071 47.9724 51.4071H60.0636L56.2285 55.2289C56.0431 55.4144 55.941 55.6552 55.941 55.919C55.941 56.1826 56.0431 56.4268 56.2285 56.6122L56.8187 57.2007C57.0043 57.3862 57.2514 57.4873 57.5154 57.4873C57.7791 57.4873 58.0264 57.3849 58.212 57.1993L64.7124 50.6989C64.8984 50.5128 65.0007 50.2643 65 50.0001C65.0006 49.7351 64.8984 49.4865 64.7123 49.3006Z" fill="white"/>
</g>
<defs>
<filter id="filter0_d" x="0" y="-3.05176e-05" width="104" height="104" filterUnits="userSpaceOnUse" color-interpolation-filters="sRGB">
<feFlood flood-opacity="0" result="BackgroundImageFix"/>
<feColorMatrix in="SourceAlpha" type="matrix" values="0 0 0 0 0 0 0 0 0 0 0 0 0 0 0 0 0 0 127 0"/>
<feOffset dx="-4" dy="3"/>
<feGaussianBlur stdDeviation="13.5"/>
<feColorMatrix type="matrix" values="0 0 0 0 0 0 0 0 0 0 0 0 0 0 0 0 0 0 0.1 0"/>
<feBlend mode="normal" in2="BackgroundImageFix" result="effect1_dropShadow"/>
<feBlend mode="normal" in="SourceGraphic" in2="effect1_dropShadow" result="shape"/>
</filter>
<clipPath id="clip0">
<rect width="15" height="15" fill="white" transform="matrix(1 -2.62268e-07 -2.62268e-07 -1 48 56.9999)"/>
</clipPath>
<clipPath id="clip1">
<rect width="18" height="18" fill="white" transform="translate(47 41)"/>
</clipPath>
</defs>
</svg>
