<svg width="60" height="60" viewBox="0 0 60 60" fill="none" xmlns="http://www.w3.org/2000/svg">
<g clip-path="url(#clip0)">
<path d="M56.1479 41.636L53.7599 41.916L53.2219 37.329C53.166 36.849 53.0078 36.3866 52.7579 35.973C55.1606 35.8485 57.0402 33.856 57.0248 31.4502C57.0093 29.0443 55.1042 27.0762 52.7001 26.9825C50.2961 26.8888 48.2435 28.7027 48.0409 31.1L45.0229 28.087C43.6757 26.746 41.4981 26.746 40.1509 28.087L37.5359 30.687C36.884 31.3337 36.5174 32.2138 36.5174 33.132C36.5174 34.0502 36.884 34.9304 37.5359 35.577C38.8904 36.9121 41.0667 36.9094 42.4179 35.571L42.5809 35.408L43.7669 36.595L27.9999 52.374C27.0193 53.3614 26.7263 54.8404 27.2564 56.127C27.7865 57.4137 29.0364 58.257 30.4279 58.267H30.4389C31.3578 58.2674 32.2388 57.9005 32.8859 57.248L38.2459 51.888L39.4319 53.075L38.4069 54.1C37.094 55.4553 37.1112 57.6132 38.4456 58.9473C39.78 60.2814 41.9379 60.2982 43.2929 58.985L46.7649 55.514C48.112 54.1635 48.112 51.9775 46.7649 50.627L43.1299 47.007L46.9489 43.188L47.2959 46.136C47.3992 47.0451 47.8601 47.8757 48.5768 48.4443C49.2935 49.013 50.2071 49.2731 51.1159 49.167L56.9579 48.492C58.6922 48.2864 59.9989 46.8165 59.9999 45.07C60.0021 44.9324 59.9958 44.7948 59.9809 44.658C59.7519 42.7679 58.0393 41.4176 56.1479 41.636ZM50.7319 29.736C51.7083 28.7599 53.291 28.76 54.2673 29.7363C55.2435 30.7126 55.2435 32.2954 54.2673 33.2717C53.291 34.248 51.7083 34.2481 50.7319 33.272C50.2602 32.8038 49.9949 32.1667 49.9949 31.502C49.9949 30.8374 50.2602 30.2003 50.7319 29.732V29.736ZM56.7259 46.51L50.8829 47.185C50.5021 47.2306 50.1189 47.1227 49.8179 46.885C49.5169 46.6482 49.3243 46.2999 49.2839 45.919L48.8409 42.162C48.7697 41.5479 48.3532 41.0286 47.7692 40.8258C47.1851 40.6229 46.5365 40.7722 46.0999 41.21L41.0079 46.3C40.8201 46.4876 40.7146 46.7421 40.7146 47.0075C40.7146 47.2729 40.8201 47.5275 41.0079 47.715L45.3499 52.045C45.915 52.6146 45.915 53.5334 45.3499 54.103L41.8769 57.574C41.3012 58.1232 40.3956 58.1232 39.8199 57.574C39.2624 57.0017 39.2624 56.0894 39.8199 55.517L41.1199 54.217C41.4254 53.9151 41.5973 53.5035 41.5973 53.074C41.5973 52.6445 41.4254 52.2329 41.1199 51.931L39.3919 50.2C39.091 49.8931 38.6792 49.7202 38.2494 49.7202C37.8196 49.7202 37.4078 49.8931 37.1069 50.2L31.4759 55.83C31.2027 56.1089 30.8283 56.2654 30.4379 56.264C29.8542 56.2563 29.3315 55.901 29.1096 55.3611C28.8877 54.8212 29.0094 54.201 29.4189 53.785L45.4639 37.73C46.0879 37.1008 46.0879 36.0862 45.4639 35.457L43.7219 33.714C43.0936 33.0879 42.0772 33.0879 41.4489 33.714L41.0079 34.155C40.4373 34.7168 39.5215 34.7168 38.9509 34.155C38.6758 33.8837 38.521 33.5134 38.521 33.127C38.521 32.7406 38.6758 32.3704 38.9509 32.099L41.5649 29.499C42.1299 28.9342 43.0458 28.9342 43.6109 29.499L50.8239 36.699C51.0562 36.9286 51.2021 37.2313 51.2369 37.556L51.8599 42.867C51.8919 43.1998 52.0558 43.5059 52.3152 43.717C52.5745 43.928 52.9075 44.0263 53.2399 43.99L56.3809 43.622C56.7651 43.5767 57.1515 43.6859 57.4552 43.9256C57.7588 44.1653 57.9548 44.5158 57.9999 44.9C58.0029 44.957 58.0029 45.0141 57.9999 45.071C57.9986 45.8025 57.452 46.4181 56.7259 46.506V46.51Z" fill="white"/>
<path d="M1.94593 23.3461C1.39365 23.3488 0.943692 22.9034 0.940931 22.3511C0.938169 21.7988 1.38365 21.3488 1.93593 21.3461H1.94593C2.49822 21.3461 2.94593 21.7938 2.94593 22.3461C2.94593 22.8984 2.49822 23.3461 1.94593 23.3461Z" fill="white"/>
<path d="M4.95955 49.846C4.37261 50.3542 4.13274 51.156 4.34422 51.903C4.55571 52.6499 5.18035 53.207 5.94655 53.332L14.4075 54.713L15.6435 54.853C15.7192 54.8619 15.7954 54.8662 15.8715 54.866C16.4396 54.8649 16.9804 54.6223 17.3589 54.1988C17.7375 53.7752 17.918 53.2107 17.8555 52.646C17.848 52.5745 17.8326 52.5041 17.8095 52.436C17.7815 51.973 17.7045 51.275 17.5835 50.19L16.7835 42.959C16.6983 42.1957 16.1833 41.5486 15.4586 41.2941C14.7339 41.0396 13.9274 41.2226 13.3835 41.765L11.7925 43.355C8.16082 38.7541 6.48416 32.9095 7.12455 27.083C8.22339 16.9242 16.0297 8.78144 26.1331 7.2551C36.2365 5.72877 46.0998 11.2022 50.1506 20.583C50.6972 21.8687 51.952 22.7099 53.3489 22.7272C54.7459 22.7446 56.0212 21.9348 56.5996 20.663C56.9933 19.7942 57.0056 18.8003 56.6336 17.922C51.6175 6.17941 39.6194 -1.00634 26.8995 0.11403C24.2336 0.375131 21.6122 0.977386 19.0995 1.90603C16.5993 2.86109 14.2401 4.15085 12.0865 5.74003C9.91809 7.31251 7.98351 9.18447 6.34055 11.3C4.66912 13.3927 3.30038 15.7101 2.27455 18.184C2.16164 18.4299 2.15687 18.7117 2.26138 18.9612C2.3659 19.2107 2.57015 19.4051 2.82455 19.497C3.33265 19.6831 3.89846 19.4476 4.12455 18.956C5.08011 16.6494 6.35635 14.4891 7.91555 12.539C9.4477 10.5656 11.2528 8.82009 13.2765 7.35503C15.2849 5.87228 17.4853 4.66928 19.8175 3.77903C22.1577 2.916 24.5984 2.35481 27.0805 2.10903C38.938 1.06481 50.1227 7.76293 54.7996 18.709C54.9542 19.0712 54.9477 19.482 54.7816 19.839C54.5293 20.3889 53.9754 20.7374 53.3705 20.7267C52.7656 20.7161 52.2244 20.3484 51.9916 19.79C48.17 10.9333 39.506 5.14428 29.861 5.00318C20.216 4.86208 11.3863 10.3951 7.30732 19.1363C3.22834 27.8775 4.65974 38.1988 10.9635 45.5C11.1454 45.7099 11.4063 45.8346 11.6837 45.8445C11.9612 45.8544 12.2303 45.7484 12.4265 45.552L14.7995 43.179L15.8725 52.864L14.6855 52.731L6.26955 51.357L8.83455 49.136C9.03667 48.961 9.16027 48.7123 9.17775 48.4455C9.19522 48.1786 9.10511 47.916 8.92755 47.716C3.72528 41.9031 1.26606 34.138 2.17355 26.39C2.23457 25.8411 1.83902 25.3466 1.29005 25.2855C0.741075 25.2245 0.246574 25.6201 0.185546 26.169C-0.747326 34.1299 1.63461 42.124 6.77255 48.276L4.95955 49.846Z" fill="white"/>
<path d="M31.9768 11.0231C30.9757 10.0203 29.4688 9.72002 28.1598 10.2625C26.8508 10.805 25.998 12.0831 25.9998 13.5001V25.2611C25.7305 25.4834 25.483 25.7308 25.2608 26.0001H17.4998C15.5668 26.0001 13.9998 27.5671 13.9998 29.5001C13.9998 31.4331 15.5668 33.0001 17.4998 33.0001H25.2608C26.5875 34.6241 28.7224 35.3524 30.765 34.8777C32.8077 34.403 34.4027 32.808 34.8773 30.7654C35.352 28.7227 34.6238 26.5879 32.9998 25.2611V13.5001C33.0034 12.5709 32.635 11.6789 31.9768 11.0231ZM27.9998 13.5001C27.9998 12.6717 28.6713 12.0001 29.4998 12.0001C30.3282 12.0001 30.9998 12.6717 30.9998 13.5001V24.2131C30.0199 23.9291 28.9796 23.9291 27.9998 24.2131V13.5001ZM17.4998 31.0001C16.6713 31.0001 15.9998 30.3285 15.9998 29.5001C15.9998 28.6717 16.6713 28.0001 17.4998 28.0001H24.2128C23.9287 28.9799 23.9287 30.0203 24.2128 31.0001H17.4998ZM29.4998 33.0001C27.5668 33.0001 25.9998 31.4331 25.9998 29.5001C25.9998 27.5671 27.5668 26.0001 29.4998 26.0001C31.4328 26.0001 32.9998 27.5671 32.9998 29.5001C32.9998 31.4331 31.4328 33.0001 29.4998 33.0001Z" fill="white"/>
<path d="M37 39C37 38.4477 36.5523 38 36 38H24C23.4477 38 23 38.4477 23 39C23 39.5523 23.4477 40 24 40H36C36.5523 40 37 39.5523 37 39Z" fill="white"/>
<path d="M32 44C32 43.4477 31.5523 43 31 43H20C19.4477 43 19 43.4477 19 44C19 44.5523 19.4477 45 20 45H31C31.5523 45 32 44.5523 32 44Z" fill="white"/>
<path d="M26 48H21C20.4477 48 20 48.4477 20 49C20 49.5523 20.4477 50 21 50H26C26.5523 50 27 49.5523 27 49C27 48.4477 26.5523 48 26 48Z" fill="white"/>
</g>
<defs>
<clipPath id="clip0">
<rect width="60" height="60" fill="white"/>
</clipPath>
</defs>
</svg>
