<svg width="26" height="219" viewBox="0 0 26 219" fill="none" xmlns="http://www.w3.org/2000/svg">
<path d="M10.1829 202C8.86298 202 8 202.856 8 203.982C8 205.083 8.83727 205.963 10.1322 205.963H10.1573C11.503 205.963 12.3405 205.083 12.3405 203.982C12.3154 202.856 11.503 202 10.1829 202V202Z" fill="white"/>
<path d="M8.22852 207.53H12.0872V219H8.22852V207.53Z" fill="white"/>
<path d="M21.5569 207.26C19.4753 207.26 18.0795 209.193 18.0795 209.193V207.529H14.2207V219H18.0792V212.594C18.0792 212.251 18.1044 211.909 18.2064 211.664C18.4853 210.979 19.1201 210.27 20.1861 210.27C21.5824 210.27 22.1408 211.322 22.1408 212.864V219H25.9991V212.423C25.9991 208.9 24.0954 207.26 21.5569 207.26V207.26Z" fill="white"/>
<path d="M17.1904 135H8.80969C5.60621 135 3 137.606 3 140.81V149.19C3 152.394 5.60621 155 8.80969 155H17.1903C20.3938 155 23 152.394 23 149.19V140.81C23 137.606 20.3938 135 17.1904 135ZM21.4375 149.19C21.4375 151.532 19.5322 153.438 17.1904 153.438H8.80969C6.46777 153.438 4.5625 151.532 4.5625 149.19V140.81C4.5625 138.468 6.46777 136.562 8.80969 136.562H17.1903C19.5322 136.562 21.4375 138.468 21.4375 140.81V149.19Z" fill="white"/>
<path d="M13 139.609C10.0276 139.609 7.60938 142.028 7.60938 145C7.60938 147.972 10.0276 150.391 13 150.391C15.9724 150.391 18.3906 147.972 18.3906 145C18.3906 142.028 15.9724 139.609 13 139.609ZM13 148.828C10.8892 148.828 9.17188 147.111 9.17188 145C9.17188 142.889 10.8892 141.172 13 141.172C15.1108 141.172 16.8281 142.889 16.8281 145C16.8281 147.111 15.1108 148.828 13 148.828Z" fill="white"/>
<path d="M18.4688 140.312C18.9002 140.312 19.25 139.963 19.25 139.531C19.25 139.1 18.9002 138.75 18.4688 138.75C18.0373 138.75 17.6875 139.1 17.6875 139.531C17.6875 139.963 18.0373 140.312 18.4688 140.312Z" fill="white"/>
<path d="M16.5481 66.0046L13.6699 66C10.4362 66 8.34653 68.1321 8.34653 71.432V73.9365H5.45258C5.20251 73.9365 5 74.1381 5 74.3868V78.0155C5 78.2642 5.20274 78.4655 5.45258 78.4655H8.34653V87.622C8.34653 87.8707 8.54904 88.0721 8.79911 88.0721H12.5749C12.825 88.0721 13.0275 87.8705 13.0275 87.622V78.4655H16.4112C16.6613 78.4655 16.8638 78.2642 16.8638 78.0155L16.8652 74.3868C16.8652 74.2673 16.8174 74.153 16.7326 74.0685C16.6479 73.984 16.5324 73.9365 16.4123 73.9365H13.0275V71.8134C13.0275 70.7929 13.272 70.2749 14.6087 70.2749L16.5477 70.2742C16.7975 70.2742 17 70.0726 17 69.8241V66.4547C17 66.2064 16.7977 66.0051 16.5481 66.0046Z" fill="white"/>
<path d="M22.6414 2.24369C21.7994 2.6242 20.9023 2.87641 19.9669 2.99887C20.9292 2.40697 21.6636 1.47684 22.0089 0.355724C21.1117 0.906806 20.1212 1.29606 19.0655 1.51329C18.2136 0.578781 16.9995 0 15.6749 0C13.1051 0 11.0363 2.14893 11.0363 4.78333C11.0363 5.16238 11.0674 5.52685 11.1438 5.87383C7.28488 5.67993 3.87027 3.77447 1.57641 0.871816C1.17594 1.58764 0.941034 2.40697 0.941034 3.28899C0.941034 4.94515 1.76886 6.41324 3.00282 7.26319C2.25707 7.24861 1.52547 7.02556 0.905657 6.67421C0.905657 6.68879 0.905657 6.70774 0.905657 6.72669C0.905657 9.05056 2.51461 10.9808 4.62451 11.4255C4.24668 11.5319 3.83489 11.5829 3.40753 11.5829C3.11037 11.5829 2.81037 11.5654 2.52876 11.5013C3.13018 13.3951 4.83677 14.7873 6.86601 14.8325C5.28677 16.1053 3.28159 16.8721 1.11085 16.8721C0.730186 16.8721 0.365093 16.8546 0 16.8065C2.05612 18.1726 4.49291 18.9525 7.12073 18.9525C15.6622 18.9525 20.332 11.6631 20.332 5.34461C20.332 5.13322 20.3249 4.92912 20.315 4.72647C21.2362 4.05293 22.0103 3.21172 22.6414 2.24369Z" fill="white"/>
</svg>
