<svg width="105" height="139" viewBox="0 0 105 139" fill="none" xmlns="http://www.w3.org/2000/svg">
<g opacity="0.2">
<path fill-rule="evenodd" clip-rule="evenodd" d="M-77.2301 102.727C-77.2301 104.183 -78.406 105.364 -79.8553 105.364C-81.3078 105.364 -82.4836 104.183 -82.4836 102.727C-82.4836 101.268 -81.3078 100.089 -79.8553 100.089C-78.406 100.089 -77.2301 101.268 -77.2301 102.727ZM-77.2301 135.848C-77.2301 137.307 -78.406 138.485 -79.8553 138.485C-81.3078 138.485 -82.4836 137.307 -82.4836 135.848C-82.4836 134.388 -81.3078 133.21 -79.8553 133.21C-78.406 133.21 -77.2301 134.388 -77.2301 135.848ZM-77.2301 119.287C-77.2301 120.746 -78.406 121.925 -79.8553 121.925C-81.3078 121.925 -82.4836 120.746 -82.4836 119.287C-82.4836 117.828 -81.3078 116.65 -79.8553 116.65C-78.406 116.65 -77.2301 117.828 -77.2301 119.287ZM-77.2301 53.0423C-77.2301 54.5015 -78.406 55.6799 -79.8553 55.6799C-81.3078 55.6799 -82.4836 54.5015 -82.4836 53.0423C-82.4836 51.5831 -81.3078 50.4048 -79.8553 50.4048C-78.406 50.4048 -77.2301 51.5831 -77.2301 53.0423ZM-77.2301 86.1633C-77.2301 87.6225 -78.406 88.8008 -79.8553 88.8008C-81.3078 88.8008 -82.4836 87.6225 -82.4836 86.1633C-82.4836 84.7071 -81.3078 83.5257 -79.8553 83.5257C-78.406 83.5257 -77.2301 84.7071 -77.2301 86.1633ZM-77.2301 69.6028C-77.2301 71.062 -78.406 72.2404 -79.8553 72.2404C-81.3078 72.2404 -82.4836 71.062 -82.4836 69.6028C-82.4836 68.1436 -81.3078 66.9652 -79.8553 66.9652C-78.406 66.9652 -77.2301 68.1436 -77.2301 69.6028ZM-77.2301 3.15245C-77.2301 4.61166 -78.406 5.79001 -79.8553 5.79001C-81.3078 5.79001 -82.4836 4.61166 -82.4836 3.15245C-82.4836 1.6963 -81.3078 0.514893 -79.8553 0.514893C-78.406 0.514893 -77.2301 1.6963 -77.2301 3.15245ZM-77.2301 36.2761C-77.2301 37.7353 -78.406 38.9137 -79.8553 38.9137C-81.3078 38.9137 -82.4836 37.7353 -82.4836 36.2761C-82.4836 34.8169 -81.3078 33.6386 -79.8553 33.6386C-78.406 33.6386 -77.2301 34.8169 -77.2301 36.2761ZM-77.2301 19.7157C-77.2301 21.1718 -78.406 22.3532 -79.8553 22.3532C-81.3078 22.3532 -82.4836 21.1718 -82.4836 19.7157C-82.4836 18.2565 -81.3078 17.0781 -79.8553 17.0781C-78.406 17.0781 -77.2301 18.2565 -77.2301 19.7157ZM-60.3612 102.411C-60.3612 103.329 -60.8267 104.136 -61.5329 104.608C-62.0058 105.076 -62.6555 105.364 -63.3721 105.364C-64.8245 105.364 -66.0004 104.183 -66.0004 102.727C-66.0004 101.811 -65.5377 101.007 -64.8343 100.534C-64.3598 100.063 -63.7072 99.7732 -62.9865 99.7732C-61.5371 99.7732 -60.3612 100.952 -60.3612 102.411ZM-60.7468 135.848C-60.7468 137.307 -61.9227 138.485 -63.3721 138.485C-64.8245 138.485 -66.0004 137.307 -66.0004 135.848C-66.0004 134.388 -64.8245 133.21 -63.3721 133.21C-61.9227 133.21 -60.7468 134.388 -60.7468 135.848ZM-60.3612 118.971C-60.3612 119.891 -60.8281 120.7 -61.536 121.173C-62.0096 121.638 -62.6576 121.925 -63.3721 121.925C-64.8245 121.925 -66.0004 120.746 -66.0004 119.287C-66.0004 118.37 -65.5359 117.564 -64.8301 117.091C-64.357 116.623 -63.7056 116.334 -62.9865 116.334C-61.5371 116.334 -60.3612 117.515 -60.3612 118.971ZM-60.7468 3.15245C-60.7468 4.61166 -61.9227 5.79001 -63.3721 5.79001C-64.8245 5.79001 -66.0004 4.61166 -66.0004 3.15245C-66.0004 1.6963 -64.8245 0.514893 -63.3721 0.514893C-61.9227 0.514893 -60.7468 1.6963 -60.7468 3.15245ZM-60.7468 36.2761C-60.7468 37.7353 -61.9227 38.9137 -63.3721 38.9137C-64.8245 38.9137 -66.0004 37.7353 -66.0004 36.2761C-66.0004 34.8169 -64.8245 33.6386 -63.3721 33.6386C-61.9227 33.6386 -60.7468 34.8169 -60.7468 36.2761ZM-60.7468 19.7157C-60.7468 21.1718 -61.9227 22.3532 -63.3721 22.3532C-64.8245 22.3532 -66.0004 21.1718 -66.0004 19.7157C-66.0004 18.2565 -64.8245 17.0781 -63.3721 17.0781C-61.9227 17.0781 -60.7468 18.2565 -60.7468 19.7157ZM-60.7468 53.0423C-60.7468 54.5015 -61.9227 55.6799 -63.3721 55.6799C-64.8245 55.6799 -66.0004 54.5015 -66.0004 53.0423C-66.0004 51.5831 -64.8245 50.4048 -63.3721 50.4048C-61.9227 50.4048 -60.7468 51.5831 -60.7468 53.0423ZM-60.3612 85.8503C-60.3612 86.7711 -60.8295 87.5801 -61.5391 88.0517C-62.0124 88.5157 -62.6592 88.8008 -63.3721 88.8008C-64.8245 88.8008 -66.0004 87.6225 -66.0004 86.1633C-66.0004 85.2467 -65.5345 84.4389 -64.827 83.9662C-64.3542 83.5004 -63.7041 83.2128 -62.9865 83.2128C-61.5371 83.2128 -60.3612 84.3911 -60.3612 85.8503ZM-60.7468 69.6028C-60.7468 71.062 -61.9227 72.2404 -63.3721 72.2404C-64.8245 72.2404 -66.0004 71.062 -66.0004 69.6028C-66.0004 68.1436 -64.8245 66.9652 -63.3721 66.9652C-61.9227 66.9652 -60.7468 68.1436 -60.7468 69.6028ZM-44.2606 3.15245C-44.2606 4.61166 -45.4395 5.79001 -46.8858 5.79001C-48.3382 5.79001 -49.5141 4.61166 -49.5141 3.15245C-49.5141 1.6963 -48.3382 0.514893 -46.8858 0.514893C-45.4395 0.514893 -44.2606 1.6963 -44.2606 3.15245ZM-43.875 102.411C-43.875 103.329 -44.3416 104.136 -45.0479 104.608C-45.521 105.076 -46.1707 105.364 -46.8858 105.364C-48.3382 105.364 -49.5141 104.183 -49.5141 102.727C-49.5141 101.811 -49.0514 101.007 -48.348 100.534C-47.8736 100.063 -47.2209 99.7732 -46.5002 99.7732C-45.0539 99.7732 -43.875 100.952 -43.875 102.411ZM-43.875 85.8503C-43.875 86.7711 -44.3444 87.5801 -45.0542 88.0517C-45.5276 88.5157 -46.1744 88.8008 -46.8858 88.8008C-48.3382 88.8008 -49.5141 87.6225 -49.5141 86.1633C-49.5141 85.2467 -49.0482 84.4389 -48.3407 83.9662C-47.8679 83.5004 -47.2178 83.2128 -46.5002 83.2128C-45.0539 83.2128 -43.875 84.3911 -43.875 85.8503ZM-44.2606 135.848C-44.2606 137.307 -45.4395 138.485 -46.8858 138.485C-48.3382 138.485 -49.5141 137.307 -49.5141 135.848C-49.5141 134.388 -48.3382 133.21 -46.8858 133.21C-45.4395 133.21 -44.2606 134.388 -44.2606 135.848ZM-44.2606 36.2761C-44.2606 37.7353 -45.4395 38.9137 -46.8858 38.9137C-48.3382 38.9137 -49.5141 37.7353 -49.5141 36.2761C-49.5141 34.8169 -48.3382 33.6386 -46.8858 33.6386C-45.4395 33.6386 -44.2606 34.8169 -44.2606 36.2761ZM-43.875 118.971C-43.875 119.891 -44.343 120.7 -45.051 121.173C-45.5248 121.638 -46.1728 121.925 -46.8858 121.925C-48.3382 121.925 -49.5141 120.746 -49.5141 119.287C-49.5141 118.37 -49.0496 117.564 -48.3438 117.091C-47.8707 116.623 -47.2193 116.334 -46.5002 116.334C-45.0539 116.334 -43.875 117.515 -43.875 118.971ZM-44.2606 53.0423C-44.2606 54.5015 -45.4395 55.6799 -46.8858 55.6799C-48.3382 55.6799 -49.5141 54.5015 -49.5141 53.0423C-49.5141 51.5831 -48.3382 50.4048 -46.8858 50.4048C-45.4395 50.4048 -44.2606 51.5831 -44.2606 53.0423ZM-44.2606 69.6028C-44.2606 71.062 -45.4395 72.2404 -46.8858 72.2404C-48.3382 72.2404 -49.5141 71.062 -49.5141 69.6028C-49.5141 68.1436 -48.3382 66.9652 -46.8858 66.9652C-45.4395 66.9652 -44.2606 68.1436 -44.2606 69.6028ZM-44.2606 19.7157C-44.2606 21.1718 -45.4395 22.3532 -46.8858 22.3532C-48.3382 22.3532 -49.5141 21.1718 -49.5141 19.7157C-49.5141 18.2565 -48.3382 17.0781 -46.8858 17.0781C-45.4395 17.0781 -44.2606 18.2565 -44.2606 19.7157ZM-27.7773 53.0423C-27.7773 54.5015 -28.9532 55.6799 -30.4026 55.6799C-31.855 55.6799 -33.0309 54.5015 -33.0309 53.0423C-33.0309 51.5831 -31.855 50.4048 -30.4026 50.4048C-28.9532 50.4048 -27.7773 51.5831 -27.7773 53.0423ZM-27.3917 85.8503C-27.3917 86.7707 -27.8595 87.5793 -28.5686 88.051C-29.0419 88.5153 -29.6891 88.8008 -30.4026 88.8008C-31.855 88.8008 -33.0309 87.6225 -33.0309 86.1633C-33.0309 85.2479 -32.5662 84.4411 -31.8603 83.9681C-31.3856 83.5008 -30.7351 83.2128 -30.017 83.2128C-28.5676 83.2128 -27.3917 84.3911 -27.3917 85.8503ZM-27.7773 135.848C-27.7773 137.307 -28.9532 138.485 -30.4026 138.485C-31.855 138.485 -33.0309 137.307 -33.0309 135.848C-33.0309 134.388 -31.855 133.21 -30.4026 133.21C-28.9532 133.21 -27.7773 134.388 -27.7773 135.848ZM-27.7773 3.15245C-27.7773 4.61166 -28.9532 5.79001 -30.4026 5.79001C-31.855 5.79001 -33.0309 4.61166 -33.0309 3.15245C-33.0309 1.6963 -31.855 0.514893 -30.4026 0.514893C-28.9532 0.514893 -27.7773 1.6963 -27.7773 3.15245ZM-27.7773 36.2761C-27.7773 37.7353 -28.9532 38.9137 -30.4026 38.9137C-31.855 38.9137 -33.0309 37.7353 -33.0309 36.2761C-33.0309 34.8169 -31.855 33.6386 -30.4026 33.6386C-28.9532 33.6386 -27.7773 34.8169 -27.7773 36.2761ZM-27.3917 102.411C-27.3917 103.328 -27.8567 104.135 -28.5623 104.607C-29.0362 105.076 -29.686 105.364 -30.4026 105.364C-31.855 105.364 -33.0309 104.183 -33.0309 102.727C-33.0309 101.812 -32.5689 101.008 -31.8665 100.535C-31.3913 100.064 -30.7382 99.7732 -30.017 99.7732C-28.5676 99.7732 -27.3917 100.952 -27.3917 102.411ZM-27.3917 118.971C-27.3917 119.89 -27.8581 120.699 -28.5654 121.172C-29.0391 121.638 -29.6875 121.925 -30.4026 121.925C-31.855 121.925 -33.0309 120.746 -33.0309 119.287C-33.0309 118.371 -32.5676 117.566 -31.8634 117.093C-31.3884 116.624 -30.7366 116.334 -30.017 116.334C-28.5676 116.334 -27.3917 117.515 -27.3917 118.971ZM-27.7773 69.6028C-27.7773 71.062 -28.9532 72.2404 -30.4026 72.2404C-31.855 72.2404 -33.0309 71.062 -33.0309 69.6028C-33.0309 68.1436 -31.855 66.9652 -30.4026 66.9652C-28.9532 66.9652 -27.7773 68.1436 -27.7773 69.6028ZM-27.7773 19.7157C-27.7773 21.1718 -28.9532 22.3532 -30.4026 22.3532C-31.855 22.3532 -33.0309 21.1718 -33.0309 19.7157C-33.0309 18.2565 -31.855 17.0781 -30.4026 17.0781C-28.9532 17.0781 -27.7773 18.2565 -27.7773 19.7157ZM-11.294 53.0423C-11.294 54.5015 -12.4699 55.6799 -13.9193 55.6799C-15.3687 55.6799 -16.5476 54.5015 -16.5476 53.0423C-16.5476 51.5831 -15.3687 50.4048 -13.9193 50.4048C-12.4699 50.4048 -11.294 51.5831 -11.294 53.0423ZM-11.294 86.1633C-11.294 87.6225 -12.4699 88.8008 -13.9193 88.8008C-15.3687 88.8008 -16.5476 87.6225 -16.5476 86.1633C-16.5476 84.7071 -15.3687 83.5257 -13.9193 83.5257C-12.4699 83.5257 -11.294 84.7071 -11.294 86.1633ZM-11.294 102.727C-11.294 104.183 -12.4699 105.364 -13.9193 105.364C-15.3687 105.364 -16.5476 104.183 -16.5476 102.727C-16.5476 101.268 -15.3687 100.089 -13.9193 100.089C-12.4699 100.089 -11.294 101.268 -11.294 102.727ZM-11.294 69.6028C-11.294 71.062 -12.4699 72.2404 -13.9193 72.2404C-15.3687 72.2404 -16.5476 71.062 -16.5476 69.6028C-16.5476 68.1436 -15.3687 66.9652 -13.9193 66.9652C-12.4699 66.9652 -11.294 68.1436 -11.294 69.6028ZM-11.294 3.15245C-11.294 4.61166 -12.4699 5.79001 -13.9193 5.79001C-15.3687 5.79001 -16.5476 4.61166 -16.5476 3.15245C-16.5476 1.6963 -15.3687 0.514893 -13.9193 0.514893C-12.4699 0.514893 -11.294 1.6963 -11.294 3.15245ZM-11.294 135.848C-11.294 137.307 -12.4699 138.485 -13.9193 138.485C-15.3687 138.485 -16.5476 137.307 -16.5476 135.848C-16.5476 134.388 -15.3687 133.21 -13.9193 133.21C-12.4699 133.21 -11.294 134.388 -11.294 135.848ZM-11.294 36.2761C-11.294 37.7353 -12.4699 38.9137 -13.9193 38.9137C-15.3687 38.9137 -16.5476 37.7353 -16.5476 36.2761C-16.5476 34.8169 -15.3687 33.6386 -13.9193 33.6386C-12.4699 33.6386 -11.294 34.8169 -11.294 36.2761ZM-11.294 19.7157C-11.294 21.1718 -12.4699 22.3532 -13.9193 22.3532C-15.3687 22.3532 -16.5476 21.1718 -16.5476 19.7157C-16.5476 18.2565 -15.3687 17.0781 -13.9193 17.0781C-12.4699 17.0781 -11.294 18.2565 -11.294 19.7157ZM-11.294 119.287C-11.294 120.746 -12.4699 121.925 -13.9193 121.925C-15.3687 121.925 -16.5476 120.746 -16.5476 119.287C-16.5476 117.828 -15.3687 116.65 -13.9193 116.65C-12.4699 116.65 -11.294 117.828 -11.294 119.287ZM5.19193 135.848C5.19193 137.307 4.01604 138.485 2.56667 138.485C1.11427 138.485 -0.0616226 137.307 -0.0616226 135.848C-0.0616226 134.388 1.11427 133.21 2.56667 133.21C4.01604 133.21 5.19193 134.388 5.19193 135.848ZM5.19193 119.287C5.19193 120.746 4.01604 121.925 2.56667 121.925C1.11427 121.925 -0.0616226 120.746 -0.0616226 119.287C-0.0616226 117.828 1.11427 116.65 2.56667 116.65C4.01604 116.65 5.19193 117.828 5.19193 119.287ZM5.19193 53.0423C5.19193 54.5015 4.01604 55.6799 2.56667 55.6799C1.11427 55.6799 -0.0616226 54.5015 -0.0616226 53.0423C-0.0616226 51.5831 1.11427 50.4048 2.56667 50.4048C4.01604 50.4048 5.19193 51.5831 5.19193 53.0423ZM5.19193 86.1633C5.19193 87.6225 4.01604 88.8008 2.56667 88.8008C1.11427 88.8008 -0.0616226 87.6225 -0.0616226 86.1633C-0.0616226 84.7071 1.11427 83.5257 2.56667 83.5257C4.01604 83.5257 5.19193 84.7071 5.19193 86.1633ZM5.19193 69.6028C5.19193 71.062 4.01604 72.2404 2.56667 72.2404C1.11427 72.2404 -0.0616226 71.062 -0.0616226 69.6028C-0.0616226 68.1436 1.11427 66.9652 2.56667 66.9652C4.01604 66.9652 5.19193 68.1436 5.19193 69.6028ZM5.19193 102.727C5.19193 104.183 4.01604 105.364 2.56667 105.364C1.11427 105.364 -0.0616226 104.183 -0.0616226 102.727C-0.0616226 101.268 1.11427 100.089 2.56667 100.089C4.01604 100.089 5.19193 101.268 5.19193 102.727ZM5.19193 3.15245C5.19193 4.61166 4.01604 5.79001 2.56667 5.79001C1.11427 5.79001 -0.0616226 4.61166 -0.0616226 3.15245C-0.0616226 1.6963 1.11427 0.514893 2.56667 0.514893C4.01604 0.514893 5.19193 1.6963 5.19193 3.15245ZM5.19193 36.2761C5.19193 37.7353 4.01604 38.9137 2.56667 38.9137C1.11427 38.9137 -0.0616226 37.7353 -0.0616226 36.2761C-0.0616226 34.8169 1.11427 33.6386 2.56667 33.6386C4.01604 33.6386 5.19193 34.8169 5.19193 36.2761ZM5.19193 19.7157C5.19193 21.1718 4.01604 22.3532 2.56667 22.3532C1.11427 22.3532 -0.0616226 21.1718 -0.0616226 19.7157C-0.0616226 18.2565 1.11427 17.0781 2.56667 17.0781C4.01604 17.0781 5.19193 18.2565 5.19193 19.7157ZM22.0611 119.287C22.0611 120.746 20.8852 121.925 19.4358 121.925C17.9834 121.925 16.8075 120.746 16.8075 119.287C16.8075 117.828 17.9834 116.65 19.4358 116.65C20.8852 116.65 22.0611 117.828 22.0611 119.287ZM22.0611 3.15245C22.0611 4.61166 20.8852 5.79001 19.4358 5.79001C17.9834 5.79001 16.8075 4.61166 16.8075 3.15245C16.8075 1.6963 17.9834 0.514893 19.4358 0.514893C20.8852 0.514893 22.0611 1.6963 22.0611 3.15245ZM22.0611 102.727C22.0611 104.183 20.8852 105.364 19.4358 105.364C17.9834 105.364 16.8075 104.183 16.8075 102.727C16.8075 101.268 17.9834 100.089 19.4358 100.089C20.8852 100.089 22.0611 101.268 22.0611 102.727ZM22.0611 36.2761C22.0611 37.7353 20.8852 38.9137 19.4358 38.9137C17.9834 38.9137 16.8075 37.7353 16.8075 36.2761C16.8075 34.8169 17.9834 33.6386 19.4358 33.6386C20.8852 33.6386 22.0611 34.8169 22.0611 36.2761ZM22.0611 135.848C22.0611 137.307 20.8852 138.485 19.4358 138.485C17.9834 138.485 16.8075 137.307 16.8075 135.848C16.8075 134.388 17.9834 133.21 19.4358 133.21C20.8852 133.21 22.0611 134.388 22.0611 135.848ZM22.0611 69.6028C22.0611 71.062 20.8852 72.2404 19.4358 72.2404C17.9834 72.2404 16.8075 71.062 16.8075 69.6028C16.8075 68.1436 17.9834 66.9652 19.4358 66.9652C20.8852 66.9652 22.0611 68.1436 22.0611 69.6028ZM22.0611 53.0423C22.0611 54.5015 20.8852 55.6799 19.4358 55.6799C17.9834 55.6799 16.8075 54.5015 16.8075 53.0423C16.8075 51.5831 17.9834 50.4048 19.4358 50.4048C20.8852 50.4048 22.0611 51.5831 22.0611 53.0423ZM22.0611 86.1633C22.0611 87.6225 20.8852 88.8008 19.4358 88.8008C17.9834 88.8008 16.8075 87.6225 16.8075 86.1633C16.8075 84.7071 17.9834 83.5257 19.4358 83.5257C20.8852 83.5257 22.0611 84.7071 22.0611 86.1633ZM22.0611 19.7157C22.0611 21.1718 20.8852 22.3532 19.4358 22.3532C17.9834 22.3532 16.8075 21.1718 16.8075 19.7157C16.8075 18.2565 17.9834 17.0781 19.4358 17.0781C20.8852 17.0781 22.0611 18.2565 22.0611 19.7157ZM38.5474 19.7157C38.5474 21.1718 37.3684 22.3532 35.9221 22.3532C34.4697 22.3532 33.2938 21.1718 33.2938 19.7157C33.2938 18.2565 34.4697 17.0781 35.9221 17.0781C37.3684 17.0781 38.5474 18.2565 38.5474 19.7157ZM38.5474 135.848C38.5474 137.307 37.3684 138.485 35.9221 138.485C34.4697 138.485 33.2938 137.307 33.2938 135.848C33.2938 134.388 34.4697 133.21 35.9221 133.21C37.3684 133.21 38.5474 134.388 38.5474 135.848ZM38.5474 86.1633C38.5474 87.6225 37.3684 88.8008 35.9221 88.8008C34.4697 88.8008 33.2938 87.6225 33.2938 86.1633C33.2938 84.7071 34.4697 83.5257 35.9221 83.5257C37.3684 83.5257 38.5474 84.7071 38.5474 86.1633ZM38.5474 119.287C38.5474 120.746 37.3684 121.925 35.9221 121.925C34.4697 121.925 33.2938 120.746 33.2938 119.287C33.2938 117.828 34.4697 116.65 35.9221 116.65C37.3684 116.65 38.5474 117.828 38.5474 119.287ZM38.5474 102.727C38.5474 104.183 37.3684 105.364 35.9221 105.364C34.4697 105.364 33.2938 104.183 33.2938 102.727C33.2938 101.268 34.4697 100.089 35.9221 100.089C37.3684 100.089 38.5474 101.268 38.5474 102.727ZM38.5474 53.0423C38.5474 54.5015 37.3684 55.6799 35.9221 55.6799C34.4697 55.6799 33.2938 54.5015 33.2938 53.0423C33.2938 51.5831 34.4697 50.4048 35.9221 50.4048C37.3684 50.4048 38.5474 51.5831 38.5474 53.0423ZM38.5474 3.15245C38.5474 4.61166 37.3684 5.79001 35.9221 5.79001C34.4697 5.79001 33.2938 4.61166 33.2938 3.15245C33.2938 1.6963 34.4697 0.514893 35.9221 0.514893C37.3684 0.514893 38.5474 1.6963 38.5474 3.15245ZM38.5474 69.6028C38.5474 71.062 37.3684 72.2404 35.9221 72.2404C34.4697 72.2404 33.2938 71.062 33.2938 69.6028C33.2938 68.1436 34.4697 66.9652 35.9221 66.9652C37.3684 66.9652 38.5474 68.1436 38.5474 69.6028ZM38.5474 36.2761C38.5474 37.7353 37.3684 38.9137 35.9221 38.9137C34.4697 38.9137 33.2938 37.7353 33.2938 36.2761C33.2938 34.8169 34.4697 33.6386 35.9221 33.6386C37.3684 33.6386 38.5474 34.8169 38.5474 36.2761ZM55.0306 19.7157C55.0306 21.1718 53.8547 22.3532 52.4053 22.3532C50.9529 22.3532 49.7771 21.1718 49.7771 19.7157C49.7771 18.2565 50.9529 17.0781 52.4053 17.0781C53.8547 17.0781 55.0306 18.2565 55.0306 19.7157ZM55.0306 135.848C55.0306 137.307 53.8547 138.485 52.4053 138.485C50.9529 138.485 49.7771 137.307 49.7771 135.848C49.7771 134.388 50.9529 133.21 52.4053 133.21C53.8547 133.21 55.0306 134.388 55.0306 135.848ZM55.0306 36.2761C55.0306 37.7353 53.8547 38.9137 52.4053 38.9137C50.9529 38.9137 49.7771 37.7353 49.7771 36.2761C49.7771 34.8169 50.9529 33.6386 52.4053 33.6386C53.8547 33.6386 55.0306 34.8169 55.0306 36.2761ZM55.0306 119.287C55.0306 120.746 53.8547 121.925 52.4053 121.925C50.9529 121.925 49.7771 120.746 49.7771 119.287C49.7771 117.828 50.9529 116.65 52.4053 116.65C53.8547 116.65 55.0306 117.828 55.0306 119.287ZM55.0306 69.6028C55.0306 71.062 53.8547 72.2404 52.4053 72.2404C50.9529 72.2404 49.7771 71.062 49.7771 69.6028C49.7771 68.1436 50.9529 66.9652 52.4053 66.9652C53.8547 66.9652 55.0306 68.1436 55.0306 69.6028ZM55.0306 86.1633C55.0306 87.6225 53.8547 88.8008 52.4053 88.8008C50.9529 88.8008 49.7771 87.6225 49.7771 86.1633C49.7771 84.7071 50.9529 83.5257 52.4053 83.5257C53.8547 83.5257 55.0306 84.7071 55.0306 86.1633ZM55.0306 102.727C55.0306 104.183 53.8547 105.364 52.4053 105.364C50.9529 105.364 49.7771 104.183 49.7771 102.727C49.7771 101.268 50.9529 100.089 52.4053 100.089C53.8547 100.089 55.0306 101.268 55.0306 102.727ZM55.0306 3.15245C55.0306 4.61166 53.8547 5.79001 52.4053 5.79001C50.9529 5.79001 49.7771 4.61166 49.7771 3.15245C49.7771 1.6963 50.9529 0.514893 52.4053 0.514893C53.8547 0.514893 55.0306 1.6963 55.0306 3.15245ZM55.0306 53.0423C55.0306 54.5015 53.8547 55.6799 52.4053 55.6799C50.9529 55.6799 49.7771 54.5015 49.7771 53.0423C49.7771 51.5831 50.9529 50.4048 52.4053 50.4048C53.8547 50.4048 55.0306 51.5831 55.0306 53.0423ZM71.5139 3.15245C71.5139 4.61166 70.338 5.79001 68.8886 5.79001C67.4392 5.79001 66.2603 4.61166 66.2603 3.15245C66.2603 1.6963 67.4392 0.514893 68.8886 0.514893C70.338 0.514893 71.5139 1.6963 71.5139 3.15245ZM71.5139 102.727C71.5139 104.183 70.338 105.364 68.8886 105.364C67.4392 105.364 66.2603 104.183 66.2603 102.727C66.2603 101.268 67.4392 100.089 68.8886 100.089C70.338 100.089 71.5139 101.268 71.5139 102.727ZM71.5139 53.0423C71.5139 54.5015 70.338 55.6799 68.8886 55.6799C67.4392 55.6799 66.2603 54.5015 66.2603 53.0423C66.2603 51.5831 67.4392 50.4048 68.8886 50.4048C70.338 50.4048 71.5139 51.5831 71.5139 53.0423ZM71.5139 36.2761C71.5139 37.7353 70.338 38.9137 68.8886 38.9137C67.4392 38.9137 66.2603 37.7353 66.2603 36.2761C66.2603 34.8169 67.4392 33.6386 68.8886 33.6386C70.338 33.6386 71.5139 34.8169 71.5139 36.2761ZM71.5139 86.1633C71.5139 87.6225 70.338 88.8008 68.8886 88.8008C67.4392 88.8008 66.2603 87.6225 66.2603 86.1633C66.2603 84.7071 67.4392 83.5257 68.8886 83.5257C70.338 83.5257 71.5139 84.7071 71.5139 86.1633ZM71.5139 19.7157C71.5139 21.1718 70.338 22.3532 68.8886 22.3532C67.4392 22.3532 66.2603 21.1718 66.2603 19.7157C66.2603 18.2565 67.4392 17.0781 68.8886 17.0781C70.338 17.0781 71.5139 18.2565 71.5139 19.7157ZM71.5139 69.6028C71.5139 71.062 70.338 72.2404 68.8886 72.2404C67.4392 72.2404 66.2603 71.062 66.2603 69.6028C66.2603 68.1436 67.4392 66.9652 68.8886 66.9652C70.338 66.9652 71.5139 68.1436 71.5139 69.6028ZM71.5139 119.287C71.5139 120.746 70.338 121.925 68.8886 121.925C67.4392 121.925 66.2603 120.746 66.2603 119.287C66.2603 117.828 67.4392 116.65 68.8886 116.65C70.338 116.65 71.5139 117.828 71.5139 119.287ZM71.5139 135.848C71.5139 137.307 70.338 138.485 68.8886 138.485C67.4392 138.485 66.2603 137.307 66.2603 135.848C66.2603 134.388 67.4392 133.21 68.8886 133.21C70.338 133.21 71.5139 134.388 71.5139 135.848ZM88.0001 102.727C88.0001 104.183 86.8243 105.364 85.3749 105.364C83.9225 105.364 82.7466 104.183 82.7466 102.727C82.7466 101.268 83.9225 100.089 85.3749 100.089C86.8243 100.089 88.0001 101.268 88.0001 102.727ZM88.0001 135.848C88.0001 137.307 86.8243 138.485 85.3749 138.485C83.9225 138.485 82.7466 137.307 82.7466 135.848C82.7466 134.388 83.9225 133.21 85.3749 133.21C86.8243 133.21 88.0001 134.388 88.0001 135.848ZM88.0001 19.7157C88.0001 21.1718 86.8243 22.3532 85.3749 22.3532C83.9225 22.3532 82.7466 21.1718 82.7466 19.7157C82.7466 18.2565 83.9225 17.0781 85.3749 17.0781C86.8243 17.0781 88.0001 18.2565 88.0001 19.7157ZM88.0001 119.287C88.0001 120.746 86.8243 121.925 85.3749 121.925C83.9225 121.925 82.7466 120.746 82.7466 119.287C82.7466 117.828 83.9225 116.65 85.3749 116.65C86.8243 116.65 88.0001 117.828 88.0001 119.287ZM88.0001 53.0423C88.0001 54.5015 86.8243 55.6799 85.3749 55.6799C83.9225 55.6799 82.7466 54.5015 82.7466 53.0423C82.7466 51.5831 83.9225 50.4048 85.3749 50.4048C86.8243 50.4048 88.0001 51.5831 88.0001 53.0423ZM88.0001 86.1633C88.0001 87.6225 86.8243 88.8008 85.3749 88.8008C83.9225 88.8008 82.7466 87.6225 82.7466 86.1633C82.7466 84.7071 83.9225 83.5257 85.3749 83.5257C86.8243 83.5257 88.0001 84.7071 88.0001 86.1633ZM88.0001 69.6028C88.0001 71.062 86.8243 72.2404 85.3749 72.2404C83.9225 72.2404 82.7466 71.062 82.7466 69.6028C82.7466 68.1436 83.9225 66.9652 85.3749 66.9652C86.8243 66.9652 88.0001 68.1436 88.0001 69.6028ZM88.0001 3.15245C88.0001 4.61166 86.8243 5.79001 85.3749 5.79001C83.9225 5.79001 82.7466 4.61166 82.7466 3.15245C82.7466 1.6963 83.9225 0.514893 85.3749 0.514893C86.8243 0.514893 88.0001 1.6963 88.0001 3.15245ZM88.0001 36.2761C88.0001 37.7353 86.8243 38.9137 85.3749 38.9137C83.9225 38.9137 82.7466 37.7353 82.7466 36.2761C82.7466 34.8169 83.9225 33.6386 85.3749 33.6386C86.8243 33.6386 88.0001 34.8169 88.0001 36.2761ZM104.483 102.727C104.483 104.183 103.308 105.364 101.858 105.364C100.406 105.364 99.2298 104.183 99.2298 102.727C99.2298 101.268 100.406 100.089 101.858 100.089C103.308 100.089 104.483 101.268 104.483 102.727ZM104.483 135.848C104.483 137.307 103.308 138.485 101.858 138.485C100.406 138.485 99.2298 137.307 99.2298 135.848C99.2298 134.388 100.406 133.21 101.858 133.21C103.308 133.21 104.483 134.388 104.483 135.848ZM104.483 119.287C104.483 120.746 103.308 121.925 101.858 121.925C100.406 121.925 99.2298 120.746 99.2298 119.287C99.2298 117.828 100.406 116.65 101.858 116.65C103.308 116.65 104.483 117.828 104.483 119.287ZM104.483 53.0423C104.483 54.5015 103.308 55.6799 101.858 55.6799C100.406 55.6799 99.2298 54.5015 99.2298 53.0423C99.2298 51.5831 100.406 50.4048 101.858 50.4048C103.308 50.4048 104.483 51.5831 104.483 53.0423ZM104.483 86.1633C104.483 87.6225 103.308 88.8008 101.858 88.8008C100.406 88.8008 99.2298 87.6225 99.2298 86.1633C99.2298 84.7071 100.406 83.5257 101.858 83.5257C103.308 83.5257 104.483 84.7071 104.483 86.1633ZM104.483 69.6028C104.483 71.062 103.308 72.2404 101.858 72.2404C100.406 72.2404 99.2298 71.062 99.2298 69.6028C99.2298 68.1436 100.406 66.9652 101.858 66.9652C103.308 66.9652 104.483 68.1436 104.483 69.6028ZM104.483 3.15245C104.483 4.61166 103.308 5.79001 101.858 5.79001C100.406 5.79001 99.2298 4.61166 99.2298 3.15245C99.2298 1.6963 100.406 0.514893 101.858 0.514893C103.308 0.514893 104.483 1.6963 104.483 3.15245ZM104.483 36.2761C104.483 37.7353 103.308 38.9137 101.858 38.9137C100.406 38.9137 99.2298 37.7353 99.2298 36.2761C99.2298 34.8169 100.406 33.6386 101.858 33.6386C103.308 33.6386 104.483 34.8169 104.483 36.2761ZM104.483 19.7157C104.483 21.1718 103.308 22.3532 101.858 22.3532C100.406 22.3532 99.2298 21.1718 99.2298 19.7157C99.2298 18.2565 100.406 17.0781 101.858 17.0781C103.308 17.0781 104.483 18.2565 104.483 19.7157Z" fill="#4461D7"/>
</g>
</svg>
