<svg width="18" height="19" viewBox="0 0 18 19" fill="none" xmlns="http://www.w3.org/2000/svg">
<path d="M9 18.0688C13.9706 18.0688 18 14.0427 18 9.07617C18 4.10965 13.9706 0.0834961 9 0.0834961C4.02944 0.0834961 0 4.10965 0 9.07617C0 14.0427 4.02944 18.0688 9 18.0688Z" fill="#333333"/>
<path fill-rule="evenodd" clip-rule="evenodd" d="M12.5968 6.37853C12.3526 6.37476 12.1154 6.46655 11.9337 6.63755C9.56099 8.68084 9.87483 9.1159 7.5965 11.2485C7.28856 10.9014 6.98533 10.5468 6.71042 10.1696C6.54288 9.91938 6.4013 9.65281 6.28803 9.37115C5.86445 8.25835 4.00734 9.08824 4.62441 10.2891C4.92056 11.041 6.69626 13.5495 7.48442 13.5721C8.88256 13.6124 10.5131 10.3884 13.2056 8.07225C13.5843 7.6988 13.5997 7.0789 13.2398 6.68534C13.0687 6.5005 12.8363 6.3911 12.5897 6.38104L12.5968 6.37853Z" fill="white"/>
</svg>
