<svg width="41" height="39" viewBox="0 0 41 39" fill="none" xmlns="http://www.w3.org/2000/svg">
<path d="M31.6414 12.2437C30.7994 12.6242 29.9023 12.8764 28.9669 12.9989C29.9292 12.407 30.6636 11.4768 31.0089 10.3557C30.1117 10.9068 29.1212 11.2961 28.0655 11.5133C27.2136 10.5788 25.9995 10 24.6749 10C22.1051 10 20.0363 12.1489 20.0363 14.7833C20.0363 15.1624 20.0674 15.5268 20.1438 15.8738C16.2849 15.6799 12.8703 13.7745 10.5764 10.8718C10.1759 11.5876 9.94103 12.407 9.94103 13.289C9.94103 14.9452 10.7689 16.4132 12.0028 17.2632C11.2571 17.2486 10.5255 17.0256 9.90566 16.6742C9.90566 16.6888 9.90566 16.7077 9.90566 16.7267C9.90566 19.0506 11.5146 20.9808 13.6245 21.4255C13.2467 21.5319 12.8349 21.5829 12.4075 21.5829C12.1104 21.5829 11.8104 21.5654 11.5288 21.5013C12.1302 23.3951 13.8368 24.7873 15.866 24.8325C14.2868 26.1053 12.2816 26.8721 10.1108 26.8721C9.73019 26.8721 9.36509 26.8546 9 26.8065C11.0561 28.1726 13.4929 28.9525 16.1207 28.9525C24.6622 28.9525 29.332 21.6631 29.332 15.3446C29.332 15.1332 29.3249 14.9291 29.315 14.7265C30.2362 14.0529 31.0103 13.2117 31.6414 12.2437Z" fill="white"/>
<path d="M40.5 19.5C40.5 29.9701 31.5696 38.5 20.5 38.5C9.43045 38.5 0.5 29.9701 0.5 19.5C0.5 9.02986 9.43045 0.5 20.5 0.5C31.5696 0.5 40.5 9.02986 40.5 19.5Z" stroke="white"/>
</svg>
